<svg id="Layer_1" data-name="Layer 1" xmlns="http://www.w3.org/2000/svg" viewBox="0 0 1791.36 243.36"><defs><style>.cls-1{fill:none;stroke:#000;stroke-width:6px;}</style></defs><title>2x4</title><path class="cls-1" d="M123.18,167H18.3l-8.64,2.4-6-16.8C37.5,138.7,75.9,119.5,75.9,88.06c0-15.84-8.88-25-26.16-25-9.36,0-15.84,2.64-24,7.92l-4.08,9.84H11.1V57.34C22.38,49.9,37.26,40.78,60.54,40.78c28.8,0,49.2,14.88,49.2,38.88,0,9.6-2.64,18-4.8,22.08-16.08,16.32-29,23.52-53.52,38.64l79.2,4.32Z"/><path class="cls-1" d="M201.69,112.15L168.59,146.6,156,134l34.45-33.09L156.2,68.37l12.56-12.56,32.58,34.28,33.09-34.45L247,68.2l-34.45,33.09,33.6,31.91-12.56,12.56Z"/><path class="cls-1" d="M378.54,148.54L379,197l-31.44,5.52,0.24-53-65.28,5-6.48-16.8,69.36-91.68,35-4.32L378.54,53.5v79.68h35.28v12.48Zm-30-80.16-49.2,64.8h48.48V97.42a244.46,244.46,0,0,1,1.92-28.56Z"/></svg>