<svg id="Layer_1" data-name="Layer 1" xmlns="http://www.w3.org/2000/svg" viewBox="0 0 2872.4 1979.8"><title>about</title><path d="M11.2,3.8h26L72,97,106.8,3.8h26v140h-22V49.4L79.8,131H64.2l-31-81.6v94.4h-22V3.8Z"/><path d="M201,81.8h17.4V77.4c0-12.6-9-17.6-19.6-17.6-8.2,0-15.4,4.4-18.8,13.4l-19-4c4.2-17,18.6-27.8,38-27.8,23.4,0,40.2,10.2,40.2,39.8v62.6H221.6l-2-13.2c-6.6,9.2-17,14.8-31.2,14.8-16.8,0-31-9.6-31-30.6C157.4,94,175.2,81.8,201,81.8ZM192,127c12.8,0,26.4-8.2,26.4-25.6V99.2H200.2c-12.8,0-20.8,6-20.8,15.6C179.4,121.6,183.2,127,192,127Z"/><path d="M264.8,143.8V43h20.8V59.8c7-12,19-18.4,29.8-18.4a34.65,34.65,0,0,1,12.8,2.4l-3.6,19a23,23,0,0,0-11.8-3c-13.4,0-27.2,14.8-27.2,46.6v37.4H264.8Z"/><path d="M356.8,0a14.38,14.38,0,0,1,14.4,14.6,14.4,14.4,0,0,1-28.8,0A14.38,14.38,0,0,1,356.8,0Zm10.4,43V143.8H346.4V43h20.8Z"/><path d="M434.8,81.8h17.4V77.4c0-12.6-9-17.6-19.6-17.6-8.2,0-15.4,4.4-18.8,13.4l-19-4c4.2-17,18.6-27.8,38-27.8,23.4,0,40.2,10.2,40.2,39.8v62.6H455.4l-2-13.2c-6.6,9.2-17,14.8-31.2,14.8-16.8,0-31-9.6-31-30.6C391.2,94,409,81.8,434.8,81.8Zm-9,45.2c12.8,0,26.4-8.2,26.4-25.6V99.2H434c-12.8,0-20.8,6-20.8,15.6C413.2,121.6,417,127,425.8,127Z"/><path d="M601.59,3.8h22V98.4c0,33.8-19.6,47-42.8,47-25,0-39.8-16.8-42.8-36.8l22.2-4.6c2.4,12.8,9.4,20.6,20.6,20.6,12.6,0,20.8-6,20.8-25.2V3.8Z"/><path d="M662.39,0a14.38,14.38,0,0,1,14.4,14.6,14.4,14.4,0,0,1-28.8,0A14.38,14.38,0,0,1,662.39,0Zm10.4,43V143.8H652V43h20.8Z"/><path d="M817.19,57.4L804,69c-5-6.4-11.2-9.2-17.6-9.2-5.2,0-10,3.4-10,10,0,7.2,7.6,10.4,18,14.4,13.6,5.2,28.2,11.2,28.2,29.2,0,17.4-13.4,32-35,32-20.8,0-33.8-14.4-39-27l17.6-9.6c4,9,11,18.2,22.2,18.2,8,0,13.6-4,13.6-13.2,0-8.8-12.2-11.2-24-16.2-11.6-4.8-21.6-12.2-21.6-27.6,0-15.6,12.8-28.6,31-28.6A35.17,35.17,0,0,1,817.19,57.4Z"/><path d="M833.59,43h16.8V15.2l20.8-13V43h26.2V61.4h-26.2v49.2c0,11.4,4.2,16.4,13.4,16.4a16.14,16.14,0,0,0,9.6-2.8l5.4,17.6a36,36,0,0,1-16.2,3.6c-19,0-33-11.2-33-36v-48h-16.8V43Z"/><path d="M980.39,143.8V126.6c-7.2,12-19.2,18.8-32.6,18.8-17.6,0-29.6-10.6-29.6-30.2V43H939v65.6c0,13.6,6.2,18.4,15.6,18.4,13,0,25.8-15.4,25.8-43.2V43h20.8V143.8h-20.8Z"/><path d="M1070.39,41.4c10,0,22.4,6.2,27,12.8V2.2h20.8V143.8h-20.8V132.2c-3.4,5.8-14.2,13.2-27.4,13.2-29.8,0-45-19.8-45-52C1025,62.2,1040.19,41.4,1070.39,41.4Zm2.4,85.6c15,0,25.8-12.8,25.8-33.6s-10.8-33.6-25.8-33.6S1047,72.6,1047,93.4,1057.79,127,1072.79,127Z"/><path d="M1156.19,0a14.38,14.38,0,0,1,14.4,14.6,14.4,14.4,0,0,1-28.8,0A14.38,14.38,0,0,1,1156.19,0Zm10.4,43V143.8h-20.8V43h20.8Z"/><path d="M1282.39,99.2H1211c0,14.8,8.6,27.8,25,27.8a29,29,0,0,0,26.4-17l17.8,7c-9.8,19-21.2,28.4-44.2,28.4-33.2,0-47-28-47-52s13.8-52,47-52c32.2,0,46.4,26.2,46.4,48.8v9Zm-71-17.4h49c-1.8-11.2-9.4-22-24.4-22C1222.19,59.8,1213.59,69.2,1211.39,81.8Z"/><path d="M1367.59,57.4L1354.39,69c-5-6.4-11.2-9.2-17.6-9.2-5.2,0-10,3.4-10,10,0,7.2,7.6,10.4,18,14.4,13.6,5.2,28.2,11.2,28.2,29.2,0,17.4-13.4,32-35,32-20.8,0-33.8-14.4-39-27l17.6-9.6c4,9,11,18.2,22.2,18.2,8,0,13.6-4,13.6-13.2,0-8.8-12.2-11.2-24-16.2-11.6-4.8-21.6-12.2-21.6-27.6,0-15.6,12.8-28.6,31-28.6A35.17,35.17,0,0,1,1367.59,57.4Z"/><path d="M1486,41.4a39.67,39.67,0,0,1,18.4,4.4l18.6-10,8.4,15-13.6,7.6a32.82,32.82,0,0,1,4.4,16.8c0,21.2-15.8,33.8-36.2,33.8a45,45,0,0,1-16.2-3,9.61,9.61,0,0,0-5.4,8.8c0,5.4,3.4,7.8,10.4,7.8H1497c19.8,0,33.4,9.8,33.4,28.8,0,25-21.6,34.8-44.2,34.8-25.4,0-44.4-11.2-44.4-33.2a27.18,27.18,0,0,1,8.6-20.4c-3.6-3.6-5.8-8.8-5.8-15.8,0-9,4.8-16.2,12.2-20.4-4.4-5.4-6.8-12.6-6.8-21.2C1450,54.2,1465.59,41.4,1486,41.4Zm-9.6,98.8a82.34,82.34,0,0,1-10.2-.6c-3,3.2-4.4,7-4.4,12.2,0,10,9,16.4,24.4,16.4,14.4,0,23-5.4,23-15.2,0-9.6-6.8-12.8-16.6-12.8h-16.2Zm9.6-48.6c9.4,0,16-6.4,16-16.4s-6.6-16.4-16-16.4c-9.2,0-15.8,6.4-15.8,16.4S1476.79,91.6,1486,91.6Z"/><path d="M1552,143.8V43h20.8V59.8c7-12,19-18.4,29.8-18.4a34.65,34.65,0,0,1,12.8,2.4l-3.6,19a23,23,0,0,0-11.8-3c-13.4,0-27.2,14.8-27.2,46.6v37.4H1552Z"/><path d="M1666.78,81.8h17.4V77.4c0-12.6-9-17.6-19.6-17.6-8.2,0-15.4,4.4-18.8,13.4l-19-4c4.2-17,18.6-27.8,38-27.8,23.4,0,40.2,10.2,40.2,39.8v62.6h-17.6l-2-13.2c-6.6,9.2-17,14.8-31.2,14.8-16.8,0-31-9.6-31-30.6C1623.18,94,1641,81.8,1666.78,81.8Zm-9,45.2c12.8,0,26.4-8.2,26.4-25.6V99.2H1666c-12.8,0-20.8,6-20.8,15.6C1645.18,121.6,1649,127,1657.78,127Z"/><path d="M1779.18,145.4c-12.4,0-22.4-6.2-27-12.8v52h-20.8V43h20.8V54.6c3.4-5.8,14.2-13.2,27.4-13.2,29.8,0,45,19.8,45,52C1824.58,124.6,1809.38,145.4,1779.18,145.4Zm-2.4-85.6c-15,0-25.8,12.8-25.8,33.6s10.8,33.6,25.8,33.6,25.8-12.8,25.8-33.6S1791.78,59.8,1776.78,59.8Z"/><path d="M1870.78,2.2v58c7.2-10.4,18.8-18.8,34-18.8,18.6,0,29.8,10,29.8,31.4v71h-20.8V78.2c0-15.4-6.4-18.4-15.8-18.4-11.4,0-27.2,14.6-27.2,41.4v42.6H1850V2.2h20.8Z"/><path d="M1971.79,0a14.38,14.38,0,0,1,14.4,14.6,14.4,14.4,0,0,1-28.8,0A14.38,14.38,0,0,1,1971.79,0Zm10.4,43V143.8h-20.8V43h20.8Z"/><path d="M2095.59,117.6c-8,18.2-22.2,27.8-43.6,27.8-32,0-47.4-24.4-47.4-52s15.4-52,47.4-52c21.4,0,35.6,9.6,43.6,27.8l-18.6,8c-4.8-10.8-13-17.4-25-17.4-17.8,0-25.4,14.6-25.4,33.6s7.6,33.6,25.4,33.6c12,0,20.2-6.6,25-17.4Z"/><path d="M2210,41.4c10,0,22.4,6.2,27,12.8V2.2h20.8V143.8H2237V132.2c-3.4,5.8-14.2,13.2-27.4,13.2-29.8,0-45-19.8-45-52C2164.58,62.2,2179.78,41.4,2210,41.4Zm2.4,85.6c15,0,25.8-12.8,25.8-33.6s-10.8-33.6-25.8-33.6-25.8,12.8-25.8,33.6S2197.38,127,2212.38,127Z"/><path d="M2374.18,99.2h-71.4c0,14.8,8.6,27.8,25,27.8a29,29,0,0,0,26.4-17l17.8,7c-9.8,19-21.2,28.4-44.2,28.4-33.2,0-47-28-47-52s13.8-52,47-52c32.2,0,46.4,26.2,46.4,48.8v9Zm-71-17.4h49c-1.8-11.2-9.4-22-24.4-22C2314,59.8,2305.38,69.2,2303.18,81.8Z"/><path d="M2459.38,57.4L2446.18,69c-5-6.4-11.2-9.2-17.6-9.2-5.2,0-10,3.4-10,10,0,7.2,7.6,10.4,18,14.4,13.6,5.2,28.2,11.2,28.2,29.2,0,17.4-13.4,32-35,32-20.8,0-33.8-14.4-39-27l17.6-9.6c4,9,11,18.2,22.2,18.2,8,0,13.6-4,13.6-13.2,0-8.8-12.2-11.2-24-16.2-11.6-4.8-21.6-12.2-21.6-27.6,0-15.6,12.8-28.6,31-28.6A35.17,35.17,0,0,1,2459.38,57.4Z"/><path d="M2495.38,0a14.38,14.38,0,0,1,14.4,14.6,14.4,14.4,0,0,1-28.8,0A14.38,14.38,0,0,1,2495.38,0Zm10.4,43V143.8H2485V43h20.8Z"/><path d="M2570.18,41.4a39.67,39.67,0,0,1,18.4,4.4l18.6-10,8.4,15L2602,58.4a32.82,32.82,0,0,1,4.4,16.8c0,21.2-15.8,33.8-36.2,33.8a45,45,0,0,1-16.2-3,9.61,9.61,0,0,0-5.4,8.8c0,5.4,3.4,7.8,10.4,7.8h22.2c19.8,0,33.4,9.8,33.4,28.8,0,25-21.6,34.8-44.2,34.8-25.4,0-44.4-11.2-44.4-33.2a27.18,27.18,0,0,1,8.6-20.4c-3.6-3.6-5.8-8.8-5.8-15.8,0-9,4.8-16.2,12.2-20.4-4.4-5.4-6.8-12.6-6.8-21.2C2534.18,54.2,2549.78,41.4,2570.18,41.4Zm-9.6,98.8a82.34,82.34,0,0,1-10.2-.6c-3,3.2-4.4,7-4.4,12.2,0,10,9,16.4,24.4,16.4,14.4,0,23-5.4,23-15.2,0-9.6-6.8-12.8-16.6-12.8h-16.2Zm9.6-48.6c9.4,0,16-6.4,16-16.4s-6.6-16.4-16-16.4c-9.2,0-15.8,6.4-15.8,16.4S2561,91.6,2570.18,91.6Z"/><path d="M2657,43V60.2c7.2-12,19.2-18.8,32.6-18.8,17.6,0,29.6,10.6,29.6,30.2v72.2h-20.8V78.2c0-13.6-6.2-18.4-15.6-18.4-13,0-25.8,15.4-25.8,43.2v40.8h-20.8V43H2657Z"/><path d="M44.8,285.8H62.2v-4.4c0-12.6-9-17.6-19.6-17.6-8.2,0-15.4,4.4-18.8,13.4l-19-4c4.2-17,18.6-27.8,38-27.8,23.4,0,40.2,10.2,40.2,39.8v62.6H65.4l-2-13.2c-6.6,9.2-17,14.8-31.2,14.8-16.8,0-31-9.6-31-30.6C1.2,298,19,285.8,44.8,285.8Zm-9,45.2c12.8,0,26.4-8.2,26.4-25.6v-2.2H44c-12.8,0-20.8,6-20.8,15.6C23.2,325.6,27,331,35.8,331Z"/><path d="M131.2,247v17.2c7.2-12,19.2-18.8,32.6-18.8,17.6,0,29.6,10.6,29.6,30.2v72.2H172.6V282.2c0-13.6-6.2-18.4-15.6-18.4-13,0-25.8,15.4-25.8,43.2v40.8H110.4V247h20.8Z"/><path d="M260,245.4c10,0,22.4,6.2,27,12.8v-52h20.8V347.8H287V336.2c-3.4,5.8-14.2,13.2-27.4,13.2-29.8,0-45-19.8-45-52C214.6,266.2,229.8,245.4,260,245.4Zm2.4,85.6c15,0,25.8-12.8,25.8-33.6s-10.8-33.6-25.8-33.6-25.8,12.8-25.8,33.6S247.4,331,262.4,331Z"/><path d="M453.2,261.4L440,273c-5-6.4-11.2-9.2-17.6-9.2-5.2,0-10,3.4-10,10,0,7.2,7.6,10.4,18,14.4,13.6,5.2,28.2,11.2,28.2,29.2,0,17.4-13.4,32-35,32-20.8,0-33.8-14.4-39-27l17.6-9.6c4,9,11,18.2,22.2,18.2,8,0,13.6-4,13.6-13.2,0-8.8-12.2-11.2-24-16.2-11.6-4.8-21.6-12.2-21.6-27.6,0-15.6,12.8-28.6,31-28.6A35.17,35.17,0,0,1,453.2,261.4Z"/><path d="M525.4,245.4c31.2,0,49.6,23.6,49.6,52s-18.4,52-49.6,52-49.6-23.6-49.6-52S494.2,245.4,525.4,245.4Zm0,85.6c18.2,0,27.6-16.6,27.6-33.6s-9.4-33.6-27.6-33.6-27.6,16.6-27.6,33.6S507.2,331,525.4,331Z"/><path d="M684.8,321.6c-8,18.2-22.2,27.8-43.6,27.8-32,0-47.4-24.4-47.4-52s15.4-52,47.4-52c21.4,0,35.6,9.6,43.6,27.8l-18.6,8c-4.8-10.8-13-17.4-25-17.4-17.8,0-25.4,14.6-25.4,33.6s7.6,33.6,25.4,33.6c12,0,20.2-6.6,25-17.4Z"/><path d="M716.6,204A14.38,14.38,0,0,1,731,218.6a14.4,14.4,0,0,1-28.8,0A14.38,14.38,0,0,1,716.6,204ZM727,247V347.8H706.2V247H727Z"/><path d="M799,245.4c31.2,0,49.6,23.6,49.6,52s-18.4,52-49.6,52-49.6-23.6-49.6-52S767.8,245.4,799,245.4Zm0,85.6c18.2,0,27.6-16.6,27.6-33.6s-9.4-33.6-27.6-33.6-27.6,16.6-27.6,33.6S780.8,331,799,331Z"/><path d="M892,206.2V347.8H871.2V206.2H892Z"/><path d="M964,245.4c31.2,0,49.6,23.6,49.6,52s-18.4,52-49.6,52-49.6-23.6-49.6-52S932.8,245.4,964,245.4Zm0,85.6c18.2,0,27.6-16.6,27.6-33.6s-9.4-33.6-27.6-33.6-27.6,16.6-27.6,33.6S945.8,331,964,331Z"/><path d="M1073.8,245.4a39.67,39.67,0,0,1,18.4,4.4l18.6-10,8.4,15-13.6,7.6a32.82,32.82,0,0,1,4.4,16.8c0,21.2-15.8,33.8-36.2,33.8a45,45,0,0,1-16.2-3,9.61,9.61,0,0,0-5.4,8.8c0,5.4,3.4,7.8,10.4,7.8h22.2c19.8,0,33.4,9.8,33.4,28.8,0,25-21.6,34.8-44.2,34.8-25.4,0-44.4-11.2-44.4-33.2a27.18,27.18,0,0,1,8.6-20.4c-3.6-3.6-5.8-8.8-5.8-15.8,0-9,4.8-16.2,12.2-20.4-4.4-5.4-6.8-12.6-6.8-21.2C1037.8,258.2,1053.4,245.4,1073.8,245.4Zm-9.6,98.8a82.34,82.34,0,0,1-10.2-.6c-3,3.2-4.4,7-4.4,12.2,0,10,9,16.4,24.4,16.4,14.4,0,23-5.4,23-15.2,0-9.6-6.8-12.8-16.6-12.8h-16.2Zm9.6-48.6c9.4,0,16-6.4,16-16.4s-6.6-16.4-16-16.4c-9.2,0-15.8,6.4-15.8,16.4S1064.6,295.6,1073.8,295.6Z"/><path d="M1155,247l23.8,67.8,23-67.8h22l-51,141.6H1152l16.4-45.8L1133,247h22Z"/><path d="M1329.19,285.8h17.4v-4.4c0-12.6-9-17.6-19.6-17.6-8.2,0-15.4,4.4-18.8,13.4l-19-4c4.2-17,18.6-27.8,38-27.8,23.4,0,40.2,10.2,40.2,39.8v62.6h-17.6l-2-13.2c-6.6,9.2-17,14.8-31.2,14.8-16.8,0-31-9.6-31-30.6C1285.59,298,1303.39,285.8,1329.19,285.8Zm-9,45.2c12.8,0,26.4-8.2,26.4-25.6v-2.2h-18.2c-12.8,0-20.8,6-20.8,15.6C1307.59,325.6,1311.39,331,1320.19,331Z"/><path d="M1383.19,247H1400V219.2l20.8-13V247H1447v18.4h-26.2v49.2c0,11.4,4.2,16.4,13.4,16.4a16.14,16.14,0,0,0,9.6-2.8l5.4,17.6a36,36,0,0,1-16.2,3.6c-19,0-33-11.2-33-36v-48h-16.8V247Z"/><path d="M1589.59,283.4l40.4,64.4h-26l-39.4-62.8h-16.2v62.8h-22v-140h49c26.4,0,41.4,14.8,41.4,38.6C1616.79,265.6,1607,278.8,1589.59,283.4Zm4.8-37c0-12.4-7.8-17.8-18.4-17.8h-27.6v35.6H1576C1586.59,264.2,1594.39,258.8,1594.39,246.4Z"/><path d="M1666.19,206.2v58c7.2-10.4,18.8-18.8,34-18.8,18.6,0,29.8,10,29.8,31.4v71h-20.8V282.2c0-15.4-6.4-18.4-15.8-18.4-11.4,0-27.2,14.6-27.2,41.4v42.6h-20.8V206.2h20.8Z"/><path d="M1801.19,245.4c31.2,0,49.6,23.6,49.6,52s-18.4,52-49.6,52-49.6-23.6-49.6-52S1770,245.4,1801.19,245.4Zm0,85.6c18.2,0,27.6-16.6,27.6-33.6s-9.4-33.6-27.6-33.6-27.6,16.6-27.6,33.6S1783,331,1801.19,331Z"/><path d="M1915,245.4c10,0,22.4,6.2,27,12.8v-52h20.8V347.8H1942V336.2c-3.4,5.8-14.2,13.2-27.4,13.2-29.8,0-45-19.8-45-52C1869.59,266.2,1884.79,245.4,1915,245.4Zm2.4,85.6c15,0,25.8-12.8,25.8-33.6s-10.8-33.6-25.8-33.6-25.8,12.8-25.8,33.6S1902.39,331,1917.39,331Z"/><path d="M2079.19,303.2h-71.4c0,14.8,8.6,27.8,25,27.8a29,29,0,0,0,26.4-17l17.8,7c-9.8,19-21.2,28.4-44.2,28.4-33.2,0-47-28-47-52s13.8-52,47-52c32.2,0,46.4,26.2,46.4,48.8v9Zm-71-17.4h49c-1.8-11.2-9.4-22-24.4-22C2019,263.8,2010.39,273.2,2008.19,285.8Z"/><path d="M2158.19,207.8h22v140h-22v-140Z"/><path d="M2267.79,261.4l-13.2,11.6c-5-6.4-11.2-9.2-17.6-9.2-5.2,0-10,3.4-10,10,0,7.2,7.6,10.4,18,14.4,13.6,5.2,28.2,11.2,28.2,29.2,0,17.4-13.4,32-35,32-20.8,0-33.8-14.4-39-27l17.6-9.6c4,9,11,18.2,22.2,18.2,8,0,13.6-4,13.6-13.2,0-8.8-12.2-11.2-24-16.2-11.6-4.8-21.6-12.2-21.6-27.6,0-15.6,12.8-28.6,31-28.6A35.17,35.17,0,0,1,2267.79,261.4Z"/><path d="M2315.39,206.2V347.8h-20.8V206.2h20.8Z"/><path d="M2382.39,285.8h17.4v-4.4c0-12.6-9-17.6-19.6-17.6-8.2,0-15.4,4.4-18.8,13.4l-19-4c4.2-17,18.6-27.8,38-27.8,23.4,0,40.2,10.2,40.2,39.8v62.6H2403l-2-13.2c-6.6,9.2-17,14.8-31.2,14.8-16.8,0-31-9.6-31-30.6C2338.79,298,2356.59,285.8,2382.39,285.8Zm-9,45.2c12.8,0,26.4-8.2,26.4-25.6v-2.2h-18.2c-12.8,0-20.8,6-20.8,15.6C2360.79,325.6,2364.59,331,2373.39,331Z"/><path d="M2468.79,247v17.2c7.2-12,19.2-18.8,32.6-18.8,17.6,0,29.6,10.6,29.6,30.2v72.2h-20.8V282.2c0-13.6-6.2-18.4-15.6-18.4-13,0-25.8,15.4-25.8,43.2v40.8H2448V247h20.8Z"/><path d="M2597.59,245.4c10,0,22.4,6.2,27,12.8v-52h20.8V347.8h-20.8V336.2c-3.4,5.8-14.2,13.2-27.4,13.2-29.8,0-45-19.8-45-52C2552.19,266.2,2567.39,245.4,2597.59,245.4ZM2600,331c15,0,25.8-12.8,25.8-33.6s-10.8-33.6-25.8-33.6-25.8,12.8-25.8,33.6S2585,331,2600,331Z"/><path d="M65.4,445.6c-5.6-10.6-12.6-15.4-20.8-15.4-9,0-14.6,7-14.6,15.2,0,27.6,60,22.2,60,65.4,0,25.6-18.6,42.6-43.8,42.6-24.6,0-41.2-16.6-46.2-39L18,503c4,15.6,12.2,29.6,28.2,29.6,12.6,0,21.4-8.6,21.4-21C67.6,484.2,8,490.2,8,447c0-21.2,16.2-36.8,36.6-36.8,19.2,0,31.2,10.4,38.6,23.6Z"/><path d="M200.8,525.6c-8,18.2-22.2,27.8-43.6,27.8-32,0-47.4-24.4-47.4-52s15.4-52,47.4-52c21.4,0,35.6,9.6,43.6,27.8l-18.6,8c-4.8-10.8-13-17.4-25-17.4-17.8,0-25.4,14.6-25.4,33.6s7.6,33.6,25.4,33.6c12,0,20.2-6.6,25-17.4Z"/><path d="M244,410.2v58c7.2-10.4,18.8-18.8,34-18.8,18.6,0,29.8,10,29.8,31.4v71H287V486.2c0-15.4-6.4-18.4-15.8-18.4-11.4,0-27.2,14.6-27.2,41.4v42.6H223.2V410.2H244Z"/><path d="M379,449.4c31.2,0,49.6,23.6,49.6,52s-18.4,52-49.6,52-49.6-23.6-49.6-52S347.8,449.4,379,449.4Zm0,85.6c18.2,0,27.6-16.6,27.6-33.6s-9.4-33.6-27.6-33.6-27.6,16.6-27.6,33.6S360.8,535,379,535Z"/><path d="M497,449.4c31.2,0,49.6,23.6,49.6,52s-18.4,52-49.6,52-49.6-23.6-49.6-52S465.8,449.4,497,449.4Zm0,85.6c18.2,0,27.6-16.6,27.6-33.6s-9.4-33.6-27.6-33.6-27.6,16.6-27.6,33.6S478.8,535,497,535Z"/><path d="M590,410.2V551.8H569.2V410.2H590Z"/><path d="M717.6,449.4c31.2,0,49.6,23.6,49.6,52s-18.4,52-49.6,52-49.6-23.6-49.6-52S686.4,449.4,717.6,449.4Zm0,85.6c18.2,0,27.6-16.6,27.6-33.6s-9.4-33.6-27.6-33.6S690,484.4,690,501.4,699.4,535,717.6,535Z"/><path d="M780.8,451h13v-5.2c0-24.6,13.4-35.6,33.8-35.6a37.17,37.17,0,0,1,16.6,3.6L840,431.4a24.25,24.25,0,0,0-11.8-2.8c-9.2,0-13.6,5.4-13.6,15.8V451h22.2v18.4H814.6v82.4H793.8V469.4h-13V451Z"/><path d="M957.2,411.8c33.6,0,64.4,22.8,64.4,70s-30.8,70-64.4,70H916v-140h41.2ZM938,432.6V531h12.8c24.4,0,48.4-11,48.4-49.2s-24-49.2-48.4-49.2H938Z"/><path d="M1135.79,507.2h-71.4c0,14.8,8.6,27.8,25,27.8a29,29,0,0,0,26.4-17l17.8,7c-9.8,19-21.2,28.4-44.2,28.4-33.2,0-47-28-47-52s13.8-52,47-52c32.2,0,46.4,26.2,46.4,48.8v9Zm-71-17.4h49c-1.8-11.2-9.4-22-24.4-22C1075.6,467.8,1067,477.2,1064.8,489.8Z"/><path d="M1221,465.4l-13.2,11.6c-5-6.4-11.2-9.2-17.6-9.2-5.2,0-10,3.4-10,10,0,7.2,7.6,10.4,18,14.4,13.6,5.2,28.2,11.2,28.2,29.2,0,17.4-13.4,32-35,32-20.8,0-33.8-14.4-39-27l17.6-9.6c4,9,11,18.2,22.2,18.2,8,0,13.6-4,13.6-13.2,0-8.8-12.2-11.2-24-16.2-11.6-4.8-21.6-12.2-21.6-27.6,0-15.6,12.8-28.6,31-28.6A35.17,35.17,0,0,1,1221,465.4Z"/><path d="M1257,408a14.38,14.38,0,0,1,14.4,14.6,14.4,14.4,0,0,1-28.8,0A14.38,14.38,0,0,1,1257,408Zm10.4,43V551.8h-20.8V451h20.8Z"/><path d="M1331.8,449.4a39.67,39.67,0,0,1,18.4,4.4l18.6-10,8.4,15-13.6,7.6a32.82,32.82,0,0,1,4.4,16.8c0,21.2-15.8,33.8-36.2,33.8a45,45,0,0,1-16.2-3,9.61,9.61,0,0,0-5.4,8.8c0,5.4,3.4,7.8,10.4,7.8h22.2c19.8,0,33.4,9.8,33.4,28.8,0,25-21.6,34.8-44.2,34.8-25.4,0-44.4-11.2-44.4-33.2a27.18,27.18,0,0,1,8.6-20.4c-3.6-3.6-5.8-8.8-5.8-15.8,0-9,4.8-16.2,12.2-20.4-4.4-5.4-6.8-12.6-6.8-21.2C1295.8,462.2,1311.4,449.4,1331.8,449.4Zm-9.6,98.8a82.34,82.34,0,0,1-10.2-.6c-3,3.2-4.4,7-4.4,12.2,0,10,9,16.4,24.4,16.4,14.4,0,23-5.4,23-15.2,0-9.6-6.8-12.8-16.6-12.8h-16.2Zm9.6-48.6c9.4,0,16-6.4,16-16.4s-6.6-16.4-16-16.4c-9.2,0-15.8,6.4-15.8,16.4S1322.6,499.6,1331.8,499.6Z"/><path d="M1418.59,451v17.2c7.2-12,19.2-18.8,32.6-18.8,17.6,0,29.6,10.6,29.6,30.2v72.2H1460V486.2c0-13.6-6.2-18.4-15.6-18.4-13,0-25.8,15.4-25.8,43.2v40.8h-20.8V451h20.8Z"/><path d="M1600.59,489.8H1618v-4.4c0-12.6-9-17.6-19.6-17.6-8.2,0-15.4,4.4-18.8,13.4l-19-4c4.2-17,18.6-27.8,38-27.8,23.4,0,40.2,10.2,40.2,39.8v62.6h-17.6l-2-13.2c-6.6,9.2-17,14.8-31.2,14.8-16.8,0-31-9.6-31-30.6C1557,502,1574.79,489.8,1600.59,489.8Zm-9,45.2c12.8,0,26.4-8.2,26.4-25.6v-2.2h-18.2c-12.8,0-20.8,6-20.8,15.6C1579,529.6,1582.79,535,1591.59,535Z"/><path d="M1687,451v17.2c7.2-12,19.2-18.8,32.6-18.8,17.6,0,29.6,10.6,29.6,30.2v72.2h-20.8V486.2c0-13.6-6.2-18.4-15.6-18.4-13,0-25.8,15.4-25.8,43.2v40.8h-20.8V451H1687Z"/><path d="M1815.79,449.4c10,0,22.4,6.2,27,12.8v-52h20.8V551.8h-20.8V540.2c-3.4,5.8-14.2,13.2-27.4,13.2-29.8,0-45-19.8-45-52C1770.39,470.2,1785.59,449.4,1815.79,449.4Zm2.4,85.6c15,0,25.8-12.8,25.8-33.6s-10.8-33.6-25.8-33.6-25.8,12.8-25.8,33.6S1803.19,535,1818.19,535Z"/><path d="M2000.79,411.8c23.2,0,39.2,12.4,39.2,36.6,0,10.8-6,22.6-14.2,27,13.2,5.6,21.4,19,21.4,35.2,0,26.2-16.4,41.2-44,41.2h-52v-140h49.6Zm-27.6,20.8V467h25.6c12.4,0,19.2-5.8,19.2-17.2s-6.8-17.2-19.2-17.2h-25.6Zm0,55.2V531h27c16.2,0,24.6-7.6,24.6-21.6s-8.4-21.6-24.6-21.6h-27Z"/><path d="M2071.19,551.8V451H2092v16.8c7-12,19-18.4,29.8-18.4a34.65,34.65,0,0,1,12.8,2.4l-3.6,19a23,23,0,0,0-11.8-3c-13.4,0-27.2,14.8-27.2,46.6v37.4h-20.8Z"/><path d="M2194.59,449.4c31.2,0,49.6,23.6,49.6,52s-18.4,52-49.6,52-49.6-23.6-49.6-52S2163.39,449.4,2194.59,449.4Zm0,85.6c18.2,0,27.6-16.6,27.6-33.6s-9.4-33.6-27.6-33.6-27.6,16.6-27.6,33.6S2176.39,535,2194.59,535Z"/><path d="M2392.79,451l-32,100.8h-19l-18.2-71.2-18.2,71.2h-19l-32-100.8h22l19.4,73.6,17.8-73.6h20l17.8,73.6,19.4-73.6h22Z"/><path d="M2430.39,451v17.2c7.2-12,19.2-18.8,32.6-18.8,17.6,0,29.6,10.6,29.6,30.2v72.2h-20.8V486.2c0-13.6-6.2-18.4-15.6-18.4-13,0-25.8,15.4-25.8,43.2v40.8h-20.8V451h20.8Z"/><path d="M7.4,615.8h22v90.6c0,19,9.6,30.2,28.4,30.2s28.4-11.2,28.4-30.2V615.8h22v89.6c0,33.8-21.8,52-50.4,52S7.4,739,7.4,705.4V615.8Z"/><path d="M159.6,655v17.2c7.2-12,19.2-18.8,32.6-18.8,17.6,0,29.6,10.6,29.6,30.2v72.2H201V690.2c0-13.6-6.2-18.4-15.6-18.4-13,0-25.8,15.4-25.8,43.2v40.8H138.8V655h20.8Z"/><path d="M257.8,612a14.38,14.38,0,0,1,14.4,14.6,14.4,14.4,0,0,1-28.8,0A14.38,14.38,0,0,1,257.8,612Zm10.4,43V755.8H247.4V655h20.8Z"/><path d="M305.4,655l22,72.4,22-72.4h21.2L337.2,755.8H317.6L284.2,655h21.2Z"/><path d="M471.8,711.2H400.4c0,14.8,8.6,27.8,25,27.8a29,29,0,0,0,26.4-17l17.8,7c-9.8,19-21.2,28.4-44.2,28.4-33.2,0-47-28-47-52s13.8-52,47-52c32.2,0,46.4,26.2,46.4,48.8v9Zm-71-17.4h49c-1.8-11.2-9.4-22-24.4-22C411.6,671.8,403,681.2,400.8,693.8Z"/><path d="M493.2,755.8V655H514v16.8c7-12,19-18.4,29.8-18.4a34.65,34.65,0,0,1,12.8,2.4l-3.6,19a23,23,0,0,0-11.8-3c-13.4,0-27.2,14.8-27.2,46.6v37.4H493.2Z"/><path d="M629.4,669.4L616.2,681c-5-6.4-11.2-9.2-17.6-9.2-5.2,0-10,3.4-10,10,0,7.2,7.6,10.4,18,14.4,13.6,5.2,28.2,11.2,28.2,29.2,0,17.4-13.4,32-35,32-20.8,0-33.8-14.4-39-27l17.6-9.6c4,9,11,18.2,22.2,18.2,8,0,13.6-4,13.6-13.2,0-8.8-12.2-11.2-24-16.2-11.6-4.8-21.6-12.2-21.6-27.6,0-15.6,12.8-28.6,31-28.6A35.17,35.17,0,0,1,629.4,669.4Z"/><path d="M665.4,612a14.38,14.38,0,0,1,14.4,14.6,14.4,14.4,0,0,1-28.8,0A14.38,14.38,0,0,1,665.4,612Zm10.4,43V755.8H655V655h20.8Z"/><path d="M696.8,655h16.8V627.2l20.8-13V655h26.2v18.4H734.4v49.2c0,11.4,4.2,16.4,13.4,16.4a16.15,16.15,0,0,0,9.6-2.8l5.4,17.6a36,36,0,0,1-16.2,3.6c-19,0-33-11.2-33-36v-48H696.8V655Z"/><path d="M796,655l23.8,67.8,23-67.8h22l-51,141.6H793l16.4-45.8L774,655h22Z"/><path d="M896.8,742A14.8,14.8,0,1,1,882,727.2,14.64,14.64,0,0,1,896.8,742Z"/><path d="M1038.39,649.6c-5.6-10.6-12.6-15.4-20.8-15.4-9,0-14.6,7-14.6,15.2,0,27.6,60,22.2,60,65.4,0,25.6-18.6,42.6-43.8,42.6-24.6,0-41.2-16.6-46.2-39L991,707c4,15.6,12.2,29.6,28.2,29.6,12.6,0,21.4-8.6,21.4-21,0-27.4-59.6-21.4-59.6-64.6,0-21.2,16.2-36.8,36.6-36.8,19.2,0,31.2,10.4,38.6,23.6Z"/><path d="M1106.6,614.2v58c7.2-10.4,18.8-18.8,34-18.8,18.6,0,29.8,10,29.8,31.4v71h-20.8V690.2c0-15.4-6.4-18.4-15.8-18.4-11.4,0-27.2,14.6-27.2,41.4v42.6h-20.8V614.2h20.8Z"/><path d="M1285.4,711.2H1214c0,14.8,8.6,27.8,25,27.8a29,29,0,0,0,26.4-17l17.8,7c-9.8,19-21.2,28.4-44.2,28.4-33.2,0-47-28-47-52s13.8-52,47-52c32.2,0,46.4,26.2,46.4,48.8v9Zm-71-17.4h49c-1.8-11.2-9.4-22-24.4-22C1225.2,671.8,1216.6,681.2,1214.4,693.8Z"/><path d="M1372.19,612a14.38,14.38,0,0,1,14.4,14.6,14.4,14.4,0,0,1-28.8,0A14.38,14.38,0,0,1,1372.19,612Zm10.4,43V755.8h-20.8V655h20.8Z"/><path d="M1471.39,669.4l-13.2,11.6c-5-6.4-11.2-9.2-17.6-9.2-5.2,0-10,3.4-10,10,0,7.2,7.6,10.4,18,14.4,13.6,5.2,28.2,11.2,28.2,29.2,0,17.4-13.4,32-35,32-20.8,0-33.8-14.4-39-27l17.6-9.6c4,9,11,18.2,22.2,18.2,8,0,13.6-4,13.6-13.2,0-8.8-12.2-11.2-24-16.2-11.6-4.8-21.6-12.2-21.6-27.6,0-15.6,12.8-28.6,31-28.6A35.17,35.17,0,0,1,1471.39,669.4Z"/><path d="M1563,612a14.38,14.38,0,0,1,14.4,14.6,14.4,14.4,0,0,1-28.8,0A14.38,14.38,0,0,1,1563,612Zm10.4,43V755.8h-20.8V655h20.8Z"/><path d="M1621.19,655v17.2c7.2-12,19.2-18.8,32.6-18.8,17.6,0,29.6,10.6,29.6,30.2v72.2h-20.8V690.2c0-13.6-6.2-18.4-15.6-18.4-13,0-25.8,15.4-25.8,43.2v40.8h-20.8V655h20.8Z"/><path d="M1788.79,614.2v58c7.2-10.4,18.8-18.8,34-18.8,18.6,0,29.8,10,29.8,31.4v71h-20.8V690.2c0-15.4-6.4-18.4-15.8-18.4-11.4,0-27.2,14.6-27.2,41.4v42.6H1768V614.2h20.8Z"/><path d="M1967.59,711.2h-71.4c0,14.8,8.6,27.8,25,27.8a29,29,0,0,0,26.4-17l17.8,7c-9.8,19-21.2,28.4-44.2,28.4-33.2,0-47-28-47-52s13.8-52,47-52c32.2,0,46.4,26.2,46.4,48.8v9Zm-71-17.4h49c-1.8-11.2-9.4-22-24.4-22C1907.39,671.8,1898.79,681.2,1896.59,693.8Z"/><path d="M1989,755.8V655h20.8v16.8c7-12,19-18.4,29.8-18.4a34.65,34.65,0,0,1,12.8,2.4l-3.6,19a23,23,0,0,0-11.8-3c-13.4,0-27.2,14.8-27.2,46.6v37.4H1989Z"/><path d="M2114.39,655h13v-5.2c0-24.6,13.4-35.6,33.8-35.6a37.17,37.17,0,0,1,16.6,3.6l-4.2,17.6a24.25,24.25,0,0,0-11.8-2.8c-9.2,0-13.6,5.4-13.6,15.8V655h22.2v18.4h-22.2v82.4h-20.8V673.4h-13V655Z"/><path d="M2232,653.4c31.2,0,49.6,23.6,49.6,52s-18.4,52-49.6,52-49.6-23.6-49.6-52S2200.79,653.4,2232,653.4Zm0,85.6c18.2,0,27.6-16.6,27.6-33.6s-9.4-33.6-27.6-33.6-27.6,16.6-27.6,33.6S2213.79,739,2232,739Z"/><path d="M2366.59,755.8V738.6c-7.2,12-19.2,18.8-32.6,18.8-17.6,0-29.6-10.6-29.6-30.2V655h20.8v65.6c0,13.6,6.2,18.4,15.6,18.4,13,0,25.8-15.4,25.8-43.2V655h20.8V755.8h-20.8Z"/><path d="M2417.19,755.8V655H2438v16.8c7-12,19-18.4,29.8-18.4a34.65,34.65,0,0,1,12.8,2.4l-3.6,19a23,23,0,0,0-11.8-3c-13.4,0-27.2,14.8-27.2,46.6v37.4h-20.8Z"/><path d="M2498,655h16.8V627.2l20.8-13V655h26.2v18.4h-26.2v49.2c0,11.4,4.2,16.4,13.4,16.4a16.15,16.15,0,0,0,9.6-2.8l5.4,17.6a36,36,0,0,1-16.2,3.6c-19,0-33-11.2-33-36v-48H2498V655Z"/><path d="M2605,614.2v58c7.2-10.4,18.8-18.8,34-18.8,18.6,0,29.8,10,29.8,31.4v71H2648V690.2c0-15.4-6.4-18.4-15.8-18.4-11.4,0-27.2,14.6-27.2,41.4v42.6h-20.8V614.2H2605Z"/><path d="M16,859l23.8,67.8,23-67.8h22l-51,141.6H13l16.4-45.8L-6,859H16Z"/><path d="M186,915.2H114.6c0,14.8,8.6,27.8,25,27.8A29,29,0,0,0,166,926l17.8,7c-9.8,19-21.2,28.4-44.2,28.4-33.2,0-47-28-47-52s13.8-52,47-52c32.2,0,46.4,26.2,46.4,48.8v9Zm-71-17.4h49c-1.8-11.2-9.4-22-24.4-22C125.8,875.8,117.2,885.2,115,897.8Z"/><path d="M247,897.8h17.4v-4.4c0-12.6-9-17.6-19.6-17.6-8.2,0-15.4,4.4-18.8,13.4l-19-4c4.2-17,18.6-27.8,38-27.8,23.4,0,40.2,10.2,40.2,39.8v62.6H267.6l-2-13.2c-6.6,9.2-17,14.8-31.2,14.8-16.8,0-31-9.6-31-30.6C203.4,910,221.2,897.8,247,897.8ZM238,943c12.8,0,26.4-8.2,26.4-25.6v-2.2H246.2c-12.8,0-20.8,6-20.8,15.6C225.4,937.6,229.2,943,238,943Z"/><path d="M310.8,959.8V859h20.8v16.8c7-12,19-18.4,29.8-18.4a34.65,34.65,0,0,1,12.8,2.4l-3.6,19a23,23,0,0,0-11.8-3c-13.4,0-27.2,14.8-27.2,46.6v37.4H310.8Z"/><path d="M488,857.4c31.2,0,49.6,23.6,49.6,52s-18.4,52-49.6,52-49.6-23.6-49.6-52S456.79,857.4,488,857.4Zm0,85.6c18.2,0,27.6-16.6,27.6-33.6s-9.4-33.6-27.6-33.6-27.6,16.6-27.6,33.6S469.79,943,488,943Z"/><path d="M551.19,859h13v-5.2c0-24.6,13.4-35.6,33.8-35.6a37.17,37.17,0,0,1,16.6,3.6l-4.2,17.6a24.25,24.25,0,0,0-11.8-2.8c-9.2,0-13.6,5.4-13.6,15.8V859h22.2v18.4H585v82.4h-20.8V877.4h-13V859Z"/><path d="M671.79,859h16.8V831.2l20.8-13V859h26.2v18.4h-26.2v49.2c0,11.4,4.2,16.4,13.4,16.4a16.15,16.15,0,0,0,9.6-2.8l5.4,17.6a36,36,0,0,1-16.2,3.6c-19,0-33-11.2-33-36v-48h-16.8V859Z"/><path d="M778.79,818.2v58c7.2-10.4,18.8-18.8,34-18.8,18.6,0,29.8,10,29.8,31.4v71h-20.8V894.2c0-15.4-6.4-18.4-15.8-18.4-11.4,0-27.2,14.6-27.2,41.4v42.6H758V818.2h20.8Z"/><path d="M957.59,915.2h-71.4c0,14.8,8.6,27.8,25,27.8a29,29,0,0,0,26.4-17l17.8,7c-9.8,19-21.2,28.4-44.2,28.4-33.2,0-47-28-47-52s13.8-52,47-52c32.2,0,46.4,26.2,46.4,48.8v9Zm-71-17.4h49c-1.8-11.2-9.4-22-24.4-22C897.39,875.8,888.79,885.2,886.59,897.8Z"/><path d="M1086.19,819.8c23.2,0,39.2,12.4,39.2,36.6,0,10.8-6,22.6-14.2,27,13.2,5.6,21.4,19,21.4,35.2,0,26.2-16.4,41.2-44,41.2h-52v-140h49.6Zm-27.6,20.8V875h25.6c12.4,0,19.2-5.8,19.2-17.2s-6.8-17.2-19.2-17.2h-25.6Zm0,55.2V939h27c16.2,0,24.6-7.6,24.6-21.6s-8.4-21.6-24.6-21.6h-27Z"/><path d="M1156.59,959.8V859h20.8v16.8c7-12,19-18.4,29.8-18.4a34.65,34.65,0,0,1,12.8,2.4l-3.6,19a23,23,0,0,0-11.8-3c-13.4,0-27.2,14.8-27.2,46.6v37.4h-20.8Z"/><path d="M1280,857.4c31.2,0,49.6,23.6,49.6,52s-18.4,52-49.6,52-49.6-23.6-49.6-52S1248.79,857.4,1280,857.4Zm0,85.6c18.2,0,27.6-16.6,27.6-33.6s-9.4-33.6-27.6-33.6-27.6,16.6-27.6,33.6S1261.79,943,1280,943Z"/><path d="M1478.19,859l-32,100.8h-19L1409,888.6l-18.2,71.2h-19l-32-100.8h22l19.4,73.6L1399,859h20l17.8,73.6,19.4-73.6h22Z"/><path d="M1515.79,859v17.2c7.2-12,19.2-18.8,32.6-18.8,17.6,0,29.6,10.6,29.6,30.2v72.2h-20.8V894.2c0-13.6-6.2-18.4-15.6-18.4-13,0-25.8,15.4-25.8,43.2v40.8H1495V859h20.8Z"/><path d="M1607.39,887.2H1678v18.4h-70.6V887.2Z"/><path d="M1773.59,895.4l40.4,64.4h-26l-39.4-62.8h-16.2v62.8h-22v-140h49c26.4,0,41.4,14.8,41.4,38.6C1800.79,877.6,1791,890.8,1773.59,895.4Zm4.8-37c0-12.4-7.8-17.8-18.4-17.8h-27.6v35.6H1760C1770.59,876.2,1778.39,870.8,1778.39,858.4Z"/><path d="M1831,819.8h22v140h-22v-140Z"/><path d="M1940.79,853.6c-5.6-10.6-12.6-15.4-20.8-15.4-9,0-14.6,7-14.6,15.2,0,27.6,60,22.2,60,65.4,0,25.6-18.6,42.6-43.8,42.6-24.6,0-41.2-16.6-46.2-39l18-11.4c4,15.6,12.2,29.6,28.2,29.6,12.6,0,21.4-8.6,21.4-21,0-27.4-59.6-21.4-59.6-64.6,0-21.2,16.2-36.8,36.6-36.8,19.2,0,31.2,10.4,38.6,23.6Z"/><path d="M2031.19,819.8c33.6,0,64.4,22.8,64.4,70s-30.8,70-64.4,70H1990v-140h41.2ZM2012,840.6V939h12.8c24.4,0,48.4-11,48.4-49.2s-24-49.2-48.4-49.2H2012Z"/><path d="M2217.39,819.8c33.6,0,64.4,22.8,64.4,70s-30.8,70-64.4,70h-41.2v-140h41.2Zm-19.2,20.8V939H2211c24.4,0,48.4-11,48.4-49.2s-24-49.2-48.4-49.2h-12.8Z"/><path d="M2368,959.8V942.6c-7.2,12-19.2,18.8-32.6,18.8-17.6,0-29.6-10.6-29.6-30.2V859h20.8v65.6c0,13.6,6.2,18.4,15.6,18.4,13,0,25.8-15.4,25.8-43.2V859h20.8V959.8H2368Z"/><path d="M2456.59,897.8H2474v-4.4c0-12.6-9-17.6-19.6-17.6-8.2,0-15.4,4.4-18.8,13.4l-19-4c4.2-17,18.6-27.8,38-27.8,23.4,0,40.2,10.2,40.2,39.8v62.6h-17.6l-2-13.2c-6.6,9.2-17,14.8-31.2,14.8-16.8,0-31-9.6-31-30.6C2413,910,2430.79,897.8,2456.59,897.8Zm-9,45.2c12.8,0,26.4-8.2,26.4-25.6v-2.2h-18.2c-12.8,0-20.8,6-20.8,15.6C2435,937.6,2438.79,943,2447.59,943Z"/><path d="M2542,818.2V959.8h-20.8V818.2H2542Z"/><path d="M52.4,1023.8c33.6,0,64.4,22.8,64.4,70s-30.8,70-64.4,70H11.2v-140H52.4Zm-19.2,20.8V1143H46c24.4,0,48.4-11,48.4-49.2s-24-49.2-48.4-49.2H33.2Z"/><path d="M231,1119.2H159.6c0,14.8,8.6,27.8,25,27.8a29,29,0,0,0,26.4-17l17.8,7c-9.8,19-21.2,28.4-44.2,28.4-33.2,0-47-28-47-52s13.8-52,47-52c32.2,0,46.4,26.2,46.4,48.8v9Zm-71-17.4h49c-1.8-11.2-9.4-22-24.4-22C170.8,1079.8,162.2,1089.2,160,1101.8Z"/><path d="M292.4,1061.4a39.67,39.67,0,0,1,18.4,4.4l18.6-10,8.4,15-13.6,7.6a32.82,32.82,0,0,1,4.4,16.8c0,21.2-15.8,33.8-36.2,33.8a45,45,0,0,1-16.2-3,9.61,9.61,0,0,0-5.4,8.8c0,5.4,3.4,7.8,10.4,7.8h22.2c19.8,0,33.4,9.8,33.4,28.8,0,25-21.6,34.8-44.2,34.8-25.4,0-44.4-11.2-44.4-33.2a27.18,27.18,0,0,1,8.6-20.4c-3.6-3.6-5.8-8.8-5.8-15.8,0-9,4.8-16.2,12.2-20.4-4.4-5.4-6.8-12.6-6.8-21.2C256.4,1074.2,272,1061.4,292.4,1061.4Zm-9.6,98.8a82.35,82.35,0,0,1-10.2-.6c-3,3.2-4.4,7-4.4,12.2,0,10,9,16.4,24.4,16.4,14.4,0,23-5.4,23-15.2,0-9.6-6.8-12.8-16.6-12.8H282.8Zm9.6-48.6c9.4,0,16-6.4,16-16.4s-6.6-16.4-16-16.4c-9.2,0-15.8,6.4-15.8,16.4S283.2,1111.6,292.4,1111.6Z"/><path d="M358.39,1163.8V1063h20.8v16.8c7-12,19-18.4,29.8-18.4a34.65,34.65,0,0,1,12.8,2.4l-3.6,19a23,23,0,0,0-11.8-3c-13.4,0-27.2,14.8-27.2,46.6v37.4h-20.8Z"/><path d="M525.59,1119.2H454.2c0,14.8,8.6,27.8,25,27.8a29,29,0,0,0,26.4-17l17.8,7c-9.8,19-21.2,28.4-44.2,28.4-33.2,0-47-28-47-52s13.8-52,47-52c32.2,0,46.4,26.2,46.4,48.8v9Zm-71-17.4h49c-1.8-11.2-9.4-22-24.4-22C465.39,1079.8,456.79,1089.2,454.59,1101.8Z"/><path d="M639,1119.2h-71.4c0,14.8,8.6,27.8,25,27.8a29,29,0,0,0,26.4-17l17.8,7c-9.8,19-21.2,28.4-44.2,28.4-33.2,0-47-28-47-52s13.8-52,47-52c32.2,0,46.4,26.2,46.4,48.8v9Zm-71-17.4h49c-1.8-11.2-9.4-22-24.4-22C578.79,1079.8,570.19,1089.2,568,1101.8Z"/><path d="M740,1106.6v57.2H718v-140h50.2c27.8,0,43.4,17.8,43.4,41.4s-15.6,41.4-43.4,41.4H740Zm49.2-41.4c0-13-7.4-20.6-20-20.6H740v41.2h29.2C781.79,1085.8,789.19,1078.2,789.19,1065.2Z"/><path d="M832.39,1163.8V1063h20.8v16.8c7-12,19-18.4,29.8-18.4a34.65,34.65,0,0,1,12.8,2.4l-3.6,19a23,23,0,0,0-11.8-3c-13.4,0-27.2,14.8-27.2,46.6v37.4h-20.8Z"/><path d="M955.79,1061.4c31.2,0,49.6,23.6,49.6,52s-18.4,52-49.6,52-49.6-23.6-49.6-52S924.59,1061.4,955.79,1061.4Zm0,85.6c18.2,0,27.6-16.6,27.6-33.6s-9.4-33.6-27.6-33.6-27.6,16.6-27.6,33.6S937.59,1147,955.79,1147Z"/><path d="M1065.59,1061.4a39.67,39.67,0,0,1,18.4,4.4l18.6-10,8.4,15-13.6,7.6a32.82,32.82,0,0,1,4.4,16.8c0,21.2-15.8,33.8-36.2,33.8a45,45,0,0,1-16.2-3,9.61,9.61,0,0,0-5.4,8.8c0,5.4,3.4,7.8,10.4,7.8h22.2c19.8,0,33.4,9.8,33.4,28.8,0,25-21.6,34.8-44.2,34.8-25.4,0-44.4-11.2-44.4-33.2a27.18,27.18,0,0,1,8.6-20.4c-3.6-3.6-5.8-8.8-5.8-15.8,0-9,4.8-16.2,12.2-20.4-4.4-5.4-6.8-12.6-6.8-21.2C1029.59,1074.2,1045.19,1061.4,1065.59,1061.4Zm-9.6,98.8a82.35,82.35,0,0,1-10.2-.6c-3,3.2-4.4,7-4.4,12.2,0,10,9,16.4,24.4,16.4,14.4,0,23-5.4,23-15.2,0-9.6-6.8-12.8-16.6-12.8H1056Zm9.6-48.6c9.4,0,16-6.4,16-16.4s-6.6-16.4-16-16.4c-9.2,0-15.8,6.4-15.8,16.4S1056.39,1111.6,1065.59,1111.6Z"/><path d="M1131.59,1163.8V1063h20.8v16.8c7-12,19-18.4,29.8-18.4a34.65,34.65,0,0,1,12.8,2.4l-3.6,19a23,23,0,0,0-11.8-3c-13.4,0-27.2,14.8-27.2,46.6v37.4h-20.8Z"/><path d="M1246.39,1101.8h17.4v-4.4c0-12.6-9-17.6-19.6-17.6-8.2,0-15.4,4.4-18.8,13.4l-19-4c4.2-17,18.6-27.8,38-27.8,23.4,0,40.2,10.2,40.2,39.8v62.6H1267l-2-13.2c-6.6,9.2-17,14.8-31.2,14.8-16.8,0-31-9.6-31-30.6C1202.79,1114,1220.59,1101.8,1246.39,1101.8Zm-9,45.2c12.8,0,26.4-8.2,26.4-25.6v-2.2h-18.2c-12.8,0-20.8,6-20.8,15.6C1224.79,1141.6,1228.59,1147,1237.39,1147Z"/><path d="M1331.19,1063v17.2c8.2-12.6,18.2-18.8,30.4-18.8,13.6,0,24.8,8.2,27.8,20.8,7-13.2,18.4-20.8,31.4-20.8,18.4,0,28.8,12.6,28.8,30.2v72.2h-20.8v-67.6c0-11-6-16.4-14.8-16.4-12.4,0-23.6,15.8-23.6,43.6v40.4h-20.8v-67.6c0-11-6-16.4-14.8-16.4-12.6,0-23.6,15.8-23.6,45.8v38.2h-20.8V1063h20.8Z"/><path d="M1500.59,1150a14.8,14.8,0,1,1-14.8-14.8A14.64,14.64,0,0,1,1500.59,1150Z"/><path d="M1642.18,1057.6c-5.6-10.6-12.6-15.4-20.8-15.4-9,0-14.6,7-14.6,15.2,0,27.6,60,22.2,60,65.4,0,25.6-18.6,42.6-43.8,42.6-24.6,0-41.2-16.6-46.2-39l18-11.4c4,15.6,12.2,29.6,28.2,29.6,12.6,0,21.4-8.6,21.4-21,0-27.4-59.6-21.4-59.6-64.6,0-21.2,16.2-36.8,36.6-36.8,19.2,0,31.2,10.4,38.6,23.6Z"/><path d="M1710.38,1022.2v58c7.2-10.4,18.8-18.8,34-18.8,18.6,0,29.8,10,29.8,31.4v71h-20.8v-65.6c0-15.4-6.4-18.4-15.8-18.4-11.4,0-27.2,14.6-27.2,41.4v42.6h-20.8V1022.2h20.8Z"/><path d="M1889.19,1119.2h-71.4c0,14.8,8.6,27.8,25,27.8a29,29,0,0,0,26.4-17l17.8,7c-9.8,19-21.2,28.4-44.2,28.4-33.2,0-47-28-47-52s13.8-52,47-52c32.2,0,46.4,26.2,46.4,48.8v9Zm-71-17.4h49c-1.8-11.2-9.4-22-24.4-22C1829,1079.8,1820.39,1089.2,1818.19,1101.8Z"/><path d="M2052.58,1119.2h-71.4c0,14.8,8.6,27.8,25,27.8a29,29,0,0,0,26.4-17l17.8,7c-9.8,19-21.2,28.4-44.2,28.4-33.2,0-47-28-47-52s13.8-52,47-52c32.2,0,46.4,26.2,46.4,48.8v9Zm-71-17.4h49c-1.8-11.2-9.4-22-24.4-22C1992.38,1079.8,1983.78,1089.2,1981.58,1101.8Z"/><path d="M2095.58,1063v17.2c7.2-12,19.2-18.8,32.6-18.8,17.6,0,29.6,10.6,29.6,30.2v72.2H2137v-65.6c0-13.6-6.2-18.4-15.6-18.4-13,0-25.8,15.4-25.8,43.2v40.8h-20.8V1063h20.8Z"/><path d="M2162.18,1188c13.2-4,21.2-10.6,21.2-26.8V1063h20.8v96.2c0,27.4-13,41.6-36.8,47Zm31.6-168a14.38,14.38,0,0,1,14.4,14.6,14.4,14.4,0,0,1-28.8,0A14.38,14.38,0,0,1,2193.78,1020Z"/><path d="M2274.58,1061.4c31.2,0,49.6,23.6,49.6,52s-18.4,52-49.6,52-49.6-23.6-49.6-52S2243.38,1061.4,2274.58,1061.4Zm0,85.6c18.2,0,27.6-16.6,27.6-33.6s-9.4-33.6-27.6-33.6-27.6,16.6-27.6,33.6S2256.38,1147,2274.58,1147Z"/><path d="M2354.38,1063l23.8,67.8,23-67.8h22l-51,141.6h-20.8l16.4-45.8-35.4-95.8h22Z"/><path d="M2498.58,1077.4l-13.2,11.6c-5-6.4-11.2-9.2-17.6-9.2-5.2,0-10,3.4-10,10,0,7.2,7.6,10.4,18,14.4,13.6,5.2,28.2,11.2,28.2,29.2,0,17.4-13.4,32-35,32-20.8,0-33.8-14.4-39-27l17.6-9.6c4,9,11,18.2,22.2,18.2,8,0,13.6-4,13.6-13.2,0-8.8-12.2-11.2-24-16.2-11.6-4.8-21.6-12.2-21.6-27.6,0-15.6,12.8-28.6,31-28.6A35.17,35.17,0,0,1,2498.58,1077.4Z"/><path d="M30.4,1267v17.2c8.2-12.6,18.2-18.8,30.4-18.8,13.6,0,24.8,8.2,27.8,20.8,7-13.2,18.4-20.8,31.4-20.8,18.4,0,28.8,12.6,28.8,30.2v72.2H128v-67.6c0-11-6-16.4-14.8-16.4-12.4,0-23.6,15.8-23.6,43.6v40.4H68.8v-67.6c0-11-6-16.4-14.8-16.4-12.6,0-23.6,15.8-23.6,45.8v38.2H9.6V1267H30.4Z"/><path d="M215,1305.8h17.4v-4.4c0-12.6-9-17.6-19.6-17.6-8.2,0-15.4,4.4-18.8,13.4l-19-4c4.2-17,18.6-27.8,38-27.8,23.4,0,40.2,10.2,40.2,39.8v62.6H235.6l-2-13.2c-6.6,9.2-17,14.8-31.2,14.8-16.8,0-31-9.6-31-30.6C171.4,1318,189.2,1305.8,215,1305.8Zm-9,45.2c12.8,0,26.4-8.2,26.4-25.6v-2.2H214.2c-12.8,0-20.8,6-20.8,15.6C193.4,1345.6,197.2,1351,206,1351Z"/><path d="M299.8,1226.2v81l36.4-40.2h26.4l-42.2,46.4,44.8,54.4H338.8l-39-48.2v48.2H279V1226.2h20.8Z"/><path d="M392.4,1224a14.38,14.38,0,0,1,14.4,14.6,14.4,14.4,0,0,1-28.8,0A14.38,14.38,0,0,1,392.4,1224Zm10.4,43v100.8H382V1267h20.8Z"/><path d="M450.6,1267v17.2c7.2-12,19.2-18.8,32.6-18.8,17.6,0,29.6,10.6,29.6,30.2v72.2H492v-65.6c0-13.6-6.2-18.4-15.6-18.4-13,0-25.8,15.4-25.8,43.2v40.8H429.8V1267h20.8Z"/><path d="M577.6,1265.4a39.67,39.67,0,0,1,18.4,4.4l18.6-10,8.4,15-13.6,7.6a32.82,32.82,0,0,1,4.4,16.8c0,21.2-15.8,33.8-36.2,33.8a45,45,0,0,1-16.2-3,9.61,9.61,0,0,0-5.4,8.8c0,5.4,3.4,7.8,10.4,7.8h22.2c19.8,0,33.4,9.8,33.4,28.8,0,25-21.6,34.8-44.2,34.8-25.4,0-44.4-11.2-44.4-33.2a27.18,27.18,0,0,1,8.6-20.4c-3.6-3.6-5.8-8.8-5.8-15.8,0-9,4.8-16.2,12.2-20.4-4.4-5.4-6.8-12.6-6.8-21.2C541.6,1278.2,557.2,1265.4,577.6,1265.4Zm-9.6,98.8a82.35,82.35,0,0,1-10.2-.6c-3,3.2-4.4,7-4.4,12.2,0,10,9,16.4,24.4,16.4,14.4,0,23-5.4,23-15.2,0-9.6-6.8-12.8-16.6-12.8H568Zm9.6-48.6c9.4,0,16-6.4,16-16.4s-6.6-16.4-16-16.4c-9.2,0-15.8,6.4-15.8,16.4S568.4,1315.6,577.6,1315.6Z"/><path d="M682.2,1267H699v-27.8l20.8-13V1267H746v18.4H719.8v49.2c0,11.4,4.2,16.4,13.4,16.4a16.15,16.15,0,0,0,9.6-2.8l5.4,17.6a36,36,0,0,1-16.2,3.6c-19,0-33-11.2-33-36v-48H682.2V1267Z"/><path d="M789.2,1226.2v58c7.2-10.4,18.8-18.8,34-18.8,18.6,0,29.8,10,29.8,31.4v71H832.2v-65.6c0-15.4-6.4-18.4-15.8-18.4-11.4,0-27.2,14.6-27.2,41.4v42.6H768.4V1226.2h20.8Z"/><path d="M890.2,1224a14.38,14.38,0,0,1,14.4,14.6,14.4,14.4,0,0,1-28.8,0A14.38,14.38,0,0,1,890.2,1224Zm10.4,43v100.8H879.8V1267h20.8Z"/><path d="M948.4,1267v17.2c7.2-12,19.2-18.8,32.6-18.8,17.6,0,29.6,10.6,29.6,30.2v72.2H989.8v-65.6c0-13.6-6.2-18.4-15.6-18.4-13,0-25.8,15.4-25.8,43.2v40.8H927.6V1267h20.8Z"/><path d="M1075.4,1265.4a39.67,39.67,0,0,1,18.4,4.4l18.6-10,8.4,15-13.6,7.6a32.82,32.82,0,0,1,4.4,16.8c0,21.2-15.8,33.8-36.2,33.8a45,45,0,0,1-16.2-3,9.61,9.61,0,0,0-5.4,8.8c0,5.4,3.4,7.8,10.4,7.8h22.2c19.8,0,33.4,9.8,33.4,28.8,0,25-21.6,34.8-44.2,34.8-25.4,0-44.4-11.2-44.4-33.2a27.18,27.18,0,0,1,8.6-20.4c-3.6-3.6-5.8-8.8-5.8-15.8,0-9,4.8-16.2,12.2-20.4-4.4-5.4-6.8-12.6-6.8-21.2C1039.4,1278.2,1055,1265.4,1075.4,1265.4Zm-9.6,98.8a82.35,82.35,0,0,1-10.2-.6c-3,3.2-4.4,7-4.4,12.2,0,10,9,16.4,24.4,16.4,14.4,0,23-5.4,23-15.2,0-9.6-6.8-12.8-16.6-12.8h-16.2Zm9.6-48.6c9.4,0,16-6.4,16-16.4s-6.6-16.4-16-16.4c-9.2,0-15.8,6.4-15.8,16.4S1066.2,1315.6,1075.4,1315.6Z"/><path d="M1198.79,1281.4l-13.2,11.6c-5-6.4-11.2-9.2-17.6-9.2-5.2,0-10,3.4-10,10,0,7.2,7.6,10.4,18,14.4,13.6,5.2,28.2,11.2,28.2,29.2,0,17.4-13.4,32-35,32-20.8,0-33.8-14.4-39-27l17.6-9.6c4,9,11,18.2,22.2,18.2,8,0,13.6-4,13.6-13.2,0-8.8-12.2-11.2-24-16.2-11.6-4.8-21.6-12.2-21.6-27.6,0-15.6,12.8-28.6,31-28.6A35.17,35.17,0,0,1,1198.79,1281.4Z"/><path d="M1229.6,1342.2h28.6l-27.2,52h-15.6Z"/><path d="M1399.79,1281.4l-13.2,11.6c-5-6.4-11.2-9.2-17.6-9.2-5.2,0-10,3.4-10,10,0,7.2,7.6,10.4,18,14.4,13.6,5.2,28.2,11.2,28.2,29.2,0,17.4-13.4,32-35,32-20.8,0-33.8-14.4-39-27l17.6-9.6c4,9,11,18.2,22.2,18.2,8,0,13.6-4,13.6-13.2,0-8.8-12.2-11.2-24-16.2-11.6-4.8-21.6-12.2-21.6-27.6,0-15.6,12.8-28.6,31-28.6A35.17,35.17,0,0,1,1399.79,1281.4Z"/><path d="M1472,1265.4c31.2,0,49.6,23.6,49.6,52s-18.4,52-49.6,52-49.6-23.6-49.6-52S1440.79,1265.4,1472,1265.4Zm0,85.6c18.2,0,27.6-16.6,27.6-33.6s-9.4-33.6-27.6-33.6-27.6,16.6-27.6,33.6S1453.79,1351,1472,1351Z"/><path d="M1565,1226.2v141.6h-20.8V1226.2H1565Z"/><path d="M1602,1267l22,72.4,22-72.4h21.2l-33.4,100.8h-19.6L1580.8,1267H1602Z"/><path d="M1694,1224a14.38,14.38,0,0,1,14.4,14.6,14.4,14.4,0,0,1-28.8,0A14.38,14.38,0,0,1,1694,1224Zm10.4,43v100.8h-20.8V1267h20.8Z"/><path d="M1752.2,1267v17.2c7.2-12,19.2-18.8,32.6-18.8,17.6,0,29.6,10.6,29.6,30.2v72.2h-20.8v-65.6c0-13.6-6.2-18.4-15.6-18.4-13,0-25.8,15.4-25.8,43.2v40.8h-20.8V1267h20.8Z"/><path d="M1879.2,1265.4a39.67,39.67,0,0,1,18.4,4.4l18.6-10,8.4,15-13.6,7.6a32.82,32.82,0,0,1,4.4,16.8c0,21.2-15.8,33.8-36.2,33.8a45,45,0,0,1-16.2-3,9.61,9.61,0,0,0-5.4,8.8c0,5.4,3.4,7.8,10.4,7.8h22.2c19.8,0,33.4,9.8,33.4,28.8,0,25-21.6,34.8-44.2,34.8-25.4,0-44.4-11.2-44.4-33.2a27.18,27.18,0,0,1,8.6-20.4c-3.6-3.6-5.8-8.8-5.8-15.8,0-9,4.8-16.2,12.2-20.4-4.4-5.4-6.8-12.6-6.8-21.2C1843.2,1278.2,1858.79,1265.4,1879.2,1265.4Zm-9.6,98.8a82.35,82.35,0,0,1-10.2-.6c-3,3.2-4.4,7-4.4,12.2,0,10,9,16.4,24.4,16.4,14.4,0,23-5.4,23-15.2,0-9.6-6.8-12.8-16.6-12.8h-16.2Zm9.6-48.6c9.4,0,16-6.4,16-16.4s-6.6-16.4-16-16.4c-9.2,0-15.8,6.4-15.8,16.4S1870,1315.6,1879.2,1315.6Z"/><path d="M2044.59,1369.4c-12.4,0-22.4-6.2-27-12.8v52h-20.8V1267h20.8v11.6c3.4-5.8,14.2-13.2,27.4-13.2,29.8,0,45,19.8,45,52C2090,1348.6,2074.79,1369.4,2044.59,1369.4Zm-2.4-85.6c-15,0-25.8,12.8-25.8,33.6s10.8,33.6,25.8,33.6,25.8-12.8,25.8-33.6S2057.19,1283.8,2042.19,1283.8Z"/><path d="M2112.19,1367.8V1267H2133v16.8c7-12,19-18.4,29.8-18.4a34.65,34.65,0,0,1,12.8,2.4l-3.6,19a23,23,0,0,0-11.8-3c-13.4,0-27.2,14.8-27.2,46.6v37.4h-20.8Z"/><path d="M2235.59,1265.4c31.2,0,49.6,23.6,49.6,52s-18.4,52-49.6,52-49.6-23.6-49.6-52S2204.39,1265.4,2235.59,1265.4Zm0,85.6c18.2,0,27.6-16.6,27.6-33.6s-9.4-33.6-27.6-33.6-27.6,16.6-27.6,33.6S2217.39,1351,2235.59,1351Z"/><path d="M2357.2,1369.4c-13.2,0-24-7.4-27.4-13.2v11.6H2309V1226.2h20.8v52c4.6-6.6,17-12.8,27-12.8,30.2,0,45.4,20.8,45.4,52C2402.19,1349.6,2387,1369.4,2357.2,1369.4Zm-2.8-85.6c-15,0-25.8,12.8-25.8,33.6s10.8,33.6,25.8,33.6,25.8-12.8,25.8-33.6S2369.39,1283.8,2354.39,1283.8Z"/><path d="M2445.6,1226.2v141.6h-20.8V1226.2h20.8Z"/><path d="M2561.4,1323.2H2490c0,14.8,8.6,27.8,25,27.8a29,29,0,0,0,26.4-17l17.8,7c-9.8,19-21.2,28.4-44.2,28.4-33.2,0-47-28-47-52s13.8-52,47-52c32.2,0,46.4,26.2,46.4,48.8v9Zm-71-17.4h49c-1.8-11.2-9.4-22-24.4-22C2501.2,1283.8,2492.6,1293.2,2490.4,1305.8Z"/><path d="M2606.8,1267v17.2c8.2-12.6,18.2-18.8,30.4-18.8,13.6,0,24.8,8.2,27.8,20.8,7-13.2,18.4-20.8,31.4-20.8,18.4,0,28.8,12.6,28.8,30.2v72.2h-20.8v-67.6c0-11-6-16.4-14.8-16.4-12.4,0-23.6,15.8-23.6,43.6v40.4h-20.8v-67.6c0-11-6-16.4-14.8-16.4-12.6,0-23.6,15.8-23.6,45.8v38.2H2586V1267h20.8Z"/><path d="M2813,1281.4l-13.2,11.6c-5-6.4-11.2-9.2-17.6-9.2-5.2,0-10,3.4-10,10,0,7.2,7.6,10.4,18,14.4,13.6,5.2,28.2,11.2,28.2,29.2,0,17.4-13.4,32-35,32-20.8,0-33.8-14.4-39-27l17.6-9.6c4,9,11,18.2,22.2,18.2,8,0,13.6-4,13.6-13.2,0-8.8-12.2-11.2-24-16.2-11.6-4.8-21.6-12.2-21.6-27.6,0-15.6,12.8-28.6,31-28.6A35.17,35.17,0,0,1,2813,1281.4Z"/><path d="M2843.8,1342.2h28.6l-27.2,52h-15.6Z"/><path d="M44.8,1509.8H62.2v-4.4c0-12.6-9-17.6-19.6-17.6-8.2,0-15.4,4.4-18.8,13.4l-19-4c4.2-17,18.6-27.8,38-27.8,23.4,0,40.2,10.2,40.2,39.8v62.6H65.4l-2-13.2c-6.6,9.2-17,14.8-31.2,14.8-16.8,0-31-9.6-31-30.6C1.2,1522,19,1509.8,44.8,1509.8Zm-9,45.2c12.8,0,26.4-8.2,26.4-25.6v-2.2H44c-12.8,0-20.8,6-20.8,15.6C23.2,1549.6,27,1555,35.8,1555Z"/><path d="M131.2,1471v17.2c7.2-12,19.2-18.8,32.6-18.8,17.6,0,29.6,10.6,29.6,30.2v72.2H172.6v-65.6c0-13.6-6.2-18.4-15.6-18.4-13,0-25.8,15.4-25.8,43.2v40.8H110.4V1471h20.8Z"/><path d="M260,1469.4c10,0,22.4,6.2,27,12.8v-52h20.8v141.6H287v-11.6c-3.4,5.8-14.2,13.2-27.4,13.2-29.8,0-45-19.8-45-52C214.6,1490.2,229.8,1469.4,260,1469.4Zm2.4,85.6c15,0,25.8-12.8,25.8-33.6s-10.8-33.6-25.8-33.6-25.8,12.8-25.8,33.6S247.4,1555,262.4,1555Z"/><path d="M442,1573.4c-13.2,0-24-7.4-27.4-13.2v11.6H393.8V1430.2h20.8v52c4.6-6.6,17-12.8,27-12.8,30.2,0,45.4,20.8,45.4,52C487,1553.6,471.8,1573.4,442,1573.4Zm-2.8-85.6c-15,0-25.8,12.8-25.8,33.6s10.8,33.6,25.8,33.6,25.8-12.8,25.8-33.6S454.2,1487.8,439.2,1487.8Z"/><path d="M599.2,1527.2H527.8c0,14.8,8.6,27.8,25,27.8a29,29,0,0,0,26.4-17l17.8,7c-9.8,19-21.2,28.4-44.2,28.4-33.2,0-47-28-47-52s13.8-52,47-52c32.2,0,46.4,26.2,46.4,48.8v9Zm-71-17.4h49c-1.8-11.2-9.4-22-24.4-22C539,1487.8,530.4,1497.2,528.2,1509.8Z"/><path d="M633,1428a14.38,14.38,0,0,1,14.4,14.6,14.4,14.4,0,0,1-28.8,0A14.38,14.38,0,0,1,633,1428Zm10.4,43v100.8H622.6V1471h20.8Z"/><path d="M691.2,1471v17.2c7.2-12,19.2-18.8,32.6-18.8,17.6,0,29.6,10.6,29.6,30.2v72.2h-20.8v-65.6c0-13.6-6.2-18.4-15.6-18.4-13,0-25.8,15.4-25.8,43.2v40.8H670.4V1471h20.8Z"/><path d="M818.2,1469.4a39.67,39.67,0,0,1,18.4,4.4l18.6-10,8.4,15-13.6,7.6a32.82,32.82,0,0,1,4.4,16.8c0,21.2-15.8,33.8-36.2,33.8a45,45,0,0,1-16.2-3,9.61,9.61,0,0,0-5.4,8.8c0,5.4,3.4,7.8,10.4,7.8h22.2c19.8,0,33.4,9.8,33.4,28.8,0,25-21.6,34.8-44.2,34.8-25.4,0-44.4-11.2-44.4-33.2a27.18,27.18,0,0,1,8.6-20.4c-3.6-3.6-5.8-8.8-5.8-15.8,0-9,4.8-16.2,12.2-20.4-4.4-5.4-6.8-12.6-6.8-21.2C782.2,1482.2,797.79,1469.4,818.2,1469.4Zm-9.6,98.8a82.35,82.35,0,0,1-10.2-.6c-3,3.2-4.4,7-4.4,12.2,0,10,9,16.4,24.4,16.4,14.4,0,23-5.4,23-15.2,0-9.6-6.8-12.8-16.6-12.8H808.6Zm9.6-48.6c9.4,0,16-6.4,16-16.4s-6.6-16.4-16-16.4c-9.2,0-15.8,6.4-15.8,16.4S809,1519.6,818.2,1519.6Z"/><path d="M956.59,1430.2v58c7.2-10.4,18.8-18.8,34-18.8,18.6,0,29.8,10,29.8,31.4v71h-20.8v-65.6c0-15.4-6.4-18.4-15.8-18.4-11.4,0-27.2,14.6-27.2,41.4v42.6h-20.8V1430.2h20.8Z"/><path d="M1109.79,1571.8v-17.2c-7.2,12-19.2,18.8-32.6,18.8-17.6,0-29.6-10.6-29.6-30.2V1471h20.8v65.6c0,13.6,6.2,18.4,15.6,18.4,13,0,25.8-15.4,25.8-43.2V1471h20.8v100.8h-20.8Z"/><path d="M1181,1471v17.2c8.2-12.6,18.2-18.8,30.4-18.8,13.6,0,24.8,8.2,27.8,20.8,7-13.2,18.4-20.8,31.4-20.8,18.4,0,28.8,12.6,28.8,30.2v72.2h-20.8v-67.6c0-11-6-16.4-14.8-16.4-12.4,0-23.6,15.8-23.6,43.6v40.4h-20.8v-67.6c0-11-6-16.4-14.8-16.4-12.6,0-23.6,15.8-23.6,45.8v38.2h-20.8V1471H1181Z"/><path d="M1365.59,1509.8H1383v-4.4c0-12.6-9-17.6-19.6-17.6-8.2,0-15.4,4.4-18.8,13.4l-19-4c4.2-17,18.6-27.8,38-27.8,23.4,0,40.2,10.2,40.2,39.8v62.6h-17.6l-2-13.2c-6.6,9.2-17,14.8-31.2,14.8-16.8,0-31-9.6-31-30.6C1322,1522,1339.79,1509.8,1365.59,1509.8Zm-9,45.2c12.8,0,26.4-8.2,26.4-25.6v-2.2h-18.2c-12.8,0-20.8,6-20.8,15.6C1344,1549.6,1347.79,1555,1356.59,1555Z"/><path d="M1452,1471v17.2c7.2-12,19.2-18.8,32.6-18.8,17.6,0,29.6,10.6,29.6,30.2v72.2h-20.8v-65.6c0-13.6-6.2-18.4-15.6-18.4-13,0-25.8,15.4-25.8,43.2v40.8h-20.8V1471H1452Z"/><path d="M1576.59,1558a14.8,14.8,0,1,1-14.8-14.8A14.64,14.64,0,0,1,1576.59,1558Z"/><path d="M1718.19,1465.6c-5.6-10.6-12.6-15.4-20.8-15.4-9,0-14.6,7-14.6,15.2,0,27.6,60,22.2,60,65.4,0,25.6-18.6,42.6-43.8,42.6-24.6,0-41.2-16.6-46.2-39l18-11.4c4,15.6,12.2,29.6,28.2,29.6,12.6,0,21.4-8.6,21.4-21,0-27.4-59.6-21.4-59.6-64.6,0-21.2,16.2-36.8,36.6-36.8,19.2,0,31.2,10.4,38.6,23.6Z"/><path d="M1786.39,1430.2v58c7.2-10.4,18.8-18.8,34-18.8,18.6,0,29.8,10,29.8,31.4v71h-20.8v-65.6c0-15.4-6.4-18.4-15.8-18.4-11.4,0-27.2,14.6-27.2,41.4v42.6h-20.8V1430.2h20.8Z"/><path d="M1965.19,1527.2h-71.4c0,14.8,8.6,27.8,25,27.8a29,29,0,0,0,26.4-17l17.8,7c-9.8,19-21.2,28.4-44.2,28.4-33.2,0-47-28-47-52s13.8-52,47-52c32.2,0,46.4,26.2,46.4,48.8v9Zm-71-17.4h49c-1.8-11.2-9.4-22-24.4-22C1905,1487.8,1896.39,1497.2,1894.19,1509.8Z"/><path d="M2077.79,1509.8h17.4v-4.4c0-12.6-9-17.6-19.6-17.6-8.2,0-15.4,4.4-18.8,13.4l-19-4c4.2-17,18.6-27.8,38-27.8,23.4,0,40.2,10.2,40.2,39.8v62.6h-17.6l-2-13.2c-6.6,9.2-17,14.8-31.2,14.8-16.8,0-31-9.6-31-30.6C2034.19,1522,2052,1509.8,2077.79,1509.8Zm-9,45.2c12.8,0,26.4-8.2,26.4-25.6v-2.2H2077c-12.8,0-20.8,6-20.8,15.6C2056.19,1549.6,2060,1555,2068.79,1555Z"/><path d="M2163.19,1430.2v141.6h-20.8V1430.2h20.8Z"/><path d="M2251.79,1485.4l-13.2,11.6c-5-6.4-11.2-9.2-17.6-9.2-5.2,0-10,3.4-10,10,0,7.2,7.6,10.4,18,14.4,13.6,5.2,28.2,11.2,28.2,29.2,0,17.4-13.4,32-35,32-20.8,0-33.8-14.4-39-27l17.6-9.6c4,9,11,18.2,22.2,18.2,8,0,13.6-4,13.6-13.2,0-8.8-12.2-11.2-24-16.2-11.6-4.8-21.6-12.2-21.6-27.6,0-15.6,12.8-28.6,31-28.6A35.17,35.17,0,0,1,2251.79,1485.4Z"/><path d="M2324,1469.4c31.2,0,49.6,23.6,49.6,52s-18.4,52-49.6,52-49.6-23.6-49.6-52S2292.79,1469.4,2324,1469.4Zm0,85.6c18.2,0,27.6-16.6,27.6-33.6s-9.4-33.6-27.6-33.6-27.6,16.6-27.6,33.6S2305.79,1555,2324,1555Z"/><path d="M30.4,1634.2v58c7.2-10.4,18.8-18.8,34-18.8,18.6,0,29.8,10,29.8,31.4v71H73.4v-65.6c0-15.4-6.4-18.4-15.8-18.4-11.4,0-27.2,14.6-27.2,41.4v42.6H9.6V1634.2H30.4Z"/><path d="M161,1713.8h17.4v-4.4c0-12.6-9-17.6-19.6-17.6-8.2,0-15.4,4.4-18.8,13.4l-19-4c4.2-17,18.6-27.8,38-27.8,23.4,0,40.2,10.2,40.2,39.8v62.6H181.6l-2-13.2c-6.6,9.2-17,14.8-31.2,14.8-16.8,0-31-9.6-31-30.6C117.4,1726,135.2,1713.8,161,1713.8Zm-9,45.2c12.8,0,26.4-8.2,26.4-25.6v-2.2H160.2c-12.8,0-20.8,6-20.8,15.6C139.4,1753.6,143.2,1759,152,1759Z"/><path d="M287,1689.4L273.8,1701c-5-6.4-11.2-9.2-17.6-9.2-5.2,0-10,3.4-10,10,0,7.2,7.6,10.4,18,14.4,13.6,5.2,28.2,11.2,28.2,29.2,0,17.4-13.4,32-35,32-20.8,0-33.8-14.4-39-27l17.6-9.6c4,9,11,18.2,22.2,18.2,8,0,13.6-4,13.6-13.2,0-8.8-12.2-11.2-24-16.2-11.6-4.8-21.6-12.2-21.6-27.6,0-15.6,12.8-28.6,31-28.6A35.17,35.17,0,0,1,287,1689.4Z"/><path d="M404.4,1713.8h17.4v-4.4c0-12.6-9-17.6-19.6-17.6-8.2,0-15.4,4.4-18.8,13.4l-19-4c4.2-17,18.6-27.8,38-27.8,23.4,0,40.2,10.2,40.2,39.8v62.6H425l-2-13.2c-6.6,9.2-17,14.8-31.2,14.8-16.8,0-31-9.6-31-30.6C360.8,1726,378.6,1713.8,404.4,1713.8Zm-9,45.2c12.8,0,26.4-8.2,26.4-25.6v-2.2H403.6c-12.8,0-20.8,6-20.8,15.6C382.8,1753.6,386.6,1759,395.4,1759Z"/><path d="M490.8,1675v17.2c7.2-12,19.2-18.8,32.6-18.8,17.6,0,29.6,10.6,29.6,30.2v72.2H532.2v-65.6c0-13.6-6.2-18.4-15.6-18.4-13,0-25.8,15.4-25.8,43.2v40.8H470V1675h20.8Z"/><path d="M698.4,1775.8v-17.2c-7.2,12-19.2,18.8-32.6,18.8-17.6,0-29.6-10.6-29.6-30.2V1675H657v65.6c0,13.6,6.2,18.4,15.6,18.4,13,0,25.8-15.4,25.8-43.2V1675h20.8v100.8H698.4Z"/><path d="M768.39,1675v17.2c7.2-12,19.2-18.8,32.6-18.8,17.6,0,29.6,10.6,29.6,30.2v72.2h-20.8v-65.6c0-13.6-6.2-18.4-15.6-18.4-13,0-25.8,15.4-25.8,43.2v40.8h-20.8V1675h20.8Z"/><path d="M863.59,1775.8V1675h20.8v16.8c7-12,19-18.4,29.8-18.4a34.65,34.65,0,0,1,12.8,2.4l-3.6,19a23,23,0,0,0-11.8-3c-13.4,0-27.2,14.8-27.2,46.6v37.4h-20.8Z"/><path d="M1030.79,1731.2h-71.4c0,14.8,8.6,27.8,25,27.8a29,29,0,0,0,26.4-17l17.8,7c-9.8,19-21.2,28.4-44.2,28.4-33.2,0-47-28-47-52s13.8-52,47-52c32.2,0,46.4,26.2,46.4,48.8v9Zm-71-17.4h49c-1.8-11.2-9.4-22-24.4-22C970.59,1691.8,962,1701.2,959.79,1713.8Z"/><path d="M1095.79,1673.4c13.2,0,24,7.4,27.4,13.2V1675H1144v141.6h-20.8v-52c-4.6,6.6-17,12.8-27,12.8-30.2,0-45.4-20.8-45.4-52C1050.79,1693.2,1066,1673.4,1095.79,1673.4Zm2.8,85.6c15,0,25.8-12.8,25.8-33.6s-10.8-33.6-25.8-33.6-25.8,12.8-25.8,33.6S1083.59,1759,1098.59,1759Z"/><path d="M1234.79,1775.8v-17.2c-7.2,12-19.2,18.8-32.6,18.8-17.6,0-29.6-10.6-29.6-30.2V1675h20.8v65.6c0,13.6,6.2,18.4,15.6,18.4,13,0,25.8-15.4,25.8-43.2V1675h20.8v100.8h-20.8Z"/><path d="M1293.19,1632a14.38,14.38,0,0,1,14.4,14.6,14.4,14.4,0,0,1-28.8,0A14.38,14.38,0,0,1,1293.19,1632Zm10.4,43v100.8h-20.8V1675h20.8Z"/><path d="M1324.59,1675h16.8v-27.8l20.8-13V1675h26.2v18.4h-26.2v49.2c0,11.4,4.2,16.4,13.4,16.4a16.15,16.15,0,0,0,9.6-2.8l5.4,17.6a36,36,0,0,1-16.2,3.6c-19,0-33-11.2-33-36v-48h-16.8V1675Z"/><path d="M1498.18,1731.2h-71.4c0,14.8,8.6,27.8,25,27.8a29,29,0,0,0,26.4-17l17.8,7c-9.8,19-21.2,28.4-44.2,28.4-33.2,0-47-28-47-52s13.8-52,47-52c32.2,0,46.4,26.2,46.4,48.8v9Zm-71-17.4h49c-1.8-11.2-9.4-22-24.4-22C1438,1691.8,1429.39,1701.2,1427.19,1713.8Z"/><path d="M1563.58,1673.4c10,0,22.4,6.2,27,12.8v-52h20.8v141.6h-20.8v-11.6c-3.4,5.8-14.2,13.2-27.4,13.2-29.8,0-45-19.8-45-52C1518.18,1694.2,1533.38,1673.4,1563.58,1673.4Zm2.4,85.6c15,0,25.8-12.8,25.8-33.6s-10.8-33.6-25.8-33.6-25.8,12.8-25.8,33.6S1551,1759,1566,1759Z"/><path d="M1703.78,1675l23.8,67.8,23-67.8h22l-51,141.6h-20.8l16.4-45.8-35.4-95.8h22Z"/><path d="M1873.78,1731.2h-71.4c0,14.8,8.6,27.8,25,27.8a29,29,0,0,0,26.4-17l17.8,7c-9.8,19-21.2,28.4-44.2,28.4-33.2,0-47-28-47-52s13.8-52,47-52c32.2,0,46.4,26.2,46.4,48.8v9Zm-71-17.4h49c-1.8-11.2-9.4-22-24.4-22C1813.58,1691.8,1805,1701.2,1802.78,1713.8Z"/><path d="M1886.58,1675h16.8v-27.8l20.8-13V1675h26.2v18.4h-26.2v49.2c0,11.4,4.2,16.4,13.4,16.4a16.15,16.15,0,0,0,9.6-2.8l5.4,17.6a36,36,0,0,1-16.2,3.6c-19,0-33-11.2-33-36v-48h-16.8V1675Z"/><path d="M2089,1775.8v-17.2c-7.2,12-19.2,18.8-32.6,18.8-17.6,0-29.6-10.6-29.6-30.2V1675h20.8v65.6c0,13.6,6.2,18.4,15.6,18.4,13,0,25.8-15.4,25.8-43.2V1675h20.8v100.8H2089Z"/><path d="M2159,1675v17.2c7.2-12,19.2-18.8,32.6-18.8,17.6,0,29.6,10.6,29.6,30.2v72.2h-20.8v-65.6c0-13.6-6.2-18.4-15.6-18.4-13,0-25.8,15.4-25.8,43.2v40.8h-20.8V1675H2159Z"/><path d="M2287.77,1673.4c10,0,22.4,6.2,27,12.8v-52h20.8v141.6h-20.8v-11.6c-3.4,5.8-14.2,13.2-27.4,13.2-29.8,0-45-19.8-45-52C2242.37,1694.2,2257.57,1673.4,2287.77,1673.4Zm2.4,85.6c15,0,25.8-12.8,25.8-33.6s-10.8-33.6-25.8-33.6-25.8,12.8-25.8,33.6S2275.17,1759,2290.17,1759Z"/><path d="M2373.17,1675l23.8,67.8,23-67.8h22l-51,141.6h-20.8l16.4-45.8-35.4-95.8h22Z"/><path d="M2470,1632a14.38,14.38,0,0,1,14.4,14.6,14.4,14.4,0,0,1-28.8,0A14.38,14.38,0,0,1,2470,1632Zm10.4,43v100.8h-20.8V1675h20.8Z"/><path d="M2528.17,1675v17.2c7.2-12,19.2-18.8,32.6-18.8,17.6,0,29.6,10.6,29.6,30.2v72.2h-20.8v-65.6c0-13.6-6.2-18.4-15.6-18.4-13,0-25.8,15.4-25.8,43.2v40.8h-20.8V1675h20.8Z"/><path d="M2655.17,1673.4a39.67,39.67,0,0,1,18.4,4.4l18.6-10,8.4,15-13.6,7.6a32.82,32.82,0,0,1,4.4,16.8c0,21.2-15.8,33.8-36.2,33.8a45,45,0,0,1-16.2-3,9.61,9.61,0,0,0-5.4,8.8c0,5.4,3.4,7.8,10.4,7.8h22.2c19.8,0,33.4,9.8,33.4,28.8,0,25-21.6,34.8-44.2,34.8-25.4,0-44.4-11.2-44.4-33.2a27.18,27.18,0,0,1,8.6-20.4c-3.6-3.6-5.8-8.8-5.8-15.8,0-9,4.8-16.2,12.2-20.4-4.4-5.4-6.8-12.6-6.8-21.2C2619.17,1686.2,2634.77,1673.4,2655.17,1673.4Zm-9.6,98.8a82.35,82.35,0,0,1-10.2-.6c-3,3.2-4.4,7-4.4,12.2,0,10,9,16.4,24.4,16.4,14.4,0,23-5.4,23-15.2,0-9.6-6.8-12.8-16.6-12.8h-16.2Zm9.6-48.6c9.4,0,16-6.4,16-16.4s-6.6-16.4-16-16.4c-9.2,0-15.8,6.4-15.8,16.4S2646,1723.6,2655.17,1723.6Z"/><path d="M30,1838.2v141.6H9.2V1838.2H30Z"/><path d="M102,1877.4c31.2,0,49.6,23.6,49.6,52s-18.4,52-49.6,52-49.6-23.6-49.6-52S70.8,1877.4,102,1877.4Zm0,85.6c18.2,0,27.6-16.6,27.6-33.6s-9.4-33.6-27.6-33.6-27.6,16.6-27.6,33.6S83.8,1963,102,1963Z"/><path d="M182,1879l22,72.4,22-72.4h21.2l-33.4,100.8H194.2L160.8,1879H182Z"/><path d="M348.4,1935.2H277c0,14.8,8.6,27.8,25,27.8a29,29,0,0,0,26.4-17l17.8,7c-9.8,19-21.2,28.4-44.2,28.4-33.2,0-47-28-47-52s13.8-52,47-52c32.2,0,46.4,26.2,46.4,48.8v9Zm-71-17.4h49c-1.8-11.2-9.4-22-24.4-22C288.2,1895.8,279.6,1905.2,277.4,1917.8Z"/><path d="M416.2,1879h13v-5.2c0-24.6,13.4-35.6,33.8-35.6a37.17,37.17,0,0,1,16.6,3.6l-4.2,17.6a24.25,24.25,0,0,0-11.8-2.8c-9.2,0-13.6,5.4-13.6,15.8v6.6h22.2v18.4H450v82.4H429.2v-82.4h-13V1879Z"/><path d="M533.8,1877.4c31.2,0,49.6,23.6,49.6,52s-18.4,52-49.6,52-49.6-23.6-49.6-52S502.6,1877.4,533.8,1877.4Zm0,85.6c18.2,0,27.6-16.6,27.6-33.6s-9.4-33.6-27.6-33.6-27.6,16.6-27.6,33.6S515.6,1963,533.8,1963Z"/><path d="M605.6,1979.8V1879h20.8v16.8c7-12,19-18.4,29.8-18.4a34.65,34.65,0,0,1,12.8,2.4l-3.6,19a23,23,0,0,0-11.8-3c-13.4,0-27.2,14.8-27.2,46.6v37.4H605.6Z"/><path d="M824.2,1953.6c-8,18.2-22.2,27.8-43.6,27.8-32,0-47.4-24.4-47.4-52s15.4-52,47.4-52c21.4,0,35.6,9.6,43.6,27.8l-18.6,8c-4.8-10.8-13-17.4-25-17.4-17.8,0-25.4,14.6-25.4,33.6s7.6,33.6,25.4,33.6c12,0,20.2-6.6,25-17.4Z"/><path d="M883.8,1917.8h17.4v-4.4c0-12.6-9-17.6-19.6-17.6-8.2,0-15.4,4.4-18.8,13.4l-19-4c4.2-17,18.6-27.8,38-27.8,23.4,0,40.2,10.2,40.2,39.8v62.6H904.4l-2-13.2c-6.6,9.2-17,14.8-31.2,14.8-16.8,0-31-9.6-31-30.6C840.2,1930,858,1917.8,883.8,1917.8Zm-9,45.2c12.8,0,26.4-8.2,26.4-25.6v-2.2H883c-12.8,0-20.8,6-20.8,15.6C862.2,1957.6,866,1963,874.8,1963Z"/><path d="M937.8,1879h16.8v-27.8l20.8-13V1879h26.2v18.4H975.4v49.2c0,11.4,4.2,16.4,13.4,16.4a16.15,16.15,0,0,0,9.6-2.8l5.4,17.6a36,36,0,0,1-16.2,3.6c-19,0-33-11.2-33-36v-48H937.8V1879Z"/><path d="M1085.4,1893.4l-13.2,11.6c-5-6.4-11.2-9.2-17.6-9.2-5.2,0-10,3.4-10,10,0,7.2,7.6,10.4,18,14.4,13.6,5.2,28.2,11.2,28.2,29.2,0,17.4-13.4,32-35,32-20.8,0-33.8-14.4-39-27l17.6-9.6c4,9,11,18.2,22.2,18.2,8,0,13.6-4,13.6-13.2,0-8.8-12.2-11.2-24-16.2-11.6-4.8-21.6-12.2-21.6-27.6,0-15.6,12.8-28.6,31-28.6A35.17,35.17,0,0,1,1085.4,1893.4Z"/><path d="M1136.2,1966a14.8,14.8,0,1,1-14.8-14.8A14.64,14.64,0,0,1,1136.2,1966Z"/></svg>