<svg id="Layer_1" data-name="Layer 1" xmlns="http://www.w3.org/2000/svg" viewBox="0 0 717.12 145.44"><title>about-menu</title><path d="M69.4,3.84l48.6,140H95.6L84,109H34l-11.6,34.8H0l48.6-140H69.4ZM40.6,88.24H77.4L59,31.64Z"/><path d="M182.2,145.44c-13.2,0-24-7.4-27.4-13.2v11.6H134V2.24h20.8v52c4.6-6.6,17-12.8,27-12.8,30.2,0,45.4,20.8,45.4,52C227.2,125.64,212,145.44,182.2,145.44Zm-2.8-85.6c-15,0-25.8,12.8-25.8,33.6S164.4,127,179.4,127s25.8-12.8,25.8-33.6S194.4,59.84,179.4,59.84Z"/><path d="M295.6,41.44c31.2,0,49.6,23.6,49.6,52s-18.4,52-49.6,52-49.6-23.6-49.6-52S264.4,41.44,295.6,41.44Zm0,85.6c18.2,0,27.6-16.6,27.6-33.6s-9.4-33.6-27.6-33.6S268,76.44,268,93.44,277.4,127,295.6,127Z"/><path d="M430.2,143.84v-17.2c-7.2,12-19.2,18.8-32.6,18.8-17.6,0-29.6-10.6-29.6-30.2V43h20.8v65.6c0,13.6,6.2,18.4,15.6,18.4,13,0,25.8-15.4,25.8-43.2V43H451v100.8H430.2Z"/><path d="M470.8,43h16.8V15.24l20.8-13V43h26.2v18.4H508.4v49.2c0,11.4,4.2,16.4,13.4,16.4a16.14,16.14,0,0,0,9.6-2.8l5.4,17.6a36,36,0,0,1-16.2,3.6c-19,0-33-11.2-33-36v-48H470.8V43Z"/></svg>