<svg id="Layer_1" data-name="Layer 1" xmlns="http://www.w3.org/2000/svg" viewBox="0 0 1791.36 243.36"><defs><style>.cls-1{fill:none;stroke:#000;stroke-width:6px;}</style></defs><title>baselines</title><path class="cls-1" d="M95.88,166.94C82,177.5,67.32,183.5,52.44,183.5c-11.76,0-31.44-2.88-44.64-7.92l4.8-16.08V48.38c0-18.72-5.52-25.68-9.6-30v-7.2L44.76,4,42.6,18.86V86.3L67.08,70c4.8-3.36,8.88-3.36,14.16-3.36,21.12,0,41,19.44,41,48.72C122.29,136.22,113.41,153.26,95.88,166.94ZM64,89.42c-5,0-13.68,2.64-21.36,6.72v62.64c7.44,4.08,16.32,5.52,24.24,5.52,6,0,14.64-1,18-2.4,4.32-7.2,6.72-20.16,6.72-37.68C91.56,99.26,78.36,89.42,64,89.42Z"/><path class="cls-1" d="M228.16,182.78c-2.4.24-9.6,0.24-11.76,0.24-9.12,0-17-6.24-19.92-18l-24.72,17.52a59.26,59.26,0,0,1-9.36.72c-19.2,0-30.24-13.68-30.24-31.68a54.51,54.51,0,0,1,4.32-20.16l59.76-23.28v-3.6c0-9.12-5.52-19-21.36-19a48.35,48.35,0,0,0-22.8,6l-4.8,10.8h-9.6v-25c15.6-7,30.72-11,44.16-11,24.72,0,45.12,12.24,45.12,34.32,0,14.4-1,47.76-1,48.72,0,17,1.92,19.44,21.84,19.44v8.4ZM196,119.42l-31.44,14.64a85.91,85.91,0,0,0-1.2,13.92c0,8.88,4.56,14.4,13.92,14.4,4.32,0,12.72-2.88,18.72-7v-36Z"/><path class="cls-1" d="M293.16,183.74c-10.08,0-25.68-2.88-34.56-7.44v-31h10.08l3.36,13.2c8.64,6,23.52,8.88,32.64,8.88a80.88,80.88,0,0,0,14.64-1A48.07,48.07,0,0,0,321,152.54c0-9.84-6-10.8-16.32-13.68l-21.6-6C267,128.3,261,116.78,261,102.86c0-20.64,27.12-36.48,51.6-36.48A110.55,110.55,0,0,1,346,72.14l-6.72,29.76H328.68V88.46c-5.52-3.36-17-6-25-6a87.84,87.84,0,0,0-13,.72,44.43,44.43,0,0,0-1.44,12c0,9.6,5,12.24,19,16.08l17.76,5c15.6,4.32,23.28,15.12,23.28,29C349.32,168.86,323.64,183.74,293.16,183.74Z"/><path class="cls-1" d="M424.92,183.26h-6c-37,0-57.36-23-57.36-55.44,0-35.76,24.72-61.68,59.52-61.68,30.48,0,43,21.36,43,55.44H392.28v3.12c0,23.28,15.84,37,37,37,12.24,0,21.12-2.64,34.8-7.92v15.6ZM411.72,79.34a74.64,74.64,0,0,0-7.68.24c-6.72,5.52-10.8,15.36-11.76,30.48h41C432.12,90.14,424.92,79.34,411.72,79.34Z"/><path class="cls-1" d="M473.88,181.34l4.32-12,13,1V48.62c0-20.16-6.24-25.68-9.6-30.24v-7.2L523.32,4l-2.16,13.68v153.6l17.28,1.2v8.88H473.88Z"/><path class="cls-1" d="M551.32,181.34l4.32-12,13,1V86.54l-17.28-4.8V73.58l49.68-7-2.16,14.16v90.48l17.52,1.2v8.88h-65Z"/><path class="cls-1" d="M702.64,181.34l4.32-12,11.52,1V116.54c0-18.24-6.72-27.36-19.68-27.36-9.12,0-16.08,3.36-23.28,6.72v75.36l15.84,1.2v8.88H628l4.32-12,13,1v-84L629.2,81.74V73.58l41.76-7,4.56,19.44L701,69.74c2.4-1.68,4.56-3.12,12.72-3.12,21.12,0,35,13.92,35,40.8v63.84l16.32,1.2v8.88h-62.4Z"/><path class="cls-1" d="M831.23,183.26h-6c-37,0-57.36-23-57.36-55.44,0-35.76,24.72-61.68,59.52-61.68,30.48,0,43,21.36,43,55.44H798.59v3.12c0,23.28,15.84,37,37,37,12.24,0,21.12-2.64,34.8-7.92v15.6ZM818,79.34a74.64,74.64,0,0,0-7.68.24c-6.72,5.52-10.8,15.36-11.76,30.48h41C838.43,90.14,831.23,79.34,818,79.34Z"/><path class="cls-1" d="M918.11,183.74c-10.08,0-25.68-2.88-34.56-7.44v-31h10.08l3.36,13.2c8.64,6,23.52,8.88,32.64,8.88a80.88,80.88,0,0,0,14.64-1A48.07,48.07,0,0,0,946,152.54c0-9.84-6-10.8-16.32-13.68l-21.6-6c-16.08-4.56-22.08-16.08-22.08-30,0-20.64,27.12-36.48,51.6-36.48a110.55,110.55,0,0,1,33.36,5.76l-6.72,29.76H953.63V88.46c-5.52-3.36-17-6-25-6a87.84,87.84,0,0,0-13,.72,44.43,44.43,0,0,0-1.44,12c0,9.6,5,12.24,19,16.08l17.76,5c15.6,4.32,23.28,15.12,23.28,29C974.27,168.86,948.59,183.74,918.11,183.74Z"/><circle class="cls-1" cx="583.84" cy="24.51" r="20.54"/></svg>