<svg id="Layer_1" data-name="Layer 1" xmlns="http://www.w3.org/2000/svg" viewBox="0 0 1791.36 243.36"><defs><style>.cls-1{fill:none;stroke:#000;stroke-width:6px;}</style></defs><title>bluelagoon</title><path class="cls-1" d="M95.88,166.91C82,177.47,67.32,183.47,52.44,183.47c-11.76,0-31.44-2.88-44.64-7.92l4.8-16.08V48.35c0-18.72-5.52-25.68-9.6-30v-7.2l41.76-7.2L42.6,18.82V86.27L67.08,69.95c4.8-3.36,8.88-3.36,14.16-3.36,21.12,0,41,19.44,41,48.72C122.28,136.19,113.4,153.23,95.88,166.91ZM64,89.39c-5,0-13.68,2.64-21.36,6.72v62.64c7.44,4.08,16.32,5.52,24.24,5.52,6,0,14.64-1,18-2.4,4.32-7.2,6.72-20.16,6.72-37.68C91.56,99.23,78.36,89.39,64,89.39Z"/><path class="cls-1" d="M126.88,181.31l4.32-12,13,1V48.59c0-20.16-6.24-25.68-9.6-30.24v-7.2l41.76-7.2-2.16,13.68v153.6l17.28,1.2v8.88H126.88Z"/><path class="cls-1" d="M285.15,182.75l-1.68-18.24-22.8,15.36c-5.28,3.6-9.6,3.6-14.16,3.6-21.36,0-35.28-14.64-35.28-41.52V84.35l-15.12-2.64v-8.4l47.28-6.72L241.47,81v55.68c0,19.44,10.32,24.48,19.68,24.48a46.23,46.23,0,0,0,21.84-6V84.35l-16.08-3.12V73.07l48.48-6.48-2.16,13v90L331.47,171v8.88Z"/><path class="cls-1" d="M404.19,183.23h-6c-37,0-57.36-23-57.36-55.44,0-35.76,24.72-61.68,59.52-61.68,30.48,0,43,21.36,43,55.44H371.55v3.12c0,23.28,15.84,37,37,37,12.24,0,21.12-2.64,34.8-7.92v15.6ZM391,79.31a74.62,74.62,0,0,0-7.68.24c-6.72,5.52-10.8,15.36-11.76,30.48h41C411.39,90.11,404.19,79.31,391,79.31Z"/><path class="cls-1" d="M540.51,181.31l4.32-12,13,1V48.59c0-20.16-6.24-25.68-9.6-30.24v-7.2l41.76-7.2-2.16,13.68v153.6l17.28,1.2v8.88H540.51Z"/><path class="cls-1" d="M712.35,182.75c-2.4.24-9.6,0.24-11.76,0.24-9.12,0-17-6.24-19.92-18l-24.72,17.52a59.19,59.19,0,0,1-9.36.72c-19.2,0-30.24-13.68-30.24-31.68a54.51,54.51,0,0,1,4.32-20.16l59.76-23.28v-3.6c0-9.12-5.52-19-21.36-19a48.35,48.35,0,0,0-22.8,6l-4.8,10.8h-9.6v-25c15.6-7,30.72-11,44.16-11,24.72,0,45.12,12.24,45.12,34.32,0,14.4-1,47.76-1,48.72,0,17,1.92,19.44,21.84,19.44v8.4Zm-32.16-63.36L648.75,134a85.86,85.86,0,0,0-1.2,13.92c0,8.88,4.56,14.4,13.92,14.4,4.32,0,12.72-2.88,18.72-7v-36Z"/><path class="cls-1" d="M833.79,86.27c3.36,3.84,6,10.56,6,17.28,0,23.28-19,36.24-19,47,0,4.08.72,8.16,7,12.72l18,13.2a21.71,21.71,0,0,1,8.4,17.52c0,24.48-34.08,46.32-68.64,46.32-29.52,0-50.88-16.56-50.88-40.8a55.44,55.44,0,0,1,1.68-12l34.8-14.88,3.84,7.2-10.32,7.68v5c0,18.72,11.52,31.68,32.88,31.68,7,0,16.56-1.92,21.6-4.32a41.58,41.58,0,0,0,4.08-17.28c0-6.72-3.6-11.28-10.08-15.84l-17.52-12.24c-3.36-2.4-3.84-5.76-3.84-9.6s3.6-10.56,7.68-17.28l-1.2-1.92-22.08,10.32c-24,0-39.36-18-39.36-41.28,0-28.32,26.4-48.48,58.8-48.48a48.86,48.86,0,0,1,21.84,5h51.12v10.8ZM786,79.79a43.32,43.32,0,0,0-10.8,1.2c-5,4.56-9.12,15.36-9.12,26.88,0,17,10.8,30.72,24,30.72,4.08,0,9.84-.48,13.44-2.16,4.08-9.6,6-18.24,6-26.16C809.55,93.23,800.91,79.79,786,79.79Z"/><path class="cls-1" d="M926.79,183.71c-35.76,0-57.84-23.76-57.84-58.08,0-35,25.44-59.52,62.4-59.52,35.28,0,56.88,23.76,56.88,57.6C988.23,159.23,962.07,183.71,926.79,183.71Zm0.72-104.4c-17.52,1.44-25,17.28-25,43,0,28.8,10.08,47,27.84,48.48,17-1.68,24.24-16.8,24.24-42.24C954.63,100.19,945.27,80.27,927.51,79.31Z"/><path class="cls-1" d="M1061.55,183.71c-35.76,0-57.84-23.76-57.84-58.08,0-35,25.44-59.52,62.4-59.52,35.28,0,56.88,23.76,56.88,57.6C1123,159.23,1096.83,183.71,1061.55,183.71Zm0.72-104.4c-17.52,1.44-25,17.28-25,43,0,28.8,10.08,47,27.84,48.48,17-1.68,24.24-16.8,24.24-42.24C1089.39,100.19,1080,80.27,1062.27,79.31Z"/><path class="cls-1" d="M1205.66,181.31l4.32-12,11.52,1V116.51c0-18.24-6.72-27.36-19.68-27.36-9.12,0-16.08,3.36-23.28,6.72v75.36l15.84,1.2v8.88H1131l4.32-12,13,1v-84l-16.08-4.56V73.55l41.76-7L1178.54,86,1204,69.71c2.4-1.68,4.56-3.12,12.72-3.12,21.12,0,35,13.92,35,40.8v63.84l16.32,1.2v8.88h-62.4Z"/></svg>