<svg id="Layer_1" data-name="Layer 1" xmlns="http://www.w3.org/2000/svg" viewBox="0 0 717.12 145.44"><title>contact</title><path d="M100.46,49.84C93.46,32,83.66,23,64.66,23c-23.6,0-42.4,16.6-42.4,50.8s18.8,50.8,42.4,50.8c19,0,28.8-9,35.8-26.8l20.8,5.2c-7.2,26.4-26.8,42.4-56.6,42.4-33.8,0-64.8-24.2-64.8-71.6s31-71.6,64.8-71.6c29.8,0,49.4,16,56.6,42.4Z"/><path d="M187.26,41.44c31.2,0,49.6,23.6,49.6,52s-18.4,52-49.6,52-49.6-23.6-49.6-52S156.06,41.44,187.26,41.44Zm0,85.6c18.2,0,27.6-16.6,27.6-33.6s-9.4-33.6-27.6-33.6-27.6,16.6-27.6,33.6S169.06,127,187.26,127Z"/><path d="M280.66,43v17.2c7.2-12,19.2-18.8,32.6-18.8,17.6,0,29.6,10.6,29.6,30.2v72.2h-20.8V78.24c0-13.6-6.2-18.4-15.6-18.4-13,0-25.8,15.4-25.8,43.2v40.8h-20.8V43h20.8Z"/><path d="M359.26,43h16.8V15.24l20.8-13V43h26.2v18.4h-26.2v49.2c0,11.4,4.2,16.4,13.4,16.4a16.14,16.14,0,0,0,9.6-2.8l5.4,17.6a36,36,0,0,1-16.2,3.6c-19,0-33-11.2-33-36v-48h-16.8V43Z"/><path d="M483.86,81.84h17.4v-4.4c0-12.6-9-17.6-19.6-17.6-8.2,0-15.4,4.4-18.8,13.4l-19-4c4.2-17,18.6-27.8,38-27.8,23.4,0,40.2,10.2,40.2,39.8v62.6h-17.6l-2-13.2c-6.6,9.2-17,14.8-31.2,14.8-16.8,0-31-9.6-31-30.6C440.26,94,458.06,81.84,483.86,81.84Zm-9,45.2c12.8,0,26.4-8.2,26.4-25.6v-2.2h-18.2c-12.8,0-20.8,6-20.8,15.6C462.26,121.64,466.06,127,474.86,127Z"/><path d="M637.06,117.64c-8,18.2-22.2,27.8-43.6,27.8-32,0-47.4-24.4-47.4-52s15.4-52,47.4-52c21.4,0,35.6,9.6,43.6,27.8l-18.6,8c-4.8-10.8-13-17.4-25-17.4-17.8,0-25.4,14.6-25.4,33.6s7.6,33.6,25.4,33.6c12,0,20.2-6.6,25-17.4Z"/><path d="M651.26,43h16.8V15.24l20.8-13V43h26.2v18.4h-26.2v49.2c0,11.4,4.2,16.4,13.4,16.4a16.14,16.14,0,0,0,9.6-2.8l5.4,17.6a36,36,0,0,1-16.2,3.6c-19,0-33-11.2-33-36v-48h-16.8V43Z"/></svg>