<svg id="Layer_1" data-name="Layer 1" xmlns="http://www.w3.org/2000/svg" viewBox="0 0 2491.8 1773.83"><title>contact</title><path d="M97.4,47.6c-7-17.8-16.8-26.8-35.8-26.8C38,20.8,19.2,37.4,19.2,71.6S38,122.4,61.6,122.4c19,0,28.8-9,35.8-26.8l20.8,5.2c-7.2,26.4-26.8,42.4-56.6,42.4C27.8,143.2-3.2,119-3.2,71.6S27.8,0,61.6,0C91.4,0,111,16,118.2,42.4Z"/><path d="M184.2,39.2c31.2,0,49.6,23.6,49.6,52s-18.4,52-49.6,52-49.6-23.6-49.6-52S153,39.2,184.2,39.2Zm0,85.6c18.2,0,27.6-16.6,27.6-33.6s-9.4-33.6-27.6-33.6-27.6,16.6-27.6,33.6S166,124.8,184.2,124.8Z"/><path d="M277.6,40.8V58c7.2-12,19.2-18.8,32.6-18.8,17.6,0,29.6,10.6,29.6,30.2v72.2H319V76c0-13.6-6.2-18.4-15.6-18.4-13,0-25.8,15.4-25.8,43.2v40.8H256.8V40.8h20.8Z"/><path d="M356.2,40.8H373V13L393.8,0V40.8H420V59.2H393.8v49.2c0,11.4,4.2,16.4,13.4,16.4a16.15,16.15,0,0,0,9.6-2.8l5.4,17.6a36,36,0,0,1-16.2,3.6c-19,0-33-11.2-33-36v-48H356.2V40.8Z"/><path d="M480.8,79.6h17.4V75.2c0-12.6-9-17.6-19.6-17.6-8.2,0-15.4,4.4-18.8,13.4l-19-4c4.2-17,18.6-27.8,38-27.8C502.2,39.2,519,49.4,519,79v62.6H501.4l-2-13.2c-6.6,9.2-17,14.8-31.2,14.8-16.8,0-31-9.6-31-30.6C437.2,91.8,455,79.6,480.8,79.6Zm-9,45.2c12.8,0,26.4-8.2,26.4-25.6V97H480c-12.8,0-20.8,6-20.8,15.6C459.2,119.4,463,124.8,471.8,124.8Z"/><path d="M634,115.4c-8,18.2-22.2,27.8-43.6,27.8-32,0-47.4-24.4-47.4-52s15.4-52,47.4-52c21.4,0,35.6,9.6,43.6,27.8l-18.6,8c-4.8-10.8-13-17.4-25-17.4-17.8,0-25.4,14.6-25.4,33.6s7.6,33.6,25.4,33.6c12,0,20.2-6.6,25-17.4Z"/><path d="M648.2,40.8H665V13l20.8-13V40.8H712V59.2h-26.2v49.2c0,11.4,4.2,16.4,13.4,16.4a16.15,16.15,0,0,0,9.6-2.8l5.4,17.6a36,36,0,0,1-16.2,3.6c-19,0-33-11.2-33-36v-48H648.2V40.8Z"/><path d="M767.59,63.2a14.8,14.8,0,1,1-14.8-14.8A14.64,14.64,0,0,1,767.59,63.2Zm0,64.6a14.8,14.8,0,1,1-14.8-14.8A14.64,14.64,0,0,1,767.59,127.8Z"/><path d="M24.6,448.8V466c8.2-12.6,18.2-18.8,30.4-18.8,13.6,0,24.8,8.2,27.8,20.8,7-13.2,18.4-20.8,31.4-20.8,18.4,0,28.8,12.6,28.8,30.2v72.2H122.2V482c0-11-6-16.4-14.8-16.4-12.4,0-23.6,15.8-23.6,43.6v40.4H63V482c0-11-6-16.4-14.8-16.4-12.6,0-23.6,15.8-23.6,45.8v38.2H3.8V448.8H24.6Z"/><path d="M153.8,573.8c13.2-4,21.2-10.6,21.2-26.8V448.8h20.8V545c0,27.4-13,41.6-36.8,47Zm31.6-168a14.38,14.38,0,0,1,14.4,14.6,14.4,14.4,0,0,1-28.8,0A14.38,14.38,0,0,1,185.4,405.8Z"/><path d="M233.6,405.8A14.38,14.38,0,0,1,248,420.4a14.4,14.4,0,0,1-28.8,0A14.38,14.38,0,0,1,233.6,405.8Zm10.4,43V549.6H223.2V448.8H244Z"/><path d="M373.79,479.6c0,44.2-17.4,71.6-50.4,71.6S273,523.8,273,479.6,290.4,408,323.4,408,373.79,435.4,373.79,479.6Zm-79.6,0c0,32.8,9.4,52.4,29.2,52.4s29.2-19.6,29.2-52.4-9.4-52.4-29.2-52.4S294.2,446.8,294.2,479.6Z"/><path d="M441.2,409.6v140H420v-110l-26.2,15.6V432.8l38.8-23.2h8.6Z"/><path d="M591,447.8l-4.8,50.6a32,32,0,0,0-.2,3.4c0,5.4,3.2,7.8,7.8,7.8,11.6,0,15-13.6,15-30.4,0-39.6-20.6-54.8-55.2-54.8-30.2,0-59.8,21-59.8,65.6,0,40.6,29.6,60,59.6,60,14,0,27.2,0,48.2-10.6l7,17c-20.6,9.2-31,12-55.2,12-47.4,0-80.6-30-80.6-79,0-51.4,34.4-83.4,81.8-83.4,48,0,74.2,27.4,74.2,73.2,0,31.8-14.4,48.8-35.8,48.8-10,0-19.2-5.2-22.6-13.4-6,9.2-15.2,13.4-26,13.4-23,0-35-16.8-35-37.4,0-25,17.2-44.2,42.6-44.2,10.4,0,17.4,3.6,21.6,10l2.2-8.6H591Zm-62,43.4c0,10.2,5.8,18.4,16.8,18.4,16.8,0,22.6-14,22.6-26.4,0-12.2-7.2-18.4-17.8-18.4C537.39,464.8,529,475.4,529,491.2Z"/><path d="M658,549.6V448.8h20.8v16.8c7-12,19-18.4,29.8-18.4a34.65,34.65,0,0,1,12.8,2.4l-3.6,19a23,23,0,0,0-11.8-3c-13.4,0-27.2,14.8-27.2,46.6v37.4H658Z"/><path d="M750,405.8a14.38,14.38,0,0,1,14.4,14.6,14.4,14.4,0,0,1-28.8,0A14.38,14.38,0,0,1,750,405.8Zm10.4,43V549.6h-20.8V448.8h20.8Z"/><path d="M849.19,463.2L836,474.8c-5-6.4-11.2-9.2-17.6-9.2-5.2,0-10,3.4-10,10,0,7.2,7.6,10.4,18,14.4,13.6,5.2,28.2,11.2,28.2,29.2,0,17.4-13.4,32-35,32-20.8,0-33.8-14.4-39-27l17.6-9.6c4,9,11,18.2,22.2,18.2,8,0,13.6-4,13.6-13.2,0-8.8-12.2-11.2-24-16.2-11.6-4.8-21.6-12.2-21.6-27.6,0-15.6,12.8-28.6,31-28.6A35.17,35.17,0,0,1,849.19,463.2Z"/><path d="M917.19,447.2c10,0,22.4,6.2,27,12.8V408H965V549.6h-20.8V538c-3.4,5.8-14.2,13.2-27.4,13.2-29.8,0-45-19.8-45-52C871.79,468,887,447.2,917.19,447.2Zm2.4,85.6c15,0,25.8-12.8,25.8-33.6s-10.8-33.6-25.8-33.6-25.8,12.8-25.8,33.6S904.59,532.8,919.59,532.8Z"/><path d="M1016.2,535.8a14.8,14.8,0,1,1-14.8-14.8A14.64,14.64,0,0,1,1016.2,535.8Z"/><path d="M1136.39,505H1065c0,14.8,8.6,27.8,25,27.8a29,29,0,0,0,26.4-17l17.8,7c-9.8,19-21.2,28.4-44.2,28.4-33.2,0-47-28-47-52s13.8-52,47-52c32.2,0,46.4,26.2,46.4,48.8v9Zm-71-17.4h49c-1.8-11.2-9.4-22-24.4-22C1076.19,465.6,1067.59,475,1065.39,487.6Z"/><path d="M1201.79,447.2c10,0,22.4,6.2,27,12.8V408h20.8V549.6h-20.8V538c-3.4,5.8-14.2,13.2-27.4,13.2-29.8,0-45-19.8-45-52C1156.39,468,1171.59,447.2,1201.79,447.2Zm2.4,85.6c15,0,25.8-12.8,25.8-33.6s-10.8-33.6-25.8-33.6-25.8,12.8-25.8,33.6S1189.19,532.8,1204.19,532.8Z"/><path d="M1338.19,549.6V532.4c-7.2,12-19.2,18.8-32.6,18.8-17.6,0-29.6-10.6-29.6-30.2V448.8h20.8v65.6c0,13.6,6.2,18.4,15.6,18.4,13,0,25.8-15.4,25.8-43.2V448.8H1359V549.6h-20.8Z"/><path d="M24.6,652.8V670c8.2-12.6,18.2-18.8,30.4-18.8,13.6,0,24.8,8.2,27.8,20.8,7-13.2,18.4-20.8,31.4-20.8,18.4,0,28.8,12.6,28.8,30.2v72.2H122.2V686c0-11-6-16.4-14.8-16.4-12.4,0-23.6,15.8-23.6,43.6v40.4H63V686c0-11-6-16.4-14.8-16.4-12.6,0-23.6,15.8-23.6,45.8v38.2H3.8V652.8H24.6Z"/><path d="M209.2,691.6h17.4v-4.4c0-12.6-9-17.6-19.6-17.6-8.2,0-15.4,4.4-18.8,13.4l-19-4c4.2-17,18.6-27.8,38-27.8,23.4,0,40.2,10.2,40.2,39.8v62.6H229.8l-2-13.2c-6.6,9.2-17,14.8-31.2,14.8-16.8,0-31-9.6-31-30.6C165.6,703.8,183.4,691.6,209.2,691.6Zm-9,45.2c12.8,0,26.4-8.2,26.4-25.6V709H208.4c-12.8,0-20.8,6-20.8,15.6C187.6,731.4,191.4,736.8,200.2,736.8Z"/><path d="M273,753.6V652.8h20.8v16.8c7-12,19-18.4,29.8-18.4a34.65,34.65,0,0,1,12.8,2.4l-3.6,19a23,23,0,0,0-11.8-3c-13.4,0-27.2,14.8-27.2,46.6v37.4H273Z"/><path d="M365,609.8a14.38,14.38,0,0,1,14.4,14.6,14.4,14.4,0,0,1-28.8,0A14.38,14.38,0,0,1,365,609.8Zm10.4,43V753.6H354.6V652.8h20.8Z"/><path d="M443,691.6h17.4v-4.4c0-12.6-9-17.6-19.6-17.6-8.2,0-15.4,4.4-18.8,13.4l-19-4c4.2-17,18.6-27.8,38-27.8,23.4,0,40.2,10.2,40.2,39.8v62.6H463.6l-2-13.2c-6.6,9.2-17,14.8-31.2,14.8-16.8,0-31-9.6-31-30.6C399.4,703.8,417.2,691.6,443,691.6Zm-9,45.2c12.8,0,26.4-8.2,26.4-25.6V709H442.2c-12.8,0-20.8,6-20.8,15.6C421.4,731.4,425.2,736.8,434,736.8Z"/><path d="M498.8,753.6h89V772h-89V753.6Z"/><path d="M588.2,777.8c13.2-4,21.2-10.6,21.2-26.8V652.8h20.8V749c0,27.4-13,41.6-36.8,47Zm31.6-168a14.38,14.38,0,0,1,14.4,14.6,14.4,14.4,0,0,1-28.8,0A14.38,14.38,0,0,1,619.8,609.8Z"/><path d="M668,609.8a14.38,14.38,0,0,1,14.4,14.6,14.4,14.4,0,0,1-28.8,0A14.38,14.38,0,0,1,668,609.8Zm10.4,43V753.6H657.6V652.8h20.8Z"/><path d="M826.79,651.8L822,702.4a32,32,0,0,0-.2,3.4c0,5.4,3.2,7.8,7.8,7.8,11.6,0,15-13.6,15-30.4,0-39.6-20.6-54.8-55.2-54.8-30.2,0-59.8,21-59.8,65.6,0,40.6,29.6,60,59.6,60,14,0,27.2,0,48.2-10.6l7,17c-20.6,9.2-31,12-55.2,12-47.4,0-80.6-30-80.6-79,0-51.4,34.4-83.4,81.8-83.4,48,0,74.2,27.4,74.2,73.2,0,31.8-14.4,48.8-35.8,48.8-10,0-19.2-5.2-22.6-13.4-6,9.2-15.2,13.4-26,13.4-23,0-35-16.8-35-37.4,0-25,17.2-44.2,42.6-44.2,10.4,0,17.4,3.6,21.6,10l2.2-8.6h15.2Zm-62,43.4c0,10.2,5.8,18.4,16.8,18.4,16.8,0,22.6-14,22.6-26.4,0-12.2-7.2-18.4-17.8-18.4C773.19,668.8,764.79,679.4,764.79,695.2Z"/><path d="M942,755.2c-13.2,0-24-7.4-27.4-13.2v11.6h-20.8V612h20.8v52c4.6-6.6,17-12.8,27-12.8,30.2,0,45.4,20.8,45.4,52C987,735.4,971.79,755.2,942,755.2Zm-2.8-85.6c-15,0-25.8,12.8-25.8,33.6s10.8,33.6,25.8,33.6S965,724,965,703.2,954.19,669.6,939.19,669.6Z"/><path d="M1009.19,753.6V652.8H1030v16.8c7-12,19-18.4,29.8-18.4a34.65,34.65,0,0,1,12.8,2.4l-3.6,19a23,23,0,0,0-11.8-3c-13.4,0-27.2,14.8-27.2,46.6v37.4h-20.8Z"/><path d="M1132.59,651.2c31.2,0,49.6,23.6,49.6,52s-18.4,52-49.6,52-49.6-23.6-49.6-52S1101.39,651.2,1132.59,651.2Zm0,85.6c18.2,0,27.6-16.6,27.6-33.6s-9.4-33.6-27.6-33.6-27.6,16.6-27.6,33.6S1114.39,736.8,1132.59,736.8Z"/><path d="M1330.79,652.8l-32,100.8h-19l-18.2-71.2-18.2,71.2h-19l-32-100.8h22l19.4,73.6,17.8-73.6h20l17.8,73.6,19.4-73.6h22Z"/><path d="M1368.4,652.8V670c7.2-12,19.2-18.8,32.6-18.8,17.6,0,29.6,10.6,29.6,30.2v72.2h-20.8V688c0-13.6-6.2-18.4-15.6-18.4-13,0-25.8,15.4-25.8,43.2v40.8h-20.8V652.8h20.8Z"/><path d="M1493,739.8a14.8,14.8,0,1,1-14.8-14.8A14.64,14.64,0,0,1,1493,739.8Z"/><path d="M1613.19,709h-71.4c0,14.8,8.6,27.8,25,27.8a29,29,0,0,0,26.4-17l17.8,7c-9.8,19-21.2,28.4-44.2,28.4-33.2,0-47-28-47-52s13.8-52,47-52c32.2,0,46.4,26.2,46.4,48.8v9Zm-71-17.4h49c-1.8-11.2-9.4-22-24.4-22C1553,669.6,1544.39,679,1542.19,691.6Z"/><path d="M1678.59,651.2c10,0,22.4,6.2,27,12.8V612h20.8V753.6h-20.8V742c-3.4,5.8-14.2,13.2-27.4,13.2-29.8,0-45-19.8-45-52C1633.19,672,1648.39,651.2,1678.59,651.2Zm2.4,85.6c15,0,25.8-12.8,25.8-33.6s-10.8-33.6-25.8-33.6-25.8,12.8-25.8,33.6S1666,736.8,1681,736.8Z"/><path d="M1815,753.6V736.4c-7.2,12-19.2,18.8-32.6,18.8-17.6,0-29.6-10.6-29.6-30.2V652.8h20.8v65.6c0,13.6,6.2,18.4,15.6,18.4,13,0,25.8-15.4,25.8-43.2V652.8h20.8V753.6H1815Z"/><path d="M42,807.6c-14,21.6-21.2,43.8-21.2,80S28,946,42,967.6H21.2C9.8,948.4,0,926.8,0,887.6s9.8-60.8,21.2-80H42Z"/><path d="M192,856.8L160,957.6H141l-18.2-71.2-18.2,71.2h-19l-32-100.8h22L95,930.4l17.8-73.6h20l17.8,73.6L170,856.8h22Z"/><path d="M233.6,816v58c7.2-10.4,18.8-18.8,34-18.8,18.6,0,29.8,10,29.8,31.4v71H276.6V892c0-15.4-6.4-18.4-15.8-18.4-11.4,0-27.2,14.6-27.2,41.4v42.6H212.8V816h20.8Z"/><path d="M334.6,813.8A14.38,14.38,0,0,1,349,828.4a14.4,14.4,0,0,1-28.8,0A14.38,14.38,0,0,1,334.6,813.8Zm10.4,43V957.6H324.2V856.8H345Z"/><path d="M458.4,931.4c-8,18.2-22.2,27.8-43.6,27.8-32,0-47.4-24.4-47.4-52s15.4-52,47.4-52c21.4,0,35.6,9.6,43.6,27.8l-18.6,8c-4.8-10.8-13-17.4-25-17.4-17.8,0-25.4,14.6-25.4,33.6s7.6,33.6,25.4,33.6c12,0,20.2-6.6,25-17.4Z"/><path d="M501.6,816v58c7.2-10.4,18.8-18.8,34-18.8,18.6,0,29.8,10,29.8,31.4v71H544.6V892c0-15.4-6.4-18.4-15.8-18.4-11.4,0-27.2,14.6-27.2,41.4v42.6H480.8V816h20.8Z"/><path d="M680.4,913H609c0,14.8,8.6,27.8,25,27.8a29,29,0,0,0,26.4-17l17.8,7c-9.8,19-21.2,28.4-44.2,28.4-33.2,0-47-28-47-52s13.8-52,47-52c32.2,0,46.4,26.2,46.4,48.8v9Zm-71-17.4h49c-1.8-11.2-9.4-22-24.4-22C620.2,873.6,611.6,883,609.4,895.6Z"/><path d="M711.8,856.8l22,72.4,22-72.4H777L743.6,957.6H724L690.6,856.8h21.2Z"/><path d="M878.2,913H806.8c0,14.8,8.6,27.8,25,27.8a29,29,0,0,0,26.4-17l17.8,7c-9.8,19-21.2,28.4-44.2,28.4-33.2,0-47-28-47-52s13.8-52,47-52c32.2,0,46.4,26.2,46.4,48.8v9Zm-71-17.4h49c-1.8-11.2-9.4-22-24.4-22C818,873.6,809.4,883,807.2,895.6Z"/><path d="M899.6,957.6V856.8h20.8v16.8c7-12,19-18.4,29.8-18.4a34.65,34.65,0,0,1,12.8,2.4l-3.6,19a23,23,0,0,0-11.8-3c-13.4,0-27.2,14.8-27.2,46.6v37.4H899.6Z"/><path d="M1025,856.8h13v-5.2c0-24.6,13.4-35.6,33.8-35.6h50.6V957.6h-20.8V834.4h-29.2c-9.2,0-13.6,5.4-13.6,15.8v6.6H1081v18.4h-22.2v82.4H1038V875.2h-13V856.8Z"/><path d="M1197.8,855.2c31.2,0,49.6,23.6,49.6,52s-18.4,52-49.6,52-49.6-23.6-49.6-52S1166.6,855.2,1197.8,855.2Zm0,85.6c18.2,0,27.6-16.6,27.6-33.6s-9.4-33.6-27.6-33.6-27.6,16.6-27.6,33.6S1179.6,940.8,1197.8,940.8Z"/><path d="M1308.6,895.6H1326v-4.4c0-12.6-9-17.6-19.6-17.6-8.2,0-15.4,4.4-18.8,13.4l-19-4c4.2-17,18.6-27.8,38-27.8,23.4,0,40.2,10.2,40.2,39.8v62.6h-17.6l-2-13.2c-6.6,9.2-17,14.8-31.2,14.8-16.8,0-31-9.6-31-30.6C1265,907.8,1282.8,895.6,1308.6,895.6Zm-9,45.2c12.8,0,26.4-8.2,26.4-25.6V913h-18.2c-12.8,0-20.8,6-20.8,15.6C1287,935.4,1290.8,940.8,1299.6,940.8Z"/><path d="M1362.6,856.8h16.8V829l20.8-13v40.8h26.2v18.4h-26.2v49.2c0,11.4,4.2,16.4,13.4,16.4a16.15,16.15,0,0,0,9.6-2.8l5.4,17.6a36,36,0,0,1-16.2,3.6c-19,0-33-11.2-33-36v-48h-16.8V856.8Z"/><path d="M1510.2,871.2L1497,882.8c-5-6.4-11.2-9.2-17.6-9.2-5.2,0-10,3.4-10,10,0,7.2,7.6,10.4,18,14.4,13.6,5.2,28.2,11.2,28.2,29.2,0,17.4-13.4,32-35,32-20.8,0-33.8-14.4-39-27l17.6-9.6c4,9,11,18.2,22.2,18.2,8,0,13.6-4,13.6-13.2,0-8.8-12.2-11.2-24-16.2-11.6-4.8-21.6-12.2-21.6-27.6,0-15.6,12.8-28.6,31-28.6A35.17,35.17,0,0,1,1510.2,871.2Z"/><path d="M1598.8,856.8l23.8,67.8,23-67.8h22l-51,141.6h-20.8l16.4-45.8-35.4-95.8h22Z"/><path d="M1725,855.2c31.2,0,49.6,23.6,49.6,52s-18.4,52-49.6,52-49.6-23.6-49.6-52S1693.8,855.2,1725,855.2Zm0,85.6c18.2,0,27.6-16.6,27.6-33.6s-9.4-33.6-27.6-33.6-27.6,16.6-27.6,33.6S1706.8,940.8,1725,940.8Z"/><path d="M1859.6,957.6V940.4c-7.2,12-19.2,18.8-32.6,18.8-17.6,0-29.6-10.6-29.6-30.2V856.8h20.8v65.6c0,13.6,6.2,18.4,15.6,18.4,13,0,25.8-15.4,25.8-43.2V856.8h20.8V957.6h-20.8Z"/><path d="M1910.2,957.6V856.8H1931v16.8c7-12,19-18.4,29.8-18.4a34.65,34.65,0,0,1,12.8,2.4l-3.6,19a23,23,0,0,0-11.8-3c-13.4,0-27.2,14.8-27.2,46.6v37.4h-20.8Z"/><path d="M2093.4,959.2c-13.2,0-24-7.4-27.4-13.2v11.6h-20.8V816H2066v52c4.6-6.6,17-12.8,27-12.8,30.2,0,45.4,20.8,45.4,52C2138.39,939.4,2123.19,959.2,2093.4,959.2Zm-2.8-85.6c-15,0-25.8,12.8-25.8,33.6s10.8,33.6,25.8,33.6,25.8-12.8,25.8-33.6S2105.59,873.6,2090.59,873.6Z"/><path d="M2206.79,855.2c31.2,0,49.6,23.6,49.6,52s-18.4,52-49.6,52-49.6-23.6-49.6-52S2175.59,855.2,2206.79,855.2Zm0,85.6c18.2,0,27.6-16.6,27.6-33.6s-9.4-33.6-27.6-33.6-27.6,16.6-27.6,33.6S2188.59,940.8,2206.79,940.8Z"/><path d="M2317.6,895.6H2335v-4.4c0-12.6-9-17.6-19.6-17.6-8.2,0-15.4,4.4-18.8,13.4l-19-4c4.2-17,18.6-27.8,38-27.8,23.4,0,40.2,10.2,40.2,39.8v62.6h-17.6l-2-13.2c-6.6,9.2-17,14.8-31.2,14.8-16.8,0-31-9.6-31-30.6C2274,907.8,2291.8,895.6,2317.6,895.6Zm-9,45.2c12.8,0,26.4-8.2,26.4-25.6V913h-18.2c-12.8,0-20.8,6-20.8,15.6C2296,935.4,2299.8,940.8,2308.6,940.8Z"/><path d="M2371.6,856.8h16.8V829l20.8-13v40.8h26.2v18.4h-26.2v49.2c0,11.4,4.2,16.4,13.4,16.4a16.15,16.15,0,0,0,9.6-2.8l5.4,17.6a36,36,0,0,1-16.2,3.6c-19,0-33-11.2-33-36v-48h-16.8V856.8Z"/><path d="M2470.6,807.6c11.4,19.2,21.2,40.8,21.2,80s-9.8,60.8-21.2,80h-20.8c14-21.6,21.2-43.8,21.2-80s-7.2-58.4-21.2-80h20.8Z"/><path d="M90.8,1321.6c0,25.6-18.8,45.6-44.8,45.6s-44.8-20-44.8-45.6A51.22,51.22,0,0,1,8,1296.2L49.6,1224H73.2l-30.6,52.8a11.74,11.74,0,0,1,4.6-.8C73,1276,90.8,1295.2,90.8,1321.6Zm-68.4,0c0,15.4,9.8,26.4,23.6,26.4,14,0,23.6-11,23.6-26.4,0-16.4-9.6-26.4-23.6-26.4S22.4,1305.2,22.4,1321.6Z"/><path d="M106,1269.6c0-25.6,18.8-45.6,44.8-45.6s44.8,20,44.8,45.6a51.21,51.21,0,0,1-6.8,25.4l-41.6,72.2H123.6l30.6-52.8a11.73,11.73,0,0,1-4.6.8C123.8,1315.2,106,1296,106,1269.6Zm68.4,0c0-15.4-9.8-26.4-23.6-26.4-14,0-23.6,11-23.6,26.4,0,16.4,9.6,26.4,23.6,26.4S174.4,1286,174.4,1269.6Z"/><path d="M327,1225.6c23.2,0,39.2,12.4,39.2,36.6,0,10.8-6,22.6-14.2,27,13.2,5.6,21.4,19,21.4,35.2,0,26.2-16.4,41.2-44,41.2h-52v-140H327Zm-27.6,20.8v34.4H325c12.4,0,19.2-5.8,19.2-17.2s-6.8-17.2-19.2-17.2H299.4Zm0,55.2v43.2h27c16.2,0,24.6-7.6,24.6-21.6s-8.4-21.6-24.6-21.6h-27Z"/><path d="M397.4,1365.6V1264.8h20.8v16.8c7-12,19-18.4,29.8-18.4a34.65,34.65,0,0,1,12.8,2.4l-3.6,19a23,23,0,0,0-11.8-3c-13.4,0-27.2,14.8-27.2,46.6v37.4H397.4Z"/><path d="M520.8,1263.2c31.2,0,49.6,23.6,49.6,52s-18.4,52-49.6,52-49.6-23.6-49.6-52S489.6,1263.2,520.8,1263.2Zm0,85.6c18.2,0,27.6-16.6,27.6-33.6s-9.4-33.6-27.6-33.6-27.6,16.6-27.6,33.6S502.6,1348.8,520.8,1348.8Z"/><path d="M719,1264.8l-32,100.8H668l-18.2-71.2-18.2,71.2h-19l-32-100.8h22l19.4,73.6,17.8-73.6h20l17.8,73.6,19.4-73.6h22Z"/><path d="M756.6,1264.8V1282c7.2-12,19.2-18.8,32.6-18.8,17.6,0,29.6,10.6,29.6,30.2v72.2H798V1300c0-13.6-6.2-18.4-15.6-18.4-13,0-25.8,15.4-25.8,43.2v40.8H735.8V1264.8h20.8Z"/><path d="M959.19,1259.4c-5.6-10.6-12.6-15.4-20.8-15.4-9,0-14.6,7-14.6,15.2,0,27.6,60,22.2,60,65.4,0,25.6-18.6,42.6-43.8,42.6-24.6,0-41.2-16.6-46.2-39l18-11.4c4,15.6,12.2,29.6,28.2,29.6,12.6,0,21.4-8.6,21.4-21,0-27.4-59.6-21.4-59.6-64.6,0-21.2,16.2-36.8,36.6-36.8,19.2,0,31.2,10.4,38.6,23.6Z"/><path d="M995.6,1264.8h16.8V1237l20.8-13v40.8h26.2v18.4h-26.2v49.2c0,11.4,4.2,16.4,13.4,16.4a16.15,16.15,0,0,0,9.6-2.8l5.4,17.6a36,36,0,0,1-16.2,3.6c-19,0-33-11.2-33-36v-48H995.6v-18.4Z"/><path d="M1111.59,1351.8a14.8,14.8,0,1,1-14.8-14.8A14.64,14.64,0,0,1,1111.59,1351.8Z"/><path d="M1201.79,1265.8h27l8.2-40.2h17.6l-8.2,40.2h25l8.2-40.2h17.6l-8.2,40.2h22.8v16.4h-26.2l-5.4,26.8h23.6v16.4h-27l-8.2,40.2H1251l8.2-40.2h-25l-8.2,40.2h-17.6l8.2-40.2h-22.8V1309H1220l5.4-26.8h-23.6v-16.4Zm35.8,43.2h25l5.4-26.8h-25Z"/><path d="M1357.79,1324.4c2.4,14.8,10.6,23.6,25.2,23.6,14.4,0,25-9.4,25-27,0-18.2-10.8-27.4-25-27.4a27.74,27.74,0,0,0-12.2,2.8l-8.4-11.2,29-40.4H1344v-19.2h78v7.2l-34,46.4a27.16,27.16,0,0,1,5.8-.6c21.6,0,35.4,18,35.4,42.4,0,26.8-20.4,46.2-46.2,46.2-24,0-44.2-16.8-45.8-40.2Z"/><path d="M1539,1321.6c0,25.6-18.8,45.6-44.8,45.6s-44.8-20-44.8-45.6a51.22,51.22,0,0,1,6.8-25.4l41.6-72.2h23.6l-30.6,52.8a11.74,11.74,0,0,1,4.6-.8C1521.19,1276,1539,1295.2,1539,1321.6Zm-68.4,0c0,15.4,9.8,26.4,23.6,26.4,14,0,23.6-11,23.6-26.4,0-16.4-9.6-26.4-23.6-26.4S1470.59,1305.2,1470.59,1321.6Z"/><path d="M1661.59,1295.6c0,44.2-17.4,71.6-50.4,71.6s-50.4-27.4-50.4-71.6,17.4-71.6,50.4-71.6S1661.59,1251.4,1661.59,1295.6Zm-79.6,0c0,32.8,9.4,52.4,29.2,52.4s29.2-19.6,29.2-52.4-9.4-52.4-29.2-52.4S1582,1262.8,1582,1295.6Z"/><path d="M1740.39,1337.6H1680V1328l59.2-102.4h22.4v92.8H1778v19.2h-16.4v28h-21.2v-28Zm0-19.2v-60.8l-34,60.8h34Z"/><path d="M27.4,1512.4v57.2H5.4v-140H55.6c27.8,0,43.4,17.8,43.4,41.4s-15.6,41.4-43.4,41.4H27.4ZM76.6,1471c0-13-7.4-20.6-20-20.6H27.4v41.2H56.6C69.2,1491.6,76.6,1484,76.6,1471Z"/><path d="M119.8,1569.6V1468.8h20.8v16.8c7-12,19-18.4,29.8-18.4a34.65,34.65,0,0,1,12.8,2.4l-3.6,19a23,23,0,0,0-11.8-3c-13.4,0-27.2,14.8-27.2,46.6v37.4H119.8Z"/><path d="M243.2,1467.2c31.2,0,49.6,23.6,49.6,52s-18.4,52-49.6,52-49.6-23.6-49.6-52S212,1467.2,243.2,1467.2Zm0,85.6c18.2,0,27.6-16.6,27.6-33.6s-9.4-33.6-27.6-33.6-27.6,16.6-27.6,33.6S225,1552.8,243.2,1552.8Z"/><path d="M323.2,1468.8l22,72.4,22-72.4h21.2L355,1569.6H335.4L302,1468.8h21.2Z"/><path d="M415.2,1425.8a14.38,14.38,0,0,1,14.4,14.6,14.4,14.4,0,0,1-28.8,0A14.38,14.38,0,0,1,415.2,1425.8Zm10.4,43v100.8H404.8V1468.8h20.8Z"/><path d="M493.4,1467.2c10,0,22.4,6.2,27,12.8v-52h20.8v141.6H520.4V1558c-3.4,5.8-14.2,13.2-27.4,13.2-29.8,0-45-19.8-45-52C448,1488,463.2,1467.2,493.4,1467.2Zm2.4,85.6c15,0,25.8-12.8,25.8-33.6s-10.8-33.6-25.8-33.6-25.8,12.8-25.8,33.6S480.8,1552.8,495.8,1552.8Z"/><path d="M657.6,1525H586.2c0,14.8,8.6,27.8,25,27.8a29,29,0,0,0,26.4-17l17.8,7c-9.8,19-21.2,28.4-44.2,28.4-33.2,0-47-28-47-52s13.8-52,47-52c32.2,0,46.4,26.2,46.4,48.8v9Zm-71-17.4h49c-1.8-11.2-9.4-22-24.4-22C597.4,1485.6,588.8,1495,586.6,1507.6Z"/><path d="M700.6,1468.8V1486c7.2-12,19.2-18.8,32.6-18.8,17.6,0,29.6,10.6,29.6,30.2v72.2H742V1504c0-13.6-6.2-18.4-15.6-18.4-13,0-25.8,15.4-25.8,43.2v40.8H679.8V1468.8h20.8Z"/><path d="M875,1543.4c-8,18.2-22.2,27.8-43.6,27.8-32,0-47.4-24.4-47.4-52s15.4-52,47.4-52c21.4,0,35.6,9.6,43.6,27.8l-18.6,8c-4.8-10.8-13-17.4-25-17.4-17.8,0-25.4,14.6-25.4,33.6s7.6,33.6,25.4,33.6c12,0,20.2-6.6,25-17.4Z"/><path d="M985.2,1525H913.8c0,14.8,8.6,27.8,25,27.8a29,29,0,0,0,26.4-17l17.8,7c-9.8,19-21.2,28.4-44.2,28.4-33.2,0-47-28-47-52s13.8-52,47-52c32.2,0,46.4,26.2,46.4,48.8v9Zm-71-17.4h49c-1.8-11.2-9.4-22-24.4-22C925,1485.6,916.4,1495,914.2,1507.6Z"/><path d="M1127.4,1505.2l40.4,64.4h-26l-39.4-62.8h-16.2v62.8h-22v-140h49c26.4,0,41.4,14.8,41.4,38.6C1154.6,1487.4,1144.8,1500.6,1127.4,1505.2Zm4.8-37c0-12.4-7.8-17.8-18.4-17.8h-27.6V1486h27.6C1124.4,1486,1132.2,1480.6,1132.2,1468.2Z"/><path d="M1184.8,1429.6h22v140h-22v-140Z"/><path d="M1390.8,1499.6c0,44.2-17.4,71.6-50.4,71.6s-50.4-27.4-50.4-71.6,17.4-71.6,50.4-71.6S1390.8,1455.4,1390.8,1499.6Zm-79.6,0c0,32.8,9.4,52.4,29.2,52.4s29.2-19.6,29.2-52.4-9.4-52.4-29.2-52.4S1311.2,1466.8,1311.2,1499.6Z"/><path d="M1409.2,1560.8l51.6-66.2c9-11.4,11.2-17.6,11.2-26,0-12.8-6.4-21.4-19.2-21.4-12.2,0-19.2,8.8-20.8,21.4l-20-3.8c1.4-20.8,18.2-36.8,40.8-36.8,23.6,0,40.6,14.8,40.6,39.8,0,10.8-3.6,21.8-11.6,32l-39.8,50.6h54v19.2h-86.8v-8.8Z"/><path d="M1515.4,1473.6c0-25.6,18.8-45.6,44.8-45.6s44.8,20,44.8,45.6a51.21,51.21,0,0,1-6.8,25.4l-41.6,72.2H1533l30.6-52.8a11.73,11.73,0,0,1-4.6.8C1533.2,1519.2,1515.4,1500,1515.4,1473.6Zm68.4,0c0-15.4-9.8-26.4-23.6-26.4-14,0-23.6,11-23.6,26.4,0,16.4,9.6,26.4,23.6,26.4S1583.8,1490,1583.8,1473.6Z"/><path d="M1676.8,1429.6v140h-21.2v-110l-26.2,15.6v-22.4l38.8-23.2h8.6Z"/><path d="M1700.8,1560.8l51.6-66.2c9-11.4,11.2-17.6,11.2-26,0-12.8-6.4-21.4-19.2-21.4-12.2,0-19.2,8.8-20.8,21.4l-20-3.8c1.4-20.8,18.2-36.8,40.8-36.8,23.6,0,40.6,14.8,40.6,39.8,0,10.8-3.6,21.8-11.6,32l-39.8,50.6h54v19.2h-86.8v-8.8Z"/><path d="M1.6,1633.6h22v90.6c0,19,9.6,30.2,28.4,30.2s28.4-11.2,28.4-30.2v-90.6h22v89.6c0,33.8-21.8,52-50.4,52s-50.4-18.4-50.4-52v-89.6Z"/><path d="M187.4,1667.4c-5.6-10.6-12.6-15.4-20.8-15.4-9,0-14.6,7-14.6,15.2,0,27.6,60,22.2,60,65.4,0,25.6-18.6,42.6-43.8,42.6-24.6,0-41.2-16.6-46.2-39l18-11.4c4,15.6,12.2,29.6,28.2,29.6,12.6,0,21.4-8.6,21.4-21,0-27.4-59.6-21.4-59.6-64.6,0-21.2,16.2-36.8,36.6-36.8,19.2,0,31.2,10.4,38.6,23.6Z"/><path d="M291.6,1633.6l48.6,140H317.8l-11.6-34.8h-50l-11.6,34.8H222.2l48.6-140h20.8ZM262.8,1718h36.8l-18.4-56.6Z"/></svg>