<svg id="Layer_1" data-name="Layer 1" xmlns="http://www.w3.org/2000/svg" viewBox="0 0 1791.36 243.36"><defs><style>.cls-1{fill:none;stroke:#000;stroke-width:6px;}</style></defs><title>-land</title><path class="cls-1" d="M70.18,127.12h-66l8.4-25.2h66Z"/><path class="cls-1" d="M80.59,180.89l4.32-12,13,1V48.16c0-20.16-6.24-25.68-9.6-30.24v-7.2L130,3.52,127.87,17.2v153.6l17.28,1.2v8.88H80.59Z"/><path class="cls-1" d="M247.44,182.33c-2.4.24-9.6,0.24-11.76,0.24-9.12,0-17-6.24-19.92-18L191,182.09a59.25,59.25,0,0,1-9.36.72c-19.2,0-30.24-13.68-30.24-31.68A54.5,54.5,0,0,1,155.76,131l59.76-23.28v-3.6c0-9.12-5.52-19-21.36-19a48.35,48.35,0,0,0-22.8,6l-4.8,10.8H157V77c15.6-7,30.72-11,44.16-11,24.72,0,45.12,12.24,45.12,34.32,0,14.4-1,47.76-1,48.72,0,17,1.92,19.44,21.84,19.44v8.4ZM215.28,119l-31.44,14.64a85.86,85.86,0,0,0-1.2,13.92c0,8.88,4.56,14.4,13.92,14.4,4.32,0,12.72-2.88,18.72-7V119Z"/><path class="cls-1" d="M350,180.89l4.32-12,11.52,1V116.08c0-18.24-6.72-27.36-19.68-27.36-9.12,0-16.08,3.36-23.28,6.72v75.36l15.84,1.2v8.88H275.35l4.32-12,13,1v-84l-16.08-4.56V73.12l41.76-7,4.56,19.44,25.44-16.32c2.4-1.68,4.56-3.12,12.72-3.12,21.12,0,35,13.92,35,40.8v63.84l16.32,1.2v8.88H350Z"/><path class="cls-1" d="M494.18,183.29l-1.68-18.72-27.12,17A50.43,50.43,0,0,1,453.14,183c-20.64,0-42-21.12-42-52.8,0-36.48,30-64.08,71-64.08A36.39,36.39,0,0,1,492,67.84V47.2c0-20.88-7.44-26.64-10.08-29.28v-7.2l42.24-7.2L522,17.2V155l0.72,13.44,20.16,1.68V179ZM492,89.68a54.88,54.88,0,0,0-21.12-4.8c-9.36,0-18.72,1.2-23.52,3.36-2.64,5-5.76,16.56-5.76,32.16,0,27.84,13.2,39.84,28.8,39.84a55.11,55.11,0,0,0,21.6-5.52v-65Z"/></svg>