<svg id="Layer_1" data-name="Layer 1" xmlns="http://www.w3.org/2000/svg" viewBox="0 0 1791.36 243.36"><defs><style>.cls-1{fill:none;stroke:#000;stroke-width:6px;}</style></defs><title>eye-spy</title><path class="cls-1" d="M62.5,182.81H59.62c-34.8,0-56.88-23.28-56.88-54.48,0-34.56,28.8-62.4,67.44-62.4,12.24,0,21.84,2.64,29.28,6.48l-6.72,31.92h-11V90.64a44.79,44.79,0,0,0-25.2-7.92c-4.56,0-8.88.24-11.52,0.48-6,5.28-10.8,19-10.8,34.56,0,25.44,12.48,43.2,35,43.2,8.88,0,21.36-2.88,30.48-7v15.12Z"/><path class="cls-1" d="M181.18,180.89l4.32-12,11.52,1V116.08c0-18.24-6.72-27.36-19.68-27.36-9.12,0-16.08,3.36-23.28,6.72v75.36L169.9,172v8.88H107.74l4.32-12,12,1V47.68c0-16.56-4.56-25-9.6-29.76v-7.2l41.76-7.2L154.06,17.2V85.6l28.32-18.24a33.54,33.54,0,0,1,9.84-1.2c21.12,0,35,15.12,35,42v62.4L244.78,172v8.88h-63.6Z"/><path class="cls-1" d="M347.82,182.33c-2.4.24-9.6,0.24-11.76,0.24-9.12,0-17-6.24-19.92-18l-24.72,17.52a59.25,59.25,0,0,1-9.36.72c-19.2,0-30.24-13.68-30.24-31.68A54.5,54.5,0,0,1,256.13,131l59.76-23.28v-3.6c0-9.12-5.52-19-21.36-19a48.35,48.35,0,0,0-22.8,6l-4.8,10.8h-9.6V77c15.6-7,30.72-11,44.16-11,24.72,0,45.12,12.24,45.12,34.32,0,14.4-1,47.76-1,48.72,0,17,1.92,19.44,21.84,19.44v8.4ZM315.66,119l-31.44,14.64a85.86,85.86,0,0,0-1.2,13.92c0,8.88,4.56,14.4,13.92,14.4,4.32,0,12.72-2.88,18.72-7V119Z"/><path class="cls-1" d="M519.66,180.89l4.32-12,11.76,1v-56.4c0-20.64-6.72-24.72-19-24.72-6.72,0-14.16,3.36-21.84,7,0.24,2.4.48,8.64,0.48,14.88v60.24L509.1,172v8.88h-60l4.32-12,11.76,1v-56.4c0-20.64-6.72-24.72-19-24.72-6.72,0-13.92,3.12-21.36,6.72v75.36l13.68,1.2v8.88h-61l4.32-12,12.72,1v-84l-16.08-4.56V73.12l41.76-7,4.56,19.44,24-16.32c3.12-2.16,6.24-3.12,12-3.12,14.16,0,25.92,5.28,32.16,19.68l26.4-16.56c2.88-1.68,4.56-3.12,11.28-3.12,23.52,0,35.28,15.6,35.28,42.72v61.92l16.08,1.2v8.88h-62.4Z"/><path class="cls-1" d="M648.49,182.81h-6c-37,0-57.36-23-57.36-55.44,0-35.76,24.72-61.68,59.52-61.68,30.48,0,43,21.36,43,55.44H615.85v3.12c0,23.28,15.84,37,37,37,12.24,0,21.12-2.64,34.8-7.92v15.6ZM635.29,78.88a74.93,74.93,0,0,0-7.68.24c-6.72,5.52-10.8,15.36-11.76,30.48h41C655.69,89.68,648.49,78.88,635.29,78.88Z"/><path class="cls-1" d="M697.45,180.89l4.32-12,13,1V48.16c0-20.16-6.24-25.68-9.6-30.24v-7.2l41.76-7.2L744.73,17.2v153.6L762,172v8.88H697.45Z"/><path class="cls-1" d="M831.73,182.81h-6c-37,0-57.36-23-57.36-55.44,0-35.76,24.72-61.68,59.52-61.68,30.48,0,43,21.36,43,55.44H799.09v3.12c0,23.28,15.84,37,37,37,12.24,0,21.12-2.64,34.8-7.92v15.6ZM818.53,78.88a74.93,74.93,0,0,0-7.68.24c-6.72,5.52-10.8,15.36-11.76,30.48h41C838.93,89.68,831.73,78.88,818.53,78.88Z"/><path class="cls-1" d="M944.41,183.29c-35.76,0-57.84-23.76-57.84-58.08,0-35,25.44-59.52,62.4-59.52,35.28,0,56.88,23.76,56.88,57.6C1005.85,158.81,979.69,183.29,944.41,183.29Zm0.72-104.4c-17.52,1.44-25,17.28-25,43,0,28.8,10.08,47,27.84,48.48,17-1.68,24.24-16.8,24.24-42.24C972.25,99.76,962.89,79.84,945.13,78.88Z"/><path class="cls-1" d="M1086.52,180.89l4.32-12,11.52,1V116.08c0-18.24-6.72-27.36-19.68-27.36-9.12,0-16.08,3.36-23.28,6.72v75.36l15.84,1.2v8.88h-63.36l4.32-12,13,1v-84l-16.08-4.56V73.12l41.76-7,4.56,19.44,25.44-16.32c2.4-1.68,4.56-3.12,12.72-3.12,21.12,0,35,13.92,35,40.8v63.84l16.32,1.2v8.88h-62.4Z"/></svg>