<svg id="Layer_1" data-name="Layer 1" xmlns="http://www.w3.org/2000/svg" viewBox="0 0 1791.36 243.36"><defs><style>.cls-1{fill:none;stroke:#000;stroke-width:6px;}</style></defs><title>eye-spy</title><path class="cls-1" d="M66.6,182.81h-6c-37,0-57.36-23-57.36-55.44C3.24,91.6,28,65.68,62.76,65.68c30.48,0,43,21.36,43,55.44H34v3.12c0,23.28,15.84,37,37,37,12.24,0,21.12-2.64,34.8-7.92v15.6ZM53.4,78.88a74.93,74.93,0,0,0-7.68.24C39,84.64,34.92,94.48,34,109.61H75C73.8,89.68,66.6,78.88,53.4,78.88Z"/><path class="cls-1" d="M168.13,225.77c-8.4,6.72-25.92,12.72-38.4,13.2l-11-25.44c11.28-1.2,33.84-5.76,44.4-11l7.2-17.76L128,81.28l-18.72,1.44L113.41,71h51.12l-3.6,11.52,25.2,64.08L206.29,90.4,199.57,71l36.48-1.44v7C224.05,84.16,200.77,143.69,168.13,225.77Z"/><path class="cls-1" d="M292.75,182.81h-6c-37,0-57.36-23-57.36-55.44,0-35.76,24.72-61.68,59.52-61.68,30.48,0,43,21.36,43,55.44H260.1v3.12c0,23.28,15.84,37,37,37,12.24,0,21.12-2.64,34.8-7.92v15.6ZM279.55,78.88a74.93,74.93,0,0,0-7.68.24c-6.72,5.52-10.8,15.36-11.76,30.48h41C299.95,89.68,292.75,78.88,279.55,78.88Z"/><path class="cls-1" d="M467,183.29c-10.08,0-25.68-2.88-34.56-7.44v-31H442.5l3.36,13.2c8.64,6,23.52,8.88,32.64,8.88a81,81,0,0,0,14.64-1,48.08,48.08,0,0,0,1.68-13.92c0-9.84-6-10.8-16.32-13.68l-21.6-6c-16.08-4.56-22.08-16.08-22.08-30,0-20.64,27.12-36.48,51.6-36.48a110.53,110.53,0,0,1,33.36,5.76l-6.72,29.76H502.5V88c-5.52-3.36-17-6-25-6a87.79,87.79,0,0,0-13,.72,44.43,44.43,0,0,0-1.44,12c0,9.6,5,12.24,19,16.08l17.76,5c15.6,4.32,23.28,15.12,23.28,29C523.15,168.41,497.46,183.29,467,183.29Z"/><path class="cls-1" d="M588.7,181.61a45.62,45.62,0,0,1-10.8-1.68V201c0,16.8,4.56,19.44,9.6,24.24v7.44l-41.76,7.2,2.16-13.68V86.56l-16.8-5.28V73.12l41.52-7L577.9,85.6l24-16.08a18.48,18.48,0,0,1,11.52-3.36c23,0,43.68,20.4,43.68,51.6C657.1,153.77,624,181.61,588.7,181.61ZM598.78,89c-4.08,0-13,2.16-20.88,6.48v62.88c4.32,2.4,14.88,4.8,21.36,4.8,3.12,0,14.64,0,20.4-2.64,5.28-8.64,6.72-19.2,6.72-34.56C626.38,105.28,616.78,89,598.78,89Z"/><path class="cls-1" d="M717.33,225.77c-8.4,6.72-25.92,12.72-38.4,13.2l-11-25.44c11.28-1.2,33.84-5.76,44.4-11l7.2-17.76L677.25,81.28l-18.72,1.44L662.61,71h51.12l-3.6,11.52,25.2,64.08L755.49,90.4,748.77,71l36.48-1.44v7C773.25,84.16,750,143.69,717.33,225.77Z"/></svg>