<svg id="Layer_1" data-name="Layer 1" xmlns="http://www.w3.org/2000/svg" viewBox="0 0 1791.36 243.36"><defs><style>.cls-1{fill:none;stroke:#000;stroke-width:6px;}</style></defs><title>guild-cards</title><path class="cls-1" d="M149.34,119.2v48.24l-60.24,17H81.9c-44.16,0-78.72-31.68-78.72-75.6,0-46.08,36.24-83,86.64-83,30.24,0,46.32,6,54.24,8.16L135.9,73.84,123.42,72.4V54.16c-4.32-1.92-23-9.84-65-9.84-12,7.44-21.12,27.84-21.12,52.32,0,39.36,25.44,68.16,64.32,68.16H116.7V119.69l-25.2,1.44,5.28-13.92h71v10.32Z"/><path class="cls-1" d="M252.65,182.33L251,164.09l-22.8,15.36c-5.28,3.6-9.6,3.6-14.16,3.6-21.36,0-35.28-14.64-35.28-41.52V83.92l-15.12-2.64v-8.4l47.28-6.72L209,80.56v55.68c0,19.44,10.32,24.48,19.68,24.48a46.23,46.23,0,0,0,21.84-6V83.92L234.41,80.8V72.64l48.48-6.48-2.16,13v90L299,170.57v8.88Z"/><path class="cls-1" d="M308.6,180.89l4.32-12,13,1V86.08l-17.28-4.8V73.12l49.68-7-2.16,14.16v90.48l17.52,1.2v8.88h-65Z"/><path class="cls-1" d="M383.26,180.89l4.32-12,13,1V48.16c0-20.16-6.24-25.68-9.6-30.24v-7.2l41.76-7.2L430.54,17.2v153.6l17.28,1.2v8.88H383.26Z"/><path class="cls-1" d="M529.13,183.29l-1.68-18.72-27.12,17A50.43,50.43,0,0,1,488.09,183c-20.64,0-42-21.12-42-52.8,0-36.48,30-64.08,71-64.08A36.39,36.39,0,0,1,527,67.84V47.2c0-20.88-7.44-26.64-10.08-29.28v-7.2l42.24-7.2L557,17.2V155l0.72,13.44,20.16,1.68V179ZM527,89.68a54.88,54.88,0,0,0-21.12-4.8c-9.36,0-18.72,1.2-23.52,3.36-2.64,5-5.76,16.56-5.76,32.16,0,27.84,13.2,39.84,28.8,39.84a55.11,55.11,0,0,0,21.6-5.52v-65Z"/><path class="cls-1" d="M801.53,167.45l-44.4,17h-6c-45.36,0-78.72-31.68-78.72-75.6,0-46.08,37-83,85.68-83,28.32,0,44.64,6.24,52.08,8.4l-7.68,39.84-12.24-1.44V54.4c-3.6-1.68-19.44-10.08-62.64-10.08C715.85,52,706.49,72.16,706.49,96.64c0,39.36,26.88,67,61.92,67a85,85,0,0,0,15.12-1.44l22.56-32.64L817.85,136Z"/><path class="cls-1" d="M921.12,182.33c-2.4.24-9.6,0.24-11.76,0.24-9.12,0-17-6.24-19.92-18l-24.72,17.52a59.25,59.25,0,0,1-9.36.72c-19.2,0-30.24-13.68-30.24-31.68A54.49,54.49,0,0,1,829.44,131l59.76-23.28v-3.6c0-9.12-5.52-19-21.36-19a48.35,48.35,0,0,0-22.8,6l-4.8,10.8h-9.6V77c15.6-7,30.72-11,44.16-11,24.72,0,45.12,12.24,45.12,34.32,0,14.4-1,47.76-1,48.72,0,17,1.92,19.44,21.84,19.44v8.4ZM889,119L857.52,133.6a85.92,85.92,0,0,0-1.2,13.92c0,8.88,4.56,14.4,13.92,14.4,4.32,0,12.72-2.88,18.72-7V119Z"/><path class="cls-1" d="M1036.87,103.12L1016,96.4c-7,.72-12.48,3.84-19.44,13.2v61.2l21.12,1.2v8.88H949l4.32-12,13,1V110.32c0-12.24-2.16-20.16-4.08-24.48l-15.6-4.56V73.12l42.48-7c2.88,7.92,5.28,15.6,5.76,30.48h1.44c12.48-18.72,19.92-28.8,29.52-30.48a76.42,76.42,0,0,1,22.8,6.72Z"/><path class="cls-1" d="M1123.76,183.29l-1.68-18.72-27.12,17a50.43,50.43,0,0,1-12.24,1.44c-20.64,0-42-21.12-42-52.8,0-36.48,30-64.08,71-64.08a36.38,36.38,0,0,1,9.84,1.68V47.2c0-20.88-7.44-26.64-10.08-29.28v-7.2l42.24-7.2L1151.6,17.2V155l0.72,13.44,20.16,1.68V179Zm-2.16-93.6a54.87,54.87,0,0,0-21.12-4.8c-9.36,0-18.72,1.2-23.52,3.36-2.64,5-5.76,16.56-5.76,32.16,0,27.84,13.2,39.84,28.8,39.84a55.11,55.11,0,0,0,21.6-5.52v-65Z"/><path class="cls-1" d="M1215.49,183.29c-10.08,0-25.68-2.88-34.56-7.44v-31H1191l3.36,13.2c8.64,6,23.52,8.88,32.64,8.88a81,81,0,0,0,14.64-1,48.08,48.08,0,0,0,1.68-13.92c0-9.84-6-10.8-16.32-13.68l-21.6-6c-16.08-4.56-22.08-16.08-22.08-30,0-20.64,27.12-36.48,51.6-36.48a110.53,110.53,0,0,1,33.36,5.76l-6.72,29.76H1251V88c-5.52-3.36-17-6-25-6a87.77,87.77,0,0,0-13,.72,44.43,44.43,0,0,0-1.44,12c0,9.6,5,12.24,19,16.08l17.76,5c15.6,4.32,23.28,15.12,23.28,29C1271.65,168.41,1246,183.29,1215.49,183.29Z"/><circle class="cls-1" cx="339.06" cy="27.95" r="20.54"/></svg>