<?xml version="1.0" standalone="no"?>
<!DOCTYPE svg PUBLIC "-//W3C//DTD SVG 1.1//EN" "http://www.w3.org/Graphics/SVG/1.1/DTD/svg11.dtd" >
<svg>
<metadata>
Created by FontForge 20090622 at Sat Dec 30 05:03:51 2017
 By deploy user
Copyright &#194;&#169; 2013 Schick Toikka. All rights reserved. Noe Display is a trademark of Schick Toikka. Unauthorised copying or modification of any of its data is illegal.
</metadata>
<defs>
<font id="NoeDisplay-Regular" horiz-adv-x="540" >
  <font-face 
    font-family="Noe Display Regular"
    font-weight="400"
    font-stretch="normal"
    units-per-em="1000"
    panose-1="2 10 5 0 9 4 0 0 0 2"
    ascent="750"
    descent="-250"
    x-height="487"
    cap-height="703"
    bbox="-225 -250 1199 967"
    underline-thickness="17"
    underline-position="-100"
    unicode-range="U+0020-U+FB02"
  />
<missing-glyph horiz-adv-x="600" 
d="M543 -250h-486v1000h486v-1000zM292 251l-217 468v-935zM301 231l-216 -464h431zM310 251l215 -463v927zM86 733l215 -463l215 463h-430z" />
    <glyph glyph-name="fi" unicode="fi" horiz-adv-x="597" 
d="M588 2v-2h-253v2l68 40q11 6 11 22v389q0 10 -2.5 13t-10.5 3h-208v-402q0 -9 2.5 -12t11.5 -8l90 -45v-2h-278v2l68 40q11 6 11 22v405h-70v18h70q3 110 61.5 168t162.5 58q82 0 162 -30l-52 -125h-2l-50 124q-4 10 -15 12q-19 3 -42 3q-71 0 -100.5 -45.5t-29.5 -129.5
v-35h316v-423q0 -14 12 -21z" />
    <glyph glyph-name="fl" unicode="fl" horiz-adv-x="589" 
d="M503 64q0 -14 12 -21l67 -41v-2h-253v2l68 40q11 6 11 22v583q0 14 -12 22q-40 26 -91 26q-112 0 -112 -159v-49h146v-18h-146v-402q0 -9 2.5 -12t11.5 -8l90 -45v-2h-278v2l68 40q11 6 11 22v405h-70v18h70q0 115 56 170.5t151 55.5q55 0 106 -30l92 40v-659z" />
    <glyph glyph-name="f_j" unicode="fj" horiz-adv-x="571" 
d="M392 469h-199v-402q0 -9 2.5 -12t11.5 -8l90 -45v-2h-278v2l68 40q11 6 11 22v405h-70v18h70q3 110 60 168t159 58q82 0 162 -30l-52 -125h-2l-50 124q-4 10 -15 12q-20 3 -42 3q-69 0 -97 -45.5t-28 -129.5v-35h307v-467q0 -101 -47.5 -167t-141.5 -66q-12 0 -38 4v2
q66 6 99 52t33 150v458q0 10 -2.5 13t-10.5 3z" />
    <glyph glyph-name="f_b" unicode="fb" horiz-adv-x="845" 
d="M394 -8v655q0 14 -12 22q-40 26 -81 26q-108 0 -108 -159v-49h146v-18h-146v-402q0 -9 2.5 -12t11.5 -8l90 -45v-2h-278v2l68 40q11 6 11 22v405h-70v18h70q0 115 54.5 170.5t148.5 55.5q45 0 96 -30l92 40v-338q50 110 149 110q81 0 127 -65t46 -174q0 -116 -52 -190
t-144 -74q-48 0 -80 18.5t-47 45.5l-92 -64h-2zM596 445q-61 0 -107 -69v-310q31 -37 88 -37q63 0 97.5 54t34.5 158q0 98 -30 151t-83 53z" />
    <glyph glyph-name="f_h" unicode="fh" horiz-adv-x="869" 
d="M787 64q0 -15 12 -22l68 -40v-2h-253v2l64 40q13 8 13 20q0 2 0.5 44t1.5 90.5t1 66.5q0 91 -21 132.5t-65 41.5q-66 0 -105 -74v-299q0 -14 12 -21l67 -41v-2h-253v2l68 40q11 6 11 22v583q0 14 -12 22q-40 26 -91 26q-112 0 -112 -159v-49h146v-18h-146v-402
q0 -9 2.5 -12t11.5 -8l90 -45v-2h-278v2l68 40q11 6 11 22v405h-70v18h70q0 115 56 170.5t151 55.5q56 0 107 -30l91 40v-354q35 126 148 126q138 0 138 -200q0 -71 -2 -231z" />
    <glyph glyph-name="f_k" unicode="fk" horiz-adv-x="827" 
d="M527 265q-11 0 -24 -10v-191q0 -14 12 -21l67 -41v-2h-253v2l68 40q11 6 11 22v583q0 14 -12 22q-40 26 -91 26q-112 0 -112 -159v-49h146v-18h-146v-402q0 -9 2.5 -12t11.5 -8l90 -45v-2h-278v2l68 40q11 6 11 22v405h-70v18h70q0 115 56 170.5t151 55.5q55 0 106 -30
l92 40v-459l194 147q8 7 0 14l-74 60v2h200v-2l-196 -148q-10 -7 -5 -16l136 -252q8 -17 23 -27l58 -40v-2h-156l-129 247q-10 18 -27 18z" />
    <glyph glyph-name=".notdef" horiz-adv-x="600" 
d="M543 -250h-486v1000h486v-1000zM292 251l-217 468v-935zM301 231l-216 -464h431zM310 251l215 -463v927zM86 733l215 -463l215 463h-430z" />
    <glyph glyph-name=".null" horiz-adv-x="0" 
 />
    <glyph glyph-name="nonmarkingreturn" horiz-adv-x="333" 
 />
    <glyph glyph-name="space" unicode=" " horiz-adv-x="200" 
 />
    <glyph glyph-name="exclam" unicode="!" horiz-adv-x="240" 
d="M185 703l-67 -489h-2l-61 489h130zM57 54q0 27 18 45.5t44 18.5q27 0 45 -18.5t18 -45.5q0 -26 -18 -44t-45 -18q-26 0 -44 18t-18 44z" />
    <glyph glyph-name="quotedbl" unicode="&#x22;" horiz-adv-x="351" 
d="M138 632l-41 -153h-2l-41 153q-4 16 -4 30q0 51 46 51t46 -51q0 -15 -4 -30zM297 632l-41 -153h-2l-41 153q-4 13 -4 30q0 51 46 51t46 -51q0 -17 -4 -30z" />
    <glyph glyph-name="numbersign" unicode="#" horiz-adv-x="588" 
d="M491 216h-140l-55 -190l-16 5l53 185h-152l-55 -190l-16 5l53 185h-128v17h133l58 204h-128v17h133l57 199l18 -5l-56 -194h151l57 199l18 -5l-56 -194h133v-17h-138l-59 -204h135v-17zM245 437l-59 -204h152l58 204h-151z" />
    <glyph glyph-name="dollar" unicode="$" horiz-adv-x="523" 
d="M245 -10q-101 0 -185 27v209h2l91 -196q8 -17 22 -19q32 -5 58 -5h18v289l-68 33q-59 28 -98 77t-39 117q0 80 57.5 133.5t147.5 57.5v80h17v-80q74 -1 166 -24v-204h-2l-94 192q-7 15 -19 16q-20 4 -44 4h-7v-289l62 -30q75 -35 114 -76.5t39 -105.5q0 -84 -58 -141
t-157 -64v-95h-17v94h-6zM268 288v-280q57 7 92.5 40.5t35.5 93.5q0 50 -31 82.5t-97 63.5zM127 559q0 -84 99 -131l25 -12v279q-57 -7 -90.5 -43t-33.5 -93z" />
    <glyph glyph-name="percent" unicode="%" horiz-adv-x="640" 
d="M579 701l-503 -711l-15 13l503 710zM189 699q-33 0 -44 -31t-11 -103t11 -103t44 -31q34 0 44.5 30.5t10.5 102.5q0 74 -10.5 104.5t-44.5 30.5zM189 713q61 0 92.5 -41t31.5 -108q0 -66 -31.5 -106.5t-92.5 -40.5q-60 0 -92 41t-32 107t32 107t92 41zM448 272
q-33 0 -44 -31t-11 -103t11 -103t44 -31q34 0 44.5 30.5t10.5 102.5q0 74 -10.5 104.5t-44.5 30.5zM448 286q61 0 92.5 -41t31.5 -108q0 -66 -31.5 -106.5t-92.5 -40.5q-60 0 -92 41t-32 107t32 107t92 41z" />
    <glyph glyph-name="ampersand" unicode="&#x26;" horiz-adv-x="745" 
d="M236 -10q-92 0 -144 46.5t-52 119.5q0 68 48.5 120t118.5 86l-6 7q-79 93 -79 182q0 73 50 117.5t130 44.5q74 0 120 -33.5t46 -98.5q0 -27 -11 -51t-25 -40t-41.5 -32.5t-47 -26t-53.5 -24.5l197 -231q43 62 78 134q7 15 -5 27l-82 82v2h229v-2l-106 -89
q-13 -11 -24 -33q-37 -69 -80 -133q46 -51 78.5 -70.5t71.5 -19.5q38 0 67.5 29t32.5 84h2q11 -88 -33.5 -142.5t-111.5 -54.5q-83 0 -169 98q-48 -50 -93 -74t-106 -24zM213 356q-80 -64 -80 -162q0 -69 43 -113.5t100 -44.5q54 0 84 14t65 49q-4 4 -212 257zM208 586
q0 -78 56 -148l21 -26q99 70 99 172q0 57 -22 86.5t-59 29.5q-44 0 -69.5 -31t-25.5 -83z" />
    <glyph glyph-name="quotesingle" unicode="'" horiz-adv-x="192" 
d="M142 662q0 -14 -4 -30l-41 -153h-2l-41 153q-4 17 -4 30q0 51 46 51t46 -51z" />
    <glyph glyph-name="parenleft" unicode="(" horiz-adv-x="318" 
d="M53 292q0 253 149 382q45 39 104 64l2 -2q-48 -40 -81 -94q-80 -132 -80 -350t80 -350q33 -54 81 -94l-2 -2q-59 25 -104 64q-149 129 -149 382z" />
    <glyph glyph-name="parenright" unicode=")" horiz-adv-x="318" 
d="M265 292q0 -253 -149 -382q-45 -39 -104 -64l-2 2q48 40 81 94q80 132 80 350t-80 350q-33 54 -81 94l2 2q59 -25 104 -64q149 -129 149 -382z" />
    <glyph glyph-name="asterisk" unicode="*" horiz-adv-x="346" 
d="M316 565h-142l113 -82l-73 -54l-43 134l-44 -133l-73 54l114 81h-138l28 87l111 -83l-41 134h91l-46 -134l115 81z" />
    <glyph glyph-name="plus" unicode="+" 
d="M50 314v17h211v212h18v-212h211v-17h-211v-211h-18v211h-211z" />
    <glyph glyph-name="comma" unicode="," horiz-adv-x="225" 
d="M43 -133l-1 2q37 19 55.5 54.5t18.5 65.5q0 11 -11 12q-21 2 -36.5 19.5t-15.5 41.5q0 26 17.5 43.5t42.5 17.5q28 0 46 -20t18 -60q0 -56 -38.5 -108.5t-95.5 -67.5z" />
    <glyph glyph-name="hyphen" unicode="-" horiz-adv-x="351" 
d="M46 234v18h260v-18h-260z" />
    <glyph glyph-name="period" unicode="." horiz-adv-x="225" 
d="M50 54q0 27 18 45.5t44 18.5q27 0 45 -18.5t18 -45.5q0 -26 -18 -44t-45 -18q-26 0 -44 18t-18 44z" />
    <glyph glyph-name="slash" unicode="/" horiz-adv-x="380" 
d="M347 732l-297 -885l-17 6l297 885z" />
    <glyph glyph-name="zero" unicode="0" horiz-adv-x="627" 
d="M313 8q157 0 157 343q0 99 -12 168.5t-34.5 106.5t-49 53t-61.5 16q-34 0 -61 -16t-49 -53t-34 -106t-12 -167q0 -345 156 -345zM313 713q128 0 197 -91.5t69 -270.5q0 -177 -69 -269t-197 -92q-127 0 -196 92.5t-69 270.5q0 177 69 268.5t196 91.5z" />
    <glyph glyph-name="one" unicode="1" horiz-adv-x="393" 
d="M39 652l220 61v-634q0 -9 2.5 -12.5t11.5 -8.5l101 -56v-2h-325v2l102 56q13 8 13 21v522q0 17 -13 21l-112 28v2z" />
    <glyph glyph-name="two" unicode="2" horiz-adv-x="527" 
d="M466 518q0 -41 -16.5 -82.5t-39 -75.5t-68.5 -79t-81.5 -76l-100.5 -85l-47 -39h240q22 0 29 3t17 16l71 92h2l-18 -192h-436v2l112 121q46 49 98 114q70 87 99 149.5t29 135.5q0 175 -129 175q-25 0 -45 -5q-9 -2 -11.5 -4.5t-7.5 -13.5l-65 -155h-2l-53 149
q90 45 197 45q104 0 165 -52t61 -143z" />
    <glyph glyph-name="three" unicode="3" horiz-adv-x="531" 
d="M487 199q0 -94 -72 -151.5t-196 -57.5q-96 0 -192 34l62 167h2l48 -162q5 -15 15 -17q28 -6 55 -6q83 0 126 52.5t43 129.5t-47 123.5t-139 46.5v2q158 35 158 186q0 69 -34 110t-98 41q-18 0 -38 -3q-9 -1 -12.5 -4t-8.5 -15l-65 -155h-2l-53 149q89 44 198 44
q96 0 157.5 -44t61.5 -121q0 -128 -152 -171v-2q80 -8 131.5 -55.5t51.5 -120.5z" />
    <glyph glyph-name="four" unicode="4" horiz-adv-x="565" 
d="M396 180v-102q0 -13 13 -21l80 -55v-2h-286v2l85 55q13 8 13 21v102h-292v1l314 522h73v-505h35q16 0 25 13l94 161h2l-15 -192h-141zM42 198h259v430z" />
    <glyph glyph-name="five" unicode="5" horiz-adv-x="546" 
d="M508 210q0 -101 -71 -160.5t-197 -59.5q-104 0 -193 35l62 166h2l48 -162q4 -11 8 -14t18 -5q24 -4 48 -4q80 0 123 54.5t43 142.5q0 80 -45 126.5t-125 46.5q-68 0 -131 -41l-2 1l7 367l173 -4q30 -1 74 -1q63 0 85 22l29 28h2l-12 -76q-6 -38 -26 -51t-70 -13
q-35 0 -83 2l-156 5l-4 -253q80 57 177 57q99 0 157.5 -58.5t58.5 -150.5z" />
    <glyph glyph-name="six" unicode="6" horiz-adv-x="578" 
d="M344 437q85 0 137.5 -56t52.5 -155q0 -104 -67 -170t-167 -66q-120 0 -186 96t-66 266q0 172 71.5 266.5t218.5 94.5q77 0 170 -30l-50 -152h-2l-67 150q-5 12 -21 14q-22 2 -32 2q-96 0 -139.5 -84t-43.5 -260v-19q34 50 84.5 76.5t106.5 26.5zM308 404q-83 0 -155 -82
q4 -158 44 -237t104 -79q53 0 92 52t39 159q0 89 -32 138t-92 49z" />
    <glyph glyph-name="seven" unicode="7" horiz-adv-x="479" 
d="M413 611q-58 -147 -164 -611h-123q59 169 140.5 347t133.5 274h-278q-15 0 -20 -3t-16 -15l-59 -73h-2l21 173h440v-2l-53 -61q-15 -18 -20 -29z" />
    <glyph glyph-name="eight" unicode="8" horiz-adv-x="564" 
d="M278 -10q-105 0 -169.5 51.5t-64.5 121.5q0 73 43 111t130 67l-30 17q-118 67 -118 174q0 81 60.5 131t153.5 50q86 0 144.5 -45.5t58.5 -117.5q0 -119 -152 -162l52 -28q75 -42 108.5 -82t33.5 -99q0 -76 -69 -132.5t-181 -56.5zM320 283l-94 53q-98 -54 -98 -169
q0 -68 45.5 -114t110.5 -46q64 0 107.5 36.5t43.5 99.5q0 47 -27.5 77t-87.5 63zM156 573q0 -47 24.5 -80t80.5 -64l64 -36q78 49 78 157q0 71 -34 108.5t-86 37.5q-54 0 -90.5 -34.5t-36.5 -88.5z" />
    <glyph glyph-name="nine" unicode="9" horiz-adv-x="578" 
d="M240 269q-81 0 -138.5 57.5t-57.5 158.5q0 99 67.5 163.5t167.5 64.5q122 0 186.5 -94t64.5 -272q0 -165 -72 -261t-208 -96q-89 0 -182 31l59 167h2l55 -166q4 -12 20 -14q13 -2 40 -2q94 0 137.5 85t43.5 256v23q-75 -101 -185 -101zM280 301q75 0 144 81
q-7 315 -147 315q-53 0 -92 -51.5t-39 -160.5q0 -184 134 -184z" />
    <glyph glyph-name="colon" unicode=":" horiz-adv-x="225" 
d="M50 54q0 27 18 45.5t44 18.5q27 0 45 -18.5t18 -45.5q0 -26 -18 -44t-45 -18q-26 0 -44 18t-18 44zM50 382q0 27 18 45.5t44 18.5q27 0 45 -18.5t18 -45.5q0 -26 -18 -44t-45 -18q-26 0 -44 18t-18 44z" />
    <glyph glyph-name="semicolon" unicode=";" horiz-adv-x="225" 
d="M53 62q0 26 17.5 43.5t42.5 17.5q28 0 46 -20t18 -60q0 -56 -38.5 -108.5t-95.5 -67.5l-1 2q37 19 55.5 54.5t18.5 65.5q0 11 -11 12q-21 2 -36.5 19.5t-15.5 41.5zM50 382q0 27 18 45.5t44 18.5q27 0 45 -18.5t18 -45.5q0 -26 -18 -44t-45 -18q-26 0 -44 18t-18 44z" />
    <glyph glyph-name="less" unicode="&#x3c;" 
d="M71 324l390 179l7 -16l-357 -164l357 -164l-7 -16l-390 179v2z" />
    <glyph glyph-name="equal" unicode="=" 
d="M50 404v17h440v-17h-440zM50 226v17h440v-17h-440z" />
    <glyph glyph-name="greater" unicode="&#x3e;" 
d="M79 503l390 -179v-2l-390 -179l-7 16l357 164l-357 164z" />
    <glyph glyph-name="question" unicode="?" horiz-adv-x="430" 
d="M415 566q0 -66 -72 -136l-83 -83q-38 -38 -51 -65.5t-6 -68.5l-1 -2q-57 31 -57 85q0 20 11.5 42t22.5 34.5l34 38.5l56 61q51 55 51 116q0 49 -32 79t-83 30q-23 0 -40 -4q-14 -3 -17 -5.5t-7 -11.5l-66 -157h-2l-53 149q93 45 199 45q85 0 140.5 -39t55.5 -108zM131 54
q0 27 18 45.5t44 18.5q27 0 45 -18.5t18 -45.5q0 -26 -18 -44t-45 -18q-26 0 -44 18t-18 44z" />
    <glyph glyph-name="at" unicode="@" horiz-adv-x="1007" 
d="M957 335q0 -153 -74 -248t-177 -95q-69 0 -111.5 35t-42.5 105q0 29 7 60h-2q-34 -99 -73.5 -149.5t-90.5 -50.5q-45 0 -72 37.5t-27 110.5q0 84 34 166t92.5 135.5t123.5 53.5q68 0 82 -57l99 57l2 -1l-73 -264q-17 -61 -17 -111q0 -53 21 -81t60 -28q89 0 155 90.5
t66 232.5q0 158 -108.5 256.5t-281.5 98.5q-212 0 -346.5 -139t-134.5 -357q0 -191 120.5 -297.5t307.5 -106.5q113 0 247 77l8 -15q-125 -79 -256 -79q-193 0 -319 111t-126 309q0 227 140 370.5t360 143.5q179 0 293 -104t114 -266zM535 162q17 35 45.5 125.5t41.5 146.5
q-14 30 -57 30q-56 0 -102 -67q-33 -48 -54.5 -120t-21.5 -137q0 -93 48 -93q52 0 100 115z" />
    <glyph glyph-name="A" unicode="A" horiz-adv-x="621" 
d="M157 246l-48 -143q-3 -14 -1.5 -17.5t16.5 -15.5l85 -68v-2h-225v2l80 68q20 18 26 36l168 498q4 16 3 21t-11 16l-55 60v2h153l210 -621q8 -23 23 -38l43 -42v-2h-249v2l71 54q11 8 4 25l-56 165h-237zM276 599l-113 -335h225z" />
    <glyph glyph-name="B" unicode="B" horiz-adv-x="613" 
d="M18 703h285q114 0 177 -44t63 -127q0 -62 -48 -106.5t-119 -53.5v-3q87 -5 142 -50.5t55 -117.5q0 -95 -71 -148t-188 -53h-296v2l86 47q13 7 13 20v565q0 13 -13 20l-86 47v2zM283 355h-62v-313q0 -16 5.5 -20t29.5 -4h26q178 0 178 170q0 83 -41.5 125t-135.5 42z
M221 662v-290h60q67 0 108.5 39.5t41.5 121.5q0 78 -39 115t-106 37h-47q-18 0 -18 -23z" />
    <glyph glyph-name="C" unicode="C" horiz-adv-x="595" 
d="M372 -10q-170 0 -253.5 97t-83.5 262q0 164 86 264t238 100q87 0 181 -22v-211h-2l-101 194q-6 11 -11.5 14.5t-20.5 5.5q-21 3 -41 3q-209 0 -209 -346q0 -345 216 -345q13 0 35 2q21 2 30 18l102 201h2v-220q-80 -17 -168 -17z" />
    <glyph glyph-name="D" unicode="D" horiz-adv-x="672" 
d="M18 0v2l86 47q13 7 13 20v565q0 13 -13 20l-86 47v2h291q162 0 245.5 -90t83.5 -252q0 -165 -85 -263t-245 -98h-290zM248 18h21q120 0 185 78t65 260q0 175 -62.5 252t-167.5 77h-52q-9 0 -12.5 -4t-3.5 -16v-623q0 -16 4.5 -20t22.5 -4z" />
    <glyph glyph-name="E" unicode="E" horiz-adv-x="593" 
d="M540 0h-522v2l86 47q13 7 13 20v565q0 13 -13 20l-86 47v2h512v-216h-2l-84 180q-9 18 -29 18h-178q-10 0 -13 -4.5t-3 -18.5v-294h123q16 1 28 19l64 89h2v-234h-2l-64 90q-13 18 -29 18h-122v-309q0 -14 3 -18.5t13 -4.5h178q26 0 34 13l89 182h2v-213z" />
    <glyph glyph-name="F" unicode="F" horiz-adv-x="561" 
d="M349 0h-331v2l86 47q13 7 13 20v565q0 13 -13 20l-86 47v2h512v-216h-2l-84 180q-8 18 -29 18h-177q-10 0 -13.5 -4.5t-3.5 -17.5v-295h123q16 1 28 19l64 89h2v-234h-2l-64 90q-13 18 -29 18h-122v-274q0 -15 13 -20l115 -54v-2z" />
    <glyph glyph-name="G" unicode="G" horiz-adv-x="644" 
d="M348 -10q-159 0 -236.5 96.5t-77.5 262.5q0 162 86 263t235 101q97 0 192 -22v-211h-2l-100 192q-6 12 -10.5 15.5t-16.5 5.5q-24 4 -49 4q-213 0 -213 -346q0 -345 193 -345q41 0 83 15q11 4 11 16v199q0 12 -1.5 15.5t-9.5 8.5l-79 48v2h284v-2l-78 -47q-8 -5 -10 -8.5
t-2 -16.5v-246l-96 19q-59 -19 -103 -19z" />
    <glyph glyph-name="H" unicode="H" horiz-adv-x="742" 
d="M625 634v-565q0 -9 2 -12.5t11 -7.5l86 -47v-2h-302v2l86 47q13 7 13 20v282h-300v-282q0 -9 2 -12.5t11 -7.5l86 -47v-2h-302v2l86 47q13 7 13 20v565q0 13 -13 20l-86 47v2h302v-2l-86 -47q-9 -5 -11 -8.5t-2 -11.5v-265h300v265q0 14 -13 20l-86 47v2h302v-2l-86 -47
q-9 -5 -11 -8.5t-2 -11.5z" />
    <glyph glyph-name="I" unicode="I" horiz-adv-x="338" 
d="M221 69q0 -9 2 -12.5t11 -7.5l86 -47v-2h-302v2l86 47q13 7 13 20v565q0 13 -13 20l-86 47v2h302v-2l-86 -47q-9 -5 -11 -8.5t-2 -11.5v-565z" />
    <glyph glyph-name="J" unicode="J" horiz-adv-x="308" 
d="M206 634v-607q0 -102 -61 -162t-160 -76l-1 2q62 29 90 91.5t28 141.5v610q0 13 -13 20l-86 47v2h302v-2l-86 -47q-9 -5 -11 -8.5t-2 -11.5z" />
    <glyph glyph-name="K" unicode="K" horiz-adv-x="647" 
d="M221 634v-565q0 -9 2 -12.5t11 -7.5l86 -47v-2h-302v2l86 47q13 7 13 20v565q0 13 -13 20l-86 47v2h302v-2l-86 -47q-9 -5 -11 -8.5t-2 -11.5zM508 611l-193 -199l239 -322q13 -16 32 -32l70 -56v-2h-164l-261 353l257 264q15 15 -4 26l-86 58v2h262v-2l-110 -60
q-25 -13 -42 -30z" />
    <glyph glyph-name="L" unicode="L" horiz-adv-x="555" 
d="M117 69v565q0 13 -13 20l-86 47v2h302v-2l-86 -47q-9 -5 -11 -8.5t-2 -11.5v-593q0 -14 3 -18.5t13 -4.5h158q27 0 34 13l94 193h2v-224h-507v2l86 47q13 7 13 20z" />
    <glyph glyph-name="M" unicode="M" horiz-adv-x="856" 
d="M738 634v-565q0 -9 2 -12.5t11 -7.5l86 -47v-2h-302v2l86 47q13 7 13 20v480q0 27 4 69l-243 -623h-2l-231 555q-8 17 -24 66v-515q0 -12 2.5 -17t13.5 -13l94 -69v-2h-240v2l95 69q11 8 13.5 13t2.5 17v521q0 18 -12 25l-85 54v2h190l226 -546l213 546h186v-2l-86 -47
q-9 -5 -11 -8.5t-2 -11.5z" />
    <glyph glyph-name="N" unicode="N" horiz-adv-x="682" 
d="M576 602v-602h-69l-367 600v-499q0 -19 16 -30l95 -69v-2h-241v2l95 69q16 11 16 30v507q0 22 -13 34l-84 59v2h175l358 -587v486q0 18 -16 30l-95 69v2h241v-2l-95 -69q-16 -11 -16 -30z" />
    <glyph glyph-name="O" unicode="O" horiz-adv-x="689" 
d="M345 6q86 0 137.5 83t51.5 263t-51.5 262t-137.5 83q-86 0 -137.5 -82.5t-51.5 -262.5t51.5 -262.5t137.5 -83.5zM345 713q147 0 227.5 -96t80.5 -265t-80.5 -265.5t-227.5 -96.5t-228 96.5t-81 265.5t81 265t228 96z" />
    <glyph glyph-name="P" unicode="P" horiz-adv-x="589" 
d="M306 273h-85v-192q0 -24 11 -29l124 -50v-2h-338v2l86 47q13 7 13 20v565q0 13 -13 20l-86 47v2h302q110 0 175.5 -52.5t65.5 -160.5q0 -100 -73.5 -158.5t-181.5 -58.5zM221 664v-373h68q67 0 113 47t46 152q0 101 -43.5 148t-114.5 47h-50q-11 0 -15 -4.5t-4 -16.5z
" />
    <glyph glyph-name="Q" unicode="Q" horiz-adv-x="690" 
d="M504 -236q-70 0 -134 25l-208 79q-29 11 -54 11q-14 0 -29 -3l-1 1l156 129q-97 32 -148.5 121.5t-51.5 224.5q0 169 81 265t228 96t227.5 -96t80.5 -265t-80.5 -265.5t-227.5 -96.5q-47 0 -91 11l-64 -56l222 -77q56 -20 125 -20q79 0 126 42l35 31l2 -1l-47 -80
q-21 -35 -60.5 -55.5t-86.5 -20.5zM343 6q86 0 137.5 83t51.5 263t-51.5 262t-137.5 83q-86 0 -137.5 -82.5t-51.5 -262.5t51.5 -262.5t137.5 -83.5z" />
    <glyph glyph-name="R" unicode="R" horiz-adv-x="637" 
d="M256 318h-35v-251q0 -9 2 -12.5t11 -7.5l89 -45v-2h-305v2l86 47q13 7 13 20v565q0 13 -13 20l-86 47v2h303q102 0 167 -49t65 -142q0 -65 -44.5 -114.5t-118.5 -68.5v-2l28 -40l2 -3l148 -206q15 -21 33 -35l51 -41v-2h-156l-210 301q-12 17 -30 17zM221 664v-328h49
q167 0 167 171q0 99 -40 138.5t-116 39.5h-41q-11 0 -15 -4.5t-4 -16.5z" />
    <glyph glyph-name="S" unicode="S" horiz-adv-x="515" 
d="M245 -10q-101 0 -185 27v209h2l91 -196q8 -17 22 -19q32 -5 58 -5q71 0 117 33.5t46 102.5q0 50 -30.5 82t-96.5 63l-86 41q-59 28 -98 77t-39 117q0 83 61 137t155 54q77 0 172 -24v-204h-2l-94 192q-7 15 -19 16q-20 4 -44 4q-67 0 -107.5 -37.5t-40.5 -100.5
q0 -84 99 -131l104 -50q75 -35 114 -76.5t39 -105.5q0 -89 -65 -147.5t-173 -58.5z" />
    <glyph glyph-name="T" unicode="T" horiz-adv-x="602" 
d="M582 703v-228h-2l-87 191q-5 12 -9.5 15.5t-16.5 3.5h-114v-616q0 -9 2 -12.5t11 -7.5l91 -47v-2h-312v2l91 47q13 7 13 20v616h-114q-12 0 -16 -3t-10 -16l-87 -191h-2v228h562z" />
    <glyph glyph-name="U" unicode="U" horiz-adv-x="652" 
d="M554 248q0 -120 -52 -189t-166 -69q-239 0 -239 214v427q0 8 -2 11.5t-11 8.5l-79 50v2h293v-2l-84 -50q-9 -4 -11 -7.5t-2 -12.5v-405q0 -101 43 -154.5t125 -53.5q80 0 123 60t43 169v355q0 19 -16 30l-95 69v2h242v-2l-96 -69q-16 -11 -16 -30v-354z" />
    <glyph glyph-name="V" unicode="V" horiz-adv-x="596" 
d="M524 597l-194 -597h-61l-215 621q-8 23 -23 38l-43 42v2h250v-2l-71 -54q-10 -7 -4 -24l180 -522l160 494q7 20 -13 36l-87 70v2h225v-2l-76 -65q-10 -9 -14 -13t-7.5 -10t-6.5 -16z" />
    <glyph glyph-name="W" unicode="W" horiz-adv-x="960" 
d="M634 0l-154 476l-155 -476h-61l-210 621q-8 23 -23 38l-43 42v2h249v-2l-71 -54q-10 -7 -4 -24l176 -520l132 404l-37 114q-8 23 -23 38l-37 42v2h244v-2l-71 -54q-10 -7 -5 -23l168 -520l158 491q7 20 -13 36l-87 70v2h225v-2l-76 -65q-10 -9 -14 -13t-7.5 -10t-6.5 -16
l-193 -597h-61z" />
    <glyph glyph-name="X" unicode="X" horiz-adv-x="654" 
d="M575 76q11 -18 32 -33l56 -41v-2h-269v2l58 40q10 7 11 12t-6 15l-160 251l-153 -229q-8 -11 -8 -16t8 -10l96 -63v-2h-249v2l92 57q25 14 38 33l165 245l-183 290q-11 18 -32 33l-56 41v2h269v-2l-58 -40q-10 -7 -10.5 -12.5t5.5 -14.5l136 -215l129 193q8 11 8 16.5
t-8 9.5l-96 63v2h249v-2l-92 -57q-25 -14 -38 -33l-141 -209z" />
    <glyph glyph-name="Y" unicode="Y" horiz-adv-x="596" 
d="M355 287v-218q0 -9 2 -12.5t11 -7.5l91 -47v-2h-312v2l91 47q13 7 13 20v207q0 16 -8 30l-177 317q-11 20 -27 33l-51 45v2h260v-2l-65 -51q-9 -8 -4 -18l167 -299l143 270q8 15 -3 24l-85 74v2h227v-2l-88 -69q-23 -19 -34 -39l-143 -270q-8 -14 -8 -36z" />
    <glyph glyph-name="Z" unicode="Z" horiz-adv-x="575" 
d="M546 701l-404 -683h244q27 0 34 13l103 198h2v-229h-510v2l402 683h-222q-27 0 -34 -13l-99 -201h-2v232h486v-2z" />
    <glyph glyph-name="bracketleft" unicode="[" horiz-adv-x="340" 
d="M160 653v-721q0 -9 1.5 -11t10.5 -4l158 -43v-2l-250 -15v871l250 -15v-2l-158 -43q-9 -2 -10.5 -4t-1.5 -11z" />
    <glyph glyph-name="backslash" unicode="\" horiz-adv-x="380" 
d="M330 -153l-297 885l17 6l297 -885z" />
    <glyph glyph-name="bracketright" unicode="]" horiz-adv-x="340" 
d="M180 -68v721q0 9 -1.5 11t-10.5 4l-158 43v2l250 15v-871l-250 15v2l158 43q9 2 10.5 4t1.5 11z" />
    <glyph glyph-name="asciicircum" unicode="^" 
d="M271 714l179 -390l-16 -8l-164 358l-164 -358l-16 8l179 390h2z" />
    <glyph glyph-name="underscore" unicode="_" horiz-adv-x="500" 
d="M495 -91h-490v17h490v-17z" />
    <glyph glyph-name="grave" unicode="`" horiz-adv-x="310" 
d="M50 703h121l89 -161l-2 -2l-208 161v2z" />
    <glyph glyph-name="a" unicode="a" horiz-adv-x="465" 
d="M299 238l2 106v3q0 60 -27 95.5t-80 35.5q-19 0 -24 -2t-9 -12l-61 -132h-2l-45 130q80 33 168 33q89 0 127 -39q45 -47 45 -164v-14l-4 -163q-2 -67 36 -67q25 0 33 29h2q0 -16 -6 -31q-9 -23 -29 -38.5t-48 -15.5q-35 0 -57.5 27t-22.5 79q-15 -50 -50.5 -78t-83.5 -28
q-54 0 -92 35t-38 96q0 69 48.5 107.5t113.5 38.5q62 0 104 -31zM241 242q-52 0 -81 -31t-29 -76q0 -39 21.5 -63t54.5 -24q56 0 90 58v3l2 123q-29 10 -58 10z" />
    <glyph glyph-name="b" unicode="b" horiz-adv-x="512" 
d="M156 723v-338q50 110 149 110q81 0 127 -65t46 -174q0 -116 -52 -190t-144 -74q-48 0 -80 18.5t-47 45.5l-92 -64h-2v646q0 16 -11 23l-68 40v2zM263 445q-61 0 -107 -69v-310q31 -37 88 -37q63 0 97.5 54t34.5 158q0 98 -30 151t-83 53z" />
    <glyph glyph-name="c" unicode="c" horiz-adv-x="440" 
d="M233 -8q-84 0 -143.5 62.5t-59.5 184.5q0 67 20 118t54 80t74.5 43.5t85.5 14.5q69 0 145 -28l-47 -145h-2l-59 144q-5 11 -12 12q-9 2 -21 2q-69 0 -105 -55t-36 -156q0 -111 40.5 -165.5t104.5 -54.5q94 0 141 113h2q-15 -79 -60 -124.5t-122 -45.5z" />
    <glyph glyph-name="d" unicode="d" horiz-adv-x="536" 
d="M450 723v-649q0 -14 11 -22l68 -50v-2h-174v103q-20 -56 -58.5 -83.5t-85.5 -27.5q-79 0 -128.5 69t-49.5 178q0 116 55.5 186t137.5 70q91 0 129 -92v235q0 16 -11 23l-68 40v2zM256 41q53 0 99 69v284q-42 61 -98 61q-53 0 -87.5 -52.5t-34.5 -152.5q0 -103 35 -156
t86 -53z" />
    <glyph glyph-name="e" unicode="e" horiz-adv-x="464" 
d="M429 285h-302v-28q0 -98 40.5 -153t104.5 -55q109 0 159 123l2 -1q-16 -89 -65.5 -134t-128.5 -45q-89 0 -148.5 62.5t-59.5 184.5q0 68 19 119.5t51 80t68 42.5t74 14q78 0 133 -47t55 -137q0 -10 -2 -26zM242 480q-49 0 -78.5 -47.5t-35.5 -130.5h206v2q0 176 -92 176z
" />
    <glyph glyph-name="f" unicode="f" horiz-adv-x="322" 
d="M339 469h-146v-402q0 -9 2.5 -12t11.5 -8l90 -45v-2h-278v2l68 40q11 6 11 22v405h-70v18h70v37q0 100 39 144.5t121 44.5q64 0 127 -26l-51 -122h-2l-49 120q-4 10 -7 11.5t-17 1.5q-66 0 -66 -117v-94h146v-18z" />
    <glyph glyph-name="g" unicode="g" horiz-adv-x="480" 
d="M45 333q0 76 53.5 119t130.5 43q63 0 113 -32q12 -8 18 2l97 131l2 -1v-150h-92q56 -44 56 -116q0 -73 -56 -115.5t-135 -42.5q-34 0 -59 7q-57 -16 -57 -54q0 -21 22 -34.5t64 -13.5h81q85 0 132 -37t47 -103q0 -81 -69.5 -126.5t-167.5 -45.5q-82 0 -143 31.5t-61 87.5
q0 39 30.5 67.5t88.5 41.5q-40 7 -62 31.5t-22 56.5q0 35 28 62.5t76 38.5q-52 16 -83.5 55.5t-31.5 96.5zM167 -12q-5 0 -17 2q-60 -27 -60 -90q0 -56 46.5 -87.5t108.5 -31.5q63 0 106.5 29t43.5 84q0 84 -124 90zM146 333q0 -147 88 -147t88 147t-88 147t-88 -147z" />
    <glyph glyph-name="h" unicode="h" horiz-adv-x="547" 
d="M465 64q0 -15 12 -22l68 -40v-2h-253v2l64 40q13 8 13 20q0 2 0.5 44t1.5 90.5t1 66.5q0 91 -21 132.5t-65 41.5q-66 0 -105 -74v-299q0 -14 12 -21l67 -41v-2h-253v2l68 40q11 6 11 22v574q0 16 -11 23l-68 40v2l174 20v-354q35 126 148 126q138 0 138 -200
q0 -71 -2 -231z" />
    <glyph glyph-name="i" unicode="i" horiz-adv-x="285" 
d="M142 562q-25 0 -42 17.5t-17 41.5q0 26 17 43.5t42 17.5t42.5 -17.5t17.5 -43.5q0 -24 -17.5 -41.5t-42.5 -17.5zM23 487h174v-423q0 -14 12 -21l67 -41v-2h-253v2l68 40q11 6 11 22v348q0 15 -11 23l-68 50v2z" />
    <glyph glyph-name="j" unicode="j" horiz-adv-x="259" 
d="M14 487h174v-467q0 -101 -47.5 -167t-141.5 -66q-12 0 -38 4v2q66 6 99 52t33 150v417q0 15 -11 23l-68 50v2zM74 621q0 26 17 43.5t42 17.5t42.5 -17.5t17.5 -43.5q0 -24 -17.5 -41.5t-42.5 -17.5t-42 17.5t-17 41.5z" />
    <glyph glyph-name="k" unicode="k" horiz-adv-x="505" 
d="M205 265q-11 0 -24 -10v-191q0 -14 12 -21l67 -41v-2h-253v2l68 40q11 6 11 22v574q0 16 -11 23l-68 40v2l174 20v-459l194 147q8 7 0 14l-74 60v2h200v-2l-196 -148q-10 -7 -5 -16l136 -252q8 -17 23 -27l58 -40v-2h-156l-129 247q-10 18 -27 18z" />
    <glyph glyph-name="l" unicode="l" horiz-adv-x="267" 
d="M181 723v-659q0 -14 12 -21l67 -41v-2h-253v2l68 40q11 6 11 22v574q0 16 -11 23l-68 40v2z" />
    <glyph glyph-name="m" unicode="m" horiz-adv-x="849" 
d="M483 295q0 -71 -2 -231q0 -15 12 -22l68 -40v-2h-253v2l64 40q13 8 13 20q0 2 0.5 44t1.5 90.5t1 66.5q0 91 -21 132.5t-65 41.5q-66 0 -105 -74v-299q0 -14 12 -21l67 -41v-2h-253v2l68 40q11 6 11 22v348q0 15 -11 23l-68 50v2h174v-118q35 126 148 126q108 0 131 -124
q17 60 58 92t98 32q136 0 136 -200q0 -71 -2 -231q0 -15 12 -22l68 -40v-2h-253v2l64 40q13 8 13 20l2 88q1 87 1 111q0 92 -20.5 134t-66.5 42q-66 0 -109 -71q6 -32 6 -71z" />
    <glyph glyph-name="n" unicode="n" horiz-adv-x="564" 
d="M483 295q0 -71 -2 -231q0 -15 12 -22l68 -40v-2h-253v2l64 40q13 8 13 20q0 2 0.5 44t1.5 90.5t1 66.5q0 91 -21 132.5t-65 41.5q-66 0 -105 -74v-299q0 -14 12 -21l67 -41v-2h-253v2l68 40q11 6 11 22v348q0 15 -11 23l-68 50v2h174v-118q35 126 148 126q138 0 138 -200
z" />
    <glyph glyph-name="o" unicode="o" horiz-adv-x="508" 
d="M254 480q-113 0 -113 -236q0 -237 113 -237t113 237q0 236 -113 236zM254 -8q-103 0 -162.5 66.5t-59.5 185.5t59.5 185t162.5 66t162.5 -66t59.5 -185t-59.5 -185.5t-162.5 -66.5z" />
    <glyph glyph-name="p" unicode="p" horiz-adv-x="538" 
d="M87 -164v576q0 15 -11 23l-68 50v2h174v-110q26 62 62 90t88 28q80 0 125.5 -65.5t45.5 -172.5q0 -121 -52 -193t-137 -72q-94 0 -132 78v-230q0 -14 14 -21l90 -45v-2h-278v2l68 40q11 6 11 22zM289 445q-64 0 -107 -79v-287q36 -47 97 -47q59 0 90.5 56.5t31.5 162.5
q0 86 -30.5 140t-81.5 54z" />
    <glyph glyph-name="q" unicode="q" horiz-adv-x="510" 
d="M356 -160v263q-44 -111 -147 -111q-71 0 -123 67t-52 175q0 120 55 190.5t143 70.5q82 0 124 -67l95 67v-659q0 -14 11 -22l58 -40v-2h-268v2l90 45q14 7 14 21zM256 42q57 0 100 68v309q-48 40 -92 40q-56 0 -92 -55t-36 -157q0 -91 33.5 -148t86.5 -57z" />
    <glyph glyph-name="r" unicode="r" horiz-adv-x="398" 
d="M197 324v-257q0 -16 13 -21l106 -44v-2h-293v2l68 40q11 6 11 22v348q0 15 -11 23l-68 50v2h174v-153q12 61 53 111t104 50q30 0 49 -12l-50 -148h-2l-50 111q-3 6 -12 1q-22 -13 -41 -36t-27 -39z" />
    <glyph glyph-name="s" unicode="s" horiz-adv-x="416" 
d="M299 100q0 20 -6.5 34.5t-22.5 26.5t-27.5 18t-36.5 17l-62 28q-94 43 -94 131q0 64 50 102t116 38q83 0 151 -25l-38 -127h-2l-64 122q-5 8 -8 10.5t-14 3.5q-9 1 -26 1q-37 0 -63 -23.5t-26 -64.5q0 -33 19.5 -52t57.5 -35l67 -29q54 -23 84 -52.5t30 -80.5
q0 -72 -55.5 -111.5t-133.5 -39.5q-77 0 -157 30l42 139h2l56 -138q4 -10 19 -13q18 -3 40 -3q49 0 75.5 27.5t26.5 65.5z" />
    <glyph glyph-name="t" unicode="t" horiz-adv-x="309" 
d="M170 469v-354q0 -33 15 -52t42 -19q26 0 47 17t30 42h2q-7 -48 -38.5 -79.5t-85.5 -31.5q-107 0 -107 113v364h-70v18h55q16 0 24 14l84 148h2v-162h142v-18h-142z" />
    <glyph glyph-name="u" unicode="u" 
d="M259 50q59 0 99 74v288q0 15 -11 23l-68 50v2h174v-412q0 -15 11 -23l68 -50v-2h-174v116q-40 -124 -145 -124q-135 0 -135 200q0 60 2 220q0 15 -11 23l-68 50v2h175l-2 -119q-1 -119 -1 -142q0 -91 20.5 -133.5t65.5 -42.5z" />
    <glyph glyph-name="v" unicode="v" horiz-adv-x="437" 
d="M239 0h-46l-159 418q-6 17 -15 28l-31 39v2h201v-2l-48 -46q-10 -9 -4 -24l120 -316l103 288q4 13 3 17t-9 14l-57 67v2h155v-2l-57 -69q-12 -14 -17 -30z" />
    <glyph glyph-name="w" unicode="w" horiz-adv-x="702" 
d="M717 485l-57 -69q-12 -14 -17 -30l-139 -386h-46l-112 303l-113 -303h-46l-154 418q-6 17 -15 28l-31 39v2h200v-2l-48 -46q-10 -9 -4 -24l115 -318l87 231l-33 90q-6 17 -15 28l-31 39v2h199v-2l-48 -46q-10 -9 -4 -24l116 -318l104 290q4 13 3 17t-9 14l-57 67v2h155
v-2z" />
    <glyph glyph-name="x" unicode="x" horiz-adv-x="476" 
d="M201 215l-137 200q-18 25 -33 37l-41 33v2h240v-2l-61 -38q-7 -5 -7 -8.5t7 -13.5l94 -137l85 115q7 10 7 13.5t-8 12.5l-55 56v2h183v-2l-82 -61q-16 -11 -30 -30l-90 -120l139 -202q18 -25 33 -37l41 -33v-2h-240v2l61 38q11 7 0 22l-96 139l-87 -117q-7 -10 -7 -13.5
t8 -12.5l55 -56v-2h-183v2l82 61q16 11 30 30z" />
    <glyph glyph-name="y" unicode="y" horiz-adv-x="435" 
d="M56 -236q-24 0 -42 10l35 151h2l58 -100q7 -12 12 -12t12 9q33 40 61 117l13 36l-173 443q-9 21 -19 34l-25 33v2h198v-2l-48 -46q-10 -9 -4 -24l120 -310l107 279q7 18 -3 30l-60 71v2h155v-2l-56 -69q-10 -11 -19 -34l-170 -446q-26 -67 -50 -105q-42 -67 -104 -67z
" />
    <glyph glyph-name="z" unicode="z" horiz-adv-x="433" 
d="M299 32l100 154h2l-16 -186h-370v2l288 468h-147q-13 0 -16.5 -2t-10.5 -13l-89 -144h-3v176h380v-2l-286 -468h141q13 0 16.5 2t10.5 13z" />
    <glyph glyph-name="braceleft" unicode="{" horiz-adv-x="351" 
d="M276 -142q-71 0 -127 51t-46 130l20 170q4 33 -20 56t-68 27v2q44 4 68 27t20 56l-20 170q-10 79 46 130t127 51q31 0 65 -8v-2q-81 6 -119.5 -43t-32.5 -105l19 -173q4 -37 -18.5 -65t-55.5 -38v-2q33 -10 55.5 -38t18.5 -65l-19 -173q-6 -56 32.5 -105t119.5 -43v-2
q-34 -8 -65 -8z" />
    <glyph glyph-name="bar" unicode="|" horiz-adv-x="218" 
d="M118 -250h-18v1000h18v-1000z" />
    <glyph glyph-name="braceright" unicode="}" horiz-adv-x="351" 
d="M75 -142q-31 0 -65 8v2q81 -6 119.5 43t32.5 105l-19 173q-4 37 18.5 65t55.5 38v2q-33 10 -55.5 38t-18.5 65l19 173q6 56 -32.5 105t-119.5 43v2q34 8 65 8q71 0 127 -51t46 -130l-20 -170q-4 -33 20 -56t68 -27v-2q-44 -4 -68 -27t-20 -56l20 -170q10 -79 -46 -130
t-127 -51z" />
    <glyph glyph-name="asciitilde" unicode="~" horiz-adv-x="502" 
d="M364 277q-46 0 -116.5 33t-110.5 33q-61 0 -97 -59l-15 9q40 67 112 67q46 0 116.5 -33t110.5 -33q62 0 98 59l15 -9q-40 -67 -113 -67z" />
    <glyph glyph-name="uni00A0" unicode="&#xa0;" horiz-adv-x="200" 
 />
    <glyph glyph-name="exclamdown" unicode="&#xa1;" horiz-adv-x="240" 
d="M124 272l61 -489h-130l67 489h2zM183 432q0 -27 -18 -45.5t-44 -18.5q-27 0 -45 18.5t-18 45.5q0 26 18 44t45 18q26 0 44 -18t18 -44z" />
    <glyph glyph-name="cent" unicode="&#xa2;" horiz-adv-x="438" 
d="M257 -105h-17v97h-7q-90 0 -146 62.5t-56 185.5q0 124 59 186.5t150 67.5v111h17v-110q79 0 154 -24v-2l-56 -149h-2l-54 147q-3 7 -10 9.5t-32 2.5v-429q5 -1 17 -1q45 0 78.5 23.5t58.5 89.5h2q-25 -156 -156 -169v-98zM128 267q0 -94 30.5 -147t81.5 -67v425
q-53 -7 -82.5 -62t-29.5 -149z" />
    <glyph glyph-name="sterling" unicode="&#xa3;" horiz-adv-x="517" 
d="M398 297h-180q14 -49 14 -87q0 -53 -33 -84.5t-82 -42.5v-2h240q22 0 29 3t17 16l71 92h2l-18 -192h-436v2l71 76q48 51 48 119q0 35 -23 100h-100v17h94q-45 124 -45 181q0 100 56.5 159t165.5 59q89 0 179 -30l-50 -152h-2l-67 149q-6 13 -21 14q-22 2 -43 2
q-66 0 -96 -47.5t-30 -122.5q0 -38 7.5 -71.5t25.5 -81.5t21 -59h185v-17z" />
    <glyph glyph-name="currency" unicode="&#xa4;" horiz-adv-x="664" 
d="M332 120q-96 0 -162 57l-112 -112l-11 12l111 111q-63 65 -63 164q0 100 64 164l-112 113l11 12l113 -113q67 57 161 57q95 0 161 -58l114 114l11 -12l-113 -113q65 -65 65 -164q0 -97 -64 -163l112 -112l-11 -12l-113 112q-65 -57 -162 -57zM332 137q94 0 157 59t63 156
t-63 156.5t-157 59.5t-156.5 -59.5t-62.5 -156.5t62.5 -156t156.5 -59z" />
    <glyph glyph-name="yen" unicode="&#xa5;" horiz-adv-x="601" 
d="M357 166v-97q0 -9 2 -12.5t11 -7.5l91 -47v-2h-312v2l91 47q13 7 13 20v97h-155v17h155v91h-155v17h154l-3.5 7t-3.5 8l-177 317q-11 20 -27 33l-51 45v2h260v-2l-65 -51q-9 -8 -4 -18l167 -299l143 270q8 15 -3 24l-85 74v2h227v-2l-88 -69q-23 -19 -34 -39l-143 -270
q-8 -13 -8 -32h154v-17h-154v-91h154v-17h-154z" />
    <glyph glyph-name="brokenbar" unicode="&#xa6;" horiz-adv-x="218" 
d="M118 -250h-18v438h18v-438zM118 322h-18v428h18v-428z" />
    <glyph glyph-name="section" unicode="&#xa7;" horiz-adv-x="484" 
d="M429 257q0 -85 -104 -133q70 -62 70 -137q0 -68 -52.5 -106.5t-120.5 -38.5q-65 0 -138 16l23 197h2l73 -180q6 -14 13 -16q11 -3 28 -3q46 0 72 30.5t26 71.5q0 76 -95 138l-50 34q-64 42 -92.5 80.5t-28.5 87.5q0 85 104 132q-70 62 -70 138q0 68 52.5 106.5
t120.5 38.5q65 0 138 -16l-23 -197h-2l-73 180q-6 14 -13 16q-11 3 -28 3q-46 0 -72 -30.5t-26 -71.5q0 -76 95 -138l50 -34q64 -42 92.5 -80.5t28.5 -87.5zM169 422l-4 3q-17 -9 -29.5 -36t-12.5 -49q0 -69 70 -118q75 -52 122 -89l3 -3q17 9 30 36t13 49q0 69 -70 118
q-75 52 -122 89z" />
    <glyph glyph-name="dieresis" unicode="&#xa8;" horiz-adv-x="368" 
d="M50 623q0 22 15 37.5t37 15.5t37 -15.5t15 -37.5q0 -21 -15.5 -36.5t-36.5 -15.5t-36.5 15.5t-15.5 36.5zM214 623q0 22 15 37.5t36 15.5q22 0 37.5 -15.5t15.5 -37.5q0 -21 -16 -36.5t-37 -15.5t-36 15.5t-15 36.5z" />
    <glyph glyph-name="copyright" unicode="&#xa9;" horiz-adv-x="813" 
d="M317 353q0 -92 31 -143t82 -51q9 0 14 1q6 1 15 11l76 108h1v-124q-47 -11 -105 -11q-99 0 -154 57.5t-55 150.5q0 91 56.5 149.5t143.5 58.5q67 0 114 -13v-118h-1l-79 105q-7 10 -18 11q-9 1 -17 1q-47 0 -75.5 -54.5t-28.5 -138.5zM48 351q0 161 103.5 261.5
t254.5 100.5q152 0 255.5 -100.5t103.5 -261.5q0 -162 -103.5 -261.5t-255.5 -99.5t-255 99.5t-103 261.5zM66 351q0 -155 97.5 -249.5t242.5 -94.5t243 94.5t98 249.5q0 154 -98 249.5t-243 95.5q-144 0 -242 -95.5t-98 -249.5z" />
    <glyph glyph-name="ordfeminine" unicode="&#xaa;" horiz-adv-x="402" 
d="M169 558q42 0 71 -23l2 74q3 88 -79 88q-13 0 -18 -9l-42 -93h-1l-31 95q56 23 117 23t87 -27q34 -35 31 -123l-3 -113q-2 -46 25 -46q15 0 22 20h2q0 -14 -4 -23q-14 -36 -53 -36q-23 0 -39 16.5t-17 49.5q-11 -31 -35.5 -48.5t-56.5 -17.5q-38 0 -64 24.5t-26 66.5
q0 47 33.5 74.5t78.5 27.5zM239 446l1 83q-17 8 -39 8q-36 0 -56 -21t-20 -52q0 -27 14.5 -43t37.5 -16q35 0 62 37v4z" />
    <glyph glyph-name="guillemotleft" unicode="&#xab;" horiz-adv-x="433" 
d="M30 251l202 199l1 -1l-98 -199l98 -199l-1 -1l-202 199v2zM200 251l202 199l1 -1l-98 -199l98 -199l-1 -1l-202 199v2z" />
    <glyph glyph-name="logicalnot" unicode="&#xac;" 
d="M501 109h-18v208h-443v17h461v-225z" />
    <glyph glyph-name="uni00AD" unicode="&#xad;" horiz-adv-x="351" 
d="M46 234v18h260v-18h-260z" />
    <glyph glyph-name="registered" unicode="&#xae;" horiz-adv-x="813" 
d="M48 351q0 161 103.5 261.5t254.5 100.5q152 0 255.5 -100.5t103.5 -261.5q0 -162 -103.5 -261.5t-255.5 -99.5t-255 99.5t-103 261.5zM66 351q0 -155 97.5 -249.5t242.5 -94.5t243 94.5t98 249.5q0 154 -98 249.5t-243 95.5q-144 0 -242 -95.5t-98 -249.5zM233 163l49 24
q7 3 7 11v310q0 8 -7 11l-49 24v2h197q56 0 91.5 -26.5t35.5 -77.5q0 -35 -24.5 -63t-66.5 -38v-2l16 -21l83 -113q9 -12 18 -20l28 -21v-2h-103l-109 161q-7 10 -17 10h-16v-134q0 -7 7 -11l48 -24v-2h-188v2zM366 517v-168h25q83 0 83 89q0 53 -20 71.5t-55 18.5h-23
q-10 0 -10 -11z" />
    <glyph glyph-name="macron" unicode="&#xaf;" horiz-adv-x="346" 
d="M296 591h-246v18h246v-18z" />
    <glyph glyph-name="degree" unicode="&#xb0;" horiz-adv-x="324" 
d="M35 589q0 54 37 88t90 34t90 -34t37 -88q0 -53 -37 -86t-90 -33t-90 33t-37 86zM53 589q0 -44 33 -73t76 -29q44 0 76.5 29t32.5 73q0 45 -32.5 75t-76.5 30q-43 0 -76 -30t-33 -75z" />
    <glyph glyph-name="plusminus" unicode="&#xb1;" 
d="M50 366v17h211v161h18v-161h211v-17h-211v-163h-18v163h-211zM50 106v17h440v-17h-440z" />
    <glyph glyph-name="twosuperior" unicode="&#xb2;" horiz-adv-x="280" 
d="M247 631q0 -43 -36 -75t-127 -81v-2h101q17 0 25 7l39 38h2l-10 -97h-231v3q82 72 105 94q64 60 64 115q0 66 -63 66q-11 0 -16 -1q-8 -2 -11 -9l-37 -86h-2l-32 91q55 19 104 19q59 0 92 -21t33 -61z" />
    <glyph glyph-name="threesuperior" unicode="&#xb3;" horiz-adv-x="280" 
d="M258 502q0 -38 -34 -61.5t-97 -23.5q-58 0 -110 18l46 94h2l21 -88q2 -6 8 -7q14 -3 31 -3q30 0 49.5 19.5t19.5 51.5q0 66 -89 67v2q80 13 80 74q0 54 -53 54q-15 0 -22 -1q-8 -1 -12 -9l-37 -86h-2l-33 91q55 19 110 19q110 0 110 -69q0 -51 -72 -69v-2q84 -5 84 -71z
" />
    <glyph glyph-name="acute" unicode="&#xb4;" horiz-adv-x="310" 
d="M139 703h121v-2l-208 -161l-2 2z" />
    <glyph glyph-name="mu" unicode="&#xb5;" horiz-adv-x="545" 
d="M178 4v-159q0 -16 14 -23l90 -48v-2h-278v2l69 40q11 6 11 22v581q0 13 -11 23l-67 45v2h175v-279q0 -92 19 -124.5t64 -32.5q61 0 99 74v292q0 15 -11 23l-68 45v2h174v-417q0 -15 11 -23l68 -45v-2h-174v118q-17 -59 -53.5 -92.5t-83.5 -33.5q-30 0 -48 12z" />
    <glyph glyph-name="paragraph" unicode="&#xb6;" horiz-adv-x="602" 
d="M431 -250h-18v250h-75q-266 0 -266 342q0 99 22 172t61 112.5t84.5 58t98.5 18.5h190v-17h-97v-672h97v-14h-97v-250zM335 14h78v672h-78v-672z" />
    <glyph glyph-name="periodcentered" unicode="&#xb7;" horiz-adv-x="225" 
d="M50 425q0 27 18 45.5t44 18.5q27 0 45 -18.5t18 -45.5q0 -26 -18 -44t-45 -18q-26 0 -44 18t-18 44z" />
    <glyph glyph-name="cedilla" unicode="&#xb8;" horiz-adv-x="365" 
d="M280 -143q0 -40 -29 -66.5t-80 -26.5q-46 0 -75 25t-34 60l2 1q8 -25 30 -40.5t47 -15.5q28 0 47 16t19 42q0 28 -18 44.5t-48 16.5q-17 0 -37 -6l-1 2l67 91h2l-10 -63q47 10 82.5 -14.5t35.5 -65.5z" />
    <glyph glyph-name="onesuperior" unicode="&#xb9;" horiz-adv-x="240" 
d="M156 715v-252q0 -5 8 -8l66 -32v-2h-208v2l67 32q7 3 7 8v192q0 7 -7 9l-73 24v2z" />
    <glyph glyph-name="ordmasculine" unicode="&#xba;" horiz-adv-x="399" 
d="M199 698q-78 0 -78 -158q0 -160 78 -160q79 0 79 160q0 158 -79 158zM199 365q-71 0 -112 46t-41 129q0 82 41 127.5t112 45.5t112.5 -45.5t41.5 -127.5q0 -83 -41.5 -129t-112.5 -46z" />
    <glyph glyph-name="guillemotright" unicode="&#xbb;" horiz-adv-x="433" 
d="M233 249l-202 -199l-1 1l98 199l-98 199l1 1l202 -199v-2zM403 249l-202 -199l-1 1l98 199l-98 199l1 1l202 -199v-2z" />
    <glyph glyph-name="onequarter" unicode="&#xbc;" horiz-adv-x="456" 
d="M60 343v17h336v-17h-336zM335 423v-2h-208v2l67 32q7 3 7 8v192q0 7 -7 9l-73 24v2l140 25v-252q0 -5 8 -8zM359 72h-70v-33q0 -5 7 -10l45 -28v-2h-167v2l48 28q7 4 7 10v33h-143v2l155 213h48v-201h13q12 0 16 8l46 84h2zM229 86v158l-114 -158h114z" />
    <glyph glyph-name="onehalf" unicode="&#xbd;" horiz-adv-x="456" 
d="M60 343v17h336v-17h-336zM261 715v-252q0 -5 8 -8l66 -32v-2h-208v2l67 32q7 3 7 8v192q0 7 -7 9l-73 24v2zM342 209q0 -43 -36 -75t-127 -81v-2h101q17 0 25 7l39 38h2l-10 -97h-231v3q82 72 105 94q64 60 64 115q0 66 -63 66q-11 0 -16 -1q-8 -2 -11 -9l-37 -86h-2
l-32 91q55 19 104 19q59 0 92 -21t33 -61z" />
    <glyph glyph-name="threequarters" unicode="&#xbe;" horiz-adv-x="456" 
d="M60 343v17h336v-17h-336zM349 502q0 -38 -34 -61.5t-97 -23.5q-58 0 -110 18l46 94h2l21 -88q2 -6 8 -7q13 -3 31 -3q30 0 49.5 19.5t19.5 51.5q0 66 -89 67v2q80 13 80 74q0 54 -53 54q-15 0 -22 -1q-8 -1 -12 -9l-37 -86h-2l-33 91q55 19 110 19q110 0 110 -69
q0 -51 -72 -69v-2q84 -5 84 -71zM174 -1v2l48 28q7 4 7 10v33h-143v2l155 213h48v-201h13q12 0 16 8l46 84h2l-7 -106h-70v-33q0 -5 7 -10l45 -28v-2h-167zM115 86h114v158z" />
    <glyph glyph-name="questiondown" unicode="&#xbf;" horiz-adv-x="393" 
d="M228 275q57 -31 57 -85q0 -20 -11.5 -42t-22.5 -34.5l-34 -38.5l-56 -61q-51 -55 -51 -116q0 -49 32 -79t83 -30q23 0 40 4q14 3 17 5.5t7 11.5l66 157h2l53 -149q-93 -45 -199 -45q-85 0 -140.5 39t-55.5 108q0 66 72 136l83 83q38 38 51 65.5t6 68.5zM299 432
q0 -27 -18 -45.5t-44 -18.5q-27 0 -45 18.5t-18 45.5q0 26 18 44t45 18q26 0 44 -18t18 -44z" />
    <glyph glyph-name="Agrave" unicode="&#xc0;" horiz-adv-x="621" 
d="M157 246l-48 -143q-3 -14 -1.5 -17.5t16.5 -15.5l85 -68v-2h-225v2l80 68q20 18 26 36l168 498q4 16 3 21t-11 16l-55 60v2h153l210 -621q8 -23 23 -38l43 -42v-2h-249v2l71 54q11 8 4 25l-56 165h-237zM276 599l-113 -335h225zM148 919h121l89 -161l-2 -2l-208 161v2z
" />
    <glyph glyph-name="Aacute" unicode="&#xc1;" horiz-adv-x="621" 
d="M157 246l-48 -143q-3 -14 -1.5 -17.5t16.5 -15.5l85 -68v-2h-225v2l80 68q20 18 26 36l168 498q4 16 3 21t-11 16l-55 60v2h153l210 -621q8 -23 23 -38l43 -42v-2h-249v2l71 54q11 8 4 25l-56 165h-237zM276 599l-113 -335h225zM324 919h121v-2l-208 -161l-2 2z" />
    <glyph glyph-name="Acircumflex" unicode="&#xc2;" horiz-adv-x="621" 
d="M157 246l-48 -143q-3 -14 -1.5 -17.5t16.5 -15.5l85 -68v-2h-225v2l80 68q20 18 26 36l168 498q4 16 3 21t-11 16l-55 60v2h153l210 -621q8 -23 23 -38l43 -42v-2h-249v2l71 54q11 8 4 25l-56 165h-237zM276 599l-113 -335h225zM296 829l-141 -76l-1 2l141 173h2
l141 -173l-1 -2z" />
    <glyph glyph-name="Atilde" unicode="&#xc3;" horiz-adv-x="621" 
d="M157 246l-48 -143q-3 -14 -1.5 -17.5t16.5 -15.5l85 -68v-2h-225v2l80 68q20 18 26 36l168 498q4 16 3 21t-11 16l-55 60v2h153l210 -621q8 -23 23 -38l43 -42v-2h-249v2l71 54q11 8 4 25l-56 165h-237zM276 599l-113 -335h225zM428 888l2 -1q0 -20 -3 -37
q-14 -73 -70 -73q-22 0 -66.5 23.5t-65.5 23.5q-40 0 -60 -48l-2 1q0 17 3 34q14 76 70 76q22 0 66 -23.5t65 -23.5q41 0 61 48z" />
    <glyph glyph-name="Adieresis" unicode="&#xc4;" horiz-adv-x="621" 
d="M157 246l-48 -143q-3 -14 -1.5 -17.5t16.5 -15.5l85 -68v-2h-225v2l80 68q20 18 26 36l168 498q4 16 3 21t-11 16l-55 60v2h153l210 -621q8 -23 23 -38l43 -42v-2h-249v2l71 54q11 8 4 25l-56 165h-237zM276 599l-113 -335h225zM162 839q0 22 15 37.5t37 15.5t37 -15.5
t15 -37.5q0 -21 -15.5 -36.5t-36.5 -15.5t-36.5 15.5t-15.5 36.5zM326 839q0 22 15 37.5t36 15.5q22 0 37.5 -15.5t15.5 -37.5q0 -21 -16 -36.5t-37 -15.5t-36 15.5t-15 36.5z" />
    <glyph glyph-name="Aring" unicode="&#xc5;" horiz-adv-x="621" 
d="M157 246l-48 -143q-3 -14 -1.5 -17.5t16.5 -15.5l85 -68v-2h-225v2l80 68q20 18 26 36l168 498q4 16 3 21t-11 16l-55 60v2h153l210 -621q8 -23 23 -38l43 -42v-2h-249v2l71 54q11 8 4 25l-56 165h-237zM276 599l-113 -335h225zM378 838q0 -34 -23.5 -57.5t-57.5 -23.5
t-57.5 23.5t-23.5 57.5t23.5 57.5t57.5 23.5t57.5 -23.5t23.5 -57.5zM359 838q0 26 -18 44.5t-44 18.5t-44 -18.5t-18 -44.5t18 -44.5t44 -18.5t44 18.5t18 44.5z" />
    <glyph glyph-name="AE" unicode="&#xc6;" horiz-adv-x="911" 
d="M858 0h-522v2l86 47q13 7 13 20v176h-237l-82 -136q-10 -17 -10.5 -23.5t11.5 -16.5l84 -67v-2h-226v2l74 58q28 22 39 39l306 505q10 16 10 21.5t-10 15.5l-63 60v2h517v-216h-2l-84 180q-9 18 -29 18h-178q-10 0 -13 -4.5t-3 -18.5v-294h123q16 1 28 19l64 89h2v-234
h-2l-64 90q-13 18 -29 18h-122v-309q0 -14 3 -18.5t13 -4.5h178q26 0 34 13l89 182h2v-213zM435 263v374l-226 -374h226z" />
    <glyph glyph-name="Ccedilla" unicode="&#xc7;" horiz-adv-x="595" 
d="M455 -143q0 -40 -29 -66.5t-80 -26.5q-46 0 -75 25t-34 60l2 1q8 -25 30 -40.5t47 -15.5q28 0 47 16t19 42q0 28 -18 45t-48 16q-18 0 -37 -6l-1 2l60 82q-153 9 -228 105t-75 253q0 164 86 264t238 100q87 0 181 -22v-211h-2l-101 194q-6 11 -11.5 14.5t-20.5 5.5
q-21 3 -41 3q-209 0 -209 -346q0 -345 216 -345q13 0 35 2q21 2 30 18l102 201h2v-220q-80 -17 -168 -17q-4 0 -13 0.5t-14 0.5l-8 -54q47 10 82.5 -14.5t35.5 -65.5z" />
    <glyph glyph-name="Egrave" unicode="&#xc8;" horiz-adv-x="593" 
d="M540 0h-522v2l86 47q13 7 13 20v565q0 13 -13 20l-86 47v2h512v-216h-2l-84 180q-9 18 -29 18h-178q-10 0 -13 -4.5t-3 -18.5v-294h123q16 1 28 19l64 89h2v-234h-2l-64 90q-13 18 -29 18h-122v-309q0 -14 3 -18.5t13 -4.5h178q26 0 34 13l89 182h2v-213zM164 919h121
l89 -161l-2 -2l-208 161v2z" />
    <glyph glyph-name="Eacute" unicode="&#xc9;" horiz-adv-x="593" 
d="M540 0h-522v2l86 47q13 7 13 20v565q0 13 -13 20l-86 47v2h512v-216h-2l-84 180q-9 18 -29 18h-178q-10 0 -13 -4.5t-3 -18.5v-294h123q16 1 28 19l64 89h2v-234h-2l-64 90q-13 18 -29 18h-122v-309q0 -14 3 -18.5t13 -4.5h178q26 0 34 13l89 182h2v-213zM340 919h121v-2
l-208 -161l-2 2z" />
    <glyph glyph-name="Ecircumflex" unicode="&#xca;" horiz-adv-x="593" 
d="M540 0h-522v2l86 47q13 7 13 20v565q0 13 -13 20l-86 47v2h512v-216h-2l-84 180q-9 18 -29 18h-178q-10 0 -13 -4.5t-3 -18.5v-294h123q16 1 28 19l64 89h2v-234h-2l-64 90q-13 18 -29 18h-122v-309q0 -14 3 -18.5t13 -4.5h178q26 0 34 13l89 182h2v-213zM312 829
l-141 -76l-1 2l141 173h2l141 -173l-1 -2z" />
    <glyph glyph-name="Edieresis" unicode="&#xcb;" horiz-adv-x="593" 
d="M540 0h-522v2l86 47q13 7 13 20v565q0 13 -13 20l-86 47v2h512v-216h-2l-84 180q-9 18 -29 18h-178q-10 0 -13 -4.5t-3 -18.5v-294h123q16 1 28 19l64 89h2v-234h-2l-64 90q-13 18 -29 18h-122v-309q0 -14 3 -18.5t13 -4.5h178q26 0 34 13l89 182h2v-213zM178 839
q0 22 15 37.5t37 15.5t37 -15.5t15 -37.5q0 -21 -15.5 -36.5t-36.5 -15.5t-36.5 15.5t-15.5 36.5zM342 839q0 22 15 37.5t36 15.5q22 0 37.5 -15.5t15.5 -37.5q0 -21 -16 -36.5t-37 -15.5t-36 15.5t-15 36.5z" />
    <glyph glyph-name="Igrave" unicode="&#xcc;" horiz-adv-x="338" 
d="M221 69q0 -9 2 -12.5t11 -7.5l86 -47v-2h-302v2l86 47q13 7 13 20v565q0 13 -13 20l-86 47v2h302v-2l-86 -47q-9 -5 -11 -8.5t-2 -11.5v-565zM20 919h121l89 -161l-2 -2l-208 161v2z" />
    <glyph glyph-name="Iacute" unicode="&#xcd;" horiz-adv-x="338" 
d="M221 69q0 -9 2 -12.5t11 -7.5l86 -47v-2h-302v2l86 47q13 7 13 20v565q0 13 -13 20l-86 47v2h302v-2l-86 -47q-9 -5 -11 -8.5t-2 -11.5v-565zM196 919h121v-2l-208 -161l-2 2z" />
    <glyph glyph-name="Icircumflex" unicode="&#xce;" horiz-adv-x="338" 
d="M221 69q0 -9 2 -12.5t11 -7.5l86 -47v-2h-302v2l86 47q13 7 13 20v565q0 13 -13 20l-86 47v2h302v-2l-86 -47q-9 -5 -11 -8.5t-2 -11.5v-565zM168 829l-141 -76l-1 2l141 173h2l141 -173l-1 -2z" />
    <glyph glyph-name="Idieresis" unicode="&#xcf;" horiz-adv-x="338" 
d="M221 69q0 -9 2 -12.5t11 -7.5l86 -47v-2h-302v2l86 47q13 7 13 20v565q0 13 -13 20l-86 47v2h302v-2l-86 -47q-9 -5 -11 -8.5t-2 -11.5v-565zM34 839q0 22 15 37.5t37 15.5t37 -15.5t15 -37.5q0 -21 -15.5 -36.5t-36.5 -15.5t-36.5 15.5t-15.5 36.5zM198 839
q0 22 15 37.5t36 15.5q22 0 37.5 -15.5t15.5 -37.5q0 -21 -16 -36.5t-37 -15.5t-36 15.5t-15 36.5z" />
    <glyph glyph-name="Eth" unicode="&#xd0;" horiz-adv-x="674" 
d="M30 347v17h89v266q0 13 -2 17.5t-11 8.5l-89 45v2h294q162 0 245.5 -90t83.5 -252q0 -165 -85 -263t-245 -98h-293v2l89 45q9 4 11 9t2 18v273h-89zM291 685h-52q-9 0 -12.5 -4t-3.5 -16v-301h125v-17h-125v-305q0 -16 4.5 -20t22.5 -4h21q250 0 250 338q0 175 -62.5 252
t-167.5 77z" />
    <glyph glyph-name="Ntilde" unicode="&#xd1;" horiz-adv-x="682" 
d="M576 602v-602h-69l-367 600v-499q0 -19 16 -30l95 -69v-2h-241v2l95 69q16 11 16 30v507q0 22 -13 34l-84 59v2h175l358 -587v486q0 18 -16 30l-95 69v2h241v-2l-95 -69q-16 -11 -16 -30zM479 888l2 -1q0 -20 -3 -37q-14 -73 -70 -73q-22 0 -66.5 23.5t-65.5 23.5
q-40 0 -60 -48l-2 1q0 17 3 34q14 76 70 76q22 0 66 -23.5t65 -23.5q41 0 61 48z" />
    <glyph glyph-name="Ograve" unicode="&#xd2;" horiz-adv-x="689" 
d="M345 6q86 0 137.5 83t51.5 263t-51.5 262t-137.5 83q-86 0 -137.5 -82.5t-51.5 -262.5t51.5 -262.5t137.5 -83.5zM345 713q147 0 227.5 -96t80.5 -265t-80.5 -265.5t-227.5 -96.5t-228 96.5t-81 265.5t81 265t228 96zM196 919h121l89 -161l-2 -2l-208 161v2z" />
    <glyph glyph-name="Oacute" unicode="&#xd3;" horiz-adv-x="689" 
d="M345 6q86 0 137.5 83t51.5 263t-51.5 262t-137.5 83q-86 0 -137.5 -82.5t-51.5 -262.5t51.5 -262.5t137.5 -83.5zM345 713q147 0 227.5 -96t80.5 -265t-80.5 -265.5t-227.5 -96.5t-228 96.5t-81 265.5t81 265t228 96zM372 919h121v-2l-208 -161l-2 2z" />
    <glyph glyph-name="Ocircumflex" unicode="&#xd4;" horiz-adv-x="689" 
d="M345 6q86 0 137.5 83t51.5 263t-51.5 262t-137.5 83q-86 0 -137.5 -82.5t-51.5 -262.5t51.5 -262.5t137.5 -83.5zM345 713q147 0 227.5 -96t80.5 -265t-80.5 -265.5t-227.5 -96.5t-228 96.5t-81 265.5t81 265t228 96zM344 829l-141 -76l-1 2l141 173h2l141 -173l-1 -2z
" />
    <glyph glyph-name="Otilde" unicode="&#xd5;" horiz-adv-x="689" 
d="M345 6q86 0 137.5 83t51.5 263t-51.5 262t-137.5 83q-86 0 -137.5 -82.5t-51.5 -262.5t51.5 -262.5t137.5 -83.5zM345 713q147 0 227.5 -96t80.5 -265t-80.5 -265.5t-227.5 -96.5t-228 96.5t-81 265.5t81 265t228 96zM476 888l2 -1q0 -20 -3 -37q-14 -73 -70 -73
q-22 0 -66.5 23.5t-65.5 23.5q-40 0 -60 -48l-2 1q0 17 3 34q14 76 70 76q22 0 66 -23.5t65 -23.5q41 0 61 48z" />
    <glyph glyph-name="Odieresis" unicode="&#xd6;" horiz-adv-x="689" 
d="M345 6q86 0 137.5 83t51.5 263t-51.5 262t-137.5 83q-86 0 -137.5 -82.5t-51.5 -262.5t51.5 -262.5t137.5 -83.5zM345 713q147 0 227.5 -96t80.5 -265t-80.5 -265.5t-227.5 -96.5t-228 96.5t-81 265.5t81 265t228 96zM210 839q0 22 15 37.5t37 15.5t37 -15.5t15 -37.5
q0 -21 -15.5 -36.5t-36.5 -15.5t-36.5 15.5t-15.5 36.5zM374 839q0 22 15 37.5t36 15.5q22 0 37.5 -15.5t15.5 -37.5q0 -21 -16 -36.5t-37 -15.5t-36 15.5t-15 36.5z" />
    <glyph glyph-name="multiply" unicode="&#xd7;" 
d="M121 161l-12 12l149 149l-150 150l12 12l150 -150l150 150l12 -12l-150 -150l149 -149l-12 -12l-149 149z" />
    <glyph glyph-name="Oslash" unicode="&#xd8;" horiz-adv-x="689" 
d="M345 713q79 0 142 -30l43 96l17 -7l-43 -98q72 -41 110.5 -124t38.5 -198q0 -169 -80.5 -265.5t-227.5 -96.5q-73 0 -132 25l-43 -97l-17 7l43 98q-78 41 -119 125t-41 204q0 169 81 265t228 96zM156 352q0 -193 62 -279l249 563q-48 61 -122 61q-86 0 -137.5 -82.5
t-51.5 -262.5zM345 6q86 0 137.5 83t51.5 263t-55 267l-248 -563q44 -50 114 -50z" />
    <glyph glyph-name="Ugrave" unicode="&#xd9;" horiz-adv-x="652" 
d="M554 248q0 -120 -52 -189t-166 -69q-239 0 -239 214v427q0 8 -2 11.5t-11 8.5l-79 50v2h293v-2l-84 -50q-9 -4 -11 -7.5t-2 -12.5v-405q0 -101 43 -154.5t125 -53.5q80 0 123 60t43 169v355q0 19 -16 30l-95 69v2h242v-2l-96 -69q-16 -11 -16 -30v-354zM213 919h121
l89 -161l-2 -2l-208 161v2z" />
    <glyph glyph-name="Uacute" unicode="&#xda;" horiz-adv-x="652" 
d="M554 248q0 -120 -52 -189t-166 -69q-239 0 -239 214v427q0 8 -2 11.5t-11 8.5l-79 50v2h293v-2l-84 -50q-9 -4 -11 -7.5t-2 -12.5v-405q0 -101 43 -154.5t125 -53.5q80 0 123 60t43 169v355q0 19 -16 30l-95 69v2h242v-2l-96 -69q-16 -11 -16 -30v-354zM389 919h121v-2
l-208 -161l-2 2z" />
    <glyph glyph-name="Ucircumflex" unicode="&#xdb;" horiz-adv-x="652" 
d="M554 248q0 -120 -52 -189t-166 -69q-239 0 -239 214v427q0 8 -2 11.5t-11 8.5l-79 50v2h293v-2l-84 -50q-9 -4 -11 -7.5t-2 -12.5v-405q0 -101 43 -154.5t125 -53.5q80 0 123 60t43 169v355q0 19 -16 30l-95 69v2h242v-2l-96 -69q-16 -11 -16 -30v-354zM361 829l-141 -76
l-1 2l141 173h2l141 -173l-1 -2z" />
    <glyph glyph-name="Udieresis" unicode="&#xdc;" horiz-adv-x="652" 
d="M554 248q0 -120 -52 -189t-166 -69q-239 0 -239 214v427q0 8 -2 11.5t-11 8.5l-79 50v2h293v-2l-84 -50q-9 -4 -11 -7.5t-2 -12.5v-405q0 -101 43 -154.5t125 -53.5q80 0 123 60t43 169v355q0 19 -16 30l-95 69v2h242v-2l-96 -69q-16 -11 -16 -30v-354zM227 839
q0 22 15 37.5t37 15.5t37 -15.5t15 -37.5q0 -21 -15.5 -36.5t-36.5 -15.5t-36.5 15.5t-15.5 36.5zM391 839q0 22 15 37.5t36 15.5q22 0 37.5 -15.5t15.5 -37.5q0 -21 -15.5 -36.5t-37.5 -15.5q-21 0 -36 15.5t-15 36.5z" />
    <glyph glyph-name="Yacute" unicode="&#xdd;" horiz-adv-x="596" 
d="M355 287v-218q0 -9 2 -12.5t11 -7.5l91 -47v-2h-312v2l91 47q13 7 13 20v207q0 16 -8 30l-177 317q-11 20 -27 33l-51 45v2h260v-2l-65 -51q-9 -8 -4 -18l167 -299l143 270q8 15 -3 24l-85 74v2h227v-2l-88 -69q-23 -19 -34 -39l-143 -270q-8 -14 -8 -36zM353 919h121v-2
l-208 -161l-2 2z" />
    <glyph glyph-name="Thorn" unicode="&#xde;" horiz-adv-x="586" 
d="M221 153v-82q0 -9 2 -12.5t11 -7.5l112 -49v-2h-328v2l86 47q9 4 11 7.5t2 12.5v565q0 14 -13 20l-86 47v2h203v-120h99q110 0 175.5 -52.5t65.5 -160.5q0 -100 -73.5 -158.5t-181.5 -58.5h-85zM221 171h68q67 0 113 47t46 152q0 101 -43.5 148t-114.5 47h-69v-394z" />
    <glyph glyph-name="germandbls" unicode="&#xdf;" horiz-adv-x="571" 
d="M471 589q0 -55 -71 -106l-54 -38q-37 -27 -37 -59q0 -46 76 -81l71 -32q100 -44 100 -130q0 -71 -52.5 -111t-124.5 -40q-86 0 -159 35l51 135h2l48 -138q3 -10 20 -14q18 -3 40 -3q43 0 66.5 28t23.5 67q0 32 -21 53.5t-60 39.5l-63 30q-89 42 -89 105q0 30 14.5 50.5
t48.5 47.5l42 35q48 41 48 130q0 44 -26.5 74.5t-75.5 30.5q-96 0 -96 -152v-546h-174v2l68 41q11 6 11 21v406h-70v17h70v8q0 121 48 169.5t147 48.5q71 0 124.5 -32t53.5 -92z" />
    <glyph glyph-name="agrave" unicode="&#xe0;" horiz-adv-x="465" 
d="M301 344l-2 -106q-42 31 -104 31q-65 0 -113.5 -38.5t-48.5 -107.5q0 -61 38 -96t92 -35q48 0 83.5 28t50.5 78q0 -52 22.5 -79t57.5 -27q28 0 48 15.5t29 38.5q6 15 6 31h-2q-8 -29 -33 -29q-38 0 -36 67l4 163v14q0 117 -45 164q-38 39 -127 39q-88 0 -168 -33l45 -130
h2l61 132q4 10 9 12t24 2q53 0 80 -35.5t27 -95.5v-3zM241 242q29 0 58 -10l-2 -123v-3q-34 -58 -90 -58q-33 0 -54.5 24t-21.5 63q0 45 29 76t81 31zM77 703h121l89 -161l-2 -2l-208 161v2z" />
    <glyph glyph-name="aacute" unicode="&#xe1;" horiz-adv-x="465" 
d="M301 344l-2 -106q-42 31 -104 31q-65 0 -113.5 -38.5t-48.5 -107.5q0 -61 38 -96t92 -35q48 0 83.5 28t50.5 78q0 -52 22.5 -79t57.5 -27q28 0 48 15.5t29 38.5q6 15 6 31h-2q-8 -29 -33 -29q-38 0 -36 67l4 163v14q0 117 -45 164q-38 39 -127 39q-88 0 -168 -33l45 -130
h2l61 132q4 10 9 12t24 2q53 0 80 -35.5t27 -95.5v-3zM241 242q29 0 58 -10l-2 -123v-3q-34 -58 -90 -58q-33 0 -54.5 24t-21.5 63q0 45 29 76t81 31zM253 703h121v-2l-208 -161l-2 2z" />
    <glyph glyph-name="acircumflex" unicode="&#xe2;" horiz-adv-x="465" 
d="M301 344l-2 -106q-42 31 -104 31q-65 0 -113.5 -38.5t-48.5 -107.5q0 -61 38 -96t92 -35q48 0 83.5 28t50.5 78q0 -52 22.5 -79t57.5 -27q28 0 48 15.5t29 38.5q6 15 6 31h-2q-8 -29 -33 -29q-38 0 -36 67l4 163v14q0 117 -45 164q-38 39 -127 39q-88 0 -168 -33l45 -130
h2l61 132q4 10 9 12t24 2q53 0 80 -35.5t27 -95.5v-3zM241 242q29 0 58 -10l-2 -123v-3q-34 -58 -90 -58q-33 0 -54.5 24t-21.5 63q0 45 29 76t81 31zM225 613l-141 -76l-1 2l141 173h2l141 -173l-1 -2z" />
    <glyph glyph-name="atilde" unicode="&#xe3;" horiz-adv-x="465" 
d="M301 344l-2 -106q-42 31 -104 31q-65 0 -113.5 -38.5t-48.5 -107.5q0 -61 38 -96t92 -35q48 0 83.5 28t50.5 78q0 -52 22.5 -79t57.5 -27q28 0 48 15.5t29 38.5q6 15 6 31h-2q-8 -29 -33 -29q-38 0 -36 67l4 163v14q0 117 -45 164q-38 39 -127 39q-88 0 -168 -33l45 -130
h2l61 132q4 10 9 12t24 2q53 0 80 -35.5t27 -95.5v-3zM241 242q29 0 58 -10l-2 -123v-3q-34 -58 -90 -58q-33 0 -54.5 24t-21.5 63q0 45 29 76t81 31zM357 672l2 -1q0 -21 -3 -37q-14 -73 -70 -73q-22 0 -66.5 23.5t-65.5 23.5q-40 0 -60 -48l-2 1q0 17 3 34q14 76 70 76
q22 0 66 -23.5t65 -23.5q41 0 61 48z" />
    <glyph glyph-name="adieresis" unicode="&#xe4;" horiz-adv-x="465" 
d="M301 344l-2 -106q-42 31 -104 31q-65 0 -113.5 -38.5t-48.5 -107.5q0 -61 38 -96t92 -35q48 0 83.5 28t50.5 78q0 -52 22.5 -79t57.5 -27q28 0 48 15.5t29 38.5q6 15 6 31h-2q-8 -29 -33 -29q-38 0 -36 67l4 163v14q0 117 -45 164q-38 39 -127 39q-88 0 -168 -33l45 -130
h2l61 132q4 10 9 12t24 2q53 0 80 -35.5t27 -95.5v-3zM241 242q29 0 58 -10l-2 -123v-3q-34 -58 -90 -58q-33 0 -54.5 24t-21.5 63q0 45 29 76t81 31zM91 623q0 22 15 37.5t37 15.5t37 -15.5t15 -37.5q0 -21 -15.5 -36.5t-36.5 -15.5t-36.5 15.5t-15.5 36.5zM255 623
q0 22 15 37.5t36 15.5q22 0 37.5 -15.5t15.5 -37.5q0 -21 -15.5 -36.5t-37.5 -15.5q-21 0 -36 15.5t-15 36.5z" />
    <glyph glyph-name="aring" unicode="&#xe5;" horiz-adv-x="465" 
d="M301 344l-2 -106q-42 31 -104 31q-65 0 -113.5 -38.5t-48.5 -107.5q0 -61 38 -96t92 -35q48 0 83.5 28t50.5 78q0 -52 22.5 -79t57.5 -27q28 0 48 15.5t29 38.5q6 15 6 31h-2q-8 -29 -33 -29q-38 0 -36 67l4 163v14q0 117 -45 164q-38 39 -127 39q-88 0 -168 -33l45 -130
h2l61 132q4 10 9 12t24 2q53 0 80 -35.5t27 -95.5v-3zM241 242q29 0 58 -10l-2 -123v-3q-34 -58 -90 -58q-33 0 -54.5 24t-21.5 63q0 45 29 76t81 31zM307 622q0 -34 -23.5 -57.5t-57.5 -23.5t-57.5 23.5t-23.5 57.5t23.5 57.5t57.5 23.5t57.5 -23.5t23.5 -57.5zM288 622
q0 26 -18 44.5t-44 18.5t-44 -18.5t-18 -44.5t18 -44.5t44 -18.5t44 18.5t18 44.5z" />
    <glyph glyph-name="ae" unicode="&#xe6;" horiz-adv-x="732" 
d="M190 269q66 0 109 -31v26l2 80q2 61 -26 97t-83 36q-17 0 -22 -2t-9 -11l-61 -131h-2l-49 135q84 27 176 27q83 0 121 -39q12 -14 17 -23q59 62 148 62q78 0 133 -47t55 -137q0 -10 -2 -26h-303v-28q0 -98 41 -153t105 -55q110 0 159 122h2q-16 -89 -65.5 -134
t-128.5 -45q-57 0 -104.5 27t-74.5 81q-16 -50 -58 -79t-99 -29q-60 0 -99 36.5t-39 99.5q0 66 48.5 103.5t108.5 37.5zM510 480q-49 0 -79.5 -48t-35.5 -130h207q0 178 -92 178zM217 48q68 0 109 56q-27 56 -27 129q-36 9 -57 9q-52 0 -81.5 -29.5t-29.5 -73.5
q0 -41 23 -66t63 -25z" />
    <glyph glyph-name="ccedilla" unicode="&#xe7;" horiz-adv-x="440" 
d="M345 -143q0 -40 -29 -66.5t-80 -26.5q-46 0 -75 25t-34 60l2 1q8 -25 30 -40.5t47 -15.5q28 0 47 16t19 42q0 28 -18 45t-48 16q-18 0 -37 -6l-1 2l61 83q-83 2 -141 64t-58 183q0 67 20 118t54 80t74.5 43.5t85.5 14.5q69 0 145 -28l-47 -145h-2l-59 144q-5 11 -12 12
q-9 2 -21 2q-69 0 -105 -55t-36 -156q0 -111 40.5 -165.5t104.5 -54.5q94 0 141 113h2q-15 -78 -59.5 -123.5t-120.5 -46.5l-8 -55q47 10 82.5 -14.5t35.5 -65.5z" />
    <glyph glyph-name="egrave" unicode="&#xe8;" horiz-adv-x="464" 
d="M429 285h-302v-28q0 -98 40.5 -153t104.5 -55q109 0 159 123l2 -1q-16 -89 -65.5 -134t-128.5 -45q-89 0 -148.5 62.5t-59.5 184.5q0 68 19 119.5t51 80t68 42.5t74 14q78 0 133 -47t55 -137q0 -10 -2 -26zM242 480q-49 0 -78.5 -47.5t-35.5 -130.5h206v2q0 176 -92 176z
M97 703h121l89 -161l-2 -2l-208 161v2z" />
    <glyph glyph-name="eacute" unicode="&#xe9;" horiz-adv-x="464" 
d="M429 285h-302v-28q0 -98 40.5 -153t104.5 -55q109 0 159 123l2 -1q-16 -89 -65.5 -134t-128.5 -45q-89 0 -148.5 62.5t-59.5 184.5q0 68 19 119.5t51 80t68 42.5t74 14q78 0 133 -47t55 -137q0 -10 -2 -26zM242 480q-49 0 -78.5 -47.5t-35.5 -130.5h206v2q0 176 -92 176z
M273 703h121v-2l-208 -161l-2 2z" />
    <glyph glyph-name="ecircumflex" unicode="&#xea;" horiz-adv-x="464" 
d="M429 285h-302v-28q0 -98 40.5 -153t104.5 -55q109 0 159 123l2 -1q-16 -89 -65.5 -134t-128.5 -45q-89 0 -148.5 62.5t-59.5 184.5q0 68 19 119.5t51 80t68 42.5t74 14q78 0 133 -47t55 -137q0 -10 -2 -26zM242 480q-49 0 -78.5 -47.5t-35.5 -130.5h206v2q0 176 -92 176z
M245 613l-141 -76l-1 2l141 173h2l141 -173l-1 -2z" />
    <glyph glyph-name="edieresis" unicode="&#xeb;" horiz-adv-x="464" 
d="M429 285h-302v-28q0 -98 40.5 -153t104.5 -55q109 0 159 123l2 -1q-16 -89 -65.5 -134t-128.5 -45q-89 0 -148.5 62.5t-59.5 184.5q0 68 19 119.5t51 80t68 42.5t74 14q78 0 133 -47t55 -137q0 -10 -2 -26zM242 480q-49 0 -78.5 -47.5t-35.5 -130.5h206v2q0 176 -92 176z
M111 623q0 22 15 37.5t37 15.5t37 -15.5t15 -37.5q0 -21 -15.5 -36.5t-36.5 -15.5t-36.5 15.5t-15.5 36.5zM275 623q0 22 15 37.5t36 15.5q22 0 37.5 -15.5t15.5 -37.5q0 -21 -15.5 -36.5t-37.5 -15.5q-21 0 -36 15.5t-15 36.5z" />
    <glyph glyph-name="igrave" unicode="&#xec;" horiz-adv-x="286" 
d="M198 487v-423q0 -14 12 -21l67 -41v-2h-253v2l68 40q11 6 11 22v348q0 15 -11 23l-68 50v2h174zM-2 703h121l89 -161l-2 -2l-208 161v2z" />
    <glyph glyph-name="iacute" unicode="&#xed;" horiz-adv-x="286" 
d="M198 487v-423q0 -14 12 -21l67 -41v-2h-253v2l68 40q11 6 11 22v348q0 15 -11 23l-68 50v2h174zM174 703h121v-2l-208 -161l-2 2z" />
    <glyph glyph-name="icircumflex" unicode="&#xee;" horiz-adv-x="286" 
d="M198 487v-423q0 -14 12 -21l67 -41v-2h-253v2l68 40q11 6 11 22v348q0 15 -11 23l-68 50v2h174zM132 613l-141 -76l-1 2l141 173h2l141 -173l-1 -2z" />
    <glyph glyph-name="idieresis" unicode="&#xef;" horiz-adv-x="286" 
d="M198 487v-423q0 -14 12 -21l67 -41v-2h-253v2l68 40q11 6 11 22v348q0 15 -11 23l-68 50v2h174zM-2 623q0 22 15 37.5t37 15.5t37 -15.5t15 -37.5q0 -21 -15.5 -36.5t-36.5 -15.5t-36.5 15.5t-15.5 36.5zM162 623q0 22 15 37.5t36 15.5q22 0 37.5 -15.5t15.5 -37.5
q0 -21 -16 -36.5t-37 -15.5t-36 15.5t-15 36.5z" />
    <glyph glyph-name="eth" unicode="&#xf0;" horiz-adv-x="499" 
d="M132 711l1 2l14 -3q88 -18 152 -65l113 68l8 -15l-107 -63q77 -61 115.5 -154.5t38.5 -202.5q0 -286 -223 -286q-89 0 -150.5 66t-61.5 175q0 118 57 186.5t142 68.5q79 0 118 -63q-24 107 -82 182l-121 -72l-7 15l117 70q-48 55 -124 91zM365 258q0 83 -13 149
q-40 52 -97 52q-39 0 -66.5 -35.5t-39 -84.5t-11.5 -104q0 -97 28 -162.5t77 -65.5q122 0 122 251z" />
    <glyph glyph-name="ntilde" unicode="&#xf1;" horiz-adv-x="564" 
d="M483 295q0 -71 -2 -231q0 -15 12 -22l68 -40v-2h-253v2l64 40q13 8 13 20q0 2 0.5 44t1.5 90.5t1 66.5q0 91 -21 132.5t-65 41.5q-66 0 -105 -74v-299q0 -14 12 -21l67 -41v-2h-253v2l68 40q11 6 11 22v348q0 15 -11 23l-68 50v2h174v-118q35 126 148 126q138 0 138 -200
zM416 672l2 -1q0 -21 -3 -37q-14 -73 -70 -73q-22 0 -66.5 23.5t-65.5 23.5q-40 0 -60 -48l-2 1q0 17 3 34q14 76 70 76q22 0 66 -23.5t65 -23.5q41 0 61 48z" />
    <glyph glyph-name="ograve" unicode="&#xf2;" horiz-adv-x="508" 
d="M254 480q-113 0 -113 -236q0 -237 113 -237t113 237q0 236 -113 236zM254 -8q-103 0 -162.5 66.5t-59.5 185.5t59.5 185t162.5 66t162.5 -66t59.5 -185t-59.5 -185.5t-162.5 -66.5zM105 703h121l89 -161l-2 -2l-208 161v2z" />
    <glyph glyph-name="oacute" unicode="&#xf3;" horiz-adv-x="508" 
d="M254 480q-113 0 -113 -236q0 -237 113 -237t113 237q0 236 -113 236zM254 -8q-103 0 -162.5 66.5t-59.5 185.5t59.5 185t162.5 66t162.5 -66t59.5 -185t-59.5 -185.5t-162.5 -66.5zM281 703h121v-2l-208 -161l-2 2z" />
    <glyph glyph-name="ocircumflex" unicode="&#xf4;" horiz-adv-x="508" 
d="M254 480q-113 0 -113 -236q0 -237 113 -237t113 237q0 236 -113 236zM254 -8q-103 0 -162.5 66.5t-59.5 185.5t59.5 185t162.5 66t162.5 -66t59.5 -185t-59.5 -185.5t-162.5 -66.5zM253 613l-141 -76l-1 2l141 173h2l141 -173l-1 -2z" />
    <glyph glyph-name="otilde" unicode="&#xf5;" horiz-adv-x="508" 
d="M254 480q-113 0 -113 -236q0 -237 113 -237t113 237q0 236 -113 236zM254 -8q-103 0 -162.5 66.5t-59.5 185.5t59.5 185t162.5 66t162.5 -66t59.5 -185t-59.5 -185.5t-162.5 -66.5zM385 672l2 -1q0 -21 -3 -37q-14 -73 -70 -73q-22 0 -66.5 23.5t-65.5 23.5
q-40 0 -60 -48l-2 1q0 17 3 34q14 76 70 76q22 0 66 -23.5t65 -23.5q41 0 61 48z" />
    <glyph glyph-name="odieresis" unicode="&#xf6;" horiz-adv-x="508" 
d="M254 480q-113 0 -113 -236q0 -237 113 -237t113 237q0 236 -113 236zM254 -8q-103 0 -162.5 66.5t-59.5 185.5t59.5 185t162.5 66t162.5 -66t59.5 -185t-59.5 -185.5t-162.5 -66.5zM119 623q0 22 15 37.5t37 15.5t37 -15.5t15 -37.5q0 -21 -15.5 -36.5t-36.5 -15.5
t-36.5 15.5t-15.5 36.5zM283 623q0 22 15 37.5t36 15.5q22 0 37.5 -15.5t15.5 -37.5q0 -21 -15.5 -36.5t-37.5 -15.5q-21 0 -36 15.5t-15 36.5z" />
    <glyph glyph-name="divide" unicode="&#xf7;" 
d="M211 468q0 26 17 43.5t42 17.5t42.5 -17.5t17.5 -43.5q0 -24 -17.5 -41.5t-42.5 -17.5t-42 17.5t-17 41.5zM211 148q0 26 17 43.5t42 17.5t42.5 -17.5t17.5 -43.5q0 -24 -17.5 -41.5t-42.5 -17.5t-42 17.5t-17 41.5zM50 304v17h440v-17h-440z" />
    <glyph glyph-name="oslash" unicode="&#xf8;" horiz-adv-x="508" 
d="M398 545l-33 -74q112 -56 112 -227q0 -125 -59.5 -188.5t-163.5 -63.5q-55 0 -94 16l-40 -90l-16 8l39 89q-112 56 -112 229q0 125 59.5 188t163.5 63q53 0 94 -16l33 73zM254 480q-56 0 -84 -55t-28 -181q0 -121 25 -175l163 369q-28 42 -76 42zM366 244q0 114 -25 173
l-163 -369q25 -41 76 -41q55 0 83.5 55.5t28.5 181.5z" />
    <glyph glyph-name="ugrave" unicode="&#xf9;" 
d="M259 50q59 0 99 74v288q0 15 -11 23l-68 50v2h174v-412q0 -15 11 -23l68 -50v-2h-174v116q-40 -124 -145 -124q-135 0 -135 200q0 60 2 220q0 15 -11 23l-68 50v2h175l-2 -119q-1 -119 -1 -142q0 -91 20.5 -133.5t65.5 -42.5zM106 703h121l89 -161l-2 -2l-208 161v2z" />
    <glyph glyph-name="uacute" unicode="&#xfa;" 
d="M259 50q59 0 99 74v288q0 15 -11 23l-68 50v2h174v-412q0 -15 11 -23l68 -50v-2h-174v116q-40 -124 -145 -124q-135 0 -135 200q0 60 2 220q0 15 -11 23l-68 50v2h175l-2 -119q-1 -119 -1 -142q0 -91 20.5 -133.5t65.5 -42.5zM282 703h121v-2l-208 -161l-2 2z" />
    <glyph glyph-name="ucircumflex" unicode="&#xfb;" 
d="M259 50q59 0 99 74v288q0 15 -11 23l-68 50v2h174v-412q0 -15 11 -23l68 -50v-2h-174v116q-40 -124 -145 -124q-135 0 -135 200q0 60 2 220q0 15 -11 23l-68 50v2h175l-2 -119q-1 -119 -1 -142q0 -91 20.5 -133.5t65.5 -42.5zM254 613l-141 -76l-1 2l141 173h2l141 -173
l-1 -2z" />
    <glyph glyph-name="udieresis" unicode="&#xfc;" 
d="M259 50q59 0 99 74v288q0 15 -11 23l-68 50v2h174v-412q0 -15 11 -23l68 -50v-2h-174v116q-40 -124 -145 -124q-135 0 -135 200q0 60 2 220q0 15 -11 23l-68 50v2h175l-2 -119q-1 -119 -1 -142q0 -91 20.5 -133.5t65.5 -42.5zM120 623q0 22 15 37.5t37 15.5t37 -15.5
t15 -37.5q0 -21 -15.5 -36.5t-36.5 -15.5t-36.5 15.5t-15.5 36.5zM284 623q0 22 15 37.5t36 15.5q22 0 37.5 -15.5t15.5 -37.5q0 -21 -16 -36.5t-37 -15.5t-36 15.5t-15 36.5z" />
    <glyph glyph-name="yacute" unicode="&#xfd;" horiz-adv-x="435" 
d="M56 -236q-24 0 -42 10l35 151h2l58 -100q7 -12 12 -12t12 9q33 40 61 117l13 36l-173 443q-9 21 -19 34l-25 33v2h198v-2l-48 -46q-10 -9 -4 -24l120 -310l107 279q7 18 -3 30l-60 71v2h155v-2l-56 -69q-10 -11 -19 -34l-170 -446q-26 -67 -50 -105q-42 -67 -104 -67z
M270 703h121v-2l-208 -161l-2 2z" />
    <glyph glyph-name="thorn" unicode="&#xfe;" horiz-adv-x="523" 
d="M317 495q82 0 127 -63t45 -175q0 -121 -49 -193t-138 -72q-98 0 -135 92v-239q0 -16 14 -23l90 -48v-2h-278v2l68 40q11 6 11 22v793q0 14 -11 22l-68 50v2h174v-333q45 125 150 125zM274 437q-66 0 -107 -73v-271q35 -60 97 -60q60 0 90.5 56.5t30.5 161.5
q0 99 -27.5 142.5t-83.5 43.5z" />
    <glyph glyph-name="ydieresis" unicode="&#xff;" horiz-adv-x="435" 
d="M56 -236q-24 0 -42 10l35 151h2l58 -100q7 -12 12 -12t12 9q33 40 61 117l13 36l-173 443q-9 21 -19 34l-25 33v2h198v-2l-48 -46q-10 -9 -4 -24l120 -310l107 279q7 18 -3 30l-60 71v2h155v-2l-56 -69q-10 -11 -19 -34l-170 -446q-26 -67 -50 -105q-42 -67 -104 -67z
M108 623q0 22 15 37.5t37 15.5t37 -15.5t15 -37.5q0 -21 -15.5 -36.5t-36.5 -15.5t-36.5 15.5t-15.5 36.5zM272 623q0 22 15 37.5t36 15.5q22 0 37.5 -15.5t15.5 -37.5q0 -21 -16 -36.5t-37 -15.5t-36 15.5t-15 36.5z" />
    <glyph glyph-name="Amacron" unicode="&#x100;" horiz-adv-x="621" 
d="M157 246l-48 -143q-3 -14 -1.5 -17.5t16.5 -15.5l85 -68v-2h-225v2l80 68q20 18 26 36l168 498q4 16 3 21t-11 16l-55 60v2h153l210 -621q8 -23 23 -38l43 -42v-2h-249v2l71 54q11 8 4 25l-56 165h-237zM276 599l-113 -335h225zM416 807h-246v18h246v-18z" />
    <glyph glyph-name="amacron" unicode="&#x101;" horiz-adv-x="465" 
d="M301 344l-2 -106q-42 31 -104 31q-65 0 -113.5 -38.5t-48.5 -107.5q0 -61 38 -96t92 -35q48 0 83.5 28t50.5 78q0 -52 22.5 -79t57.5 -27q28 0 48 15.5t29 38.5q6 15 6 31h-2q-8 -29 -33 -29q-38 0 -36 67l4 163v14q0 117 -45 164q-38 39 -127 39q-88 0 -168 -33l45 -130
h2l61 132q4 10 9 12t24 2q53 0 80 -35.5t27 -95.5v-3zM241 242q29 0 58 -10l-2 -123v-3q-34 -58 -90 -58q-33 0 -54.5 24t-21.5 63q0 45 29 76t81 31zM345 591h-246v18h246v-18z" />
    <glyph glyph-name="Abreve" unicode="&#x102;" horiz-adv-x="621" 
d="M157 246l-48 -143q-3 -14 -1.5 -17.5t16.5 -15.5l85 -68v-2h-225v2l80 68q20 18 26 36l168 498q4 16 3 21t-11 16l-55 60v2h153l210 -621q8 -23 23 -38l43 -42v-2h-249v2l71 54q11 8 4 25l-56 165h-237zM276 599l-113 -335h225zM291 818q48 0 80 26.5t33 71.5h2
q4 -19 4 -38q0 -60 -35 -90t-84 -30t-83.5 30t-34.5 90q0 19 4 38h2q1 -45 33 -71.5t79 -26.5z" />
    <glyph glyph-name="abreve" unicode="&#x103;" horiz-adv-x="465" 
d="M301 344l-2 -106q-42 31 -104 31q-65 0 -113.5 -38.5t-48.5 -107.5q0 -61 38 -96t92 -35q48 0 83.5 28t50.5 78q0 -52 22.5 -79t57.5 -27q28 0 48 15.5t29 38.5q6 15 6 31h-2q-8 -29 -33 -29q-38 0 -36 67l4 163v14q0 117 -45 164q-38 39 -127 39q-88 0 -168 -33l45 -130
h2l61 132q4 10 9 12t24 2q53 0 80 -35.5t27 -95.5v-3zM241 242q29 0 58 -10l-2 -123v-3q-34 -58 -90 -58q-33 0 -54.5 24t-21.5 63q0 45 29 76t81 31zM220 602q48 0 80 26.5t33 71.5h2q4 -19 4 -38q0 -60 -35 -90t-84 -30t-83.5 30t-34.5 90q0 19 4 38h2q1 -45 33 -71.5
t79 -26.5z" />
    <glyph glyph-name="Aogonek" unicode="&#x104;" horiz-adv-x="621" 
d="M358 -236q-38 0 -69 27.5t-31 73.5q0 42 31.5 80t86.5 57l70 54q11 8 4 25l-56 165h-237l-48 -143q-3 -14 -1.5 -17.5t16.5 -15.5l85 -68v-2h-225v2l80 68q20 18 26 36l168 498q4 16 3 21t-11 16l-55 60v2h153l210 -621q8 -23 23 -38l43 -42v-2h-238q-67 -40 -67 -109
q0 -36 21.5 -56t52.5 -20q47 0 72 35l2 -1q-36 -85 -109 -85zM276 599l-113 -335h225z" />
    <glyph glyph-name="aogonek" unicode="&#x105;" horiz-adv-x="465" 
d="M241 242q-52 0 -81 -31t-29 -76q0 -39 21.5 -63t54.5 -24q56 0 90 58v3l2 123q-29 10 -58 10zM358 -236q-38 0 -69 27.5t-31 73.5q0 40 33 73.5t90 53.5h-4q-35 0 -57.5 27t-22.5 79q-15 -50 -50.5 -78t-83.5 -28q-54 0 -92 35t-38 96q0 69 48.5 107.5t113.5 38.5
q62 0 104 -31l2 106v3q0 60 -27 95.5t-80 35.5q-19 0 -24 -2t-9 -12l-61 -132h-2l-45 130q80 33 168 33q89 0 127 -39q45 -47 45 -164v-14l-4 -163q-2 -67 36 -67q25 0 33 29h2q0 -16 -6 -31q-17 -43 -60 -52q-75 -35 -75 -103q0 -36 21.5 -56t52.5 -20q47 0 72 35l2 -1
q-36 -85 -109 -85z" />
    <glyph glyph-name="Cacute" unicode="&#x106;" horiz-adv-x="595" 
d="M372 -10q-170 0 -253.5 97t-83.5 262q0 164 86 264t238 100q87 0 181 -22v-211h-2l-101 194q-6 11 -11.5 14.5t-20.5 5.5q-21 3 -41 3q-209 0 -209 -346q0 -345 216 -345q13 0 35 2q21 2 30 18l102 201h2v-220q-80 -17 -168 -17zM384 919h121v-2l-208 -161l-2 2z" />
    <glyph glyph-name="cacute" unicode="&#x107;" horiz-adv-x="440" 
d="M233 -8q-84 0 -143.5 62.5t-59.5 184.5q0 67 20 118t54 80t74.5 43.5t85.5 14.5q69 0 145 -28l-47 -145h-2l-59 144q-5 11 -12 12q-9 2 -21 2q-69 0 -105 -55t-36 -156q0 -111 40.5 -165.5t104.5 -54.5q94 0 141 113h2q-15 -79 -60 -124.5t-122 -45.5zM283 703h121v-2
l-208 -161l-2 2z" />
    <glyph glyph-name="Ccircumflex" unicode="&#x108;" horiz-adv-x="595" 
d="M372 -10q-170 0 -253.5 97t-83.5 262q0 164 86 264t238 100q87 0 181 -22v-211h-2l-101 194q-6 11 -11.5 14.5t-20.5 5.5q-21 3 -41 3q-209 0 -209 -346q0 -345 216 -345q13 0 35 2q21 2 30 18l102 201h2v-220q-80 -17 -168 -17zM356 829l-141 -76l-1 2l141 173h2
l141 -173l-1 -2z" />
    <glyph glyph-name="ccircumflex" unicode="&#x109;" horiz-adv-x="440" 
d="M233 -8q-84 0 -143.5 62.5t-59.5 184.5q0 67 20 118t54 80t74.5 43.5t85.5 14.5q69 0 145 -28l-47 -145h-2l-59 144q-5 11 -12 12q-9 2 -21 2q-69 0 -105 -55t-36 -156q0 -111 40.5 -165.5t104.5 -54.5q94 0 141 113h2q-15 -79 -60 -124.5t-122 -45.5zM255 613l-141 -76
l-1 2l141 173h2l141 -173l-1 -2z" />
    <glyph glyph-name="Cdotaccent" unicode="&#x10a;" horiz-adv-x="595" 
d="M372 -10q-170 0 -253.5 97t-83.5 262q0 164 86 264t238 100q87 0 181 -22v-211h-2l-101 194q-6 11 -11.5 14.5t-20.5 5.5q-21 3 -41 3q-209 0 -209 -346q0 -345 216 -345q13 0 35 2q21 2 30 18l102 201h2v-220q-80 -17 -168 -17zM297 830q0 26 17 43.5t42 17.5
t42.5 -17.5t17.5 -43.5q0 -24 -17.5 -41.5t-42.5 -17.5t-42 17.5t-17 41.5z" />
    <glyph glyph-name="cdotaccent" unicode="&#x10b;" horiz-adv-x="440" 
d="M233 -8q-84 0 -143.5 62.5t-59.5 184.5q0 67 20 118t54 80t74.5 43.5t85.5 14.5q69 0 145 -28l-47 -145h-2l-59 144q-5 11 -12 12q-9 2 -21 2q-69 0 -105 -55t-36 -156q0 -111 40.5 -165.5t104.5 -54.5q94 0 141 113h2q-15 -79 -60 -124.5t-122 -45.5zM196 614
q0 26 17 43.5t42 17.5t42.5 -17.5t17.5 -43.5q0 -24 -17.5 -41.5t-42.5 -17.5t-42 17.5t-17 41.5z" />
    <glyph glyph-name="Ccaron" unicode="&#x10c;" horiz-adv-x="595" 
d="M372 -10q-170 0 -253.5 97t-83.5 262q0 164 86 264t238 100q87 0 181 -22v-211h-2l-101 194q-6 11 -11.5 14.5t-20.5 5.5q-21 3 -41 3q-209 0 -209 -346q0 -345 216 -345q13 0 35 2q21 2 30 18l102 201h2v-220q-80 -17 -168 -17zM356 844l141 76l1 -2l-141 -173h-2
l-141 173l1 2z" />
    <glyph glyph-name="ccaron" unicode="&#x10d;" horiz-adv-x="440" 
d="M233 -8q-84 0 -143.5 62.5t-59.5 184.5q0 67 20 118t54 80t74.5 43.5t85.5 14.5q69 0 145 -28l-47 -145h-2l-59 144q-5 11 -12 12q-9 2 -21 2q-69 0 -105 -55t-36 -156q0 -111 40.5 -165.5t104.5 -54.5q94 0 141 113h2q-15 -79 -60 -124.5t-122 -45.5zM255 628l141 76
l1 -2l-141 -173h-2l-141 173l1 2z" />
    <glyph glyph-name="Dcaron" unicode="&#x10e;" horiz-adv-x="672" 
d="M18 0v2l86 47q13 7 13 20v565q0 13 -13 20l-86 47v2h291q162 0 245.5 -90t83.5 -252q0 -165 -85 -263t-245 -98h-290zM248 18h21q120 0 185 78t65 260q0 175 -62.5 252t-167.5 77h-52q-9 0 -12.5 -4t-3.5 -16v-623q0 -16 4.5 -20t22.5 -4zM330 844l141 76l1 -2l-141 -173
h-2l-141 173l1 2z" />
    <glyph glyph-name="dcaron" unicode="&#x10f;" horiz-adv-x="553" 
d="M450 723v-649q0 -14 11 -22l68 -50v-2h-174v103q-20 -56 -58.5 -83.5t-85.5 -27.5q-79 0 -128.5 69t-49.5 178q0 116 55.5 186t137.5 70q91 0 129 -92v235q0 16 -11 23l-68 40v2zM256 41q53 0 99 69v284q-42 61 -98 61q-53 0 -87.5 -52.5t-34.5 -152.5q0 -103 35 -156
t86 -53zM503 512h-1l9 191h92z" />
    <glyph glyph-name="Dcroat" unicode="&#x110;" horiz-adv-x="672" 
d="M28 347v17h89v266q0 13 -2 17.5t-11 8.5l-89 45v2h294q162 0 245.5 -90t83.5 -252q0 -165 -85 -263t-245 -98h-293v2l89 45q9 4 11 9t2 18v273h-89zM289 685h-52q-9 0 -12.5 -4t-3.5 -16v-301h125v-17h-125v-305q0 -16 4.5 -20t22.5 -4h21q250 0 250 338q0 175 -62.5 252
t-167.5 77z" />
    <glyph glyph-name="dcroat" unicode="&#x111;" horiz-adv-x="536" 
d="M450 723v-145h79v-17h-79v-487q0 -14 11 -22l68 -50v-2h-174v103q-20 -56 -58.5 -83.5t-85.5 -27.5q-79 0 -128.5 69t-49.5 178q0 116 55.5 186t137.5 70q91 0 129 -92v158h-141v17h141v60q0 16 -11 23l-68 40v2zM256 41q53 0 99 69v284q-42 61 -98 61q-53 0 -87.5 -52.5
t-34.5 -152.5q0 -103 35 -156t86 -53z" />
    <glyph glyph-name="Emacron" unicode="&#x112;" horiz-adv-x="593" 
d="M540 0h-522v2l86 47q13 7 13 20v565q0 13 -13 20l-86 47v2h512v-216h-2l-84 180q-9 18 -29 18h-178q-10 0 -13 -4.5t-3 -18.5v-294h123q16 1 28 19l64 89h2v-234h-2l-64 90q-13 18 -29 18h-122v-309q0 -14 3 -18.5t13 -4.5h178q26 0 34 13l89 182h2v-213zM432 807h-246
v18h246v-18z" />
    <glyph glyph-name="emacron" unicode="&#x113;" horiz-adv-x="464" 
d="M429 285h-302v-28q0 -98 40.5 -153t104.5 -55q109 0 159 123l2 -1q-16 -89 -65.5 -134t-128.5 -45q-89 0 -148.5 62.5t-59.5 184.5q0 68 19 119.5t51 80t68 42.5t74 14q78 0 133 -47t55 -137q0 -10 -2 -26zM242 480q-49 0 -78.5 -47.5t-35.5 -130.5h206v2q0 176 -92 176z
M365 591h-246v18h246v-18z" />
    <glyph glyph-name="Ebreve" unicode="&#x114;" horiz-adv-x="593" 
d="M540 0h-522v2l86 47q13 7 13 20v565q0 13 -13 20l-86 47v2h512v-216h-2l-84 180q-9 18 -29 18h-178q-10 0 -13 -4.5t-3 -18.5v-294h123q16 1 28 19l64 89h2v-234h-2l-64 90q-13 18 -29 18h-122v-309q0 -14 3 -18.5t13 -4.5h178q26 0 34 13l89 182h2v-213zM307 818
q48 0 80 26.5t33 71.5h2q4 -19 4 -38q0 -60 -35 -90t-84 -30t-83.5 30t-34.5 90q0 19 4 38h2q1 -45 33 -71.5t79 -26.5z" />
    <glyph glyph-name="ebreve" unicode="&#x115;" horiz-adv-x="464" 
d="M429 285h-302v-28q0 -98 40.5 -153t104.5 -55q109 0 159 123l2 -1q-16 -89 -65.5 -134t-128.5 -45q-89 0 -148.5 62.5t-59.5 184.5q0 68 19 119.5t51 80t68 42.5t74 14q78 0 133 -47t55 -137q0 -10 -2 -26zM242 480q-49 0 -78.5 -47.5t-35.5 -130.5h206v2q0 176 -92 176z
M240 602q48 0 80 26.5t33 71.5h2q4 -19 4 -38q0 -60 -35 -90t-84 -30t-83.5 30t-34.5 90q0 19 4 38h2q1 -45 33 -71.5t79 -26.5z" />
    <glyph glyph-name="Edotaccent" unicode="&#x116;" horiz-adv-x="593" 
d="M540 0h-522v2l86 47q13 7 13 20v565q0 13 -13 20l-86 47v2h512v-216h-2l-84 180q-9 18 -29 18h-178q-10 0 -13 -4.5t-3 -18.5v-294h123q16 1 28 19l64 89h2v-234h-2l-64 90q-13 18 -29 18h-122v-309q0 -14 3 -18.5t13 -4.5h178q26 0 34 13l89 182h2v-213zM253 830
q0 26 17 43.5t42 17.5t42.5 -17.5t17.5 -43.5q0 -24 -17.5 -41.5t-42.5 -17.5t-42 17.5t-17 41.5z" />
    <glyph glyph-name="edotaccent" unicode="&#x117;" horiz-adv-x="464" 
d="M429 285h-302v-28q0 -98 40.5 -153t104.5 -55q109 0 159 123l2 -1q-16 -89 -65.5 -134t-128.5 -45q-89 0 -148.5 62.5t-59.5 184.5q0 68 19 119.5t51 80t68 42.5t74 14q78 0 133 -47t55 -137q0 -10 -2 -26zM242 480q-49 0 -78.5 -47.5t-35.5 -130.5h206v2q0 176 -92 176z
M186 614q0 26 17 43.5t42 17.5t42.5 -17.5t17.5 -43.5q0 -24 -17.5 -41.5t-42.5 -17.5t-42 17.5t-17 41.5z" />
    <glyph glyph-name="Eogonek" unicode="&#x118;" horiz-adv-x="593" 
d="M395 -236q-38 0 -69 27.5t-31 73.5q0 43 35 79.5t97 55.5h-409v2l86 47q13 7 13 20v565q0 13 -13 20l-86 47v2h512v-216h-2l-84 180q-9 18 -29 18h-178q-10 0 -13 -4.5t-3 -18.5v-294h123q16 1 28 19l64 89h2v-234h-2l-64 90q-13 18 -29 18h-122v-309q0 -14 3 -18.5
t13 -4.5h178q26 0 34 13l89 182h2v-213h-111q-73 -40 -73 -109q0 -36 21.5 -56t52.5 -20q47 0 72 35l2 -1q-36 -85 -109 -85z" />
    <glyph glyph-name="eogonek" unicode="&#x119;" horiz-adv-x="464" 
d="M429 285h-302v-28q0 -98 40.5 -153t104.5 -55q109 0 159 123l2 -1q-27 -149 -144 -174q-34 -13 -54 -42t-20 -64q0 -36 21.5 -56t52.5 -20q47 0 72 35l2 -1q-36 -85 -109 -85q-38 0 -69 27.5t-31 73.5q0 41 31 76t87 54q-16 -3 -33 -3q-89 0 -148.5 62.5t-59.5 184.5
q0 68 19 119.5t51 80t68 42.5t74 14q78 0 133 -47t55 -137q0 -10 -2 -26zM242 480q-49 0 -78.5 -47.5t-35.5 -130.5h206v2q0 176 -92 176z" />
    <glyph glyph-name="Ecaron" unicode="&#x11a;" horiz-adv-x="593" 
d="M540 0h-522v2l86 47q13 7 13 20v565q0 13 -13 20l-86 47v2h512v-216h-2l-84 180q-9 18 -29 18h-178q-10 0 -13 -4.5t-3 -18.5v-294h123q16 1 28 19l64 89h2v-234h-2l-64 90q-13 18 -29 18h-122v-309q0 -14 3 -18.5t13 -4.5h178q26 0 34 13l89 182h2v-213zM312 844l141 76
l1 -2l-141 -173h-2l-141 173l1 2z" />
    <glyph glyph-name="ecaron" unicode="&#x11b;" horiz-adv-x="464" 
d="M429 285h-302v-28q0 -98 40.5 -153t104.5 -55q109 0 159 123l2 -1q-16 -89 -65.5 -134t-128.5 -45q-89 0 -148.5 62.5t-59.5 184.5q0 68 19 119.5t51 80t68 42.5t74 14q78 0 133 -47t55 -137q0 -10 -2 -26zM242 480q-49 0 -78.5 -47.5t-35.5 -130.5h206v2q0 176 -92 176z
M245 628l141 76l1 -2l-141 -173h-2l-141 173l1 2z" />
    <glyph glyph-name="Gcircumflex" unicode="&#x11c;" horiz-adv-x="644" 
d="M348 -10q-159 0 -236.5 96.5t-77.5 262.5q0 162 86 263t235 101q97 0 192 -22v-211h-2l-100 192q-6 12 -10.5 15.5t-16.5 5.5q-24 4 -49 4q-213 0 -213 -346q0 -345 193 -345q41 0 83 15q11 4 11 16v199q0 12 -1.5 15.5t-9.5 8.5l-79 48v2h284v-2l-78 -47q-8 -5 -10 -8.5
t-2 -16.5v-246l-96 19q-59 -19 -103 -19zM354 829l-141 -76l-1 2l141 173h2l141 -173l-1 -2z" />
    <glyph glyph-name="gcircumflex" unicode="&#x11d;" horiz-adv-x="480" 
d="M45 333q0 76 53.5 119t130.5 43q63 0 113 -32q12 -8 18 2l97 131l2 -1v-150h-92q56 -44 56 -116q0 -73 -56 -115.5t-135 -42.5q-34 0 -59 7q-57 -16 -57 -54q0 -21 22 -34.5t64 -13.5h81q85 0 132 -37t47 -103q0 -81 -69.5 -126.5t-167.5 -45.5q-82 0 -143 31.5t-61 87.5
q0 39 30.5 67.5t88.5 41.5q-40 7 -62 31.5t-22 56.5q0 35 28 62.5t76 38.5q-52 16 -83.5 55.5t-31.5 96.5zM167 -12q-5 0 -17 2q-60 -27 -60 -90q0 -56 46.5 -87.5t108.5 -31.5q63 0 106.5 29t43.5 84q0 84 -124 90zM146 333q0 -147 88 -147t88 147t-88 147t-88 -147z
M236 613l-141 -76l-1 2l141 173h2l141 -173l-1 -2z" />
    <glyph glyph-name="Gbreve" unicode="&#x11e;" horiz-adv-x="644" 
d="M348 -10q-159 0 -236.5 96.5t-77.5 262.5q0 162 86 263t235 101q97 0 192 -22v-211h-2l-100 192q-6 12 -10.5 15.5t-16.5 5.5q-24 4 -49 4q-213 0 -213 -346q0 -345 193 -345q41 0 83 15q11 4 11 16v199q0 12 -1.5 15.5t-9.5 8.5l-79 48v2h284v-2l-78 -47q-8 -5 -10 -8.5
t-2 -16.5v-246l-96 19q-59 -19 -103 -19zM349 818q48 0 80 26.5t33 71.5h2q4 -19 4 -38q0 -60 -35 -90t-84 -30t-83.5 30t-34.5 90q0 19 4 38h2q1 -45 33 -71.5t79 -26.5z" />
    <glyph glyph-name="gbreve" unicode="&#x11f;" horiz-adv-x="480" 
d="M45 333q0 76 53.5 119t130.5 43q63 0 113 -32q12 -8 18 2l97 131l2 -1v-150h-92q56 -44 56 -116q0 -73 -56 -115.5t-135 -42.5q-34 0 -59 7q-57 -16 -57 -54q0 -21 22 -34.5t64 -13.5h81q85 0 132 -37t47 -103q0 -81 -69.5 -126.5t-167.5 -45.5q-82 0 -143 31.5t-61 87.5
q0 39 30.5 67.5t88.5 41.5q-40 7 -62 31.5t-22 56.5q0 35 28 62.5t76 38.5q-52 16 -83.5 55.5t-31.5 96.5zM167 -12q-5 0 -17 2q-60 -27 -60 -90q0 -56 46.5 -87.5t108.5 -31.5q63 0 106.5 29t43.5 84q0 84 -124 90zM146 333q0 -147 88 -147t88 147t-88 147t-88 -147z
M231 602q48 0 80 26.5t33 71.5h2q4 -19 4 -38q0 -60 -35 -90t-84 -30t-83.5 30t-34.5 90q0 19 4 38h2q1 -45 33 -71.5t79 -26.5z" />
    <glyph glyph-name="Gdotaccent" unicode="&#x120;" horiz-adv-x="644" 
d="M348 -10q-159 0 -236.5 96.5t-77.5 262.5q0 162 86 263t235 101q97 0 192 -22v-211h-2l-100 192q-6 12 -10.5 15.5t-16.5 5.5q-24 4 -49 4q-213 0 -213 -346q0 -345 193 -345q41 0 83 15q11 4 11 16v199q0 12 -1.5 15.5t-9.5 8.5l-79 48v2h284v-2l-78 -47q-8 -5 -10 -8.5
t-2 -16.5v-246l-96 19q-59 -19 -103 -19zM295 830q0 26 17 43.5t42 17.5t42.5 -17.5t17.5 -43.5q0 -24 -17.5 -41.5t-42.5 -17.5t-42 17.5t-17 41.5z" />
    <glyph glyph-name="gdotaccent" unicode="&#x121;" horiz-adv-x="480" 
d="M45 333q0 76 53.5 119t130.5 43q63 0 113 -32q12 -8 18 2l97 131l2 -1v-150h-92q56 -44 56 -116q0 -73 -56 -115.5t-135 -42.5q-34 0 -59 7q-57 -16 -57 -54q0 -21 22 -34.5t64 -13.5h81q85 0 132 -37t47 -103q0 -81 -69.5 -126.5t-167.5 -45.5q-82 0 -143 31.5t-61 87.5
q0 39 30.5 67.5t88.5 41.5q-40 7 -62 31.5t-22 56.5q0 35 28 62.5t76 38.5q-52 16 -83.5 55.5t-31.5 96.5zM167 -12q-5 0 -17 2q-60 -27 -60 -90q0 -56 46.5 -87.5t108.5 -31.5q63 0 106.5 29t43.5 84q0 84 -124 90zM146 333q0 -147 88 -147t88 147t-88 147t-88 -147z
M177 614q0 26 17 43.5t42 17.5t42.5 -17.5t17.5 -43.5q0 -24 -17.5 -41.5t-42.5 -17.5t-42 17.5t-17 41.5z" />
    <glyph glyph-name="Gcommaaccent" unicode="&#x122;" horiz-adv-x="644" 
d="M348 -10q-159 0 -236.5 96.5t-77.5 262.5q0 162 86 263t235 101q97 0 192 -22v-211h-2l-100 192q-6 12 -10.5 15.5t-16.5 5.5q-24 4 -49 4q-213 0 -213 -346q0 -345 193 -345q41 0 83 15q11 4 11 16v199q0 12 -1.5 15.5t-9.5 8.5l-79 48v2h284v-2l-78 -47q-8 -5 -10 -8.5
t-2 -16.5v-246l-96 19q-59 -19 -103 -19zM296 -235l-1 2q49 32 54 79q1 9 -9 11q-20 3 -32 17.5t-12 36.5q0 23 15.5 38.5t37.5 15.5q25 0 40.5 -16.5t15.5 -45.5q0 -46 -31.5 -85.5t-77.5 -52.5z" />
    <glyph glyph-name="gcommaaccent" unicode="&#x123;" horiz-adv-x="480" 
d="M45 333q0 76 53.5 119t130.5 43q63 0 113 -32q12 -8 18 2l97 131l2 -1v-150h-92q56 -44 56 -116q0 -73 -56 -115.5t-135 -42.5q-34 0 -59 7q-57 -16 -57 -54q0 -21 22 -34.5t64 -13.5h81q85 0 132 -37t47 -103q0 -81 -69.5 -126.5t-167.5 -45.5q-82 0 -143 31.5t-61 87.5
q0 39 30.5 67.5t88.5 41.5q-40 7 -62 31.5t-22 56.5q0 35 28 62.5t76 38.5q-52 16 -83.5 55.5t-31.5 96.5zM167 -12q-5 0 -17 2q-60 -27 -60 -90q0 -56 46.5 -87.5t108.5 -31.5q63 0 106.5 29t43.5 84q0 84 -124 90zM146 333q0 -147 88 -147t88 147t-88 147t-88 -147z
M299 743l1 -2q-49 -32 -54 -79q-1 -9 9 -11q20 -3 32 -17.5t12 -36.5q0 -23 -15.5 -38.5t-37.5 -15.5q-25 0 -40.5 16.5t-15.5 45.5q0 46 31.5 85.5t77.5 52.5z" />
    <glyph glyph-name="Hcircumflex" unicode="&#x124;" horiz-adv-x="742" 
d="M625 634v-565q0 -9 2 -12.5t11 -7.5l86 -47v-2h-302v2l86 47q13 7 13 20v282h-300v-282q0 -9 2 -12.5t11 -7.5l86 -47v-2h-302v2l86 47q13 7 13 20v565q0 13 -13 20l-86 47v2h302v-2l-86 -47q-9 -5 -11 -8.5t-2 -11.5v-265h300v265q0 14 -13 20l-86 47v2h302v-2l-86 -47
q-9 -5 -11 -8.5t-2 -11.5zM370 829l-141 -76l-1 2l141 173h2l141 -173l-1 -2z" />
    <glyph glyph-name="hcircumflex" unicode="&#x125;" horiz-adv-x="546" 
d="M464 64q0 -15 12 -22l68 -40v-2h-253v2l64 40q13 8 13 20q0 2 1 44t1.5 90.5t0.5 66.5q0 91 -20.5 132.5t-65.5 41.5q-66 0 -105 -74v-299q0 -14 12 -21l67 -41v-2h-253v2l68 40q11 6 11 22v574q0 16 -11 23l-68 40v2l174 20v-354q35 126 148 126q138 0 138 -200
q0 -71 -2 -231zM132 829l-141 -76l-1 2l141 173h2l141 -173l-1 -2z" />
    <glyph glyph-name="Hbar" unicode="&#x126;" horiz-adv-x="742" 
d="M117 477h-93v17h93v142q0 12 -13 20l-89 45v2h308v-2l-89 -45q-13 -6 -13 -20v-142h300v142q0 14 -13 20l-89 45v2h308v-2l-89 -45q-13 -6 -13 -20v-142h92v-17h-92v-410q0 -9 2 -12.5t11 -7.5l89 -45v-2h-308v2l89 45q9 4 11 7.5t2 12.5v235h-300v-235q0 -9 2 -12.5
t11 -7.5l89 -45v-2h-308v2l89 45q9 4 11 7.5t2 12.5v410zM221 477v-157h300v157h-300z" />
    <glyph glyph-name="hbar" unicode="&#x127;" horiz-adv-x="546" 
d="M464 64q0 -15 12 -22l68 -40v-2h-253v2l64 40q13 8 13 20q0 2 1 44t1.5 90.5t0.5 66.5q0 91 -20.5 132.5t-65.5 41.5q-66 0 -105 -74v-299q0 -14 12 -21l67 -41v-2h-253v2l68 40q11 6 11 22v497h-79v17h79v60q0 16 -11 23l-68 40v2l174 20v-145h145v-17h-145v-192
q35 126 148 126q138 0 138 -200q0 -71 -2 -231z" />
    <glyph glyph-name="Itilde" unicode="&#x128;" horiz-adv-x="338" 
d="M221 69q0 -9 2 -12.5t11 -7.5l86 -47v-2h-302v2l86 47q13 7 13 20v565q0 13 -13 20l-86 47v2h302v-2l-86 -47q-9 -5 -11 -8.5t-2 -11.5v-565zM300 888l2 -1q0 -20 -3 -37q-14 -73 -70 -73q-22 0 -66.5 23.5t-65.5 23.5q-40 0 -60 -48l-2 1q0 17 3 34q14 76 70 76
q22 0 66 -23.5t65 -23.5q41 0 61 48z" />
    <glyph glyph-name="itilde" unicode="&#x129;" horiz-adv-x="286" 
d="M198 487v-423q0 -14 12 -21l67 -41v-2h-253v2l68 40q11 6 11 22v348q0 15 -11 23l-68 50v2h174zM264 672l2 -1q0 -21 -3 -37q-14 -73 -70 -73q-22 0 -66.5 23.5t-65.5 23.5q-40 0 -60 -48l-2 1q0 17 3 34q14 76 70 76q22 0 66 -23.5t65 -23.5q41 0 61 48z" />
    <glyph glyph-name="Imacron" unicode="&#x12a;" horiz-adv-x="338" 
d="M221 69q0 -9 2 -12.5t11 -7.5l86 -47v-2h-302v2l86 47q13 7 13 20v565q0 13 -13 20l-86 47v2h302v-2l-86 -47q-9 -5 -11 -8.5t-2 -11.5v-565zM288 807h-246v18h246v-18z" />
    <glyph glyph-name="imacron" unicode="&#x12b;" horiz-adv-x="286" 
d="M198 487v-423q0 -14 12 -21l67 -41v-2h-253v2l68 40q11 6 11 22v348q0 15 -11 23l-68 50v2h174zM252 591h-246v18h246v-18z" />
    <glyph glyph-name="Ibreve" unicode="&#x12c;" horiz-adv-x="338" 
d="M221 69q0 -9 2 -12.5t11 -7.5l86 -47v-2h-302v2l86 47q13 7 13 20v565q0 13 -13 20l-86 47v2h302v-2l-86 -47q-9 -5 -11 -8.5t-2 -11.5v-565zM163 818q48 0 80 26.5t33 71.5h2q4 -19 4 -38q0 -60 -35 -90t-84 -30t-83.5 30t-34.5 90q0 19 4 38h2q1 -45 33 -71.5t79 -26.5
z" />
    <glyph glyph-name="ibreve" unicode="&#x12d;" horiz-adv-x="286" 
d="M198 487v-423q0 -14 12 -21l67 -41v-2h-253v2l68 40q11 6 11 22v348q0 15 -11 23l-68 50v2h174zM127 602q48 0 80 26.5t33 71.5h2q4 -19 4 -38q0 -60 -35 -90t-84 -30t-83.5 30t-34.5 90q0 19 4 38h2q1 -45 33 -71.5t79 -26.5z" />
    <glyph glyph-name="Iogonek" unicode="&#x12e;" horiz-adv-x="338" 
d="M131 -109q0 -36 21.5 -56t52.5 -20q47 0 72 35l2 -1q-36 -85 -109 -85q-38 0 -69 27.5t-31 73.5q0 44 33 82t91 53h-176v2l86 47q13 7 13 20v565q0 13 -13 20l-86 47v2h302v-2l-86 -47q-9 -5 -11 -8.5t-2 -11.5v-565q0 -9 2 -12.5t11 -7.5l86 -47v-2h-117
q-72 -34 -72 -109z" />
    <glyph glyph-name="iogonek" unicode="&#x12f;" horiz-adv-x="286" 
d="M150 -236q-38 0 -69 27.5t-31 73.5q0 44 33 82t91 53h-151v2l68 40q11 6 11 22v348q0 15 -11 23l-68 50v2h174v-423q0 -14 12 -21l67 -41v-2h-93q-72 -34 -72 -109q0 -36 21.5 -56t52.5 -20q47 0 72 35l2 -1q-36 -85 -109 -85zM142 562q-25 0 -42 17.5t-17 41.5
q0 26 17 43.5t42 17.5t42.5 -17.5t17.5 -43.5q0 -24 -17.5 -41.5t-42.5 -17.5z" />
    <glyph glyph-name="Idotaccent" unicode="&#x130;" horiz-adv-x="338" 
d="M221 69q0 -9 2 -12.5t11 -7.5l86 -47v-2h-302v2l86 47q13 7 13 20v565q0 13 -13 20l-86 47v2h302v-2l-86 -47q-9 -5 -11 -8.5t-2 -11.5v-565zM109 830q0 26 17 43.5t42 17.5t42.5 -17.5t17.5 -43.5q0 -24 -17.5 -41.5t-42.5 -17.5t-42 17.5t-17 41.5z" />
    <glyph glyph-name="dotlessi" unicode="&#x131;" horiz-adv-x="286" 
d="M198 487v-423q0 -14 12 -21l67 -41v-2h-253v2l68 40q11 6 11 22v348q0 15 -11 23l-68 50v2h174z" />
    <glyph glyph-name="IJ" unicode="&#x132;" horiz-adv-x="646" 
d="M221 69q0 -9 2 -12.5t11 -7.5l86 -47v-2h-302v2l86 47q13 7 13 20v565q0 13 -13 20l-86 47v2h302v-2l-86 -47q-9 -5 -11 -8.5t-2 -11.5v-565zM544 634v-607q0 -102 -61 -162t-160 -76l-1 2q62 29 90 91.5t28 141.5v610q0 13 -13 20l-86 47v2h302v-2l-86 -47
q-9 -5 -11 -8.5t-2 -11.5z" />
    <glyph glyph-name="ij" unicode="&#x133;" horiz-adv-x="545" 
d="M143 562q-25 0 -42 17.5t-17 41.5q0 26 17 43.5t42 17.5t42.5 -17.5t17.5 -43.5q0 -24 -17.5 -41.5t-42.5 -17.5zM24 487h174v-423q0 -14 12 -21l67 -41v-2h-253v2l68 40q11 6 11 22v348q0 15 -11 23l-68 50v2zM300 487h174v-467q0 -101 -47.5 -167t-141.5 -66
q-12 0 -38 4v2q66 6 99 52t33 150v417q0 15 -11 23l-68 50v2zM360 621q0 26 17 43.5t42 17.5t42.5 -17.5t17.5 -43.5q0 -24 -17.5 -41.5t-42.5 -17.5t-42 17.5t-17 41.5z" />
    <glyph glyph-name="Jcircumflex" unicode="&#x134;" horiz-adv-x="308" 
d="M206 634v-607q0 -102 -61 -162t-160 -76l-1 2q62 29 90 91.5t28 141.5v610q0 13 -13 20l-86 47v2h302v-2l-86 -47q-9 -5 -11 -8.5t-2 -11.5zM154 829l-141 -76l-1 2l141 173h2l141 -173l-1 -2z" />
    <glyph glyph-name="jcircumflex" unicode="&#x135;" horiz-adv-x="259" 
d="M-1 -213q-21 0 -38 4v2q66 6 99 52t33 150v417q0 15 -11 23l-68 50v2h174v-467q0 -101 -47.5 -167t-141.5 -66zM128 613l-141 -76l-1 2l141 173h2l141 -173l-1 -2z" />
    <glyph glyph-name="Kcommaaccent" unicode="&#x136;" horiz-adv-x="647" 
d="M221 634v-565q0 -9 2 -12.5t11 -7.5l86 -47v-2h-302v2l86 47q13 7 13 20v565q0 13 -13 20l-86 47v2h302v-2l-86 -47q-9 -5 -11 -8.5t-2 -11.5zM508 611l-193 -199l239 -322q13 -16 32 -32l70 -56v-2h-164l-261 353l257 264q15 15 -4 26l-86 58v2h262v-2l-110 -60
q-25 -13 -42 -30zM314 -235l-1 2q49 32 54 79q1 9 -9 11q-20 3 -32 17.5t-12 36.5q0 23 15.5 38.5t37.5 15.5q25 0 40.5 -16.5t15.5 -45.5q0 -46 -31.5 -85.5t-77.5 -52.5z" />
    <glyph glyph-name="kcommaaccent" unicode="&#x137;" horiz-adv-x="505" 
d="M205 265q-11 0 -24 -10v-191q0 -14 12 -21l67 -41v-2h-253v2l68 40q11 6 11 22v574q0 16 -11 23l-68 40v2l174 20v-459l194 147q8 7 0 14l-74 60v2h200v-2l-196 -148q-10 -7 -5 -16l136 -252q8 -17 23 -27l58 -40v-2h-156l-129 247q-10 18 -27 18zM232 -235l-1 2
q49 32 54 79q1 9 -9 11q-20 3 -32 17.5t-12 36.5q0 23 15.5 38.5t37.5 15.5q25 0 40.5 -16.5t15.5 -45.5q0 -46 -31.5 -85.5t-77.5 -52.5z" />
    <glyph glyph-name="kgreenlandic" unicode="&#x138;" horiz-adv-x="521" 
d="M533 0h-156l-129 247q-10 18 -27 18q-11 0 -24 -10v-191q0 -14 12 -21l67 -41v-2h-253v2l68 40q11 6 11 22v348q0 15 -11 23l-68 50v2h174v-223l194 147q8 7 0 14l-74 60v2h200v-2l-196 -148q-10 -7 -5 -16l136 -252q8 -17 23 -27l58 -40v-2z" />
    <glyph glyph-name="Lacute" unicode="&#x139;" horiz-adv-x="555" 
d="M117 69v565q0 13 -13 20l-86 47v2h302v-2l-86 -47q-9 -5 -11 -8.5t-2 -11.5v-593q0 -14 3 -18.5t13 -4.5h158q27 0 34 13l94 193h2v-224h-507v2l86 47q13 7 13 20zM196 919h121v-2l-208 -161l-2 2z" />
    <glyph glyph-name="lacute" unicode="&#x13a;" horiz-adv-x="267" 
d="M181 723v-659q0 -14 12 -21l67 -41v-2h-253v2l68 40q11 6 11 22v574q0 16 -11 23l-68 40v2zM161 919h121v-2l-208 -161l-2 2z" />
    <glyph glyph-name="Lcommaaccent" unicode="&#x13b;" horiz-adv-x="555" 
d="M117 69v565q0 13 -13 20l-86 47v2h302v-2l-86 -47q-9 -5 -11 -8.5t-2 -11.5v-593q0 -14 3 -18.5t13 -4.5h158q27 0 34 13l94 193h2v-224h-507v2l86 47q13 7 13 20zM256 -235l-1 2q49 32 54 79q1 9 -9 11q-20 3 -32 17.5t-12 36.5q0 23 15.5 38.5t37.5 15.5
q25 0 40.5 -16.5t15.5 -45.5q0 -46 -31.5 -85.5t-77.5 -52.5z" />
    <glyph glyph-name="lcommaaccent" unicode="&#x13c;" horiz-adv-x="267" 
d="M181 723v-659q0 -14 12 -21l67 -41v-2h-253v2l68 40q11 6 11 22v574q0 16 -11 23l-68 40v2zM81 -235l-1 2q49 32 54 79q1 9 -9 11q-20 3 -32 17.5t-12 36.5q0 23 15.5 38.5t37.5 15.5q25 0 40.5 -16.5t15.5 -45.5q0 -46 -31.5 -85.5t-77.5 -52.5z" />
    <glyph glyph-name="Lcaron" unicode="&#x13d;" horiz-adv-x="552" 
d="M117 69v565q0 13 -13 20l-86 47v2h302v-2l-86 -47q-9 -5 -11 -8.5t-2 -11.5v-593q0 -14 3 -18.5t13 -4.5h158q27 0 34 13l94 193h2v-224h-507v2l86 47q13 7 13 20zM382 512h-1l9 191h92z" />
    <glyph glyph-name="lcaron" unicode="&#x13e;" horiz-adv-x="284" 
d="M181 723v-659q0 -14 12 -21l67 -41v-2h-253v2l68 40q11 6 11 22v574q0 16 -11 23l-68 40v2zM234 512h-1l9 191h92z" />
    <glyph glyph-name="Ldot" unicode="&#x13f;" horiz-adv-x="564" 
d="M117 69v565q0 13 -13 20l-86 47v2h302v-2l-86 -47q-9 -5 -11 -8.5t-2 -11.5v-593q0 -14 3 -18.5t13 -4.5h158q27 0 34 13l94 193h2v-224h-507v2l86 47q13 7 13 20zM354 382q0 26 17 43.5t42 17.5t42.5 -17.5t17.5 -43.5q0 -24 -17.5 -41.5t-42.5 -17.5t-42 17.5t-17 41.5
z" />
    <glyph glyph-name="ldot" unicode="&#x140;" horiz-adv-x="353" 
d="M181 723v-659q0 -14 12 -21l67 -41v-2h-253v2l68 40q11 6 11 22v574q0 16 -11 23l-68 40v2zM233 352q0 26 17 43.5t42 17.5t42.5 -17.5t17.5 -43.5q0 -24 -17.5 -41.5t-42.5 -17.5t-42 17.5t-17 41.5z" />
    <glyph glyph-name="Lslash" unicode="&#x141;" horiz-adv-x="559" 
d="M529 0h-507v2l86 47q13 7 13 20v234l-86 -37l-7 15l93 40v313q0 13 -13 20l-86 47v2h302v-2l-86 -47q-9 -5 -11 -8.5t-2 -11.5v-269l127 55l7 -15l-134 -58v-306q0 -14 3 -18.5t13 -4.5h158q27 0 34 13l94 193h2v-224z" />
    <glyph glyph-name="lslash" unicode="&#x142;" horiz-adv-x="287" 
d="M307 420l7 -15l-123 -53v-288q0 -14 12 -21l67 -41v-2h-253v2l68 40q11 6 11 22v247l-106 -45l-7 15l113 48v309q0 16 -11 23l-68 40v2l174 20v-353z" />
    <glyph glyph-name="Nacute" unicode="&#x143;" horiz-adv-x="682" 
d="M576 602v-602h-69l-367 600v-499q0 -19 16 -30l95 -69v-2h-241v2l95 69q16 11 16 30v507q0 22 -13 34l-84 59v2h175l358 -587v486q0 18 -16 30l-95 69v2h241v-2l-95 -69q-16 -11 -16 -30zM375 919h121v-2l-208 -161l-2 2z" />
    <glyph glyph-name="nacute" unicode="&#x144;" horiz-adv-x="564" 
d="M483 295q0 -71 -2 -231q0 -15 12 -22l68 -40v-2h-253v2l64 40q13 8 13 20q0 2 0.5 44t1.5 90.5t1 66.5q0 91 -21 132.5t-65 41.5q-66 0 -105 -74v-299q0 -14 12 -21l67 -41v-2h-253v2l68 40q11 6 11 22v348q0 15 -11 23l-68 50v2h174v-118q35 126 148 126q138 0 138 -200
zM312 703h121v-2l-208 -161l-2 2z" />
    <glyph glyph-name="Ncommaaccent" unicode="&#x145;" horiz-adv-x="682" 
d="M576 602v-602h-69l-367 600v-499q0 -19 16 -30l95 -69v-2h-241v2l95 69q16 11 16 30v507q0 22 -13 34l-84 59v2h175l358 -587v486q0 18 -16 30l-95 69v2h241v-2l-95 -69q-16 -11 -16 -30zM295 -235l-1 2q49 32 54 79q1 9 -9 11q-20 3 -32 17.5t-12 36.5q0 23 15.5 38.5
t37.5 15.5q25 0 40.5 -16.5t15.5 -45.5q0 -46 -31.5 -85.5t-77.5 -52.5z" />
    <glyph glyph-name="ncommaaccent" unicode="&#x146;" horiz-adv-x="564" 
d="M483 295q0 -71 -2 -231q0 -15 12 -22l68 -40v-2h-253v2l64 40q13 8 13 20q0 2 0.5 44t1.5 90.5t1 66.5q0 91 -21 132.5t-65 41.5q-66 0 -105 -74v-299q0 -14 12 -21l67 -41v-2h-253v2l68 40q11 6 11 22v348q0 15 -11 23l-68 50v2h174v-118q35 126 148 126q138 0 138 -200
zM239 -235l-1 2q49 32 54 79q1 9 -9 11q-20 3 -32 17.5t-12 36.5q0 23 15.5 38.5t37.5 15.5q25 0 40.5 -16.5t15.5 -45.5q0 -46 -31.5 -85.5t-77.5 -52.5z" />
    <glyph glyph-name="Ncaron" unicode="&#x147;" horiz-adv-x="682" 
d="M576 602v-602h-69l-367 600v-499q0 -19 16 -30l95 -69v-2h-241v2l95 69q16 11 16 30v507q0 22 -13 34l-84 59v2h175l358 -587v486q0 18 -16 30l-95 69v2h241v-2l-95 -69q-16 -11 -16 -30zM347 844l141 76l1 -2l-141 -173h-2l-141 173l1 2z" />
    <glyph glyph-name="ncaron" unicode="&#x148;" horiz-adv-x="564" 
d="M483 295q0 -71 -2 -231q0 -15 12 -22l68 -40v-2h-253v2l64 40q13 8 13 20q0 2 0.5 44t1.5 90.5t1 66.5q0 91 -21 132.5t-65 41.5q-66 0 -105 -74v-299q0 -14 12 -21l67 -41v-2h-253v2l68 40q11 6 11 22v348q0 15 -11 23l-68 50v2h174v-118q35 126 148 126q138 0 138 -200
zM284 628l141 76l1 -2l-141 -173h-2l-141 173l1 2z" />
    <glyph glyph-name="napostrophe" unicode="&#x149;" horiz-adv-x="595" 
d="M514 295q0 -71 -2 -231q0 -15 12 -22l68 -40v-2h-253v2l64 40q13 8 13 20q0 2 1 44t1.5 90.5t0.5 66.5q0 91 -20.5 132.5t-65.5 41.5q-66 0 -105 -74v-299q0 -14 12 -21l67 -41v-2h-253v2l68 40q11 6 11 22v348q0 15 -11 23l-68 50v2h174v-118q35 126 148 126
q138 0 138 -200zM-29 486l-1 2q49 32 54 79q1 9 -9 11q-20 3 -32 17.5t-12 36.5q0 23 15.5 38.5t37.5 15.5q25 0 40.5 -16.5t15.5 -45.5q0 -46 -31.5 -85.5t-77.5 -52.5z" />
    <glyph glyph-name="Eng" unicode="&#x14a;" horiz-adv-x="632" 
d="M221 578v-509q0 -9 2 -12.5t11 -7.5l86 -47v-2h-302v2l86 47q13 7 13 20v565q0 13 -13 20l-86 47v2h203v-120q18 63 66 96t107 33q79 0 131 -51t52 -149v-468q0 -117 -58.5 -185t-162.5 -68v2q127 27 127 192v505q0 164 -132 164q-36 0 -74.5 -21.5t-55.5 -54.5z" />
    <glyph glyph-name="eng" unicode="&#x14b;" horiz-adv-x="543" 
d="M389 -15l-1 278q0 91 -21 132.5t-65 41.5q-66 0 -105 -74v-299q0 -14 12 -21l67 -41v-2h-253v2l68 40q11 6 11 22v348q0 15 -11 23l-68 50v2h174v-118q35 126 148 126q138 0 138 -200v-251q0 -116 -61 -184.5t-166 -68.5v2q64 13 98.5 62.5t34.5 129.5z" />
    <glyph glyph-name="Omacron" unicode="&#x14c;" horiz-adv-x="689" 
d="M345 6q86 0 137.5 83t51.5 263t-51.5 262t-137.5 83q-86 0 -137.5 -82.5t-51.5 -262.5t51.5 -262.5t137.5 -83.5zM345 713q147 0 227.5 -96t80.5 -265t-80.5 -265.5t-227.5 -96.5t-228 96.5t-81 265.5t81 265t228 96zM464 807h-246v18h246v-18z" />
    <glyph glyph-name="omacron" unicode="&#x14d;" horiz-adv-x="508" 
d="M254 480q-113 0 -113 -236q0 -237 113 -237t113 237q0 236 -113 236zM254 -8q-103 0 -162.5 66.5t-59.5 185.5t59.5 185t162.5 66t162.5 -66t59.5 -185t-59.5 -185.5t-162.5 -66.5zM373 591h-246v18h246v-18z" />
    <glyph glyph-name="Obreve" unicode="&#x14e;" horiz-adv-x="689" 
d="M345 6q86 0 137.5 83t51.5 263t-51.5 262t-137.5 83q-86 0 -137.5 -82.5t-51.5 -262.5t51.5 -262.5t137.5 -83.5zM345 713q147 0 227.5 -96t80.5 -265t-80.5 -265.5t-227.5 -96.5t-228 96.5t-81 265.5t81 265t228 96zM339 818q48 0 80 26.5t33 71.5h2q4 -19 4 -38
q0 -60 -35 -90t-84 -30t-83.5 30t-34.5 90q0 19 4 38h2q1 -45 33 -71.5t79 -26.5z" />
    <glyph glyph-name="obreve" unicode="&#x14f;" horiz-adv-x="508" 
d="M254 480q-113 0 -113 -236q0 -237 113 -237t113 237q0 236 -113 236zM254 -8q-103 0 -162.5 66.5t-59.5 185.5t59.5 185t162.5 66t162.5 -66t59.5 -185t-59.5 -185.5t-162.5 -66.5zM248 602q48 0 80 26.5t33 71.5h2q4 -19 4 -38q0 -60 -35 -90t-84 -30t-83.5 30t-34.5 90
q0 19 4 38h2q1 -45 33 -71.5t79 -26.5z" />
    <glyph glyph-name="Ohungarumlaut" unicode="&#x150;" horiz-adv-x="689" 
d="M345 6q86 0 137.5 83t51.5 263t-51.5 262t-137.5 83q-86 0 -137.5 -82.5t-51.5 -262.5t51.5 -262.5t137.5 -83.5zM345 713q147 0 227.5 -96t80.5 -265t-80.5 -265.5t-227.5 -96.5t-228 96.5t-81 265.5t81 265t228 96zM306 919h102v-2l-165 -169h-2zM443 919h102v-2
l-165 -169h-2z" />
    <glyph glyph-name="ohungarumlaut" unicode="&#x151;" horiz-adv-x="508" 
d="M254 480q-113 0 -113 -236q0 -237 113 -237t113 237q0 236 -113 236zM254 -8q-103 0 -162.5 66.5t-59.5 185.5t59.5 185t162.5 66t162.5 -66t59.5 -185t-59.5 -185.5t-162.5 -66.5zM215 703h102v-2l-165 -169h-2zM352 703h102v-2l-165 -169h-2z" />
    <glyph glyph-name="OE" unicode="&#x152;" horiz-adv-x="961" 
d="M804 240l-54 90q-11 18 -29 18h-132v-306q0 -17 4.5 -20.5t26.5 -3.5h163q26 0 34 13l89 172h2v-203h-404q-70 -10 -131 -10q-170 0 -253.5 98t-83.5 264q0 161 86.5 261t237.5 100q84 0 138 -10h393v-206h-2l-86 170q-9 18 -29 18h-169q-10 0 -13 -4.5t-3 -18.5v-297
h133q17 1 28 19l54 89h2v-233h-2zM485 61v576q0 16 -13 25q-49 35 -112 35q-70 0 -117 -47t-67 -121.5t-20 -174.5q0 -349 216 -349q44 0 100 36q13 9 13 20z" />
    <glyph glyph-name="oe" unicode="&#x153;" horiz-adv-x="813" 
d="M254 -8q-103 0 -162.5 66.5t-59.5 185.5t59.5 185t162.5 66q115 0 175 -82q59 82 163 82q78 0 133 -47t55 -137q0 -10 -2 -26h-302v-38q0 -93 41 -145.5t104 -52.5q110 0 159 122h2q-16 -89 -65.5 -134t-128.5 -45q-105 0 -162 79q-58 -79 -172 -79zM254 480
q-113 0 -113 -236q0 -237 113 -237t113 237q0 236 -113 236zM477 302h206v4q-2 174 -92 174q-49 0 -79 -47.5t-35 -130.5z" />
    <glyph glyph-name="Racute" unicode="&#x154;" horiz-adv-x="637" 
d="M256 318h-35v-251q0 -9 2 -12.5t11 -7.5l89 -45v-2h-305v2l86 47q13 7 13 20v565q0 13 -13 20l-86 47v2h303q102 0 167 -49t65 -142q0 -65 -44.5 -114.5t-118.5 -68.5v-2l28 -40l2 -3l148 -206q15 -21 33 -35l51 -41v-2h-156l-210 301q-12 17 -30 17zM221 664v-328h49
q167 0 167 171q0 99 -40 138.5t-116 39.5h-41q-11 0 -15 -4.5t-4 -16.5zM323 919h121v-2l-208 -161l-2 2z" />
    <glyph glyph-name="racute" unicode="&#x155;" horiz-adv-x="398" 
d="M197 324v-257q0 -16 13 -21l106 -44v-2h-293v2l68 40q11 6 11 22v348q0 15 -11 23l-68 50v2h174v-153q12 61 53 111t104 50q30 0 49 -12l-50 -148h-2l-50 111q-3 6 -12 1q-22 -13 -41 -36t-27 -39zM240 703h121v-2l-208 -161l-2 2z" />
    <glyph glyph-name="Rcommaaccent" unicode="&#x156;" horiz-adv-x="637" 
d="M256 318h-35v-251q0 -9 2 -12.5t11 -7.5l89 -45v-2h-305v2l86 47q13 7 13 20v565q0 13 -13 20l-86 47v2h303q102 0 167 -49t65 -142q0 -65 -44.5 -114.5t-118.5 -68.5v-2l28 -40l2 -3l148 -206q15 -21 33 -35l51 -41v-2h-156l-210 301q-12 17 -30 17zM221 664v-328h49
q167 0 167 171q0 99 -40 138.5t-116 39.5h-41q-11 0 -15 -4.5t-4 -16.5zM313 -235l-1 2q49 32 54 79q1 9 -9 11q-20 3 -32 17.5t-12 36.5q0 23 15.5 38.5t37.5 15.5q25 0 40.5 -16.5t15.5 -45.5q0 -46 -31.5 -85.5t-77.5 -52.5z" />
    <glyph glyph-name="rcommaaccent" unicode="&#x157;" horiz-adv-x="398" 
d="M197 324v-257q0 -16 13 -21l106 -44v-2h-293v2l68 40q11 6 11 22v348q0 15 -11 23l-68 50v2h174v-153q12 61 53 111t104 50q30 0 49 -12l-50 -148h-2l-50 111q-3 6 -12 1q-22 -13 -41 -36t-27 -39zM96 -235l-1 2q49 32 54 79q1 9 -9 11q-20 3 -32 17.5t-12 36.5
q0 23 15.5 38.5t37.5 15.5q25 0 40.5 -16.5t15.5 -45.5q0 -46 -31.5 -85.5t-77.5 -52.5z" />
    <glyph glyph-name="Rcaron" unicode="&#x158;" horiz-adv-x="637" 
d="M256 318h-35v-251q0 -9 2 -12.5t11 -7.5l89 -45v-2h-305v2l86 47q13 7 13 20v565q0 13 -13 20l-86 47v2h303q102 0 167 -49t65 -142q0 -65 -44.5 -114.5t-118.5 -68.5v-2l28 -40l2 -3l148 -206q15 -21 33 -35l51 -41v-2h-156l-210 301q-12 17 -30 17zM221 664v-328h49
q167 0 167 171q0 99 -40 138.5t-116 39.5h-41q-11 0 -15 -4.5t-4 -16.5zM295 844l141 76l1 -2l-141 -173h-2l-141 173l1 2z" />
    <glyph glyph-name="rcaron" unicode="&#x159;" horiz-adv-x="398" 
d="M197 324v-257q0 -16 13 -21l106 -44v-2h-293v2l68 40q11 6 11 22v348q0 15 -11 23l-68 50v2h174v-153q12 61 53 111t104 50q30 0 49 -12l-50 -148h-2l-50 111q-3 6 -12 1q-22 -13 -41 -36t-27 -39zM212 628l141 76l1 -2l-141 -173h-2l-141 173l1 2z" />
    <glyph glyph-name="Sacute" unicode="&#x15a;" horiz-adv-x="515" 
d="M245 -10q-101 0 -185 27v209h2l91 -196q8 -17 22 -19q32 -5 58 -5q71 0 117 33.5t46 102.5q0 50 -30.5 82t-96.5 63l-86 41q-59 28 -98 77t-39 117q0 83 61 137t155 54q77 0 172 -24v-204h-2l-94 192q-7 15 -19 16q-20 4 -44 4q-67 0 -107.5 -37.5t-40.5 -100.5
q0 -84 99 -131l104 -50q75 -35 114 -76.5t39 -105.5q0 -89 -65 -147.5t-173 -58.5zM287 919h121v-2l-208 -161l-2 2z" />
    <glyph glyph-name="sacute" unicode="&#x15b;" horiz-adv-x="416" 
d="M299 100q0 20 -6.5 34.5t-22.5 26.5t-27.5 18t-36.5 17l-62 28q-94 43 -94 131q0 64 50 102t116 38q83 0 151 -25l-38 -127h-2l-64 122q-5 8 -8 10.5t-14 3.5q-9 1 -26 1q-37 0 -63 -23.5t-26 -64.5q0 -33 19.5 -52t57.5 -35l67 -29q54 -23 84 -52.5t30 -80.5
q0 -72 -55.5 -111.5t-133.5 -39.5q-77 0 -157 30l42 139h2l56 -138q4 -10 19 -13q18 -3 40 -3q49 0 75.5 27.5t26.5 65.5zM240 703h121v-2l-208 -161l-2 2z" />
    <glyph glyph-name="Scircumflex" unicode="&#x15c;" horiz-adv-x="515" 
d="M245 -10q-101 0 -185 27v209h2l91 -196q8 -17 22 -19q32 -5 58 -5q71 0 117 33.5t46 102.5q0 50 -30.5 82t-96.5 63l-86 41q-59 28 -98 77t-39 117q0 83 61 137t155 54q77 0 172 -24v-204h-2l-94 192q-7 15 -19 16q-20 4 -44 4q-67 0 -107.5 -37.5t-40.5 -100.5
q0 -84 99 -131l104 -50q75 -35 114 -76.5t39 -105.5q0 -89 -65 -147.5t-173 -58.5zM259 829l-141 -76l-1 2l141 173h2l141 -173l-1 -2z" />
    <glyph glyph-name="scircumflex" unicode="&#x15d;" horiz-adv-x="416" 
d="M299 100q0 20 -6.5 34.5t-22.5 26.5t-27.5 18t-36.5 17l-62 28q-94 43 -94 131q0 64 50 102t116 38q83 0 151 -25l-38 -127h-2l-64 122q-5 8 -8 10.5t-14 3.5q-9 1 -26 1q-37 0 -63 -23.5t-26 -64.5q0 -33 19.5 -52t57.5 -35l67 -29q54 -23 84 -52.5t30 -80.5
q0 -72 -55.5 -111.5t-133.5 -39.5q-77 0 -157 30l42 139h2l56 -138q4 -10 19 -13q18 -3 40 -3q49 0 75.5 27.5t26.5 65.5zM212 613l-141 -76l-1 2l141 173h2l141 -173l-1 -2z" />
    <glyph glyph-name="Scedilla" unicode="&#x15e;" horiz-adv-x="515" 
d="M253 -236q-46 0 -75 25t-34 60l2 1q8 -25 30 -40.5t47 -15.5q28 0 47 16t19 42q0 27 -17.5 44t-45.5 18q-19 0 -40 -7l-1 2l65 81h-5q-101 0 -185 27v209h2l91 -196q8 -17 22 -19q32 -5 58 -5q71 0 117 33.5t46 102.5q0 50 -30.5 82t-96.5 63l-86 41q-59 28 -98 77
t-39 117q0 83 61 137t155 54q77 0 172 -24v-204h-2l-94 192q-7 15 -19 16q-20 4 -44 4q-67 0 -107.5 -37.5t-40.5 -100.5q0 -84 99 -131l104 -50q75 -35 114 -76.5t39 -105.5q0 -87 -62.5 -145t-167.5 -61l-9 -53q47 10 82.5 -14.5t35.5 -65.5q0 -40 -29 -66.5t-80 -26.5z
" />
    <glyph glyph-name="scedilla" unicode="&#x15f;" horiz-adv-x="416" 
d="M384 143q0 -72 -55.5 -111.5t-133.5 -39.5h-4l-8 -55q47 10 82.5 -14.5t35.5 -65.5q0 -40 -29 -66.5t-80 -26.5q-46 0 -75 25t-34 60l2 1q8 -25 30 -40.5t47 -15.5q28 0 47 16t19 42q0 28 -18 45t-48 16q-18 0 -37 -6l-1 2l61 83q-78 3 -147 30l42 139h2l56 -138
q4 -10 19 -13q18 -3 40 -3q49 0 75.5 27.5t26.5 65.5q0 20 -6.5 34.5t-22.5 26.5t-27.5 18t-36.5 17l-62 28q-94 43 -94 131q0 64 50 102t116 38q83 0 151 -25l-38 -127h-2l-64 122q-5 8 -8 10.5t-14 3.5q-9 1 -26 1q-37 0 -63 -23.5t-26 -64.5q0 -33 19.5 -52t57.5 -35
l67 -29q54 -23 84 -52.5t30 -80.5z" />
    <glyph glyph-name="Scaron" unicode="&#x160;" horiz-adv-x="515" 
d="M245 -10q-101 0 -185 27v209h2l91 -196q8 -17 22 -19q32 -5 58 -5q71 0 117 33.5t46 102.5q0 50 -30.5 82t-96.5 63l-86 41q-59 28 -98 77t-39 117q0 83 61 137t155 54q77 0 172 -24v-204h-2l-94 192q-7 15 -19 16q-20 4 -44 4q-67 0 -107.5 -37.5t-40.5 -100.5
q0 -84 99 -131l104 -50q75 -35 114 -76.5t39 -105.5q0 -89 -65 -147.5t-173 -58.5zM259 844l141 76l1 -2l-141 -173h-2l-141 173l1 2z" />
    <glyph glyph-name="scaron" unicode="&#x161;" horiz-adv-x="416" 
d="M299 100q0 20 -6.5 34.5t-22.5 26.5t-27.5 18t-36.5 17l-62 28q-94 43 -94 131q0 64 50 102t116 38q83 0 151 -25l-38 -127h-2l-64 122q-5 8 -8 10.5t-14 3.5q-9 1 -26 1q-37 0 -63 -23.5t-26 -64.5q0 -33 19.5 -52t57.5 -35l67 -29q54 -23 84 -52.5t30 -80.5
q0 -72 -55.5 -111.5t-133.5 -39.5q-77 0 -157 30l42 139h2l56 -138q4 -10 19 -13q18 -3 40 -3q49 0 75.5 27.5t26.5 65.5zM212 628l141 76l1 -2l-141 -173h-2l-141 173l1 2z" />
    <glyph glyph-name="Tcommaaccent" unicode="&#x162;" horiz-adv-x="602" 
d="M582 703v-228h-2l-87 191q-5 12 -9.5 15.5t-16.5 3.5h-114v-616q0 -9 2 -12.5t11 -7.5l91 -47v-2h-312v2l91 47q13 7 13 20v616h-114q-12 0 -16 -3t-10 -16l-87 -191h-2v228h562zM248 -245l-1 2q49 32 54 79q1 9 -9 11q-20 3 -32 17.5t-12 36.5q0 23 15.5 38.5t37.5 15.5
q25 0 40.5 -16.5t15.5 -45.5q0 -46 -31.5 -85.5t-77.5 -52.5z" />
    <glyph glyph-name="tcommaaccent" unicode="&#x163;" horiz-adv-x="309" 
d="M170 469v-354q0 -33 15 -52t42 -19q26 0 47 17t30 42h2q-7 -48 -38.5 -79.5t-85.5 -31.5q-107 0 -107 113v364h-70v18h55q16 0 24 14l84 148h2v-162h142v-18h-142zM129 -235l-1 2q49 32 54 79q1 9 -9 11q-20 3 -32 17.5t-12 36.5q0 23 15.5 38.5t37.5 15.5
q25 0 40.5 -16.5t15.5 -45.5q0 -46 -31.5 -85.5t-77.5 -52.5z" />
    <glyph glyph-name="Tcaron" unicode="&#x164;" horiz-adv-x="602" 
d="M582 703v-228h-2l-87 191q-5 12 -9.5 15.5t-16.5 3.5h-114v-616q0 -9 2 -12.5t11 -7.5l91 -47v-2h-312v2l91 47q13 7 13 20v616h-114q-12 0 -16 -3t-10 -16l-87 -191h-2v228h562zM300 844l141 76l1 -2l-141 -173h-2l-141 173l1 2z" />
    <glyph glyph-name="tcaron" unicode="&#x165;" horiz-adv-x="309" 
d="M170 469v-354q0 -33 15 -52t42 -19q26 0 47 17t30 42h2q-7 -48 -38.5 -79.5t-85.5 -31.5q-107 0 -107 113v364h-70v18h55q16 0 24 14l84 148h2v-162h142v-18h-142zM214 512h-1l9 191h92z" />
    <glyph glyph-name="Tbar" unicode="&#x166;" horiz-adv-x="608" 
d="M501 335h-145v-266q0 -9 2 -12.5t11 -7.5l91 -47v-2h-312v2l91 47q13 7 13 20v266h-145v17h145v333h-114q-12 0 -16 -3t-10 -16l-87 -191h-2v228h562v-228h-2l-87 191q-5 12 -9.5 15.5t-16.5 3.5h-114v-333h145v-17z" />
    <glyph glyph-name="tbar" unicode="&#x167;" horiz-adv-x="319" 
d="M187 -8q-107 0 -107 113v229h-70v17h70v118h-70v18h55q16 0 24 14l84 148h2v-162h142v-18h-142v-118h142v-17h-142v-219q0 -33 15 -52t42 -19q26 0 47 17t30 42h2q-7 -48 -38.5 -79.5t-85.5 -31.5z" />
    <glyph glyph-name="Utilde" unicode="&#x168;" horiz-adv-x="652" 
d="M554 248q0 -120 -52 -189t-166 -69q-239 0 -239 214v427q0 8 -2 11.5t-11 8.5l-79 50v2h293v-2l-84 -50q-9 -4 -11 -7.5t-2 -12.5v-405q0 -101 43 -154.5t125 -53.5q80 0 123 60t43 169v355q0 19 -16 30l-95 69v2h242v-2l-96 -69q-16 -11 -16 -30v-354zM493 888l2 -1
q0 -20 -3 -37q-14 -73 -70 -73q-22 0 -66.5 23.5t-65.5 23.5q-40 0 -60 -48l-2 1q0 17 3 34q14 76 70 76q22 0 66 -23.5t65 -23.5q41 0 61 48z" />
    <glyph glyph-name="utilde" unicode="&#x169;" 
d="M259 50q59 0 99 74v288q0 15 -11 23l-68 50v2h174v-412q0 -15 11 -23l68 -50v-2h-174v116q-40 -124 -145 -124q-135 0 -135 200q0 60 2 220q0 15 -11 23l-68 50v2h175l-2 -119q-1 -119 -1 -142q0 -91 20.5 -133.5t65.5 -42.5zM386 672l2 -1q0 -21 -3 -37q-14 -73 -70 -73
q-22 0 -66.5 23.5t-65.5 23.5q-40 0 -60 -48l-2 1q0 17 3 34q14 76 70 76q22 0 66 -23.5t65 -23.5q41 0 61 48z" />
    <glyph glyph-name="Umacron" unicode="&#x16a;" horiz-adv-x="652" 
d="M554 248q0 -120 -52 -189t-166 -69q-239 0 -239 214v427q0 8 -2 11.5t-11 8.5l-79 50v2h293v-2l-84 -50q-9 -4 -11 -7.5t-2 -12.5v-405q0 -101 43 -154.5t125 -53.5q80 0 123 60t43 169v355q0 19 -16 30l-95 69v2h242v-2l-96 -69q-16 -11 -16 -30v-354zM481 807h-246v18
h246v-18z" />
    <glyph glyph-name="umacron" unicode="&#x16b;" 
d="M259 50q59 0 99 74v288q0 15 -11 23l-68 50v2h174v-412q0 -15 11 -23l68 -50v-2h-174v116q-40 -124 -145 -124q-135 0 -135 200q0 60 2 220q0 15 -11 23l-68 50v2h175l-2 -119q-1 -119 -1 -142q0 -91 20.5 -133.5t65.5 -42.5zM374 591h-246v18h246v-18z" />
    <glyph glyph-name="Ubreve" unicode="&#x16c;" horiz-adv-x="652" 
d="M554 248q0 -120 -52 -189t-166 -69q-239 0 -239 214v427q0 8 -2 11.5t-11 8.5l-79 50v2h293v-2l-84 -50q-9 -4 -11 -7.5t-2 -12.5v-405q0 -101 43 -154.5t125 -53.5q80 0 123 60t43 169v355q0 19 -16 30l-95 69v2h242v-2l-96 -69q-16 -11 -16 -30v-354zM356 818
q48 0 80 26.5t33 71.5h2q4 -19 4 -38q0 -60 -35 -90t-84 -30t-83.5 30t-34.5 90q0 19 4 38h2q1 -45 33 -71.5t79 -26.5z" />
    <glyph glyph-name="ubreve" unicode="&#x16d;" 
d="M259 50q59 0 99 74v288q0 15 -11 23l-68 50v2h174v-412q0 -15 11 -23l68 -50v-2h-174v116q-40 -124 -145 -124q-135 0 -135 200q0 60 2 220q0 15 -11 23l-68 50v2h175l-2 -119q-1 -119 -1 -142q0 -91 20.5 -133.5t65.5 -42.5zM249 602q48 0 80 26.5t33 71.5h2
q4 -19 4 -38q0 -60 -35 -90t-84 -30t-83.5 30t-34.5 90q0 19 4 38h2q1 -45 33 -71.5t79 -26.5z" />
    <glyph glyph-name="Uring" unicode="&#x16e;" horiz-adv-x="652" 
d="M554 248q0 -120 -52 -189t-166 -69q-239 0 -239 214v427q0 8 -2 11.5t-11 8.5l-79 50v2h293v-2l-84 -50q-9 -4 -11 -7.5t-2 -12.5v-405q0 -101 43 -154.5t125 -53.5q80 0 123 60t43 169v355q0 19 -16 30l-95 69v2h242v-2l-96 -69q-16 -11 -16 -30v-354zM443 838
q0 -34 -23.5 -57.5t-57.5 -23.5t-57.5 23.5t-23.5 57.5t23.5 57.5t57.5 23.5t57.5 -23.5t23.5 -57.5zM424 838q0 26 -18 44.5t-44 18.5t-44 -18.5t-18 -44.5t18 -44.5t44 -18.5t44 18.5t18 44.5z" />
    <glyph glyph-name="uring" unicode="&#x16f;" 
d="M259 50q59 0 99 74v288q0 15 -11 23l-68 50v2h174v-412q0 -15 11 -23l68 -50v-2h-174v116q-40 -124 -145 -124q-135 0 -135 200q0 60 2 220q0 15 -11 23l-68 50v2h175l-2 -119q-1 -119 -1 -142q0 -91 20.5 -133.5t65.5 -42.5zM336 622q0 -34 -23.5 -57.5t-57.5 -23.5
t-57.5 23.5t-23.5 57.5t23.5 57.5t57.5 23.5t57.5 -23.5t23.5 -57.5zM317 622q0 26 -18 44.5t-44 18.5t-44 -18.5t-18 -44.5t18 -44.5t44 -18.5t44 18.5t18 44.5z" />
    <glyph glyph-name="Uhungarumlaut" unicode="&#x170;" horiz-adv-x="652" 
d="M554 248q0 -120 -52 -189t-166 -69q-239 0 -239 214v427q0 8 -2 11.5t-11 8.5l-79 50v2h293v-2l-84 -50q-9 -4 -11 -7.5t-2 -12.5v-405q0 -101 43 -154.5t125 -53.5q80 0 123 60t43 169v355q0 19 -16 30l-95 69v2h242v-2l-96 -69q-16 -11 -16 -30v-354zM323 919h102v-2
l-165 -169h-2zM460 919h102v-2l-165 -169h-2z" />
    <glyph glyph-name="uhungarumlaut" unicode="&#x171;" 
d="M259 50q59 0 99 74v288q0 15 -11 23l-68 50v2h174v-412q0 -15 11 -23l68 -50v-2h-174v116q-40 -124 -145 -124q-135 0 -135 200q0 60 2 220q0 15 -11 23l-68 50v2h175l-2 -119q-1 -119 -1 -142q0 -91 20.5 -133.5t65.5 -42.5zM216 703h102v-2l-165 -169h-2zM353 703h102
v-2l-165 -169h-2z" />
    <glyph glyph-name="Uogonek" unicode="&#x172;" horiz-adv-x="652" 
d="M554 248q0 -120 -52 -189t-166 -69h-4q-56 -39 -56 -99q0 -36 21.5 -56t52.5 -20q47 0 72 35l2 -1q-36 -85 -109 -85q-38 0 -69 27.5t-31 73.5q0 38 27.5 71.5t76.5 53.5q-222 8 -222 214v427q0 8 -2 11.5t-11 8.5l-79 50v2h293v-2l-84 -50q-9 -4 -11 -7.5t-2 -12.5v-405
q0 -101 43 -154.5t125 -53.5q80 0 123 60t43 169v355q0 19 -16 30l-95 69v2h242v-2l-96 -69q-16 -11 -16 -30v-354z" />
    <glyph glyph-name="uogonek" unicode="&#x173;" 
d="M339 -236q-38 0 -69 27.5t-31 73.5q0 44 32 83t87 54v114q-40 -124 -145 -124q-135 0 -135 200q0 60 2 220q0 15 -11 23l-68 50v2h175l-2 -119q-1 -119 -1 -142q0 -91 20.5 -133.5t65.5 -42.5q59 0 99 74v288q0 15 -11 23l-68 50v2h174v-412q0 -15 11 -23l68 -50v-2h-163
q-69 -33 -69 -109q0 -36 21.5 -56t52.5 -20q47 0 72 35l2 -1q-36 -85 -109 -85z" />
    <glyph glyph-name="Wcircumflex" unicode="&#x174;" horiz-adv-x="960" 
d="M634 0l-154 476l-155 -476h-61l-210 621q-8 23 -23 38l-43 42v2h249v-2l-71 -54q-10 -7 -4 -24l176 -520l132 404l-37 114q-8 23 -23 38l-37 42v2h244v-2l-71 -54q-10 -7 -5 -23l168 -520l158 491q7 20 -13 36l-87 70v2h225v-2l-76 -65q-10 -9 -14 -13t-7.5 -10t-6.5 -16
l-193 -597h-61zM490 829l-141 -76l-1 2l141 173h2l141 -173l-1 -2z" />
    <glyph glyph-name="wcircumflex" unicode="&#x175;" horiz-adv-x="702" 
d="M717 485l-57 -69q-12 -14 -17 -30l-139 -386h-46l-112 303l-113 -303h-46l-154 418q-6 17 -15 28l-31 39v2h200v-2l-48 -46q-10 -9 -4 -24l115 -318l87 231l-33 90q-6 17 -15 28l-31 39v2h199v-2l-48 -46q-10 -9 -4 -24l116 -318l104 290q4 13 3 17t-9 14l-57 67v2h155
v-2zM361 613l-141 -76l-1 2l141 173h2l141 -173l-1 -2z" />
    <glyph glyph-name="Ycircumflex" unicode="&#x176;" horiz-adv-x="596" 
d="M355 287v-218q0 -9 2 -12.5t11 -7.5l91 -47v-2h-312v2l91 47q13 7 13 20v207q0 16 -8 30l-177 317q-11 20 -27 33l-51 45v2h260v-2l-65 -51q-9 -8 -4 -18l167 -299l143 270q8 15 -3 24l-85 74v2h227v-2l-88 -69q-23 -19 -34 -39l-143 -270q-8 -14 -8 -36zM325 829
l-141 -76l-1 2l141 173h2l141 -173l-1 -2z" />
    <glyph glyph-name="ycircumflex" unicode="&#x177;" horiz-adv-x="435" 
d="M56 -236q-24 0 -42 10l35 151h2l58 -100q7 -12 12 -12t12 9q33 40 61 117l13 36l-173 443q-9 21 -19 34l-25 33v2h198v-2l-48 -46q-10 -9 -4 -24l120 -310l107 279q7 18 -3 30l-60 71v2h155v-2l-56 -69q-10 -11 -19 -34l-170 -446q-26 -67 -50 -105q-42 -67 -104 -67z
M242 613l-141 -76l-1 2l141 173h2l141 -173l-1 -2z" />
    <glyph glyph-name="Ydieresis" unicode="&#x178;" horiz-adv-x="596" 
d="M355 287v-218q0 -9 2 -12.5t11 -7.5l91 -47v-2h-312v2l91 47q13 7 13 20v207q0 16 -8 30l-177 317q-11 20 -27 33l-51 45v2h260v-2l-65 -51q-9 -8 -4 -18l167 -299l143 270q8 15 -3 24l-85 74v2h227v-2l-88 -69q-23 -19 -34 -39l-143 -270q-8 -14 -8 -36zM191 839
q0 22 15 37.5t37 15.5t37 -15.5t15 -37.5q0 -21 -15.5 -36.5t-36.5 -15.5t-36.5 15.5t-15.5 36.5zM355 839q0 22 15 37.5t36 15.5q22 0 37.5 -15.5t15.5 -37.5q0 -21 -15.5 -36.5t-37.5 -15.5q-21 0 -36 15.5t-15 36.5z" />
    <glyph glyph-name="Zacute" unicode="&#x179;" horiz-adv-x="575" 
d="M546 701l-404 -683h244q27 0 34 13l103 198h2v-229h-510v2l402 683h-222q-27 0 -34 -13l-99 -201h-2v232h486v-2zM314 919h121v-2l-208 -161l-2 2z" />
    <glyph glyph-name="zacute" unicode="&#x17a;" horiz-adv-x="433" 
d="M299 32l100 154h2l-16 -186h-370v2l288 468h-147q-13 0 -16.5 -2t-10.5 -13l-89 -144h-3v176h380v-2l-286 -468h141q13 0 16.5 2t10.5 13zM252 703h121v-2l-208 -161l-2 2z" />
    <glyph glyph-name="Zdotaccent" unicode="&#x17b;" horiz-adv-x="575" 
d="M546 701l-404 -683h244q27 0 34 13l103 198h2v-229h-510v2l402 683h-222q-27 0 -34 -13l-99 -201h-2v232h486v-2zM227 830q0 26 17 43.5t42 17.5t42.5 -17.5t17.5 -43.5q0 -24 -17.5 -41.5t-42.5 -17.5t-42 17.5t-17 41.5z" />
    <glyph glyph-name="zdotaccent" unicode="&#x17c;" horiz-adv-x="433" 
d="M299 32l100 154h2l-16 -186h-370v2l288 468h-147q-13 0 -16.5 -2t-10.5 -13l-89 -144h-3v176h380v-2l-286 -468h141q13 0 16.5 2t10.5 13zM165 614q0 26 17 43.5t42 17.5t42.5 -17.5t17.5 -43.5q0 -24 -17.5 -41.5t-42.5 -17.5t-42 17.5t-17 41.5z" />
    <glyph glyph-name="Zcaron" unicode="&#x17d;" horiz-adv-x="575" 
d="M546 701l-404 -683h244q27 0 34 13l103 198h2v-229h-510v2l402 683h-222q-27 0 -34 -13l-99 -201h-2v232h486v-2zM286 844l141 76l1 -2l-141 -173h-2l-141 173l1 2z" />
    <glyph glyph-name="zcaron" unicode="&#x17e;" horiz-adv-x="433" 
d="M299 32l100 154h2l-16 -186h-370v2l288 468h-147q-13 0 -16.5 -2t-10.5 -13l-89 -144h-3v176h380v-2l-286 -468h141q13 0 16.5 2t10.5 13zM224 628l141 76l1 -2l-141 -173h-2l-141 173l1 2z" />
    <glyph glyph-name="florin" unicode="&#x192;" horiz-adv-x="410" 
d="M54 292v18h98v213q0 101 39 145.5t121 44.5q64 0 127 -26l-51 -122h-2l-49 120q-4 10 -7 11.5t-17 1.5q-66 0 -66 -117v-271h107v-18h-107v-290q0 -123 -38 -180.5t-117 -57.5q-65 0 -132 26l51 122h2l48 -119q4 -10 8.5 -13.5t16.5 -3.5q22 0 36 9t20 27t8 35t2 44v401
h-98z" />
    <glyph glyph-name="uni01B5" unicode="&#x1b5;" horiz-adv-x="575" 
d="M525 0h-510v2l203 345h-156v17h166l189 321h-222q-27 0 -34 -13l-99 -201h-2v232h486v-2l-200 -337h145v-17h-155l-194 -329h244q27 0 34 13l103 198h2v-229z" />
    <glyph glyph-name="uni01B6" unicode="&#x1b6;" horiz-adv-x="437" 
d="M387 0h-370v2l146 238h-121v17h132l131 213h-147q-13 0 -16.5 -2t-10.5 -13l-89 -144h-3v176h380v-2l-140 -228h116v-17h-126l-136 -223h141q13 0 16.5 2t10.5 13l100 154h2z" />
    <glyph glyph-name="Aringacute" unicode="&#x1fa;" horiz-adv-x="621" 
d="M292 967h121v-2l-146 -99q-30 -20 -36 -30q28 27 66 27q32 0 56.5 -17t24.5 -45t-24.5 -45t-56.5 -17t-56.5 17t-24.5 45q0 16 9 32zM359 801q0 21 -18.5 32.5t-43.5 11.5t-43.5 -11.5t-18.5 -32.5t18.5 -32.5t43.5 -11.5t43.5 11.5t18.5 32.5zM157 246l-48 -143
q-3 -14 -1.5 -17.5t16.5 -15.5l85 -68v-2h-225v2l80 68q20 18 26 36l168 498q4 16 3 21t-11 16l-55 60v2h153l210 -621q8 -23 23 -38l43 -42v-2h-249v2l71 54q11 8 4 25l-56 165h-237zM276 599l-113 -335h225z" />
    <glyph glyph-name="aringacute" unicode="&#x1fb;" horiz-adv-x="465" 
d="M222 750h121v-2l-146 -99q-30 -20 -36 -30q28 27 66 27q32 0 56.5 -17t24.5 -45t-24.5 -45t-56.5 -17t-56.5 17t-24.5 45q0 16 9 32zM289 584q0 21 -18.5 32.5t-43.5 11.5t-43.5 -11.5t-18.5 -32.5t18.5 -32.5t43.5 -11.5t43.5 11.5t18.5 32.5zM299 238l2 106v3
q0 60 -27 95.5t-80 35.5q-19 0 -24 -2t-9 -12l-61 -132h-2l-45 130q80 33 168 33q89 0 127 -39q45 -47 45 -164v-14l-4 -163q-2 -67 36 -67q25 0 33 29h2q0 -16 -6 -31q-9 -23 -29 -38.5t-48 -15.5q-35 0 -57.5 27t-22.5 79q-15 -50 -50.5 -78t-83.5 -28q-54 0 -92 35
t-38 96q0 69 48.5 107.5t113.5 38.5q62 0 104 -31zM241 242q-52 0 -81 -31t-29 -76q0 -39 21.5 -63t54.5 -24q56 0 90 58v3l2 123q-29 10 -58 10z" />
    <glyph glyph-name="AEacute" unicode="&#x1fc;" horiz-adv-x="911" 
d="M858 0h-522v2l86 47q13 7 13 20v176h-237l-82 -136q-10 -17 -10.5 -23.5t11.5 -16.5l84 -67v-2h-226v2l74 58q28 22 39 39l306 505q10 16 10 21.5t-10 15.5l-63 60v2h517v-216h-2l-84 180q-9 18 -29 18h-178q-10 0 -13 -4.5t-3 -18.5v-294h123q16 1 28 19l64 89h2v-234
h-2l-64 90q-13 18 -29 18h-122v-309q0 -14 3 -18.5t13 -4.5h178q26 0 34 13l89 182h2v-213zM435 263v374l-226 -374h226zM606 922h121v-2l-208 -161l-2 2z" />
    <glyph glyph-name="aeacute" unicode="&#x1fd;" horiz-adv-x="732" 
d="M190 269q66 0 109 -31v26l2 80q2 61 -26 97t-83 36q-17 0 -22 -2t-9 -11l-61 -131h-2l-49 135q84 27 176 27q83 0 121 -39q12 -14 17 -23q59 62 148 62q78 0 133 -47t55 -137q0 -10 -2 -26h-303v-28q0 -98 41 -153t105 -55q110 0 159 122h2q-16 -89 -65.5 -134
t-128.5 -45q-57 0 -104.5 27t-74.5 81q-16 -50 -58 -79t-99 -29q-60 0 -99 36.5t-39 99.5q0 66 48.5 103.5t108.5 37.5zM510 480q-49 0 -79.5 -48t-35.5 -130h207q0 178 -92 178zM217 48q68 0 109 56q-27 56 -27 129q-36 9 -57 9q-52 0 -81.5 -29.5t-29.5 -73.5
q0 -41 23 -66t63 -25zM403 703h121v-2l-208 -161l-2 2z" />
    <glyph glyph-name="Oslashacute" unicode="&#x1fe;" horiz-adv-x="689" 
d="M402 919h121v-2l-208 -161l-2 2zM345 713q79 0 142 -30l43 96l17 -7l-43 -98q72 -41 110.5 -124t38.5 -198q0 -169 -80.5 -265.5t-227.5 -96.5q-73 0 -132 25l-43 -97l-17 7l43 98q-78 41 -119 125t-41 204q0 169 81 265t228 96zM156 352q0 -193 62 -279l249 563
q-48 61 -122 61q-86 0 -137.5 -82.5t-51.5 -262.5zM345 6q86 0 137.5 83t51.5 263t-55 267l-248 -563q44 -50 114 -50z" />
    <glyph glyph-name="oslashacute" unicode="&#x1ff;" horiz-adv-x="508" 
d="M281 703h121v-2l-208 -161l-2 2zM398 545l-33 -74q112 -56 112 -227q0 -125 -59.5 -188.5t-163.5 -63.5q-55 0 -94 16l-40 -90l-16 8l39 89q-112 56 -112 229q0 125 59.5 188t163.5 63q53 0 94 -16l33 73zM254 480q-56 0 -84 -55t-28 -181q0 -121 25 -175l163 369
q-28 42 -76 42zM366 244q0 114 -25 173l-163 -369q25 -41 76 -41q55 0 83.5 55.5t28.5 181.5z" />
    <glyph glyph-name="Scommaaccent" unicode="&#x218;" horiz-adv-x="515" 
d="M245 -10q-101 0 -185 27v209h2l91 -196q8 -17 22 -19q32 -5 58 -5q71 0 117 33.5t46 102.5q0 50 -30.5 82t-96.5 63l-86 41q-59 28 -98 77t-39 117q0 83 61 137t155 54q77 0 172 -24v-204h-2l-94 192q-7 15 -19 16q-20 4 -44 4q-67 0 -107.5 -37.5t-40.5 -100.5
q0 -84 99 -131l104 -50q75 -35 114 -76.5t39 -105.5q0 -89 -65 -147.5t-173 -58.5zM200 -235l-1 2q49 32 54 79q1 9 -9 11q-20 3 -32 17.5t-12 36.5q0 23 15.5 38.5t37.5 15.5q25 0 40.5 -16.5t15.5 -45.5q0 -46 -31.5 -85.5t-77.5 -52.5z" />
    <glyph glyph-name="scommaaccent" unicode="&#x219;" horiz-adv-x="416" 
d="M299 100q0 20 -6.5 34.5t-22.5 26.5t-27.5 18t-36.5 17l-62 28q-94 43 -94 131q0 64 50 102t116 38q83 0 151 -25l-38 -127h-2l-64 122q-5 8 -8 10.5t-14 3.5q-9 1 -26 1q-37 0 -63 -23.5t-26 -64.5q0 -33 19.5 -52t57.5 -35l67 -29q54 -23 84 -52.5t30 -80.5
q0 -72 -55.5 -111.5t-133.5 -39.5q-77 0 -157 30l42 139h2l56 -138q4 -10 19 -13q18 -3 40 -3q49 0 75.5 27.5t26.5 65.5zM159 -245l-1 2q49 32 54 79q1 9 -9 11q-20 3 -32 17.5t-12 36.5q0 23 15.5 38.5t37.5 15.5q25 0 40.5 -16.5t15.5 -45.5q0 -46 -31.5 -85.5
t-77.5 -52.5z" />
    <glyph glyph-name="uni021A" unicode="&#x21a;" horiz-adv-x="602" 
d="M582 703v-228h-2l-87 191q-5 12 -9.5 15.5t-16.5 3.5h-114v-616q0 -9 2 -12.5t11 -7.5l91 -47v-2h-312v2l91 47q13 7 13 20v616h-114q-12 0 -16 -3t-10 -16l-87 -191h-2v228h562zM248 -245l-1 2q49 32 54 79q1 9 -9 11q-20 3 -32 17.5t-12 36.5q0 23 15.5 38.5t37.5 15.5
q25 0 40.5 -16.5t15.5 -45.5q0 -46 -31.5 -85.5t-77.5 -52.5z" />
    <glyph glyph-name="uni021B" unicode="&#x21b;" horiz-adv-x="309" 
d="M170 469v-354q0 -33 15 -52t42 -19q26 0 47 17t30 42h2q-7 -48 -38.5 -79.5t-85.5 -31.5q-107 0 -107 113v364h-70v18h55q16 0 24 14l84 148h2v-162h142v-18h-142zM129 -235l-1 2q49 32 54 79q1 9 -9 11q-20 3 -32 17.5t-12 36.5q0 23 15.5 38.5t37.5 15.5
q25 0 40.5 -16.5t15.5 -45.5q0 -46 -31.5 -85.5t-77.5 -52.5z" />
    <glyph glyph-name="dotlessj" unicode="&#x237;" horiz-adv-x="259" 
d="M-1 -213q-21 0 -38 4v2q66 6 99 52t33 150v417q0 15 -11 23l-68 50v2h174v-467q0 -101 -47.5 -167t-141.5 -66z" />
    <glyph glyph-name="circumflex" unicode="&#x2c6;" horiz-adv-x="384" 
d="M192 613l-141 -76l-1 2l141 173h2l141 -173l-1 -2z" />
    <glyph glyph-name="caron" unicode="&#x2c7;" horiz-adv-x="384" 
d="M192 636l141 76l1 -2l-141 -173h-2l-141 173l1 2z" />
    <glyph glyph-name="uni02C9" unicode="&#x2c9;" horiz-adv-x="346" 
d="M296 591h-246v18h246v-18z" />
    <glyph glyph-name="breve" unicode="&#x2d8;" horiz-adv-x="337" 
d="M168 602q48 0 80 26.5t33 71.5h2q4 -19 4 -38q0 -60 -35 -90t-84 -30t-83.5 30t-34.5 90q0 19 4 38h2q1 -45 33 -71.5t79 -26.5z" />
    <glyph glyph-name="dotaccent" unicode="&#x2d9;" horiz-adv-x="219" 
d="M50 614q0 26 17 43.5t42 17.5t42.5 -17.5t17.5 -43.5q0 -24 -17.5 -41.5t-42.5 -17.5t-42 17.5t-17 41.5z" />
    <glyph glyph-name="ring" unicode="&#x2da;" horiz-adv-x="262" 
d="M212 622q0 -34 -23.5 -57.5t-57.5 -23.5t-57.5 23.5t-23.5 57.5t23.5 57.5t57.5 23.5t57.5 -23.5t23.5 -57.5zM193 622q0 26 -18 44.5t-44 18.5t-44 -18.5t-18 -44.5t18 -44.5t44 -18.5t44 18.5t18 44.5z" />
    <glyph glyph-name="ogonek" unicode="&#x2db;" horiz-adv-x="309" 
d="M257 -150l2 -1q-36 -85 -109 -85q-38 0 -69 27.5t-31 73.5q0 43 35 79.5t97 55.5h2q-73 -40 -73 -109q0 -36 21.5 -56t52.5 -20q47 0 72 35z" />
    <glyph glyph-name="tilde" unicode="&#x2dc;" horiz-adv-x="367" 
d="M315 672l2 -1q0 -21 -3 -37q-14 -73 -70 -73q-22 0 -66.5 23.5t-65.5 23.5q-40 0 -60 -48l-2 1q0 17 3 34q14 76 70 76q22 0 66 -23.5t65 -23.5q41 0 61 48z" />
    <glyph glyph-name="hungarumlaut" unicode="&#x2dd;" horiz-adv-x="404" 
d="M115 703h102v-2l-165 -169h-2zM252 703h102v-2l-165 -169h-2z" />
    <glyph glyph-name="uni0394" unicode="&#x394;" horiz-adv-x="638" 
d="M31 0l244 599q13 29 -9 49l-56 53v2h155l257 -703h-591zM507 18l-214 576l-235 -576h449z" />
    <glyph glyph-name="uni03A9" unicode="&#x3a9;" horiz-adv-x="689" 
d="M345 698q-85 -1 -137.5 -77t-52.5 -229q0 -142 40 -209t116 -91v-92h-275v203h2l89 -172q8 -13 34 -13h132v62q-107 23 -182.5 104.5t-75.5 207.5q0 138 80.5 229.5t229.5 91.5q148 0 228.5 -91.5t80.5 -229.5q0 -126 -75.5 -207.5t-182.5 -104.5v-62h132q26 0 34 13
l89 172h2v-203h-275v92q76 24 116 91t40 209q0 153 -52 229t-137 77z" />
    <glyph glyph-name="uni03BC" unicode="&#x3bc;" horiz-adv-x="542" 
d="M174 4v-159q0 -16 14 -23l90 -48v-2h-278v2l69 40q11 6 11 22v581q0 13 -11 23l-67 45v2h175v-279q0 -92 19 -124.5t64 -32.5q61 0 99 74v292q0 15 -11 23l-68 45v2h174v-417q0 -15 11 -23l68 -45v-2h-174v118q-17 -59 -53.5 -92.5t-83.5 -33.5q-30 0 -48 12z" />
    <glyph glyph-name="pi" unicode="&#x3c0;" horiz-adv-x="583" 
d="M481 64q0 -16 11 -22l68 -40v-2h-253v2l67 41q12 7 12 21v405h-189v-405q0 -14 12 -21l67 -41v-2h-253v2l68 40q11 6 11 22v348q0 15 -11 23l-68 50v2h537v-2l-68 -50q-11 -8 -11 -23v-348z" />
    <glyph glyph-name="Wgrave" unicode="&#x1e80;" horiz-adv-x="960" 
d="M634 0l-154 476l-155 -476h-61l-210 621q-8 23 -23 38l-43 42v2h249v-2l-71 -54q-10 -7 -4 -24l176 -520l132 404l-37 114q-8 23 -23 38l-37 42v2h244v-2l-71 -54q-10 -7 -5 -23l168 -520l158 491q7 20 -13 36l-87 70v2h225v-2l-76 -65q-10 -9 -14 -13t-7.5 -10t-6.5 -16
l-193 -597h-61zM342 919h121l89 -161l-2 -2l-208 161v2z" />
    <glyph glyph-name="wgrave" unicode="&#x1e81;" horiz-adv-x="702" 
d="M717 485l-57 -69q-12 -14 -17 -30l-139 -386h-46l-112 303l-113 -303h-46l-154 418q-6 17 -15 28l-31 39v2h200v-2l-48 -46q-10 -9 -4 -24l115 -318l87 231l-33 90q-6 17 -15 28l-31 39v2h199v-2l-48 -46q-10 -9 -4 -24l116 -318l104 290q4 13 3 17t-9 14l-57 67v2h155
v-2zM213 703h121l89 -161l-2 -2l-208 161v2z" />
    <glyph glyph-name="Wacute" unicode="&#x1e82;" horiz-adv-x="960" 
d="M634 0l-154 476l-155 -476h-61l-210 621q-8 23 -23 38l-43 42v2h249v-2l-71 -54q-10 -7 -4 -24l176 -520l132 404l-37 114q-8 23 -23 38l-37 42v2h244v-2l-71 -54q-10 -7 -5 -23l168 -520l158 491q7 20 -13 36l-87 70v2h225v-2l-76 -65q-10 -9 -14 -13t-7.5 -10t-6.5 -16
l-193 -597h-61zM518 919h121v-2l-208 -161l-2 2z" />
    <glyph glyph-name="wacute" unicode="&#x1e83;" horiz-adv-x="702" 
d="M717 485l-57 -69q-12 -14 -17 -30l-139 -386h-46l-112 303l-113 -303h-46l-154 418q-6 17 -15 28l-31 39v2h200v-2l-48 -46q-10 -9 -4 -24l115 -318l87 231l-33 90q-6 17 -15 28l-31 39v2h199v-2l-48 -46q-10 -9 -4 -24l116 -318l104 290q4 13 3 17t-9 14l-57 67v2h155
v-2zM389 703h121v-2l-208 -161l-2 2z" />
    <glyph glyph-name="Wdieresis" unicode="&#x1e84;" horiz-adv-x="960" 
d="M634 0l-154 476l-155 -476h-61l-210 621q-8 23 -23 38l-43 42v2h249v-2l-71 -54q-10 -7 -4 -24l176 -520l132 404l-37 114q-8 23 -23 38l-37 42v2h244v-2l-71 -54q-10 -7 -5 -23l168 -520l158 491q7 20 -13 36l-87 70v2h225v-2l-76 -65q-10 -9 -14 -13t-7.5 -10t-6.5 -16
l-193 -597h-61zM356 839q0 22 15 37.5t37 15.5t37 -15.5t15 -37.5q0 -21 -15.5 -36.5t-36.5 -15.5t-36.5 15.5t-15.5 36.5zM520 839q0 22 15 37.5t36 15.5q22 0 37.5 -15.5t15.5 -37.5q0 -21 -16 -36.5t-37 -15.5t-36 15.5t-15 36.5z" />
    <glyph glyph-name="wdieresis" unicode="&#x1e85;" horiz-adv-x="702" 
d="M717 485l-57 -69q-12 -14 -17 -30l-139 -386h-46l-112 303l-113 -303h-46l-154 418q-6 17 -15 28l-31 39v2h200v-2l-48 -46q-10 -9 -4 -24l115 -318l87 231l-33 90q-6 17 -15 28l-31 39v2h199v-2l-48 -46q-10 -9 -4 -24l116 -318l104 290q4 13 3 17t-9 14l-57 67v2h155
v-2zM227 623q0 22 15 37.5t37 15.5t37 -15.5t15 -37.5q0 -21 -15.5 -36.5t-36.5 -15.5t-36.5 15.5t-15.5 36.5zM391 623q0 22 15 37.5t36 15.5q22 0 37.5 -15.5t15.5 -37.5q0 -21 -15.5 -36.5t-37.5 -15.5q-21 0 -36 15.5t-15 36.5z" />
    <glyph glyph-name="uni1E8A" unicode="&#x1e8a;" horiz-adv-x="654" 
d="M575 76q11 -18 32 -33l56 -41v-2h-269v2l58 40q10 7 11 12t-6 15l-160 251l-153 -229q-8 -11 -8 -16t8 -10l96 -63v-2h-249v2l92 57q25 14 38 33l165 245l-183 290q-11 18 -32 33l-56 41v2h269v-2l-58 -40q-10 -7 -10.5 -12.5t5.5 -14.5l136 -215l129 193q8 11 8 16.5
t-8 9.5l-96 63v2h249v-2l-92 -57q-25 -14 -38 -33l-141 -209zM295 830q0 26 17 43.5t42 17.5t42.5 -17.5t17.5 -43.5q0 -24 -17.5 -41.5t-42.5 -17.5t-42 17.5t-17 41.5z" />
    <glyph glyph-name="uni1E8B" unicode="&#x1e8b;" horiz-adv-x="476" 
d="M201 215l-137 200q-18 25 -33 37l-41 33v2h240v-2l-61 -38q-7 -5 -7 -8.5t7 -13.5l94 -137l85 115q7 10 7 13.5t-8 12.5l-55 56v2h183v-2l-82 -61q-16 -11 -30 -30l-90 -120l139 -202q18 -25 33 -37l41 -33v-2h-240v2l61 38q11 7 0 22l-96 139l-87 -117q-7 -10 -7 -13.5
t8 -12.5l55 -56v-2h-183v2l82 61q16 11 30 30zM203 614q0 26 17 43.5t42 17.5t42.5 -17.5t17.5 -43.5q0 -24 -17.5 -41.5t-42.5 -17.5t-42 17.5t-17 41.5z" />
    <glyph glyph-name="Ygrave" unicode="&#x1ef2;" horiz-adv-x="596" 
d="M355 287v-218q0 -9 2 -12.5t11 -7.5l91 -47v-2h-312v2l91 47q13 7 13 20v207q0 16 -8 30l-177 317q-11 20 -27 33l-51 45v2h260v-2l-65 -51q-9 -8 -4 -18l167 -299l143 270q8 15 -3 24l-85 74v2h227v-2l-88 -69q-23 -19 -34 -39l-143 -270q-8 -14 -8 -36zM177 919h121
l89 -161l-2 -2l-208 161v2z" />
    <glyph glyph-name="ygrave" unicode="&#x1ef3;" horiz-adv-x="435" 
d="M56 -236q-24 0 -42 10l35 151h2l58 -100q7 -12 12 -12t12 9q33 40 61 117l13 36l-173 443q-9 21 -19 34l-25 33v2h198v-2l-48 -46q-10 -9 -4 -24l120 -310l107 279q7 18 -3 30l-60 71v2h155v-2l-56 -69q-10 -11 -19 -34l-170 -446q-26 -67 -50 -105q-42 -67 -104 -67z
M94 703h121l89 -161l-2 -2l-208 161v2z" />
    <glyph glyph-name="endash" unicode="&#x2013;" horiz-adv-x="500" 
d="M495 234h-490v17h490v-17z" />
    <glyph glyph-name="emdash" unicode="&#x2014;" horiz-adv-x="1000" 
d="M995 234h-990v17h990v-17z" />
    <glyph glyph-name="quoteleft" unicode="&#x2018;" horiz-adv-x="199" 
d="M160 716l1 -2q-27 -15 -42 -42.5t-15 -55.5q0 -8 10 -9q19 -2 32.5 -18t13.5 -39q0 -24 -16.5 -41t-40.5 -17q-26 0 -43.5 18t-17.5 48q0 49 33 96t85 62z" />
    <glyph glyph-name="quoteright" unicode="&#x2019;" horiz-adv-x="199" 
d="M41 489l-1 2q27 15 42 42.5t15 55.5q0 8 -10 9q-19 2 -32.5 18t-13.5 39q0 24 16.5 41t40.5 17q26 0 43.5 -18t17.5 -48q0 -49 -33 -96t-85 -62z" />
    <glyph glyph-name="quotesinglbase" unicode="&#x201a;" horiz-adv-x="199" 
d="M41 -89l-1 2q27 15 42 42.5t15 55.5q0 8 -10 9q-19 2 -32.5 18t-13.5 39q0 24 16.5 41t40.5 17q26 0 43.5 -18t17.5 -48q0 -49 -33 -96t-85 -62z" />
    <glyph glyph-name="quotedblleft" unicode="&#x201c;" horiz-adv-x="360" 
d="M321 716l1 -2q-27 -15 -42 -42.5t-15 -55.5q0 -8 10 -9q19 -2 32.5 -18t13.5 -39q0 -24 -16.5 -41t-40.5 -17q-26 0 -43.5 18t-17.5 48q0 49 33 96t85 62zM160 716l1 -2q-27 -15 -42 -42.5t-15 -55.5q0 -8 10 -9q19 -2 32.5 -18t13.5 -39q0 -24 -16.5 -41t-40.5 -17
q-26 0 -43.5 18t-17.5 48q0 49 33 96t85 62z" />
    <glyph glyph-name="quotedblright" unicode="&#x201d;" horiz-adv-x="360" 
d="M41 489l-1 2q27 15 42 42.5t15 55.5q0 8 -10 9q-19 2 -32.5 18t-13.5 39q0 24 16.5 41t40.5 17q26 0 43.5 -18t17.5 -48q0 -49 -33 -96t-85 -62zM202 489l-1 2q27 15 42 42.5t15 55.5q0 8 -10 9q-19 2 -32.5 18t-13.5 39q0 24 16.5 41t40.5 17q26 0 43.5 -18t17.5 -48
q0 -49 -33 -96t-85 -62z" />
    <glyph glyph-name="quotedblbase" unicode="&#x201e;" horiz-adv-x="360" 
d="M202 -89l-1 2q27 15 42 42.5t15 55.5q0 8 -10 9q-19 2 -32.5 18t-13.5 39q0 24 16.5 41t40.5 17q26 0 43.5 -18t17.5 -48q0 -49 -33 -96t-85 -62zM41 -89l-1 2q27 15 42 42.5t15 55.5q0 8 -10 9q-19 2 -32.5 18t-13.5 39q0 24 16.5 41t40.5 17q26 0 43.5 -18t17.5 -48
q0 -49 -33 -96t-85 -62z" />
    <glyph glyph-name="dagger" unicode="&#x2020;" horiz-adv-x="430" 
d="M55 514v17h151v172h18v-172h151v-17h-151v-384h-18v384h-151z" />
    <glyph glyph-name="daggerdbl" unicode="&#x2021;" horiz-adv-x="430" 
d="M55 514v17h151v172h18v-172h151v-17h-151v-195h151v-17h-151v-172h-18v172h-151v17h151v195h-151z" />
    <glyph glyph-name="bullet" unicode="&#x2022;" horiz-adv-x="348" 
d="M78 351q0 40 28 67.5t68 27.5t68 -27.5t28 -67.5t-28 -65.5t-68 -25.5t-68 25.5t-28 65.5z" />
    <glyph glyph-name="ellipsis" unicode="&#x2026;" horiz-adv-x="595" 
d="M50 53q0 27 18 45.5t44 18.5q27 0 45 -18.5t18 -45.5q0 -26 -18 -44t-45 -18q-26 0 -44 18t-18 44zM235 53q0 27 18 45.5t44 18.5q27 0 45 -18.5t18 -45.5q0 -26 -18 -44t-45 -18q-26 0 -44 18t-18 44zM420 53q0 27 18 45.5t44 18.5q27 0 45 -18.5t18 -45.5
q0 -26 -18 -44t-45 -18q-26 0 -44 18t-18 44z" />
    <glyph glyph-name="perthousand" unicode="&#x2030;" horiz-adv-x="895" 
d="M746 272q-33 0 -44 -31t-11 -103t11 -103t44 -31q34 0 44.5 30.5t10.5 102.5q0 74 -10.5 104.5t-44.5 30.5zM746 286q61 0 92.5 -41t31.5 -108q0 -66 -31.5 -106.5t-92.5 -40.5q-60 0 -92 41t-32 107t32 107t92 41zM579 701l-503 -711l-15 13l503 710zM189 699
q-33 0 -44 -31t-11 -103t11 -103t44 -31q34 0 44.5 30.5t10.5 102.5q0 74 -10.5 104.5t-44.5 30.5zM189 713q61 0 92.5 -41t31.5 -108q0 -66 -31.5 -106.5t-92.5 -40.5q-60 0 -92 41t-32 107t32 107t92 41zM448 272q-33 0 -44 -31t-11 -103t11 -103t44 -31q34 0 44.5 30.5
t10.5 102.5q0 74 -10.5 104.5t-44.5 30.5zM448 286q61 0 92.5 -41t31.5 -108q0 -66 -31.5 -106.5t-92.5 -40.5q-60 0 -92 41t-32 107t32 107t92 41z" />
    <glyph glyph-name="guilsinglleft" unicode="&#x2039;" horiz-adv-x="263" 
d="M30 251l202 199l1 -1l-98 -199l98 -199l-1 -1l-202 199v2z" />
    <glyph glyph-name="guilsinglright" unicode="&#x203a;" horiz-adv-x="263" 
d="M233 249l-202 -199l-1 1l98 199l-98 199l1 1l202 -199v-2z" />
    <glyph glyph-name="fraction" unicode="&#x2044;" horiz-adv-x="48" 
d="M293 701l-503 -711l-15 13l503 710z" />
    <glyph glyph-name="Euro" unicode="&#x20ac;" horiz-adv-x="665" 
d="M40 396v17h69q16 137 100 218.5t220 81.5q87 0 181 -22v-210h-2l-101 194q-6 11 -11.5 14t-20.5 5q-22 3 -48 3q-93 0 -142 -76.5t-58 -207.5h238v-17h-239q-1 -15 -1 -45q0 -36 1 -52h239v-17h-238q20 -276 214 -276q9 0 35 2q22 3 30 18l102 201h2v-220
q-80 -17 -168 -17q-152 0 -234.5 78t-98.5 214h-69v17h67q-2 16 -2 50q0 31 2 47h-67z" />
    <glyph glyph-name="trademark" unicode="&#x2122;" horiz-adv-x="804" 
d="M418 408q0 -9 8 -14l45 -29v-2h-123v2l46 29q7 5 7 14v259q0 9 -5 12l-43 22v2h119l94 -231l90 231h118v-2l-43 -21q-7 -4 -7 -10v-273q0 -7 7 -10l43 -22v-2h-167v2l43 22q6 3 6 10v231q0 12 2 32l-117 -300h-1l-112 269l-10 29v-250zM207 397q0 -6 5 -10l39 -22v-2
h-160v2l41 22q6 4 6 10v289h-52q-10 0 -14 -8l-45 -87h-2l5 112h284l5 -112h-2l-45 87q-5 8 -15 8h-50v-289z" />
    <glyph glyph-name="Omega" unicode="&#x2126;" horiz-adv-x="689" 
d="M345 698q-85 -1 -137.5 -77t-52.5 -229q0 -142 40 -209t116 -91v-92h-275v203h2l89 -172q8 -13 34 -13h132v62q-107 23 -182.5 104.5t-75.5 207.5q0 138 80.5 229.5t229.5 91.5q148 0 228.5 -91.5t80.5 -229.5q0 -126 -75.5 -207.5t-182.5 -104.5v-62h132q26 0 34 13
l89 172h2v-203h-275v92q76 24 116 91t40 209q0 153 -52 229t-137 77z" />
    <glyph glyph-name="estimated" unicode="&#x212e;" horiz-adv-x="664" 
d="M599 233h-509q3 -101 73 -163t171 -62q81 0 144 43.5t87 116.5l21 -7q-26 -79 -94.5 -125t-157.5 -46q-112 0 -188 69t-76 183t75.5 183.5t188.5 69.5t189 -69.5t76 -183.5v-9zM334 477q-100 0 -170 -62.5t-74 -162.5h489q-4 100 -74.5 162.5t-170.5 62.5z" />
    <glyph glyph-name="uni2153" unicode="&#x2153;" horiz-adv-x="456" 
d="M60 344v17h336v-17h-336zM349 80q0 -38 -34 -61.5t-97 -23.5q-58 0 -110 18l46 94h1l22 -88q2 -6 8 -7q13 -3 31 -3q30 0 49.5 19.5t19.5 51.5q0 66 -89 67v2q80 13 80 74q0 54 -53 54q-15 0 -22 -1q-8 -1 -12 -9l-38 -86h-1l-33 91q55 19 110 19q110 0 110 -69
q0 -51 -72 -69v-2q84 -5 84 -71zM335 422v-1h-208v1l67 32q7 4 7 8v193q0 7 -7 9l-73 25v1l140 25v-253q0 -5 8 -8z" />
    <glyph glyph-name="uni2154" unicode="&#x2154;" horiz-adv-x="456" 
d="M396 344h-336v17h336v-17zM349 80q0 -38 -34 -61.5t-97 -23.5q-58 0 -110 18l46 94h2l21 -88q2 -6 8 -7q13 -3 31 -3q30 0 49.5 19.5t19.5 51.5q0 66 -89 67v2q80 13 80 74q0 54 -53 54q-15 0 -22 -1q-8 -1 -12 -9l-37 -86h-2l-33 91q55 19 110 19q110 0 110 -69
q0 -51 -72 -69v-2q84 -5 84 -71zM342 631q0 -43 -36 -75t-127 -81v-2h101q17 0 25 7l39 38h2l-10 -97h-231v3q82 72 105 94q64 60 64 115q0 66 -63 66q-11 0 -16 -1q-8 -2 -11 -9l-37 -86h-2l-32 91q55 19 104 19q59 0 92 -21t33 -61z" />
    <glyph glyph-name="uni2155" unicode="&#x2155;" horiz-adv-x="456" 
d="M60 344v17h336v-17h-336zM349 90q0 -47 -34 -71t-94 -24q-61 0 -113 18l46 94h2l20 -84q2 -10 13 -12q10 -2 30 -2q29 0 47.5 21t18.5 54q0 66 -78 66q-35 0 -71 -16l-2 1l6 153q32 -2 102 -2q26 0 42 1q34 2 43 11l7 7h2l-4 -32q-5 -39 -32 -40q-19 -1 -58 -1
q-24 0 -90 3l-4 -84q44 29 93 29q51 0 79.5 -26t28.5 -64zM261 715v-252q0 -5 8 -8l66 -32v-2h-208v2l67 32q7 3 7 8v192q0 7 -7 9l-73 24v2z" />
    <glyph glyph-name="uni2156" unicode="&#x2156;" horiz-adv-x="456" 
d="M60 344v17h336v-17h-336zM349 90q0 -47 -34 -71t-94 -24q-61 0 -113 18l46 94h2l20 -84q2 -11 13 -12q20 -2 30 -2q29 0 47.5 21t18.5 54q0 66 -78 66q-35 0 -71 -16l-2 1l6 153q62 -2 102 -2q26 0 42 1q34 2 43 11l7 7h2l-4 -32q-5 -39 -32 -40q-19 -1 -58 -1
q-24 0 -90 3l-4 -84q44 29 93 29q51 0 79.5 -26t28.5 -64zM342 631q0 -43 -36 -75t-127 -81v-2h101q17 0 25 7l39 38h2l-10 -97h-231v3q82 72 105 94q64 60 64 115q0 66 -63 66q-11 0 -16 -1q-8 -2 -11 -9l-37 -86h-2l-32 91q55 19 104 19q59 0 92 -21t33 -61z" />
    <glyph glyph-name="uni2157" unicode="&#x2157;" horiz-adv-x="456" 
d="M396 361v-17h-336v17h336zM349 502q0 -38 -34 -61.5t-97 -23.5q-58 0 -110 18l46 94h2l21 -88q1 -5 8 -7q13 -3 31 -3q30 0 49.5 19.5t19.5 51.5q0 66 -89 67v2q80 13 80 74q0 54 -53 54q-15 0 -22 -1q-8 -1 -12 -9l-37 -86h-2l-33 91q55 19 110 19q110 0 110 -69
q0 -51 -72 -69v-2q84 -5 84 -71zM349 90q0 -47 -34 -71t-94 -24q-61 0 -113 18l46 94h2l20 -84q2 -11 13 -12q20 -2 30 -2q29 0 47.5 21t18.5 54q0 66 -78 66q-35 0 -71 -16l-2 1l6 153q33 -2 102 -2q26 0 42 1q34 2 43 11l7 7h2l-4 -32q-5 -39 -32 -40q-19 -1 -58 -1
q-24 0 -90 3l-4 -84q44 29 93 29q51 0 79.5 -26t28.5 -64z" />
    <glyph glyph-name="uni2158" unicode="&#x2158;" horiz-adv-x="456" 
d="M396 361v-17h-336v17h336zM285 84q0 66 -78 66q-35 0 -71 -16l-2 1l6 153q30 -2 102 -2q26 0 42 1q34 2 43 11l7 7h2l-4 -32q-5 -39 -32 -40q-19 -1 -58 -1q-24 0 -90 3l-4 -84q44 29 93 29q51 0 79.5 -26t28.5 -64q0 -47 -34 -71t-94 -24q-61 0 -113 18l46 94h2l20 -84
q2 -11 13 -12q20 -2 30 -2q29 0 47.5 21t18.5 54zM289 709v-201h13q12 0 16 8l46 84h2l-7 -106h-70v-33q0 -5 7 -10l45 -28v-2h-167v2l48 28q7 4 7 10v33h-143v2l155 213h48zM115 508h114v158z" />
    <glyph glyph-name="uni2159" unicode="&#x2159;" horiz-adv-x="456" 
d="M396 344h-336v17h336v-17zM257 182q41 0 65.5 -24.5t24.5 -65.5t-31 -69t-83 -28q-64 0 -96 40t-32 110q0 67 34.5 106.5t100.5 39.5q46 0 97 -13l-29 -81h-2l-40 73q-2 5 -12 6q-8 1 -16 1q-38 0 -51.5 -33t-13.5 -99v-5q39 42 84 42zM235 160q-31 0 -62 -29
q1 -66 14 -94t47 -28q46 0 46 80q0 71 -45 71zM261 463q0 -5 8 -8l66 -32v-2h-208v2l67 32q7 3 7 8v192q0 7 -7 9l-73 25v1l140 25v-252z" />
    <glyph glyph-name="uni215A" unicode="&#x215a;" horiz-adv-x="456" 
d="M396 361v-17h-336v17h336zM257 182q41 0 65.5 -24.5t24.5 -65.5t-31 -69t-83 -28q-64 0 -96 40t-32 110q0 67 34.5 106.5t100.5 39.5q46 0 97 -13l-29 -81h-2l-40 73q-2 5 -12 6q-8 1 -16 1q-38 0 -51.5 -33t-13.5 -99v-5q39 42 84 42zM235 160q-31 0 -62 -29
q1 -66 14 -94t47 -28q46 0 46 80q0 71 -45 71zM221 417q-61 0 -113 18l46 94h1l21 -84q2 -11 13 -12q20 -2 30 -2q29 0 47.5 21t18.5 54q0 66 -78 66q-35 0 -71 -16l-2 1l6 153q60 -2 102 -2q26 0 42 1q34 2 43 11l7 7h2l-4 -32q-5 -39 -32 -40q-19 -1 -58 -1q-24 0 -90 3
l-4 -84q44 29 93 29q51 0 79.5 -26t28.5 -64q0 -47 -34 -71t-94 -24z" />
    <glyph glyph-name="uni215B" unicode="&#x215b;" horiz-adv-x="456" 
d="M396 361v-17h-336v17h336zM224 -5q-50 0 -82.5 21t-32.5 51q0 50 75 67q-59 26 -59 81q0 33 28 54.5t75 21.5q46 0 75 -20.5t29 -47.5q0 -50 -76 -62l32 -12q61 -22 61 -72q0 -34 -32 -58t-93 -24zM248 110l-55 21q-26 -21 -26 -60q0 -26 16.5 -44t46.5 -18q31 0 45.5 15
t14.5 35q0 35 -42 51zM180 227q0 -36 51 -56l17 -7q28 21 28 58q0 23 -12.5 39t-35.5 16t-35.5 -15.5t-12.5 -34.5zM261 715v-252q0 -5 8 -8l66 -32v-2h-208v2l67 32q7 3 7 8v192q0 7 -7 9l-73 24v2z" />
    <glyph glyph-name="uni215C" unicode="&#x215c;" horiz-adv-x="456" 
d="M60 344v17h336v-17h-336zM224 -5q-50 0 -82.5 21t-32.5 51q0 50 75 67q-59 26 -59 81q0 33 28 54.5t75 21.5q46 0 75 -20.5t29 -47.5q0 -50 -76 -62l32 -12q61 -24 61 -72q0 -34 -32 -58t-93 -24zM248 110l-55 21q-26 -21 -26 -60q0 -26 16.5 -44t46.5 -18q31 0 45.5 15
t14.5 35q0 35 -42 51zM180 227q0 -36 51 -56l17 -7q28 21 28 58q0 23 -12.5 39t-35.5 16t-35.5 -15.5t-12.5 -34.5zM349 502q0 -38 -34 -61.5t-97 -23.5q-58 0 -110 18l46 94h1l22 -88q2 -6 8 -7q13 -3 31 -3q30 0 49.5 19.5t19.5 51.5q0 66 -89 67v2q80 13 80 74
q0 54 -53 54q-15 0 -22 -1q-8 -1 -12 -9l-38 -86h-1l-33 91q55 19 110 19q110 0 110 -69q0 -51 -72 -69v-2q84 -5 84 -71z" />
    <glyph glyph-name="uni215D" unicode="&#x215d;" horiz-adv-x="456" 
d="M396 344h-336v17h336v-17zM224 -5q-50 0 -82.5 21t-32.5 51q0 50 75 67q-59 26 -59 81q0 33 28 54.5t75 21.5q46 0 75 -20.5t29 -47.5q0 -50 -76 -62l32 -12q61 -22 61 -72q0 -34 -32 -58t-93 -24zM248 110l-55 21q-26 -21 -26 -60q0 -26 16.5 -44t46.5 -18q31 0 45.5 15
t14.5 35q0 35 -42 51zM180 227q0 -36 51 -56l17 -7q28 21 28 58q0 23 -12.5 39t-35.5 16t-35.5 -15.5t-12.5 -34.5zM349 512q0 -47 -34 -71t-94 -24q-61 0 -113 18l46 94h1l21 -84q2 -11 13 -12q20 -2 30 -2q29 0 47.5 21t18.5 54q0 66 -78 66q-35 0 -71 -16l-2 1l6 153
q42 -2 102 -2q26 0 42 1q34 2 43 11l7 7h2l-4 -32q-5 -39 -32 -40q-19 -1 -58 -1q-24 0 -90 3l-4 -84q44 29 93 29q51 0 79.5 -26t28.5 -64z" />
    <glyph glyph-name="uni215E" unicode="&#x215e;" horiz-adv-x="456" 
d="M60 344v17h335v-17h-335zM243 421h-78q95 171 148 242h-146q-13 0 -20 -8l-26 -30h-1l10 84h241l-31 -28q-7 -5 -10 -12q-9 -17 -17.5 -37.5t-19 -51.5l-15.5 -46.5l-18.5 -59.5t-16.5 -53zM224 -5q-50 0 -82.5 21t-32.5 51q0 50 75 67q-59 26 -59 81q0 33 28 54.5
t75 21.5q46 0 75 -20.5t29 -47.5q0 -50 -76 -62l32 -12q61 -24 61 -72q0 -34 -32 -58t-93 -24zM248 110l-55 21q-26 -21 -26 -60q0 -26 16.5 -44t46.5 -18q31 0 45.5 15t14.5 35q0 35 -42 51zM180 227q0 -36 51 -56l17 -7q28 21 28 58q0 23 -12.5 39t-35.5 16t-35.5 -15.5
t-12.5 -34.5z" />
    <glyph glyph-name="uni2190" unicode="&#x2190;" horiz-adv-x="706" 
d="M651 241h-562l229 -229l-12 -14l-251 251l251 251l13 -13l-230 -229h562v-17z" />
    <glyph glyph-name="uni2191" unicode="&#x2191;" horiz-adv-x="612" 
d="M314 -49h-18v562l-228 -230l-13 13l251 251l251 -251l-13 -13l-230 230v-562z" />
    <glyph glyph-name="uni2192" unicode="&#x2192;" horiz-adv-x="706" 
d="M55 258h562l-230 229l13 13l251 -251l-251 -251l-12 14l229 229h-562v17z" />
    <glyph glyph-name="uni2193" unicode="&#x2193;" horiz-adv-x="612" 
d="M296 530h18v-562l230 230l13 -13l-251 -251l-251 251l13 13l228 -230v562z" />
    <glyph glyph-name="uni2196" unicode="&#x2196;" horiz-adv-x="539" 
d="M474 32l-396 396v-325h-18v356h354v-17h-324l398 -397z" />
    <glyph glyph-name="uni2197" unicode="&#x2197;" horiz-adv-x="539" 
d="M479 103h-18v325l-396 -396l-14 13l398 397h-324v17h354v-356z" />
    <glyph glyph-name="uni2198" unicode="&#x2198;" horiz-adv-x="539" 
d="M51 445l14 13l396 -396v325h18v-356h-354v17h324z" />
    <glyph glyph-name="uni2199" unicode="&#x2199;" horiz-adv-x="539" 
d="M474 458l14 -13l-398 -397h324v-17h-354v356h18v-325z" />
    <glyph glyph-name="partialdiff" unicode="&#x2202;" horiz-adv-x="499" 
d="M244 -8q-89 0 -150.5 66t-61.5 175q0 118 57 186.5t142 68.5q79 0 118 -63q-45 207 -217 286l1 2l14 -3q158 -42 239 -159t81 -273q0 -286 -223 -286zM365 258q0 83 -13 149q-40 52 -97 52q-39 0 -66.5 -35.5t-39 -84.5t-11.5 -104q0 -97 28 -162.5t77 -65.5
q122 0 122 251z" />
    <glyph glyph-name="Delta" unicode="&#x2206;" horiz-adv-x="654" 
d="M31 0l244 599q13 29 -9 49l-56 53v2h155l257 -703h-591zM507 18l-214 576l-235 -576h449z" />
    <glyph glyph-name="product" unicode="&#x220f;" horiz-adv-x="742" 
d="M625 634v-565q0 -9 2 -12.5t11 -7.5l86 -47v-2h-302v2l86 47q9 4 11 7.5t2 12.5v616h-300v-616q0 -9 2 -12.5t11 -7.5l86 -47v-2h-302v2l86 47q9 4 11 7.5t2 12.5v565q0 14 -13 20l-86 47v2h706v-2l-86 -47q-13 -6 -13 -20z" />
    <glyph glyph-name="summation" unicode="&#x2211;" horiz-adv-x="596" 
d="M543 0h-525v2l282 292l-187 343q-7 12 -27 22l-78 42v2h516l12 -206h-2l-96 170q-10 18 -29 18h-215l186 -335l-321 -332h359q26 0 34 13l89 172h2v-203z" />
    <glyph glyph-name="minus" unicode="&#x2212;" 
d="M50 314v17h440v-17h-440z" />
    <glyph glyph-name="uni2215" unicode="&#x2215;" horiz-adv-x="48" 
d="M293 701l-503 -711l-15 13l503 710z" />
    <glyph glyph-name="uni2219" unicode="&#x2219;" horiz-adv-x="225" 
d="M50 425q0 27 18 45.5t44 18.5q27 0 45 -18.5t18 -45.5q0 -26 -18 -44t-45 -18q-26 0 -44 18t-18 44z" />
    <glyph glyph-name="radical" unicode="&#x221a;" 
d="M480 750l-263 -750h-2l-157 444l17 7l141 -400l247 704z" />
    <glyph glyph-name="infinity" unicode="&#x221e;" horiz-adv-x="762" 
d="M50 325q0 55 37.5 98t94.5 43q23 0 43.5 -6t43.5 -23t34.5 -26.5t40.5 -38l37 -36.5l37 37t40 38t34.5 26.5t43 22.5t44.5 6q57 0 94.5 -43t37.5 -98t-37.5 -98t-94.5 -43q-24 0 -44.5 6.5t-42.5 22.5t-35 27t-39.5 37.5t-37.5 36.5q-11 -10 -37.5 -36.5t-39.5 -37.5
t-35 -27t-43 -22.5t-44 -6.5q-57 0 -94.5 43t-37.5 98zM580 201q51 0 82.5 37.5t31.5 86.5t-31.5 86.5t-82.5 37.5q-22 0 -41 -5.5t-40 -21t-32 -25.5t-37.5 -36.5t-36.5 -35.5q10 -9 36.5 -35.5t37.5 -36.5t32 -25.5t40 -21t41 -5.5zM68 325q0 -49 31.5 -86.5t82.5 -37.5
q21 0 40 5.5t40.5 21.5t32.5 25t38 36l36 36q-12 11 -37 36t-37.5 36t-32.5 25.5t-39 20.5t-41 6q-51 0 -82.5 -37.5t-31.5 -86.5z" />
    <glyph glyph-name="integral" unicode="&#x222b;" horiz-adv-x="410" 
d="M152 -109v632q0 101 39 145.5t121 44.5q64 0 127 -26l-51 -122h-2l-49 120q-4 10 -7 11.5t-17 1.5q-66 0 -66 -117v-579q0 -123 -38 -180.5t-117 -57.5q-65 0 -132 26l51 122h2l48 -119q4 -10 8.5 -13.5t16.5 -3.5q22 0 36 9t20 27t8 35t2 44z" />
    <glyph glyph-name="approxequal" unicode="&#x2248;" 
d="M383 370q-46 0 -116.5 33t-110.5 33q-61 0 -97 -59l-15 9q40 67 112 67q46 0 116.5 -33t110.5 -33q62 0 98 59l15 -9q-40 -67 -113 -67zM383 192q-46 0 -116.5 33t-110.5 33q-61 0 -97 -59l-15 9q40 67 112 67q46 0 116.5 -33t110.5 -33q62 0 98 59l15 -9
q-40 -67 -113 -67z" />
    <glyph glyph-name="notequal" unicode="&#x2260;" 
d="M50 404v17h264l57 103l16 -9l-52 -94h155v-17h-165l-89 -161h254v-17h-264l-59 -107l-16 9l54 98h-155v17h165l89 161h-254z" />
    <glyph glyph-name="lessequal" unicode="&#x2264;" 
d="M50 106v17h440v-17h-440zM71 374l387 128l6 -17l-345 -112l345 -112l-6 -17l-387 128v2z" />
    <glyph glyph-name="greaterequal" unicode="&#x2265;" 
d="M490 123v-17h-440v17h440zM82 502l387 -128v-2l-387 -128l-6 17l345 112l-345 112z" />
    <glyph glyph-name="lozenge" unicode="&#x25ca;" 
d="M271 -81h-2l-219 405l219 405h2l219 -405zM270 691l-199 -367l199 -367l199 367z" />
    <glyph glyph-name="commaaccent" unicode="&#xf6c3;" horiz-adv-x="210" 
d="M51 -245l-1 2q49 32 54 79q1 9 -9 11q-20 3 -32 17.5t-12 36.5q0 23 15.5 38.5t37.5 15.5q25 0 40.5 -16.5t15.5 -45.5q0 -46 -31.5 -85.5t-77.5 -52.5z" />
    <glyph glyph-name="apple" unicode="&#xf8ff;" horiz-adv-x="1254" 
d="M666 342q-11 0 -41 1.5t-39 1.5q-54 0 -84 -24.5t-53 -76.5q-26 -57 -63 -88t-101 -31q-13 0 -42.5 2t-40.5 2q-57 0 -93 -31t-36 -76q0 -16 1 -22h-18q-1 7 -1 22q0 54 41.5 89.5t106.5 35.5q12 0 42.5 -2t40.5 -2q102 0 147 109q46 111 153 111q11 0 41 -1.5t39 -1.5
q53 0 84 25t54 75q26 57 62.5 87.5t100.5 30.5q13 0 42.5 -2t40.5 -2q57 0 94 32t37 75q0 16 -1 22h18q1 -7 1 -22q0 -53 -42.5 -89t-107.5 -36q-12 0 -42.5 2t-40.5 2q-55 0 -89 -27t-57 -80q-47 -111 -154 -111z" />
    <glyph glyph-name="commatop" horiz-adv-x="210" 
d="M159 743l1 -2q-49 -32 -54 -79q-1 -9 9 -11q20 -3 32 -17.5t12 -36.5q0 -23 -15.5 -38.5t-37.5 -15.5q-25 0 -40.5 16.5t-15.5 45.5q0 46 31.5 85.5t77.5 52.5z" />
    <glyph glyph-name="zero.sups" horiz-adv-x="280" 
d="M140 699q-33 0 -44 -31t-11 -103t11 -103t44 -31q34 0 44.5 30.5t10.5 102.5q0 74 -10.5 104.5t-44.5 30.5zM140 713q61 0 92.5 -41t31.5 -108q0 -66 -31.5 -106.5t-92.5 -40.5q-60 0 -92 41t-32 107t32 107t92 41z" />
    <glyph glyph-name="two.sups" horiz-adv-x="280" 
d="M247 631q0 -43 -36 -75t-127 -81v-2h101q17 0 25 7l39 38h2l-10 -97h-231v3q82 72 105 94q64 60 64 115q0 66 -63 66q-11 0 -16 -1q-8 -2 -11 -9l-37 -86h-2l-32 91q55 19 104 19q59 0 92 -21t33 -61z" />
    <glyph glyph-name="one.sups" horiz-adv-x="240" 
d="M156 715v-252q0 -5 8 -8l66 -32v-2h-208v2l67 32q7 3 7 8v192q0 7 -7 9l-73 24v2z" />
    <glyph glyph-name="four.sups" horiz-adv-x="280" 
d="M86 421v2l48 28q7 4 7 10v33h-143v2l155 213h48v-201h13q12 0 16 8l46 84h2l-7 -106h-70v-33q0 -5 7 -10l45 -28v-2h-167zM27 508h114v158z" />
    <glyph glyph-name="five.sups" horiz-adv-x="280" 
d="M61 657l-4 -84q44 29 93 29q51 0 79.5 -26t28.5 -64q0 -47 -34 -71t-94 -24q-61 0 -113 18l46 94h2l20 -84q2 -11 13 -12q20 -2 30 -2q29 0 47.5 21t18.5 54q0 66 -78 66q-35 0 -71 -16l-2 1l6 153q68 -2 102 -2q26 0 42 1q34 2 43 11l7 7h2l-4 -32q-5 -39 -32 -40
q-19 -1 -58 -1q-24 0 -90 3z" />
    <glyph glyph-name="six.sups" horiz-adv-x="280" 
d="M170 604q41 0 65.5 -24.5t24.5 -65.5t-31 -69t-83 -28q-64 0 -96 40t-32 110q0 67 34.5 106.5t100.5 39.5q46 0 97 -13l-29 -81h-2l-40 73q-2 5 -12 6q-8 1 -16 1q-38 0 -51.5 -33t-13.5 -99v-5q39 42 84 42zM148 582q-31 0 -62 -29q1 -66 14 -94t47 -28q46 0 46 80
q0 71 -45 71z" />
    <glyph glyph-name="seven.sups" horiz-adv-x="280" 
d="M139 421h-78q95 171 148 242h-146q-13 0 -20 -8l-25 -30h-2l10 84h241l-31 -28q-7 -5 -10 -12q-9 -17 -17.5 -37.5t-19 -51.5l-15.5 -46.5l-18.5 -59.5t-16.5 -53z" />
    <glyph glyph-name="eight.sups" horiz-adv-x="280" 
d="M136 417q-50 0 -82.5 21t-32.5 51q0 50 75 67q-59 26 -59 81q0 33 28 54.5t75 21.5q46 0 75 -20.5t29 -47.5q0 -50 -76 -62l32 -12q61 -24 61 -72q0 -34 -32 -58t-93 -24zM160 532l-55 21q-26 -21 -26 -60q0 -26 16.5 -44t46.5 -18q31 0 45.5 15t14.5 35q0 35 -42 51z
M92 649q0 -36 51 -56l17 -7q28 21 28 58q0 23 -12.5 39t-35.5 16t-35.5 -15.5t-12.5 -34.5z" />
    <glyph glyph-name="nine.sups" horiz-adv-x="280" 
d="M110 526q-38 0 -64 25t-26 65q0 42 30.5 69.5t83.5 27.5q128 0 128 -150q0 -67 -34.5 -106.5t-100.5 -39.5q-46 0 -97 13l29 81h2l40 -73q2 -5 12 -6q8 -1 16 -1q38 0 51.5 33t13.5 99v4q-38 -41 -84 -41zM132 548q30 0 62 29q-1 65 -14 93.5t-47 28.5q-46 0 -46 -80
q0 -71 45 -71z" />
    <glyph glyph-name="three.sups" horiz-adv-x="280" 
d="M258 502q0 -38 -34 -61.5t-97 -23.5q-58 0 -110 18l46 94h2l21 -88q2 -6 8 -7q14 -3 31 -3q30 0 49.5 19.5t19.5 51.5q0 66 -89 67v2q80 13 80 74q0 54 -53 54q-15 0 -22 -1q-8 -1 -12 -9l-37 -86h-2l-33 91q55 19 110 19q110 0 110 -69q0 -51 -72 -69v-2q84 -5 84 -71z
" />
    <glyph glyph-name="caronslovak" horiz-adv-x="201" 
d="M51 512h-1l9 191h92z" />
    <glyph glyph-name="zero.subs" horiz-adv-x="280" 
d="M140 277q-33 0 -44 -31t-11 -103t11 -103t44 -31q34 0 44.5 30.5t10.5 102.5q0 74 -10.5 104.5t-44.5 30.5zM140 291q61 0 92.5 -41t31.5 -108q0 -66 -31.5 -106.5t-92.5 -40.5q-60 0 -92 41t-32 107t32 107t92 41z" />
    <glyph glyph-name="one.subs" horiz-adv-x="240" 
d="M156 293v-252q0 -5 8 -8l66 -32v-2h-208v2l67 32q7 3 7 8v192q0 7 -7 9l-73 24v2z" />
    <glyph glyph-name="two.subs" horiz-adv-x="280" 
d="M247 209q0 -43 -36 -75t-127 -81v-2h101q17 0 25 7l39 38h2l-10 -97h-231v3q82 72 105 94q64 60 64 115q0 66 -63 66q-11 0 -16 -1q-8 -2 -11 -9l-37 -86h-2l-32 91q55 19 104 19q59 0 92 -21t33 -61z" />
    <glyph glyph-name="three.subs" horiz-adv-x="280" 
d="M258 80q0 -38 -34 -61.5t-97 -23.5q-58 0 -110 18l46 94h2l21 -88q2 -6 8 -7q13 -3 31 -3q30 0 49.5 19.5t19.5 51.5q0 66 -89 67v2q80 13 80 74q0 54 -53 54q-15 0 -22 -1q-8 -1 -12 -9l-37 -86h-2l-33 91q55 19 110 19q110 0 110 -69q0 -51 -72 -69v-2q84 -5 84 -71z
" />
    <glyph glyph-name="four.subs" horiz-adv-x="280" 
d="M88 -1v2l48 28q7 4 7 10v33h-143v2l155 213h48v-201h13q12 0 16 8l46 84h2l-7 -106h-70v-33q0 -5 7 -10l45 -28v-2h-167zM29 86h114v158z" />
    <glyph glyph-name="five.subs" horiz-adv-x="280" 
d="M61 235l-4 -84q44 29 93 29q51 0 79.5 -26t28.5 -64q0 -47 -34 -71t-94 -24q-61 0 -113 18l46 94h2l20 -84q2 -11 13 -12q20 -2 30 -2q29 0 47.5 21t18.5 54q0 66 -78 66q-35 0 -71 -16l-2 1l6 153q68 -2 102 -2q26 0 42 1q34 2 43 11l7 7h2l-4 -32q-5 -39 -32 -40
q-19 -1 -58 -1q-24 0 -90 3z" />
    <glyph glyph-name="six.subs" horiz-adv-x="280" 
d="M170 182q41 0 65.5 -24.5t24.5 -65.5t-31 -69t-83 -28q-64 0 -96 40t-32 110q0 67 34.5 106.5t100.5 39.5q46 0 97 -13l-29 -81h-2l-40 73q-2 5 -12 6q-8 1 -16 1q-38 0 -51.5 -33t-13.5 -99v-5q39 42 84 42zM148 160q-31 0 -62 -29q1 -66 14 -94t47 -28q46 0 46 80
q0 71 -45 71z" />
    <glyph glyph-name="seven.subs" horiz-adv-x="280" 
d="M139 -1h-78q95 171 148 242h-146q-13 0 -20 -8l-25 -30h-2l10 84h241l-31 -28q-7 -5 -10 -12q-9 -17 -17.5 -37.5t-19 -51.5l-15.5 -46.5l-18.5 -59.5t-16.5 -53z" />
    <glyph glyph-name="eight.subs" horiz-adv-x="280" 
d="M136 -5q-50 0 -82.5 21t-32.5 51q0 50 75 67q-59 26 -59 81q0 33 28 54.5t75 21.5q46 0 75 -20.5t29 -47.5q0 -50 -76 -62l32 -12q61 -24 61 -72q0 -34 -32 -58t-93 -24zM160 110l-55 21q-26 -21 -26 -60q0 -26 16.5 -44t46.5 -18q31 0 45.5 15t14.5 35q0 35 -42 51z
M92 227q0 -36 51 -56l17 -7q28 21 28 58q0 23 -12.5 39t-35.5 16t-35.5 -15.5t-12.5 -34.5z" />
    <glyph glyph-name="nine.subs" horiz-adv-x="280" 
d="M110 104q-38 0 -64 25t-26 65q0 42 30.5 69.5t83.5 27.5q128 0 128 -150q0 -67 -34.5 -106.5t-100.5 -39.5q-46 0 -97 13l29 81h2l40 -73q2 -5 12 -6q8 -1 16 -1q38 0 51.5 33t13.5 99v4q-38 -41 -84 -41zM132 126q30 0 62 29q-1 65 -14 93.5t-47 28.5q-46 0 -46 -80
q0 -71 45 -71z" />
    <glyph glyph-name="parenleft.sups" horiz-adv-x="177" 
d="M93 558q0 -135 74 -209l-1 -2q-66 26 -101 81.5t-35 129.5q0 75 35 130.5t101 81.5l1 -2q-74 -73 -74 -210z" />
    <glyph glyph-name="parenright.sups" horiz-adv-x="177" 
d="M84 558q0 137 -74 210l1 2q66 -26 101 -81.5t35 -130.5q0 -74 -35 -129.5t-101 -81.5l-1 2q74 74 74 209z" />
    <glyph glyph-name="parenleft.subs" horiz-adv-x="177" 
d="M93 145q0 -135 74 -209l-1 -2q-66 26 -101 81.5t-35 129.5q0 75 35 130.5t101 81.5l1 -2q-74 -73 -74 -210z" />
    <glyph glyph-name="parenright.subs" horiz-adv-x="177" 
d="M84 145q0 137 -74 210l1 2q66 -26 101 -81.5t35 -130.5q0 -74 -35 -129.5t-101 -81.5l-1 2q74 74 74 209z" />
    <glyph glyph-name="endash.case" horiz-adv-x="500" 
d="M495 339h-490v17h490v-17z" />
    <glyph glyph-name="emdash.case" horiz-adv-x="1000" 
d="M995 339h-990v17h990v-17z" />
    <glyph glyph-name="parenleft.case" horiz-adv-x="318" 
d="M53 344q0 253 149 382q45 39 104 64l2 -2q-48 -40 -81 -94q-80 -132 -80 -350t80 -350q33 -54 81 -94l-2 -2q-59 25 -104 64q-149 129 -149 382z" />
    <glyph glyph-name="parenright.case" horiz-adv-x="318" 
d="M265 344q0 -253 -149 -382q-45 -39 -104 -64l-2 2q48 40 81 94q80 132 80 350t-80 350q-33 54 -81 94l2 2q59 -25 104 -64q149 -129 149 -382z" />
    <glyph glyph-name="bracketleft.case" horiz-adv-x="340" 
d="M160 705v-721q0 -9 1.5 -11t10.5 -4l158 -43v-2l-250 -15v871l250 -15v-2l-158 -43q-9 -2 -10.5 -4t-1.5 -11z" />
    <glyph glyph-name="bracketright.case" horiz-adv-x="340" 
d="M180 -16v721q0 9 -1.5 11t-10.5 4l-158 43v2l250 15v-871l-250 15v2l158 43q9 2 10.5 4t1.5 11z" />
    <glyph glyph-name="braceleft.case" horiz-adv-x="351" 
d="M276 -90q-71 0 -127 51t-46 130l20 170q4 33 -20 56t-68 27v2q44 4 68 27t20 56l-20 170q-10 79 46 130t127 51q31 0 65 -8v-2q-81 6 -119.5 -43t-32.5 -105l19 -173q4 -37 -18.5 -65t-55.5 -38v-2q33 -10 55.5 -38t18.5 -65l-19 -173q-6 -56 32.5 -105t119.5 -43v-2
q-34 -8 -65 -8z" />
    <glyph glyph-name="braceright.case" horiz-adv-x="351" 
d="M75 780q71 0 127 -51t46 -130l-20 -170q-4 -33 20 -56t68 -27v-2q-44 -4 -68 -27t-20 -56l20 -170q10 -79 -46 -130t-127 -51q-31 0 -65 8v2q81 -6 119.5 43t32.5 105l-19 173q-4 37 18.5 65t55.5 38v2q-33 10 -55.5 38t-18.5 65l19 173q6 56 -32.5 105t-119.5 43v2
q34 8 65 8z" />
    <glyph glyph-name="slash.case" horiz-adv-x="380" 
d="M347 791l-297 -885l-17 6l297 885z" />
    <glyph glyph-name="bar.case" horiz-adv-x="218" 
d="M118 -180h-18v1000h18v-1000z" />
    <glyph glyph-name="backslash.case" horiz-adv-x="380" 
d="M330 -94l-297 885l17 6l297 -885z" />
    <glyph glyph-name="guilsinglleft.case" horiz-adv-x="263" 
d="M30 341l202 199l1 -1l-98 -199l98 -199l-1 -1l-202 199v2z" />
    <glyph glyph-name="guilsinglright.case" horiz-adv-x="263" 
d="M233 339l-202 -199l-1 1l98 199l-98 199l1 1l202 -199v-2z" />
    <glyph glyph-name="guillemotleft.case" horiz-adv-x="433" 
d="M30 341l202 199l1 -1l-98 -199l98 -199l-1 -1l-202 199v2zM200 341l202 199l1 -1l-98 -199l98 -199l-1 -1l-202 199v2z" />
    <glyph glyph-name="guillemotright.case" horiz-adv-x="433" 
d="M233 339l-202 -199l-1 1l98 199l-98 199l1 1l202 -199v-2zM403 339l-202 -199l-1 1l98 199l-98 199l1 1l202 -199v-2z" />
    <glyph glyph-name="exclamdown.case" horiz-adv-x="230" 
d="M119 490l61 -489h-130l67 489h2zM178 650q0 -27 -18 -45.5t-44 -18.5q-27 0 -45 18.5t-18 45.5q0 26 18 44t45 18q26 0 44 -18t18 -44z" />
    <glyph glyph-name="questiondown.case" horiz-adv-x="438" 
d="M241 496q57 -31 57 -85q0 -20 -11.5 -42t-22.5 -34.5l-34 -38.5l-56 -61q-51 -55 -51 -116q0 -49 32 -79t83 -30q23 0 40 4q14 3 17 5.5t7 11.5l66 157h2l53 -149q-93 -45 -199 -45q-85 0 -140.5 39t-55.5 108q0 66 72 136l83 83q38 38 51 65.5t6 68.5zM312 653
q0 -27 -18 -45.5t-44 -18.5q-27 0 -45 18.5t-18 45.5q0 26 18 44t45 18q26 0 44 -18t18 -44z" />
    <glyph glyph-name="hyphen.case" horiz-adv-x="351" 
d="M46 339v18h260v-18h-260z" />
    <glyph glyph-name="smiley" horiz-adv-x="818" 
d="M409 713q157 0 258 -100.5t101 -260.5q0 -155 -99.5 -258.5t-259.5 -103.5q-162 0 -260.5 103.5t-98.5 258.5q0 153 104.5 257t254.5 104zM68 352q0 -148 93.5 -246.5t247.5 -98.5q152 0 246.5 98.5t94.5 246.5q0 152 -96 248t-245 96q-143 0 -242 -99t-99 -245zM683 309
l2 -1q-10 -38 -42 -36q-6 -83 -70.5 -137t-163.5 -54t-163.5 54t-71.5 137q-32 -2 -42 36l2 1q13 -16 39 -16q15 0 29.5 8t19.5 22h2q1 -42 -34 -49q7 -76 66 -126t153 -50q93 0 151 49.5t67 125.5q-37 7 -34 50h2q11 -30 49 -30q26 0 39 16zM465 456q0 49 3.5 86t9 55.5
t12.5 18.5q26 0 26 -160q0 -154 -26 -154q-7 0 -12.5 18t-9 53.5t-3.5 82.5zM328 616q7 0 12.5 -18.5t9 -55.5t3.5 -86q0 -47 -3.5 -82.5t-9 -53.5t-12.5 -18q-26 0 -26 154q0 160 26 160z" />
    <glyph glyph-name="parenleft.salt" horiz-adv-x="275" 
d="M53 291q0 129 52.5 252.5t150.5 192.5l9 -13q-93 -67 -143.5 -186.5t-50.5 -245.5t50.5 -245.5t143.5 -186.5l-9 -13q-98 69 -150.5 192.5t-52.5 252.5z" />
    <glyph glyph-name="parenright.salt" horiz-adv-x="275" 
d="M222 291q0 -129 -52.5 -252.5t-150.5 -192.5l-9 13q93 67 143.5 186.5t50.5 245.5t-50.5 245.5t-143.5 186.5l9 13q98 -69 150.5 -192.5t52.5 -252.5z" />
    <glyph glyph-name="bracketleft.salt" horiz-adv-x="257" 
d="M247 -122v-17h-167v859h167v-17h-149v-825h149z" />
    <glyph glyph-name="bracketright.salt" horiz-adv-x="257" 
d="M10 -139v17h149v825h-149v17h167v-859h-167z" />
    <glyph glyph-name="braceleft.salt" horiz-adv-x="245" 
d="M141 219q0 -15 -7 -39l-44 -155q-10 -33 -10 -60q0 -89 100 -89q25 0 52 6l3 -16q-31 -7 -53 -7q-55 0 -87.5 26.5t-32.5 80.5q0 27 11 65l44 149q7 23 7 39q0 65 -89 65v17q89 0 89 65q0 16 -7 39l-44 149q-12 41 -12 65q0 55 32.5 81t88.5 26q22 0 53 -7l-3 -16
q-27 6 -52 6q-101 0 -101 -89q0 -24 11 -60l44 -155q7 -24 7 -39q0 -61 -60 -73v-1q60 -12 60 -73z" />
    <glyph glyph-name="braceright.salt" horiz-adv-x="245" 
d="M104 219q0 61 60 73v1q-60 12 -60 73q0 14 7 39l44 155q11 36 11 60q0 89 -101 89q-25 0 -52 -6l-3 16q31 7 53 7q56 0 88.5 -26t32.5 -81q0 -24 -12 -65l-44 -149q-7 -23 -7 -39q0 -65 89 -65v-17q-89 0 -89 -65q0 -16 7 -39l44 -149q11 -38 11 -65q0 -54 -32.5 -80.5
t-87.5 -26.5q-21 0 -53 7l3 16q27 -6 52 -6q100 0 100 89q0 27 -10 60l-44 155q-7 24 -7 39z" />
    <glyph glyph-name="guilsinglleft.salt" horiz-adv-x="269" 
d="M30 252l196 198l13 -12l-185 -186l185 -187l-13 -12z" />
    <glyph glyph-name="guilsinglright.salt" horiz-adv-x="269" 
d="M43 450l196 -198l-196 -199l-13 12l185 187l-185 186z" />
    <glyph glyph-name="guillemotleft.salt" horiz-adv-x="429" 
d="M30 252l196 198l13 -12l-185 -186l185 -187l-13 -12zM190 252l196 198l13 -12l-185 -186l185 -187l-13 -12z" />
    <glyph glyph-name="guillemotright.salt" horiz-adv-x="429" 
d="M399 252l-196 -198l-13 12l185 186l-185 187l13 12zM239 252l-196 -198l-13 12l185 186l-185 187l13 12z" />
    <glyph glyph-name="parenleft.salt.case" horiz-adv-x="275" 
d="M53 343q0 129 52.5 252.5t150.5 192.5l9 -13q-93 -67 -143.5 -186.5t-50.5 -245.5t50.5 -245.5t143.5 -186.5l-9 -13q-98 69 -150.5 192.5t-52.5 252.5z" />
    <glyph glyph-name="parenright.salt.case" horiz-adv-x="275" 
d="M222 343q0 -129 -52.5 -252.5t-150.5 -192.5l-9 13q93 67 143.5 186.5t50.5 245.5t-50.5 245.5t-143.5 186.5l9 13q98 -69 150.5 -192.5t52.5 -252.5z" />
    <glyph glyph-name="bracketleft.salt.case" horiz-adv-x="257" 
d="M247 -70v-17h-167v859h167v-17h-149v-825h149z" />
    <glyph glyph-name="bracketright.salt.case" horiz-adv-x="257" 
d="M10 -87v17h149v825h-149v17h167v-859h-167z" />
    <glyph glyph-name="braceleft.salt.case" horiz-adv-x="245" 
d="M182 -89q-55 0 -87.5 26.5t-32.5 80.5q0 27 11 65l44 149q7 23 7 39q0 65 -89 65v17q89 0 89 65q0 16 -7 39l-44 149q-12 41 -12 65q0 55 32.5 81t88.5 26q22 0 53 -7l-3 -16q-27 6 -52 6q-101 0 -101 -89q0 -24 11 -60l44 -155q7 -25 7 -39q0 -61 -60 -73v-1
q60 -12 60 -73q0 -15 -7 -39l-44 -155q-10 -33 -10 -60q0 -89 100 -89q25 0 52 6l3 -16q-31 -7 -53 -7z" />
    <glyph glyph-name="braceright.salt.case" horiz-adv-x="245" 
d="M63 -89q-21 0 -53 7l3 16q27 -6 52 -6q100 0 100 89q0 27 -10 60l-44 155q-7 24 -7 39q0 61 60 73v1q-60 12 -60 73q0 14 7 39l44 155q11 36 11 60q0 89 -101 89q-25 0 -52 -6l-3 16q31 7 53 7q56 0 88.5 -26t32.5 -81q0 -24 -12 -65l-44 -149q-7 -23 -7 -39
q0 -65 89 -65v-17q-89 0 -89 -65q0 -16 7 -39l44 -149q11 -38 11 -65q0 -54 -32.5 -80.5t-87.5 -26.5z" />
    <glyph glyph-name="guilsinglleft.salt.case" horiz-adv-x="269" 
d="M30 342l196 198l13 -12l-185 -186l185 -187l-13 -12z" />
    <glyph glyph-name="guilsinglright.salt.case" horiz-adv-x="269" 
d="M43 540l196 -198l-196 -199l-13 12l185 187l-185 186z" />
    <glyph glyph-name="guillemotleft.salt.case" horiz-adv-x="429" 
d="M30 342l196 198l13 -12l-185 -186l185 -187l-13 -12zM190 342l196 198l13 -12l-185 -186l185 -187l-13 -12z" />
    <glyph glyph-name="guillemotright.salt.case" horiz-adv-x="429" 
d="M399 342l-196 -198l-13 12l185 186l-185 187l13 12zM239 342l-196 -198l-13 12l185 186l-185 187l13 12z" />
    <glyph glyph-name="jacute" horiz-adv-x="259" 
d="M-1 -213q-21 0 -38 4v2q66 6 99 52t33 150v417q0 15 -11 23l-68 50v2h174v-467q0 -101 -47.5 -167t-141.5 -66zM165 703h121v-2l-208 -161l-2 2z" />
    <glyph glyph-name="Jacute" horiz-adv-x="308" 
d="M206 634v-607q0 -102 -61 -162t-160 -76l-1 2q62 29 90 91.5t28 141.5v610q0 13 -13 20l-86 47v2h302v-2l-86 -47q-9 -5 -11 -8.5t-2 -11.5zM181 919h121v-2l-208 -161l-2 2z" />
    <glyph glyph-name="Iacute_Jacute" horiz-adv-x="646" 
d="M221 69q0 -9 2 -12.5t11 -7.5l86 -47v-2h-302v2l86 47q13 7 13 20v565q0 13 -13 20l-86 47v2h302v-2l-86 -47q-9 -5 -11 -8.5t-2 -11.5v-565zM196 919h121v-2l-208 -161l-2 2zM544 634v-607q0 -102 -61 -162t-160 -76l-1 2q62 29 90 91.5t28 141.5v610q0 13 -13 20
l-86 47v2h302v-2l-86 -47q-9 -5 -11 -8.5t-2 -11.5zM519 919h121v-2l-208 -161l-2 2z" />
    <glyph glyph-name="i.trk" horiz-adv-x="285" 
d="M142 562q-25 0 -42 17.5t-17 41.5q0 26 17 43.5t42 17.5t42.5 -17.5t17.5 -43.5q0 -24 -17.5 -41.5t-42.5 -17.5zM23 487h174v-423q0 -14 12 -21l67 -41v-2h-253v2l68 40q11 6 11 22v348q0 15 -11 23l-68 50v2z" />
    </font>
</defs>
</svg>
